<?xml version="1.0" encoding="utf-8"?>
<!-- Generator: Adobe Illustrator 21.0.2, SVG Export Plug-In . SVG Version: 6.00 Build 0)  -->
<svg version="1.1" id="Web_Design" xmlns="http://www.w3.org/2000/svg" xmlns:xlink="http://www.w3.org/1999/xlink" x="0px" y="0px"
	 viewBox="0 0 1200 1200" style="enable-background:new 0 0 1200 1200;" xml:space="preserve">
<style type="text/css">
	.st0{fill:#D0D2D4;}
	.st1{fill:#7AE2CF;}
	.st2{fill:#34465C;}
	.st3{fill:#34404F;}
	.st4{fill:none;stroke:#6E7F8F;stroke-width:27;stroke-miterlimit:10;}
	.st5{fill:#668284;}
	.st6{fill:#6E7F8F;}
	.st7{fill:#FFFFFF;}
	.st8{font-family:'Cocon-Regular';}
	.st9{font-size:60.9956px;}
	.st10{fill:#FFDB79;}
	.st11{fill:#80DCBE;}
	.st12{opacity:0.4;enable-background:new    ;}
	.st13{opacity:0.3;enable-background:new    ;}
	.st14{opacity:0.2;enable-background:new    ;}
	.st15{fill:#08C6A2;}
	.st16{fill:#E2B3B3;}
	.st17{opacity:0.2;}
	.st18{opacity:0.6;}
</style>
<title>Artboard 1</title>
<polygon class="st0" points="155.2,552.6 188.1,519.7 155.2,520.2 "/>
<path class="st1" d="M880.1,1048.9H128.2c-36,0-65.2-29.2-65.2-65.2l0,0V257.3c0-74,60-134.1,134-134.1h805.9c74,0,134,60,134,134.1
	c0,0,0,0,0,0l0,0v534.6C1137,933.8,1022,1048.8,880.1,1048.9C880.2,1048.9,880.1,1048.9,880.1,1048.9z"/>
<path class="st2" d="M447.2,671.7H206.9c-6,0-10.8,4.8-10.8,10.8l0,0c0,34,27.5,61.5,61.5,61.5c0,0,0,0,0,0h138.7
	c34,0,61.5-27.5,61.5-61.5l0,0l0,0C457.9,676.5,453.1,671.7,447.2,671.7z"/>
<rect x="168.5" y="668.8" class="st3" width="312" height="17.6"/>
<path class="st2" d="M1015.2,671.7H775c-6,0-10.8,4.8-10.8,10.8l0,0c0,34,27.5,61.5,61.5,61.5c0,0,0,0,0,0h138.7
	c34,0,61.5-27.5,61.5-61.5c0,0,0,0,0,0l0,0C1026,676.5,1021.2,671.7,1015.2,671.7z"/>
<rect x="736.6" y="668.8" class="st3" width="312" height="17.6"/>
<path class="st4" d="M327.8,743.9c0,0-6.1,64.7,87.9,64.7h204"/>
<rect x="293.5" y="743.9" class="st3" width="67.5" height="15"/>
<path class="st4" d="M905.6,743.9c0,0,6.1,64.7-87.9,64.7h-204"/>
<rect x="872.5" y="743.9" class="st3" width="67.5" height="15"/>
<path class="st3" d="M614.8,734.9h9.5c26.9,0,48.7,21.8,48.7,48.7l0,0v107.5c0,4.4-3.5,7.9-7.9,7.9h-87c-4.4,0-7.9-3.5-7.9-7.9
	V779.5C570.2,754.9,590.1,734.9,614.8,734.9z"/>
<rect x="594.7" y="899" class="st5" width="53.8" height="24"/>
<rect x="472.3" y="923" class="st6" width="298.4" height="29.4"/>
<rect x="460" y="952.3" class="st3" width="323.1" height="18.1"/>
<text transform="matrix(1 0 0 1 72.5815 559.243)" class="st7 st8 st9">СЕМАНТИЧЕСКАЯ</text>
<text transform="matrix(1 0 0 1 199.0903 632.4373)" class="st7 st8 st9">ВЕРСТКА</text>
<path class="st10" d="M559.8,627.4v-10.6c0-6.6,6.8-12,18.6-12h109.7v11c0,5.6-8.5,11.7-18.6,11.7L559.8,627.4z M559.8,671v-10.6
	c0-6.6,6.8-11.7,18.6-11.7h109.7v10.6c0,6.8-8.5,11.7-18.6,11.7H559.8z"/>
<path class="st10" d="M560.1,707.7l-5-5.4c-3.1-3.3,1.9-12.8,14.5-24.5l118.2-109.7l5,5.4c3.2,3.4-3.6,14.4-14.5,24.5L560.1,707.7z"
	/>
<text transform="matrix(1 0 0 1 713.7798 559.243)" class="st7 st8 st9">ПРАВИЛЬНАЯ</text>
<text transform="matrix(1 0 0 1 780.2427 632.4373)" class="st7 st8 st9">ВЕРСТКА</text>
<path class="st11" d="M664.6,452.1l-23.5-13.6l-1.7-1c-2.5-1.4-5.5-1.9-8.3-1.2c-2.4,0.5-4.7,1.3-6.8,2.6c-0.3,0.2-0.7,0.4-1,0.7
	c-6.3,4.3-11.4,10.2-14.7,17.1c-4.2,7.6-6.4,16.2-6.5,24.9c0,8.2,2.2,14,6.6,17.3c0.4,0.3,0.9,0.6,1.4,0.9
	c4.1,2.3,24.7,14.3,25.1,14.5l0,0c-0.5-0.3-1-0.6-1.4-0.9c-4.4-3.3-6.6-9.1-6.6-17.3c0.1-8.7,2.4-17.3,6.6-24.9
	c3.5-7.3,9-13.5,15.8-17.8c5.9-3.4,10.9-3.8,15.2-1.3L664.6,452.1z"/>
<path class="st12" d="M664.8,452.2c-4.3-2.5-9.3-2-15.2,1.3c-6.3,3.9-11.4,9.5-14.8,16.1l-25.2-14.6c3.2-6.2,8-11.5,13.8-15.4
	c0.3-0.2,0.7-0.5,1-0.7c2.1-1.3,4.4-2.2,6.8-2.6c2.8-0.6,5.8-0.2,8.3,1.2l1.7,1l23.5,13.6L664.8,452.2z"/>
<path class="st13" d="M635.3,514.3L635.3,514.3l-25.1-14.5c-0.5-0.3-0.9-0.6-1.4-0.9c-4.4-3.3-6.6-9.1-6.6-17.3
	c0.1-8.7,2.3-17.2,6.5-24.9c0.3-0.6,0.6-1.2,0.9-1.7l25.2,14.5c-0.3,0.5-0.6,1.1-0.9,1.7c-4.2,7.6-6.4,16.2-6.5,24.9
	c0,8.2,2.2,14,6.6,17.3C634.4,513.7,634.9,514,635.3,514.3z"/>
<path class="st11" d="M653.7,239.4c12.2-7.1,22.6-10.1,31.2-9c3.5,0.4,6.9,1.5,9.9,3.3l-0.2-0.2c-3-1.7-20.7-11.9-24.9-14.3
	c-3.1-1.8-6.5-3-10.1-3.4c-8.6-1.1-19,2-31.2,9c-19,11-34.3,27.1-45.9,48.3c-11.2,19.9-17.1,42.3-17.2,65.1l25.2,14.5
	c0-22.8,5.9-45.3,17.2-65.1C619.3,266.4,634.7,250.3,653.7,239.4z"/>
<path class="st14" d="M694.6,233.6c-3-1.7-6.3-2.7-9.7-3.2c-8.6-1.1-19,2-31.2,9c-19,11-34.3,27.1-45.9,48.3
	c-0.5,0.9-0.9,1.8-1.4,2.6l-25.2-14.5c0.5-0.9,0.9-1.8,1.4-2.6c11.6-21.3,26.9-37.4,45.9-48.3c12.2-7,22.6-10.1,31.2-9
	c3.6,0.4,7,1.6,10.1,3.4C673.9,221.7,691.6,231.9,694.6,233.6z"/>
<path class="st13" d="M606.3,290.4c-10.4,19.2-15.8,40.7-15.8,62.5l-25.2-14.5c0-21.8,5.4-43.3,15.8-62.5L606.3,290.4z"/>
<path class="st11" d="M670.8,280.6c-4.5-2.4-10.6-1.5-18.3,2.8c-0.3,4.5-1.2,9-2.8,13.3c-1.9,5.2-7.5,15.8-16.6,31.8
	c-8.8,15-15.8,31-20.7,47.7c-4.2,14.9-6.4,30.4-6.4,45.9l0.1,7.7l17.2,9.9l8,4.5l-0.1-7.7v-0.2c0-15.5,2.2-30.8,6.4-45.7
	c4.9-16.7,11.9-32.6,20.7-47.6c9.2-16.1,14.7-26.7,16.6-31.8c1.9-5.1,2.9-10.4,2.9-15.8C677.7,288,675.4,283.1,670.8,280.6z"/>
<path class="st13" d="M672.3,316.9c-2.8,5.9-7.6,14.6-14.2,26.2c-8.8,15-15.8,30.9-20.7,47.6c-4.2,14.9-6.3,30.3-6.4,45.7v0.2
	l0.1,7.7l-8-4.5L606,430l-0.1-7.7c0-15.5,2.2-30.9,6.4-45.9c4.9-16.7,11.9-32.6,20.7-47.6c6.6-11.6,11.3-20.3,14.2-26.2L672.3,316.9
	z"/>
<path class="st12" d="M677.7,295.4c0,5.4-1,10.8-2.9,15.8c-0.5,1.5-1.4,3.4-2.5,5.6l-25.2-14.5c1.1-2.3,1.9-4.2,2.5-5.6
	c1.6-4.3,2.5-8.7,2.8-13.3c7.6-4.3,13.7-5.3,18.3-2.8C675.3,283,677.6,288,677.7,295.4z"/>
<path class="st15" d="M624.6,333.2l-34.1,19.7c0-22.8,5.9-45.3,17.2-65.1c11.6-21.3,26.9-37.4,45.9-48.3c12.2-7.1,22.6-10.1,31.2-9
	c8.6,1,15.5,5.7,20.6,14.1c5.2,8.4,7.7,18.8,7.7,31.3c-0.1,7.3-0.9,14.5-2.5,21.6c-1.9,8.5-4.6,16.8-7.8,24.9
	c-4.5,10-9.5,19.7-15,29.1c-5.2,8.9-10,18.1-14.2,27.5c-2.1,5.8-3.7,11.7-4.7,17.8c-1.5,9.1-2.3,18.2-2.5,27.4l-35.3,20.3l-0.1-7.7
	c0-15.5,2.2-30.9,6.4-45.9c4.9-16.7,11.9-32.6,20.7-47.6c9.2-16.1,14.7-26.7,16.6-31.8c1.9-5.1,2.8-10.4,2.8-15.8
	c0-7.4-2.3-12.4-7-14.8c-4.6-2.4-10.9-1.5-18.7,2.8c-8.3,5-15.1,12.1-19.7,20.7C627.4,313.2,624.8,323.1,624.6,333.2z"/>
<path class="st15" d="M649.5,453.6c6.3-3.7,11.7-3.9,16.2-0.7c4.5,3.2,6.7,8.9,6.8,17.1c-0.1,8.7-2.4,17.2-6.6,24.9
	c-3.5,7.4-9.1,13.7-16,18.1c-6.3,3.6-11.6,3.8-15.9,0.5c-4.4-3.3-6.6-9.1-6.6-17.3c0.1-8.7,2.3-17.2,6.5-24.9
	C637.3,464,642.7,457.9,649.5,453.6z"/>
<path class="st16" d="M281.1,284.9c4.3-0.8,8.8-1,13.2-0.6c4.2,0.4,8.3,1.5,12.1,3.3c3.6,1.7,6.9,4.3,9.4,7.4
	c2.7,3.3,4.5,7.3,5.2,11.6c0.7,3.3,0.7,6.8,0,10.1c-0.6,2.9-1.7,5.7-3.1,8.3c-1.4,2.5-3,4.9-4.8,7.1l-5.1,6.3c-1.5,1.9-2.9,4-4,6.1
	c-1.1,1.9-1.6,4.1-1.5,6.2c0,1-0.2,2.1-0.7,3c-0.5,0.8-1.3,1.4-2.3,1.6l-10.6,2c-1,0.2-2.1,0-2.9-0.6c-0.9-0.5-1.5-1.4-1.6-2.5
	c-0.5-3.3-0.3-6.8,0.5-10c0.8-2.9,2-5.7,3.5-8.4c1.5-2.5,3.1-4.9,5-7.1c1.9-2.2,3.6-4.3,5.1-6.3c1.4-1.8,2.7-3.7,3.7-5.8
	c0.9-1.8,1.2-3.8,0.8-5.7c-0.6-3.5-2.9-6.4-6.1-7.9c-3.9-1.8-8.4-2.2-12.6-1.2c-7.9,1.5-13,6.6-15.3,15.2c-0.2,0.9-0.5,1.8-1,2.6
	c-0.6,0.7-1.5,1.2-2.4,1.3l-11.3,2.1c-0.8,0.1-1.6,0-2.3-0.4c-0.7-0.5-1.2-1.2-1.3-2.1c-0.5-3.6-0.1-7.2,1.1-10.6
	c1.3-3.9,3.2-7.6,5.8-10.8c2.9-3.5,6.3-6.6,10.1-9C271.8,287.5,276.3,285.7,281.1,284.9z M301.8,363.4c2.1-0.4,4.1,1,4.5,3.1
	l2.3,12.3c0.4,2.1-1,4.1-3.1,4.5l-12,2.3c-2.1,0.4-4.1-1-4.5-3.1l-2.3-12.3c-0.4-2.1,1-4.1,3.1-4.5L301.8,363.4z"/>
<path class="st11" d="M395.9,335.8c2.7,1.5,5.1,3.3,7.3,5.5c2.1,2.1,3.7,4.5,4.9,7.1c1.1,2.5,1.7,5.3,1.7,8.1c0,3-0.8,5.9-2.3,8.4
	c-1.1,2.1-2.7,3.9-4.5,5.4c-1.6,1.3-3.4,2.3-5.3,3c-1.9,0.7-3.8,1.3-5.7,1.6l-5.5,1.1c-1.7,0.3-3.3,0.8-4.8,1.4
	c-1.4,0.5-2.6,1.4-3.5,2.6c-0.4,0.5-1,1-1.7,1.2c-0.6,0.2-1.3,0.2-1.9-0.2l-6.5-3.6c-0.6-0.4-1.1-0.9-1.3-1.6
	c-0.2-0.7-0.1-1.4,0.3-2c1.2-2,2.8-3.7,4.7-5.1c1.7-1.2,3.6-2.2,5.6-2.9c1.9-0.7,3.8-1.2,5.8-1.5c2-0.3,3.8-0.7,5.5-1.1
	c1.6-0.3,3.1-0.8,4.5-1.4c1.3-0.5,2.3-1.5,3-2.7c1.2-2.1,1.3-4.7,0.2-6.9c-1.3-2.7-3.5-4.9-6.1-6.2c-4.7-2.7-10.7-2.2-14.8,1.3
	c-0.5,0.4-1.1,0.7-1.7,0.9c-0.6,0.1-1.3,0-1.9-0.4l-7-3.9c-0.5-0.3-0.9-0.7-1-1.3c-0.2-0.6-0.1-1.2,0.2-1.7c1.3-2.1,3.1-3.9,5.3-5.1
	c2.4-1.5,5.1-2.5,7.9-3c3.1-0.6,6.2-0.7,9.3-0.3C389.8,333,393,334.1,395.9,335.8z M372.1,386.5c1.3,0.7,1.7,2.3,1,3.6l-4.2,7.6
	c-0.7,1.3-2.3,1.7-3.6,1l-7.4-4.1c-1.3-0.7-1.7-2.3-1-3.6l4.2-7.6c0.7-1.3,2.3-1.7,3.6-1L372.1,386.5z"/>
<g class="st17">
	<path d="M395.9,335.8c2.7,1.5,5.1,3.3,7.3,5.5c2.1,2.1,3.7,4.5,4.9,7.1c1.1,2.5,1.7,5.3,1.7,8.1c0,3-0.8,5.9-2.3,8.4
		c-1.1,2.1-2.7,3.9-4.5,5.4c-1.6,1.3-3.4,2.3-5.3,3c-1.9,0.7-3.8,1.3-5.7,1.6l-5.5,1.1c-1.7,0.3-3.3,0.8-4.8,1.4
		c-1.4,0.5-2.6,1.4-3.5,2.6c-0.4,0.5-1,1-1.7,1.2c-0.6,0.2-1.3,0.2-1.9-0.2l-6.5-3.6c-0.6-0.4-1.1-0.9-1.3-1.6
		c-0.2-0.7-0.1-1.4,0.3-2c1.2-2,2.8-3.7,4.7-5.1c1.7-1.2,3.6-2.2,5.6-2.9c1.9-0.7,3.8-1.2,5.8-1.5c2-0.3,3.8-0.7,5.5-1.1
		c1.6-0.3,3.1-0.8,4.5-1.4c1.3-0.5,2.3-1.5,3-2.7c1.2-2.1,1.3-4.7,0.2-6.9c-1.3-2.7-3.5-4.9-6.1-6.2c-4.7-2.7-10.7-2.2-14.8,1.3
		c-0.5,0.4-1.1,0.7-1.7,0.9c-0.6,0.1-1.3,0-1.9-0.4l-7-3.9c-0.5-0.3-0.9-0.7-1-1.3c-0.2-0.6-0.1-1.2,0.2-1.7
		c1.3-2.1,3.1-3.9,5.3-5.1c2.4-1.5,5.1-2.5,7.9-3c3.1-0.6,6.2-0.7,9.3-0.3C389.8,333,393,334.1,395.9,335.8z M372.1,386.5
		c1.3,0.7,1.7,2.3,1,3.6l-4.2,7.6c-0.7,1.3-2.3,1.7-3.6,1l-7.4-4.1c-1.3-0.7-1.7-2.3-1-3.6l4.2-7.6c0.7-1.3,2.3-1.7,3.6-1
		L372.1,386.5z"/>
</g>
<path class="st11" d="M236.8,418.7c1.3-1.2,3.3-1.1,4.5,0.1c0,0,0,0,0,0l0,0l7,7.5c1.2,1.3,1.1,3.3-0.1,4.5c0,0,0,0,0,0l0,0
	l-7.4,6.8c-1.3,1.2-3.3,1.1-4.5-0.1c0,0,0,0,0,0l0,0l-7-7.5c-1.2-1.3-1.1-3.3,0.1-4.5c0,0,0,0,0,0l0,0L236.8,418.7z M188.4,373.2
	c2.6-2.5,5.6-4.6,8.9-6.2c3.1-1.6,6.4-2.6,9.8-3c3.3-0.4,6.6,0,9.7,1c3.3,1.1,6.3,3.1,8.7,5.8c2,2,3.5,4.3,4.5,6.9
	c0.8,2.3,1.3,4.7,1.4,7.1c0.1,2.4,0.1,4.7-0.2,7l-0.8,6.6c-0.2,2-0.3,4-0.2,6c0.1,1.8,0.6,3.5,1.6,5c0.4,0.7,0.7,1.5,0.7,2.3
	c0,0.8-0.3,1.6-0.9,2.1l-6.5,6c-0.6,0.6-1.4,0.9-2.3,0.9c-0.9,0.1-1.7-0.3-2.3-1c-1.8-2.1-3.1-4.6-3.9-7.3c-0.7-2.4-1.1-4.8-1.2-7.3
	c-0.1-2.4,0.1-4.8,0.4-7.1c0.3-2.3,0.6-4.5,0.8-6.6c0.2-1.9,0.2-3.7,0-5.6c-0.2-1.6-0.8-3.1-1.9-4.3c-1.9-2.1-4.8-3.2-7.7-2.8
	c-3.5,0.4-6.7,2-9.2,4.5c-4.8,4.5-6.2,10.2-4,17.2c0.3,0.7,0.4,1.5,0.4,2.3c-0.1,0.8-0.5,1.5-1.2,1.9l-6.9,6.4
	c-0.5,0.5-1.1,0.7-1.8,0.7c-0.7,0-1.4-0.3-1.8-0.9c-1.9-2.2-3.2-4.8-3.8-7.7c-0.8-3.3-0.9-6.7-0.5-10c0.5-3.7,1.5-7.2,3.1-10.5
	C183.1,379,185.5,375.8,188.4,373.2L188.4,373.2z"/>
<g class="st18">
	<path class="st7" d="M236.8,418.7c1.3-1.2,3.3-1.1,4.5,0.1c0,0,0,0,0,0l0,0l7,7.5c1.2,1.3,1.1,3.3-0.1,4.5c0,0,0,0,0,0l0,0
		l-7.4,6.8c-1.3,1.2-3.3,1.1-4.5-0.1c0,0,0,0,0,0l0,0l-7-7.5c-1.2-1.3-1.1-3.3,0.1-4.5c0,0,0,0,0,0l0,0L236.8,418.7z M188.4,373.2
		c2.6-2.5,5.6-4.6,8.9-6.2c3.1-1.6,6.4-2.6,9.8-3c3.3-0.4,6.6,0,9.7,1c3.3,1.1,6.3,3.1,8.7,5.8c2,2,3.5,4.3,4.5,6.9
		c0.8,2.3,1.3,4.7,1.4,7.1c0.1,2.4,0.1,4.7-0.2,7l-0.8,6.6c-0.2,2-0.3,4-0.2,6c0.1,1.8,0.6,3.5,1.6,5c0.4,0.7,0.7,1.5,0.7,2.3
		c0,0.8-0.3,1.6-0.9,2.1l-6.5,6c-0.6,0.6-1.4,0.9-2.3,0.9c-0.9,0.1-1.7-0.3-2.3-1c-1.8-2.1-3.1-4.6-3.9-7.3
		c-0.7-2.4-1.1-4.8-1.2-7.3c-0.1-2.4,0.1-4.8,0.4-7.1c0.3-2.3,0.6-4.5,0.8-6.6c0.2-1.9,0.2-3.7,0-5.6c-0.2-1.6-0.8-3.1-1.9-4.3
		c-1.9-2.1-4.8-3.2-7.7-2.8c-3.5,0.4-6.7,2-9.2,4.5c-4.8,4.5-6.2,10.2-4,17.2c0.3,0.7,0.4,1.5,0.4,2.3c-0.1,0.8-0.5,1.5-1.2,1.9
		l-6.9,6.4c-0.5,0.5-1.1,0.7-1.8,0.7c-0.7,0-1.4-0.3-1.8-0.9c-1.9-2.2-3.2-4.8-3.8-7.7c-0.8-3.3-0.9-6.7-0.5-10
		c0.5-3.7,1.5-7.2,3.1-10.5C183.1,379,185.5,375.8,188.4,373.2L188.4,373.2z"/>
</g>
<path class="st16" d="M872.2,292.4c4.3,0.9,8.5,2.4,12.3,4.5c3.7,2,7,4.6,9.8,7.8c2.7,3.1,4.7,6.7,5.8,10.7
	c1.2,4.1,1.3,8.5,0.2,12.7c-0.7,3.3-2,6.5-3.9,9.3c-1.7,2.4-3.8,4.6-6.1,6.4c-2.3,1.8-4.7,3.3-7.3,4.7l-7.2,3.8
	c-2.2,1.1-4.2,2.5-6.1,4c-1.7,1.3-3.1,3.1-3.8,5.1c-0.4,0.9-1,1.7-1.8,2.3c-0.8,0.6-1.8,0.8-2.8,0.6l-10.6-2.3
	c-1-0.2-1.9-0.8-2.5-1.7c-0.6-0.8-0.8-1.9-0.5-2.9c0.9-3.3,2.4-6.4,4.5-9c1.9-2.4,4.1-4.5,6.5-6.3c2.3-1.7,4.8-3.2,7.4-4.5
	c2.6-1.3,5-2.5,7.2-3.8c2-1.1,3.9-2.4,5.7-3.9c1.5-1.3,2.6-3,3-5c0.8-3.4-0.2-7-2.5-9.6c-2.9-3.2-6.8-5.3-11.1-6
	c-7.9-1.7-14.6,0.9-20,8c-0.5,0.8-1.2,1.4-2,2c-0.9,0.4-1.8,0.5-2.8,0.2l-11.3-2.5c-0.8-0.2-1.5-0.6-2-1.3c-0.5-0.7-0.6-1.6-0.4-2.4
	c0.9-3.5,2.7-6.7,5.2-9.3c2.8-3.1,6-5.6,9.7-7.5c4-2.1,8.3-3.5,12.8-4.2C862.6,291.3,867.5,291.4,872.2,292.4z M860.2,372.7
	c2,0.5,3.3,2.5,2.9,4.5l-2.7,12.2c-0.5,2-2.5,3.3-4.5,2.9l-12-2.6c-2-0.5-3.3-2.5-2.9-4.5l2.7-12.2c0.5-2,2.5-3.3,4.5-2.9
	L860.2,372.7z"/>
<path class="st11" d="M907.7,407.6c3-0.5,6-0.5,9-0.2c2.9,0.3,5.7,1.2,8.3,2.5c2.5,1.3,4.7,3.1,6.4,5.2c1.8,2.3,3,5.1,3.4,8.1
	c0.5,2.3,0.5,4.7,0,7c-0.5,2-1.2,3.9-2.3,5.6c-1,1.7-2.2,3.3-3.5,4.9l-3.6,4.3c-1.1,1.3-2.1,2.7-2.9,4.1c-0.8,1.3-1.2,2.8-1.2,4.3
	c0,0.7-0.2,1.4-0.6,2c-0.4,0.6-1,1-1.6,1.1l-7.5,1.2c-0.7,0.1-1.4-0.1-2-0.5c-0.6-0.4-1-1-1-1.7c-0.3-2.3-0.1-4.7,0.5-6.9
	c0.6-2,1.5-3.9,2.6-5.7c1.1-1.7,2.3-3.3,3.6-4.8c1.3-1.5,2.5-2.9,3.6-4.2c1-1.2,1.9-2.5,2.6-3.9c0.6-1.2,0.9-2.6,0.7-4
	c-0.4-2.4-1.9-4.5-4.1-5.6c-2.7-1.3-5.7-1.7-8.7-1.1c-5.4,0.8-9.7,4.9-10.8,10.2c-0.2,0.6-0.4,1.2-0.8,1.8c-0.4,0.5-1.1,0.8-1.7,0.8
	l-7.9,1.3c-0.6,0.1-1.1,0-1.6-0.3c-0.5-0.3-0.8-0.9-0.9-1.4c-0.3-2.5,0-5,0.9-7.3c1-2.7,2.4-5.1,4.3-7.3c2-2.3,4.4-4.3,7.1-5.9
	C901.1,409.3,904.3,408.1,907.7,407.6z M920.6,462.1c1.5-0.2,2.8,0.8,3,2.3l1.4,8.5c0.2,1.5-0.8,2.8-2.3,3l-8.4,1.4
	c-1.5,0.2-2.8-0.8-3-2.3l-1.4-8.5c-0.2-1.5,0.8-2.8,2.3-3L920.6,462.1z"/>
<g class="st17">
	<path d="M907.7,407.6c3-0.5,6-0.5,9-0.2c2.9,0.3,5.7,1.2,8.3,2.5c2.5,1.3,4.7,3.1,6.4,5.2c1.8,2.3,3,5.1,3.4,8.1
		c0.5,2.3,0.5,4.7,0,7c-0.5,2-1.2,3.9-2.3,5.6c-1,1.7-2.2,3.3-3.5,4.9l-3.6,4.3c-1.1,1.3-2.1,2.7-2.9,4.1c-0.8,1.3-1.2,2.8-1.2,4.3
		c0,0.7-0.2,1.4-0.6,2c-0.4,0.6-1,1-1.6,1.1l-7.5,1.2c-0.7,0.1-1.4-0.1-2-0.5c-0.6-0.4-1-1-1-1.7c-0.3-2.3-0.1-4.7,0.5-6.9
		c0.6-2,1.5-3.9,2.6-5.7c1.1-1.7,2.3-3.3,3.6-4.8c1.3-1.5,2.5-2.9,3.6-4.2c1-1.2,1.9-2.5,2.6-3.9c0.6-1.2,0.9-2.6,0.7-4
		c-0.4-2.4-1.9-4.5-4.1-5.6c-2.7-1.3-5.7-1.7-8.7-1.1c-5.4,0.8-9.7,4.9-10.8,10.2c-0.2,0.6-0.4,1.2-0.8,1.8
		c-0.4,0.5-1.1,0.8-1.7,0.8l-7.9,1.3c-0.6,0.1-1.1,0-1.6-0.3c-0.5-0.3-0.8-0.9-0.9-1.4c-0.3-2.5,0-5,0.9-7.3c1-2.7,2.4-5.1,4.3-7.3
		c2-2.3,4.4-4.3,7.1-5.9C901.1,409.3,904.3,408.1,907.7,407.6z M920.6,462.1c1.5-0.2,2.8,0.8,3,2.3l1.4,8.5c0.2,1.5-0.8,2.8-2.3,3
		l-8.4,1.4c-1.5,0.2-2.8-0.8-3-2.3l-1.4-8.5c-0.2-1.5,0.8-2.8,2.3-3L920.6,462.1z"/>
</g>
<path class="st11" d="M984.7,431.8c1.4,1,1.7,3,0.7,4.4l-5.9,8.4c-1,1.4-3,1.7-4.4,0.7l-8.2-5.8c-1.4-1-1.7-3-0.7-4.4l5.9-8.4
	c1-1.4,3-1.7,4.4-0.7L984.7,431.8z M1019.2,375.1c2.9,2.1,5.6,4.6,7.8,7.4c2.2,2.7,3.8,5.8,4.9,9c1,3.1,1.4,6.5,1,9.7
	c-0.4,3.5-1.7,6.8-3.8,9.6c-1.6,2.3-3.5,4.3-5.9,5.8c-2.1,1.3-4.3,2.2-6.6,2.9c-2.3,0.6-4.6,1-6.9,1.2l-6.6,0.6c-2,0.2-4,0.5-5.9,1
	c-1.7,0.4-3.3,1.4-4.5,2.6c-0.6,0.6-1.4,1-2.3,1.2c-0.8,0.2-1.6,0-2.3-0.5l-7.2-5.1c-0.7-0.5-1.2-1.2-1.3-2.1
	c-0.2-0.8,0-1.6,0.6-2.3c1.7-2.2,3.8-4,6.2-5.4c2.2-1.2,4.5-2.1,6.9-2.7c2.3-0.6,4.7-0.9,7-1.1c2.3-0.2,4.5-0.3,6.6-0.5
	c1.9-0.2,3.7-0.5,5.5-1.1c1.6-0.5,2.9-1.5,3.8-2.8c1.7-2.3,2.1-5.4,1.2-8.1c-1.2-3.3-3.4-6.2-6.4-8.1c-5.4-3.8-11.3-3.9-17.6-0.4
	c-0.6,0.4-1.4,0.7-2.1,0.9c-0.8,0-1.5-0.2-2.1-0.7l-7.6-5.5c-0.6-0.4-0.9-1-1.1-1.6c-0.1-0.7,0-1.4,0.5-2c1.8-2.3,4.1-4.1,6.8-5.4
	c3.1-1.4,6.3-2.3,9.7-2.6c3.7-0.3,7.4,0,11,0.9C1012.3,371.2,1016,372.8,1019.2,375.1L1019.2,375.1z"/>
<g class="st18">
	<path class="st7" d="M984.7,431.8c1.4,1,1.7,3,0.7,4.4l-5.9,8.4c-1,1.4-3,1.7-4.4,0.7l-8.2-5.8c-1.4-1-1.7-3-0.7-4.4l5.9-8.4
		c1-1.4,3-1.7,4.4-0.7L984.7,431.8z M1019.2,375.1c2.9,2.1,5.6,4.6,7.8,7.4c2.2,2.7,3.8,5.8,4.9,9c1,3.1,1.4,6.5,1,9.7
		c-0.4,3.5-1.7,6.8-3.8,9.6c-1.6,2.3-3.5,4.3-5.9,5.8c-2.1,1.3-4.3,2.2-6.6,2.9c-2.3,0.6-4.6,1-6.9,1.2l-6.6,0.6c-2,0.2-4,0.5-5.9,1
		c-1.7,0.4-3.3,1.4-4.5,2.6c-0.6,0.6-1.4,1-2.3,1.2c-0.8,0.2-1.6,0-2.3-0.5l-7.2-5.1c-0.7-0.5-1.2-1.2-1.3-2.1
		c-0.2-0.8,0-1.6,0.6-2.3c1.7-2.2,3.8-4,6.2-5.4c2.2-1.2,4.5-2.1,6.9-2.7c2.3-0.6,4.7-0.9,7-1.1c2.3-0.2,4.5-0.3,6.6-0.5
		c1.9-0.2,3.7-0.5,5.5-1.1c1.6-0.5,2.9-1.5,3.8-2.8c1.7-2.3,2.1-5.4,1.2-8.1c-1.2-3.3-3.4-6.2-6.4-8.1c-5.4-3.8-11.3-3.9-17.6-0.4
		c-0.6,0.4-1.4,0.7-2.1,0.9c-0.8,0-1.5-0.2-2.1-0.7l-7.6-5.5c-0.6-0.4-0.9-1-1.1-1.6c-0.1-0.7,0-1.4,0.5-2c1.8-2.3,4.1-4.1,6.8-5.4
		c3.1-1.4,6.3-2.3,9.7-2.6c3.7-0.3,7.4,0,11,0.9C1012.3,371.2,1016,372.8,1019.2,375.1L1019.2,375.1z"/>
</g>
</svg>
