<?xml version="1.0" encoding="utf-8"?>
<!-- Generator: Adobe Illustrator 21.0.2, SVG Export Plug-In . SVG Version: 6.00 Build 0)  -->
<svg version="1.1" id="Слой_1" xmlns="http://www.w3.org/2000/svg" xmlns:xlink="http://www.w3.org/1999/xlink" x="0px" y="0px"
	 viewBox="0 0 1100 417" style="enable-background:new 0 0 1100 417;" xml:space="preserve">
<style type="text/css">
	.st0{fill:#86EAD7;}
	.st1{fill:none;}
	.st2{fill:#D4F8F2;}
	.st3{clip-path:url(#SVGID_2_);}
	.st4{fill:#A3EFE0;}
	.st5{fill:#3EE5C9;}
	.st6{fill:#FFFFFF;}
	.st7{fill:#FF9090;}
	.st8{fill:#D2D2D2;}
	.st9{fill:#FFAAA8;}
	.st10{fill:#FFC9AE;}
	.st11{fill:#FFB890;}
	.st12{fill:#363636;}
	.st13{fill:#073D4C;}
	.st14{fill:#074559;}
	.st15{fill:#048E77;}
	.st16{fill:#919191;}
	.st17{fill:#D1D1D1;}
	.st18{fill:#C9C9C9;}
	.st19{opacity:0.21;fill:#C9C9C9;enable-background:new    ;}
	.st20{fill:#0C5870;}
	.st21{fill:#B64401;}
	.st22{fill:#1A2E35;}
	.st23{opacity:0.31;fill:#B64401;enable-background:new    ;}
	.st24{fill:#F29B62;}
	.st25{opacity:0.68;}
	.st26{fill:#F29D86;}
	.st27{fill:#208975;}
	.st28{font-family:'Cocon-Regular';}
	.st29{font-size:24px;}
</style>
<path class="st0" d="M551.9-235C298.4-235,92.8-34.5,92.8,213s205.5,448,459.1,448v0c253.6,0,459.1-200.6,459.1-448
	S805.5-235,551.9-235z M549.9,629.3L549.9,629.3C313,629.3,121,442.5,121,212.2s192-417.1,428.8-417.1S978.7-18.2,978.7,212.2
	S786.7,629.3,549.9,629.3z"/>
<rect y="1" class="st1" width="1100" height="416"/>
<path class="st2" d="M550-315C251.2-315,9-77.3,9,216s242.2,531,541,531v0c298.8,0,541-237.8,541-531S848.8-315,550-315z
	 M547.6,709.4L547.6,709.4C268.5,709.4,42.2,488.1,42.2,215s226.2-494.3,505.3-494.3S1052.9-58,1052.9,215S826.7,709.4,547.6,709.4z
	"/>
<rect x="-74" y="-21.8" class="st1" width="1258" height="475.8"/>
<g>
	<defs>
		<path id="SVGID_1_" d="M-105.2,1h1291.4c1.5,0,2.8,1.3,2.8,2.8v414.3c0,1.6-1.2,2.8-2.8,2.8H-105.2c-1.5,0-2.8-1.3-2.8-2.8V3.8
			C-108,2.3-106.8,1-105.2,1z"/>
	</defs>
	<clipPath id="SVGID_2_">
		<use xlink:href="#SVGID_1_"  style="overflow:visible;"/>
	</clipPath>
	<g class="st3">
		<path class="st0" d="M549.2-68.5c-155.1,0-280.7,128.8-280.7,287.7s125.7,287.7,280.7,287.7S829.9,378,829.9,219.2
			S704.2-68.5,549.2-68.5z M549.2,470.1c-135.2,0-244.8-112.4-244.8-250.9S414-31.7,549.2-31.7S794,80.6,794,219.2
			S684.4,470.1,549.2,470.1L549.2,470.1z"/>
		<path class="st4" d="M551.3-173.9c-210.9,0-381.7,175.2-381.7,391.3s170.9,391.3,381.7,391.3S933,433.5,933,217.4
			S762.1-173.9,551.3-173.9z M551.3,558.7c-183.9,0-333-152.8-333-341.3s149.1-341.3,333-341.3s333,152.8,333,341.3
			S735.2,558.7,551.3,558.7z"/>
	</g>
</g>
<circle class="st5" cx="546.5" cy="212.3" r="181.5"/>
<path class="st6" d="M617.9,57.4h47.6c1.8,0,3.3,1.5,3.3,3.3v0.6c0,1.8-1.5,3.3-3.3,3.3h-47.6c-1.8,0-3.3-1.5-3.3-3.3v-0.6
	C614.7,58.8,616.1,57.4,617.9,57.4z"/>
<path class="st6" d="M617.9,71.8h47.6c1.8,0,3.3,1.5,3.3,3.3v0.6c0,1.8-1.5,3.3-3.3,3.3h-47.6c-1.8,0-3.3-1.5-3.3-3.3V75
	C614.7,73.2,616.1,71.8,617.9,71.8z"/>
<path class="st6" d="M651.7,85.3h47.6c1.8,0,3.3,1.5,3.3,3.3v0.6c0,1.8-1.5,3.3-3.3,3.3h-47.6c-1.8,0-3.3-1.5-3.3-3.3v-0.6
	C648.5,86.7,649.9,85.3,651.7,85.3z"/>
<path class="st6" d="M651.7,99.7h47.6c1.8,0,3.3,1.5,3.3,3.3v0.7c0,1.8-1.5,3.3-3.3,3.3h-47.6c-1.8,0-3.3-1.5-3.3-3.3v-0.7
	C648.5,101.1,649.9,99.7,651.7,99.7z"/>
<path class="st6" d="M378.8,90.8h39.9c1.5,0,2.7,1.2,2.7,2.7v0.6c0,1.5-1.2,2.7-2.7,2.7h-39.9c-1.5,0-2.7-1.2-2.7-2.7v-0.6
	C376.1,92,377.3,90.8,378.8,90.8z"/>
<path class="st6" d="M378.8,102.8h39.9c1.5,0,2.7,1.2,2.7,2.7v0.6c0,1.5-1.2,2.7-2.7,2.7h-39.9c-1.5,0-2.7-1.2-2.7-2.7v-0.6
	C376.1,104.1,377.3,102.8,378.8,102.8z"/>
<path class="st6" d="M407.2,114.2h39.9c1.5,0,2.7,1.2,2.7,2.7v0.6c0,1.5-1.2,2.7-2.7,2.7h-39.9c-1.5,0-2.7-1.2-2.7-2.7v-0.6
	C404.4,115.4,405.7,114.2,407.2,114.2z"/>
<path class="st6" d="M407.2,126.2h39.9c1.5,0,2.7,1.2,2.7,2.7v0.6c0,1.5-1.2,2.7-2.7,2.7h-39.9c-1.5,0-2.7-1.2-2.7-2.7V129
	C404.4,127.5,405.7,126.2,407.2,126.2z"/>
<path class="st6" d="M650.9,259.4h39.9c1.5,0,2.7,1.2,2.7,2.7v0.5c0,1.5-1.2,2.7-2.7,2.7h-39.9c-1.5,0-2.7-1.2-2.7-2.7v-0.5
	C648.2,260.6,649.4,259.4,650.9,259.4z"/>
<path class="st6" d="M650.9,271.5h39.9c1.5,0,2.7,1.2,2.7,2.7v0.5c0,1.5-1.2,2.7-2.7,2.7h-39.9c-1.5,0-2.7-1.2-2.7-2.7v-0.5
	C648.2,272.7,649.4,271.5,650.9,271.5z"/>
<path class="st6" d="M679.3,282.8h39.9c1.5,0,2.7,1.2,2.7,2.7v0.5c0,1.5-1.2,2.7-2.7,2.7h-39.9c-1.5,0-2.7-1.2-2.7-2.7v-0.5
	C676.5,284,677.7,282.8,679.3,282.8z"/>
<path class="st6" d="M679.3,294.9h39.9c1.5,0,2.7,1.2,2.7,2.7v0.5c0,1.5-1.2,2.7-2.7,2.7h-39.9c-1.5,0-2.7-1.2-2.7-2.7v-0.5
	C676.5,296.1,677.7,294.9,679.3,294.9z"/>
<path class="st7" d="M452,94.3c-3.7,0.1-7.3-1.5-9.6-4.5c-3-4.1-4.1-9.4-2.9-14.4c0.9-3.8,2.9-6.6,5.8-8l0,0
	c12.7-6.1,18.8,2.9,20.8,7c3.6,7.4-2.9,15.7-6,17.7C457.6,93.6,454.8,94.3,452,94.3z M446.6,70.3c-2,1-3.5,3-4.1,5.9
	c-0.9,4.1-0.1,8.3,2.3,11.7c1.7,2.2,4.4,3.4,7.1,3.3h0.1c2.2,0,4.4-0.6,6.3-1.7c1.9-1.4,3.4-3.3,4.3-5.5c1-2.1,1.9-5.3,0.5-8.2
	C460.8,70.9,455.9,65.8,446.6,70.3L446.6,70.3z"/>
<path class="st7" d="M456.8,90.9c0,0,1.4,5.2,2.9,5.8c1.7,0.6,7-3.4,6.3-4.8s-4.2-4.9-4.2-4.9L456.8,90.9z"/>
<path class="st7" d="M459.4,85c-0.5,0-1-0.3-1.3-0.7l-6.3-9.9c-0.4-0.8-0.1-1.7,0.7-2.1c0.7-0.4,1.5-0.2,2,0.4l6.3,9.9
	c0.5,0.7,0.2,1.7-0.5,2.2C460,84.9,459.7,85,459.4,85L459.4,85z"/>
<ellipse transform="matrix(0.7071 -0.7071 0.7071 0.7071 80.7427 341.6418)" class="st7" cx="452.8" cy="73.4" rx="4.3" ry="4.3"/>
<path class="st7" d="M594.7,121.8c-0.9,0-1.8-0.1-2.7-0.4c-4.3-1.3-7.6-4.7-8.6-9.1c-1-4.1-0.1-8.5,2.3-11.9
	c2.4-3.4,6.3-5.6,10.5-5.9c4.3-0.3,8.1,2.5,9.2,6.7c1.1,3.5-0.6,7.3-3.9,8.8c-0.6,0.3-1.2,0.4-1.8,0.4c-0.2,2.6-2.5,4.5-5.1,4.2
	c-1-0.1-1.9-0.5-2.6-1.1c-2-1.9-2-5.4-1-8c0.8-2.5,3-4.2,5.6-4.3l0,0c1,0,1.7,0.8,1.7,1.7c0,0.1,0,0.3,0,0.4
	c0.3,0.2,0.6,0.5,0.7,0.8c0.2,0.5,0.4,0.9,0.6,1.4s0.4,0.9,0.5,1.2c1.7-0.8,2.6-2.9,2-4.7c-0.6-2.5-2.9-4.3-5.5-4.1
	c-3.2,0.2-6.1,1.8-7.9,4.4c-1.9,2.6-2.5,5.9-1.8,9c0.7,3.1,3.1,5.6,6.1,6.6c2.8,0.7,5.6-0.3,8.2-2.9c0.7-0.7,1.8-0.6,2.5,0.1
	c0.6,0.7,0.6,1.6,0,2.3C601.4,120.1,598.1,121.6,594.7,121.8z M595.7,105.1c-0.7,0.4-1.2,1.1-1.5,1.8c-0.7,1.7-0.5,3.6,0.2,4.2
	c0.3,0.2,0.7,0.2,1.3-0.1c0.7-0.3,0.7-3.3,0-5.5C595.7,105.3,595.6,105.2,595.7,105.1L595.7,105.1z"/>
<path class="st7" d="M675,169.5c-0.2-0.1-0.5-0.1-0.7-0.2c-3.8-1.2-7-5.6-5.9-11.6c0.9-4.7,3.5-8.5,6.8-10.1c2.2-1.1,4.8-1,7,0.1
	c0.8,0.5,1,1.6,0.5,2.4c-0.5,0.7-1.3,0.9-2.1,0.6c-1.2-0.7-2.7-0.7-3.9-0.1c-2.3,1.1-4.2,4-4.9,7.7c-0.8,4.1,1.2,7,3.6,7.7
	c2,0.6,3.8-0.3,4.9-2.6c0.4-0.8,1.5-1.1,2.3-0.7c0.8,0.4,1.1,1.3,0.8,2.1C682,167.9,678.9,170.4,675,169.5z"/>
<path class="st7" d="M692.1,146.6l-0.9,0.3l-0.4,0.1l-0.4-1.3c-0.3-0.5-0.9-0.7-1.5-0.4c-0.4,0.2-0.6,0.6-0.5,1.1
	c0.1,0.4,0.3,0.8,0.4,1.3L687,148c-1.5,0.4-1.1,3,0.5,2.8l1.9-0.3c0.1,0.4,0.3,0.8,0.4,1.2c0.3,0.6,0.9,0.8,1.5,0.6
	c0.1,0,0.2-0.1,0.2-0.1c0.1-0.1,0.3-0.2,0.3-0.3c0.2-0.5,0.2-1.1,0-1.7l0.9-0.1C695.2,149.7,694.5,146,692.1,146.6z"/>
<path class="st7" d="M702.4,144.7l-0.9,0.3l-0.4,0.1l-0.4-1.3c-0.3-0.5-0.9-0.7-1.5-0.4c-0.4,0.2-0.6,0.6-0.5,1.1
	c0.1,0.4,0.3,0.8,0.4,1.3l-1.7,0.5c-1.5,0.4-1.1,3,0.5,2.8l1.9-0.3c0.1,0.4,0.3,0.8,0.4,1.2c0.3,0.6,0.9,0.8,1.5,0.6
	c0.1,0,0.2-0.1,0.2-0.1c0.1-0.1,0.3-0.2,0.3-0.3c0.2-0.5,0.2-1.1,0.1-1.7l0.9-0.1C705.5,147.7,704.8,144,702.4,144.7z"/>
<path class="st7" d="M635.1,313.4c-0.8,0-1.5-0.7-1.5-1.5c0-0.2,0.1-0.5,0.2-0.7l10-19.4c0.4-0.8,1.3-1.1,2-0.7
	c0.8,0.4,1.1,1.3,0.7,2c0,0,0,0,0,0.1l-10,19.4C636.2,313.1,635.7,313.4,635.1,313.4z"/>
<path class="st7" d="M629.8,309.4c-0.6,0-1.1-0.3-1.4-0.8l-5.7-10.9c-0.4-0.7-0.1-1.6,0.6-2l10.7-6.4c0.7-0.4,1.7-0.1,2.1,0.6
	c0.4,0.7,0.2,1.6-0.5,2l-9.4,5.6l5,9.6c0.4,0.7,0.1,1.7-0.6,2.1C630.3,309.4,630,309.4,629.8,309.4z"/>
<path class="st7" d="M643.6,314.8c-0.8,0-1.5-0.7-1.5-1.5c0-0.6,0.4-1.2,0.9-1.4l11-4.6l-4-11.3c-0.2-0.8,0.3-1.7,1.1-1.9
	c0.7-0.2,1.5,0.2,1.8,0.9l4.5,12.7c0.3,0.8-0.1,1.6-0.9,1.9l-12.4,5.2C644,314.7,643.8,314.8,643.6,314.8z"/>
<path class="st7" d="M405,253.6c-1-1.8-2.2-3.4-3.6-4.8l-3.3,2.9c-1.8-1.1-3.9-1.7-6-1.7c-0.1-1.4-0.3-2.9-0.6-4.3
	c-2.5,0-5,0.9-6.9,2.5c0.4,1.1,1.1,2.1,1.8,2.9l0.4,0.4l-0.3,0.1c-3,2-4.5,4.1-5.2,6.1c-0.9-0.2-1.8-0.3-2.8-0.5
	c-0.2-0.1-0.4-0.1-0.6,0c-0.2,0.1-0.4,0.3-0.5,0.5c-0.3,0.7-0.3,1.5,0,2.2l0.7,3.1c0.1,0.5,0.3,1.2,0.9,1.3c0.4,0.1,0.8,0,1.2-0.3
	c0.4-0.2,0.9-0.4,1.4-0.6c0.2,0.6,0.4,1.3,0.7,1.9c0.9,1.9,2.2,3.5,3.9,4.8l-2.3,1.9l1.7,0.9c1.8,1,3.8,1.9,5.8,1.9
	c0.4-1,0.6-2.1,0.8-3.1c1.2-0.1,2.3-0.5,3.4-1c1.5-0.7,2.9-1.8,3.8-3.2c0.7,0.4,1.4,0.9,2,1.5c0.1,0.1,0.2,0.1,0.3,0.1
	s0.1-0.1,0.2-0.2l1.3-2.2c0.7-1.1,1.2-2.3,1.5-3.6c-1.1-0.3-2.1-0.7-3.2-1c0.3-2.1,0.3-4.2-0.2-6.3c1.3-0.5,2.5-1.2,3.6-2
	c0.1,0,0.1-0.1,0.1-0.1C405.1,253.7,405.1,253.6,405,253.6z M393.2,265.3c-2.1,1-4.7,0.1-5.7-2c0-0.1-0.1-0.2-0.1-0.3
	c-0.7-1.5-1.3-4,1.9-6c2.6-1.7,5.5-0.3,6.2,1.1S396.3,263.9,393.2,265.3z"/>
<path class="st7" d="M423.4,261.4c-0.5-0.9-1.1-1.7-1.8-2.5l-1.7,1.5c-0.9-0.6-2-0.9-3.1-0.8c0-0.7-0.1-1.5-0.3-2.2
	c-1.3,0-2.6,0.4-3.6,1.3c0.2,0.5,0.5,1.1,0.9,1.5l0.2,0.2l-0.1,0.1c-1.2,0.7-2.2,1.8-2.6,3.1l-1.4-0.2c-0.1,0-0.2,0-0.3,0
	c-0.1,0-0.2,0.1-0.2,0.2c-0.1,0.4-0.1,0.8,0,1.1l0.4,1.6c0.1,0.3,0.2,0.6,0.4,0.7c0.2,0,0.4,0,0.6-0.1l0.7-0.3
	c0.1,0.3,0.2,0.7,0.4,1c0.4,1,1.1,1.8,2,2.4l-1.2,1l0.9,0.4c0.9,0.6,1.9,0.9,3,1c0.2-0.5,0.3-1.1,0.4-1.6c0.6-0.1,1.2-0.2,1.7-0.5
	c0.8-0.4,1.5-0.9,2-1.6c0.4,0.2,0.7,0.5,1,0.8c0,0,0.1,0.1,0.1,0.1c0,0,0.1,0,0.1-0.1l0.7-1.1c0.4-0.6,0.6-1.2,0.8-1.9
	c-0.6-0.1-1.1-0.3-1.7-0.5c0.2-1.1,0.1-2.2-0.1-3.2c0.7-0.3,1.3-0.6,1.9-1c0,0,0.1,0,0.1-0.1C423.5,261.6,423.5,261.5,423.4,261.4z
	 M417.4,267.4c-1.1,0.5-2.4,0.1-2.9-1c0-0.1-0.1-0.1-0.1-0.2c-0.6-1.1-0.2-2.4,0.9-3c0,0,0.1,0,0.1-0.1c1-0.7,2.5-0.5,3.2,0.6
	c0,0,0,0,0,0C418.9,264.5,419,266.7,417.4,267.4L417.4,267.4z"/>
<path class="st7" d="M709.3,210.2c-1-1.8-2.2-3.4-3.6-4.8l-3.3,2.9c-1.8-1.1-3.8-1.7-5.9-1.6c-0.1-1.4-0.3-2.9-0.6-4.3
	c-2.5,0-5,0.9-6.9,2.5c0.4,1.1,1.1,2.1,1.8,2.9l0.4,0.4l-0.3,0.1c-3,2-4.5,4.1-5.2,6.1c-0.9-0.2-1.8-0.3-2.8-0.5
	c-0.2-0.1-0.4-0.1-0.7,0c-0.2,0.1-0.4,0.3-0.4,0.4c-0.3,0.7-0.3,1.5,0,2.2l0.7,3.1c0.1,0.5,0.3,1.2,0.9,1.3c0.4,0.1,0.8,0,1.2-0.3
	c0.4-0.2,0.9-0.4,1.4-0.6c0.2,0.6,0.4,1.3,0.7,1.9c0.9,1.9,2.2,3.5,3.9,4.8l-2.3,1.9l1.7,0.9c1.8,1,3.8,1.9,5.8,1.9
	c0.4-1,0.6-2.1,0.8-3.1c1.2-0.1,2.3-0.5,3.4-1c1.5-0.7,2.9-1.8,3.8-3.2c0.7,0.4,1.4,0.9,2,1.5c0.1,0.1,0.2,0.1,0.3,0.1
	s0.1-0.1,0.2-0.2l1.3-2.2c0.7-1.1,1.2-2.3,1.5-3.6c-1.1-0.3-2.1-0.7-3.2-1c0.3-2.1,0.3-4.2-0.2-6.3c1.3-0.5,2.5-1.2,3.6-2
	c0.1,0,0.1-0.1,0.1-0.1C709.4,210.4,709.4,210.3,709.3,210.2z M697.5,221.9c-2.1,1-4.7,0.1-5.7-2c-0.1-0.1-0.1-0.2-0.1-0.3
	c-0.7-1.5-1.3-4,1.9-6c2.6-1.7,5.5-0.3,6.2,1.1S700.7,220.5,697.5,221.9L697.5,221.9z"/>
<path class="st7" d="M727.8,218c-0.5-0.9-1.1-1.7-1.8-2.5l-1.7,1.5c-0.9-0.6-2-0.9-3.1-0.8c0-0.7-0.1-1.5-0.3-2.2
	c-1.3,0-2.6,0.4-3.6,1.3c0.2,0.5,0.5,1.1,0.9,1.5l0.2,0.2l-0.1,0.1c-1.2,0.7-2.2,1.8-2.6,3.1l-1.4-0.2c-0.1,0-0.2,0-0.3,0
	c-0.1,0-0.2,0.1-0.2,0.2c-0.1,0.4-0.1,0.8,0,1.1l0.3,1.6c0.1,0.3,0.2,0.6,0.4,0.7c0.2,0,0.4,0,0.6-0.1l0.7-0.3
	c0.1,0.3,0.2,0.7,0.4,1c0.4,1,1.1,1.8,2,2.4l-1.2,1l0.9,0.4c0.9,0.6,1.9,0.9,3,1c0.2-0.5,0.3-1.1,0.4-1.6c0.6-0.1,1.2-0.2,1.7-0.5
	c0.8-0.4,1.5-0.9,2-1.6c0.4,0.2,0.7,0.5,1,0.8c0,0,0.1,0.1,0.1,0.1s0.1,0,0.1-0.1l0.7-1.1c0.4-0.6,0.6-1.2,0.8-1.9
	c-0.6-0.1-1.1-0.3-1.7-0.5c0.2-1.1,0.1-2.2-0.1-3.2c0.7-0.3,1.3-0.6,1.9-1c0,0,0.1,0,0.1-0.1C727.9,218.2,727.8,218.1,727.8,218z
	 M721.8,224c-1.1,0.5-2.4,0.1-2.9-1c0-0.1-0.1-0.1-0.1-0.2c-0.6-1.1-0.2-2.4,0.9-3c0,0,0.1,0,0.1-0.1c1-0.7,2.5-0.5,3.2,0.6
	c0,0,0,0,0,0C723.2,221.1,723.3,223.4,721.8,224L721.8,224z"/>
<path class="st7" d="M377.4,199.1h-0.6c-3.1-0.3-6.4-3.1-6.6-8c-0.1-3.8,1.2-7.2,3.5-9c1.5-1.2,3.5-1.6,5.4-1.1
	c0.7,0.2,1.1,0.9,0.9,1.7s-0.9,1.1-1.7,0.9c-1-0.3-2.2-0.1-3,0.6c-1.6,1.3-2.5,3.9-2.4,6.8c0.1,3.3,2.1,5.2,4.1,5.3
	c1.7,0.1,2.9-0.9,3.3-2.9c0.2-0.7,0.9-1.2,1.6-1c0.7,0.2,1.2,0.9,1,1.6C382.5,196.6,380.5,199.1,377.4,199.1z"/>
<path class="st7" d="M386.8,181.5c-1.1-0.3-2.2,0.4-2.4,1.5c-0.1,0.3-0.1,0.6,0,0.9c0.3,1.1,1.5,1.8,2.6,1.5c0.1,0,0.3-0.1,0.4-0.1
	c0.2-0.1,0.4-0.2,0.5-0.4c0.3-0.2,0.5-0.5,0.6-0.8C388.7,182.9,388,181.8,386.8,181.5C386.9,181.5,386.8,181.5,386.8,181.5z"/>
<polygon class="st7" points="388.3,190.2 388.3,190.2 388.3,190.2 "/>
<path class="st7" d="M390.3,190.3c-0.1-0.2-0.2-0.4-0.3-0.6c-0.3-0.6-0.8-1-1.5-1.1c-0.7-0.1-1.5,0.2-1.8,0.9
	c-0.3,0.6-0.4,1.3-0.1,1.9c0.4,0.8,1.2,1.3,2.1,1.2C389.7,192.3,390.4,191.3,390.3,190.3z"/>
<path class="st7" d="M395.7,194.5c-0.7,0-1.3-0.5-1.4-1.2l-1.7-18.7c-0.1-0.7,0.5-1.4,1.2-1.5c0.7-0.1,1.4,0.5,1.5,1.2l1.7,18.7
	c0.1,0.7-0.5,1.4-1.2,1.5c0,0,0,0,0,0L395.7,194.5z"/>
<path class="st8" d="M360.6,311.5c-2,0-3.6-1.6-3.6-3.6c0-2,1.6-3.5,3.5-3.6c0,0,0,0,0,0h0.1c2,0,3.6,1.6,3.6,3.6
	C364.2,309.9,362.6,311.5,360.6,311.5z"/>
<path class="st8" d="M444.6,311.5c-2,0-3.6-1.6-3.6-3.6c0-1.9,1.5-3.5,3.4-3.6c0,0,0,0,0,0h0.1c2,0,3.6,1.6,3.6,3.6
	C448.2,309.9,446.6,311.5,444.6,311.5z M430.6,311.5c-2,0-3.6-1.6-3.6-3.6c0-1.9,1.5-3.5,3.4-3.6c0,0,0,0,0,0h0.1
	c2,0,3.6,1.6,3.6,3.6C434.2,309.9,432.6,311.5,430.6,311.5z M416.6,311.5c-2,0-3.6-1.6-3.6-3.6c0-1.9,1.5-3.5,3.4-3.6c0,0,0,0,0,0
	h0.1c2,0,3.6,1.6,3.6,3.6C420.2,309.9,418.6,311.5,416.6,311.5z M402.6,311.5c-2,0-3.6-1.6-3.6-3.6c0-1.9,1.5-3.5,3.4-3.6
	c0,0,0,0,0,0h0.1c2,0,3.6,1.6,3.6,3.6C406.2,309.9,404.6,311.5,402.6,311.5z M388.6,311.5c-2,0-3.6-1.6-3.6-3.6
	c0-1.9,1.5-3.5,3.4-3.6c0,0,0,0,0,0h0.1c2,0,3.6,1.6,3.6,3.6C392.2,309.9,390.6,311.5,388.6,311.5z M374.6,311.5
	c-2,0-3.6-1.6-3.6-3.6c0-1.9,1.5-3.5,3.4-3.6c0,0,0,0,0,0h0.1c2,0,3.6,1.6,3.6,3.6C378.2,309.9,376.6,311.5,374.6,311.5z"/>
<path class="st8" d="M458.6,317.5c-2,0-3.6-1.6-3.6-3.6c0-2,1.6-3.5,3.5-3.6c0,0,0,0,0,0l0,0c2,0,3.6,1.6,3.6,3.6
	C462.1,315.9,460.5,317.5,458.6,317.5L458.6,317.5z"/>
<path class="st8" d="M680.3,126.6c-1.9,0-3.5-1.5-3.5-3.4c0-1.9,1.5-3.4,3.4-3.4c0,0,0,0,0,0h0.1c1.9,0,3.4,1.5,3.4,3.4
	S682.2,126.6,680.3,126.6L680.3,126.6z"/>
<path class="st8" d="M761.2,126.6c-1.9,0-3.5-1.5-3.5-3.4c0-1.9,1.5-3.4,3.3-3.4c0,0,0,0,0,0h0.1c1.9,0,3.4,1.5,3.4,3.4
	S763.1,126.6,761.2,126.6L761.2,126.6z M747.7,126.6c-1.9,0-3.5-1.5-3.5-3.4c0-1.9,1.5-3.4,3.3-3.4c0,0,0,0,0,0h0.1
	c1.9,0,3.4,1.5,3.4,3.4S749.6,126.6,747.7,126.6L747.7,126.6z M734.2,126.6c-1.9,0-3.5-1.5-3.5-3.4c0-1.9,1.5-3.4,3.3-3.4
	c0,0,0,0,0,0h0.1c1.9,0,3.4,1.5,3.4,3.4S736.1,126.6,734.2,126.6L734.2,126.6z M720.7,126.6c-1.9,0-3.5-1.5-3.5-3.4
	c0-1.9,1.5-3.4,3.3-3.4c0,0,0,0,0,0h0.1c1.9,0,3.4,1.5,3.4,3.4S722.6,126.6,720.7,126.6L720.7,126.6z M707.3,126.6
	c-1.9,0-3.5-1.5-3.5-3.4c0-1.9,1.5-3.4,3.3-3.4c0,0,0,0,0,0h0.1c1.9,0,3.4,1.5,3.4,3.4S709.2,126.6,707.3,126.6L707.3,126.6z
	 M693.8,126.6c-1.9,0-3.5-1.5-3.5-3.4c0-1.9,1.5-3.4,3.3-3.4c0,0,0,0,0,0h0.1c1.9,0,3.4,1.5,3.4,3.4S695.7,126.6,693.8,126.6
	L693.8,126.6z"/>
<path class="st8" d="M774.6,126.6c-1.9,0-3.5-1.5-3.5-3.4c0-1.9,1.5-3.4,3.4-3.4c0,0,0,0,0,0l0,0c1.9,0,3.4,1.5,3.4,3.4
	S776.5,126.6,774.6,126.6L774.6,126.6z"/>
<path class="st8" d="M337.6,147.5c-1.6,0-2.9-1.3-3-2.9c0-1.6,1.3-2.9,2.9-2.9c0,0,0,0,0,0l0,0c1.6,0,2.9,1.3,2.9,2.9
	S339.2,147.5,337.6,147.5L337.6,147.5z"/>
<path class="st8" d="M406.8,147.5c-1.6,0-3-1.3-3-2.9c0-1.6,1.2-2.9,2.8-2.9c0,0,0,0,0,0h0.1c1.6,0,2.9,1.3,2.9,2.9
	S408.4,147.5,406.8,147.5z M395.2,147.5c-1.6,0-3-1.3-3-2.9c0-1.6,1.2-2.9,2.8-2.9c0,0,0,0,0,0h0.1c1.6,0,2.9,1.3,2.9,2.9
	S396.9,147.5,395.2,147.5z M383.7,147.5c-1.6,0-3-1.3-3-2.9c0-1.6,1.2-2.9,2.8-2.9c0,0,0,0,0,0h0.1c1.6,0,2.9,1.3,2.9,2.9
	S385.3,147.5,383.7,147.5z M372.2,147.5c-1.6,0-3-1.3-3-2.9c0-1.6,1.2-2.9,2.8-2.9c0,0,0,0,0,0h0.1c1.6,0,2.9,1.3,2.9,2.9
	S373.8,147.5,372.2,147.5z M360.6,147.5c-1.6,0-3-1.3-3-2.9c0-1.6,1.2-2.9,2.8-2.9c0,0,0,0,0,0h0.1c1.6,0,2.9,1.3,2.9,2.9
	S362.3,147.5,360.6,147.5z M349.1,147.5c-1.6,0-3-1.3-3-2.9c0-1.6,1.2-2.9,2.8-2.9c0,0,0,0,0,0h0.1c1.6,0,2.9,1.3,2.9,2.9
	S350.7,147.5,349.1,147.5z"/>
<path class="st8" d="M742.8,314.9c-1.6,0-3-1.3-3-2.9c0-1.6,1.2-2.9,2.8-2.9c0,0,0,0,0,0h0.1c1.6,0,2.9,1.3,2.9,2.9
	C745.7,313.6,744.4,314.9,742.8,314.9z M731.2,314.9c-1.6,0-3-1.3-3-2.9c0-1.6,1.2-2.9,2.8-2.9c0,0,0,0,0,0h0.1
	c1.6,0,2.9,1.3,2.9,2.9C734.2,313.6,732.9,314.9,731.2,314.9z M719.7,314.9c-1.6,0-3-1.3-3-2.9c0-1.6,1.2-2.9,2.8-2.9c0,0,0,0,0,0
	h0.1c1.6,0,2.9,1.3,2.9,2.9C722.6,313.6,721.3,314.9,719.7,314.9z M708.2,314.9c-1.6,0-3-1.3-3-2.9c0-1.6,1.2-2.9,2.8-2.9
	c0,0,0,0,0,0h0.1c1.6,0,2.9,1.3,2.9,2.9C711.1,313.6,709.8,314.9,708.2,314.9z M696.6,314.9c-1.6,0-3-1.3-3-2.9
	c0-1.6,1.2-2.9,2.8-2.9c0,0,0,0,0,0h0.1c1.6,0,2.9,1.3,2.9,2.9C699.6,313.6,698.3,314.9,696.6,314.9z M685.1,314.9
	c-1.6,0-3-1.3-3-2.9c0-1.6,1.2-2.9,2.8-2.9c0,0,0,0,0,0h0.1c1.6,0,2.9,1.3,2.9,2.9C688,313.6,686.7,314.9,685.1,314.9z"/>
<path class="st8" d="M418.2,147.5c-1.6,0-2.9-1.3-3-2.9c0-1.6,1.3-2.9,2.9-2.9c0,0,0,0,0,0l0,0c1.6,0,2.9,1.3,2.9,2.9
	S419.8,147.5,418.2,147.5L418.2,147.5z"/>
<path class="st9" d="M740.3,171.5c-3.1,0-5.5-2.5-5.5-5.5c0-3.1,2.5-5.5,5.5-5.5c3.1,0,5.5,2.5,5.5,5.5S743.3,171.5,740.3,171.5
	L740.3,171.5z M740.3,163.1c-1.6,0-2.9,1.3-2.9,2.9s1.3,2.9,2.9,2.9c1.6,0,2.9-1.3,2.9-2.9C743.1,164.4,741.8,163.1,740.3,163.1
	L740.3,163.1z"/>
<path class="st9" d="M616.6,45c-3.1,0-5.5-2.5-5.5-5.5c0-3.1,2.5-5.5,5.5-5.5c3.1,0,5.5,2.5,5.5,5.5S619.6,45,616.6,45L616.6,45z
	 M616.6,36.6c-1.6,0-2.9,1.3-2.9,2.9s1.3,2.9,2.9,2.9c1.6,0,2.9-1.3,2.9-2.9C619.5,37.9,618.2,36.6,616.6,36.6L616.6,36.6z"/>
<path class="st9" d="M538.9,63c-3.1,0-5.5-2.5-5.5-5.5s2.5-5.5,5.5-5.5c3.1,0,5.5,2.5,5.5,5.5c0,0,0,0,0,0
	C544.4,60.5,541.9,63,538.9,63z M538.9,54.6c-1.6,0-2.9,1.3-2.9,2.9s1.3,2.9,2.9,2.9c1.6,0,2.9-1.3,2.9-2.9
	C541.8,55.9,540.5,54.6,538.9,54.6C538.9,54.6,538.9,54.6,538.9,54.6L538.9,54.6z"/>
<path class="st9" d="M425.7,73.9c-3.1,0-5.5-2.5-5.5-5.5c0-3.1,2.5-5.5,5.5-5.5c3.1,0,5.5,2.5,5.5,5.5c0,0,0,0,0,0
	C431.2,71.4,428.8,73.9,425.7,73.9z M425.7,65.5c-1.6,0-2.9,1.3-2.9,2.9s1.3,2.9,2.9,2.9c1.6,0,2.9-1.3,2.9-2.9
	C428.6,66.8,427.3,65.5,425.7,65.5L425.7,65.5z"/>
<path class="st9" d="M367.6,273.3c-3.1,0-5.5-2.5-5.5-5.5s2.5-5.5,5.5-5.5s5.5,2.5,5.5,5.5C373.1,270.8,370.7,273.3,367.6,273.3
	L367.6,273.3z M367.6,264.9c-1.6,0-2.9,1.3-2.9,2.9s1.3,2.9,2.9,2.9c1.6,0,2.9-1.3,2.9-2.9C370.5,266.2,369.2,264.9,367.6,264.9
	L367.6,264.9z"/>
<path class="st9" d="M441.5,331.5c-3.1,0-5.5-2.5-5.5-5.5c0-3.1,2.5-5.5,5.6-5.5c3.1,0,5.5,2.5,5.5,5.5
	C447,329.1,444.5,331.5,441.5,331.5L441.5,331.5z M441.5,323.1c-1.6,0-2.9,1.3-2.9,2.9s1.3,2.9,2.9,2.9s2.9-1.3,2.9-2.9
	C444.3,324.4,443,323.1,441.5,323.1L441.5,323.1z"/>
<path class="st9" d="M727.2,253.6c-3.1,0-5.5-2.5-5.5-5.5c0-3.1,2.5-5.5,5.5-5.5c3.1,0,5.5,2.5,5.5,5.5S730.3,253.6,727.2,253.6
	C727.2,253.6,727.2,253.6,727.2,253.6z M727.2,245.2c-1.6,0-2.9,1.3-2.9,2.9s1.3,2.9,2.9,2.9s2.9-1.3,2.9-2.9
	S728.8,245.2,727.2,245.2L727.2,245.2z"/>
<path class="st9" d="M487,213.4c-3.1,0-5.5-2.5-5.5-5.5s2.5-5.5,5.5-5.5c3.1,0,5.5,2.5,5.5,5.5v0C492.5,211,490.1,213.4,487,213.4z
	 M487,205c-1.6,0-2.9,1.3-2.9,2.9s1.3,2.9,2.9,2.9c1.6,0,2.9-1.3,2.9-2.9C489.9,206.3,488.6,205,487,205C487,205,487,205,487,205
	L487,205z"/>
<path class="st9" d="M417.3,165.1c-3.1,0-5.5-2.5-5.5-5.5c0-3.1,2.5-5.5,5.5-5.5s5.5,2.5,5.5,5.5l0,0
	C422.8,162.6,420.3,165.1,417.3,165.1z M417.3,156.7c-1.6,0-2.9,1.3-2.9,2.9c0,1.6,1.3,2.9,2.9,2.9s2.9-1.3,2.9-2.9
	S418.9,156.7,417.3,156.7L417.3,156.7z"/>
<path class="st9" d="M483.7,48.6h-2v-2c0-0.7-0.6-1.3-1.3-1.3s-1.3,0.6-1.3,1.3l0,0v2h-2c-0.7,0-1.3,0.6-1.3,1.3s0.6,1.3,1.3,1.3h2
	v2c0,0.7,0.6,1.3,1.3,1.3s1.3-0.6,1.3-1.3v-2h2c0.7,0,1.3-0.6,1.3-1.3S484.5,48.6,483.7,48.6L483.7,48.6z"/>
<path class="st9" d="M360.2,199.9h-2v-2c0-0.7-0.6-1.3-1.3-1.3c-0.7,0-1.3,0.6-1.3,1.3v2h-2c-0.7,0-1.3,0.6-1.3,1.3s0.6,1.3,1.3,1.3
	h2v2c0,0.7,0.6,1.3,1.3,1.3c0.7,0,1.3-0.6,1.3-1.3v-2h2c0.7,0,1.3-0.6,1.3-1.3S361,199.9,360.2,199.9z"/>
<path class="st9" d="M677.7,324.9h-2v-2c0-0.7-0.6-1.3-1.3-1.3c-0.7,0-1.3,0.6-1.3,1.3v2h-2c-0.7,0-1.3,0.6-1.3,1.3
	c0,0.7,0.6,1.3,1.3,1.3h2v2c0,0.7,0.6,1.3,1.3,1.3s1.3-0.6,1.3-1.3l0,0v-2h2c0.7,0,1.3-0.6,1.3-1.3
	C679,325.5,678.4,324.9,677.7,324.9z"/>
<path class="st9" d="M623.2,215.3h-2v-2c0-0.7-0.6-1.3-1.3-1.3c-0.7,0-1.3,0.6-1.3,1.3v2h-2c-0.7,0-1.3,0.6-1.3,1.3s0.6,1.3,1.3,1.3
	h2v2c0,0.7,0.6,1.3,1.3,1.3c0.7,0,1.3-0.6,1.3-1.3l0,0v-2h2c0.7,0,1.3-0.6,1.3-1.3S623.9,215.3,623.2,215.3z"/>
<path class="st9" d="M422.7,215.2h-2v-2c0-0.7-0.6-1.3-1.3-1.3c-0.7,0-1.3,0.6-1.3,1.3v2h-2c-0.7,0-1.3,0.6-1.3,1.3
	c0,0.7,0.6,1.3,1.3,1.3h2v2c0,0.7,0.6,1.3,1.3,1.3c0.7,0,1.3-0.6,1.3-1.3l0,0v-2h2c0.7,0,1.3-0.6,1.3-1.3
	C424,215.8,423.4,215.2,422.7,215.2L422.7,215.2z"/>
<path class="st9" d="M372.9,103.1h-2v-2c0-0.7-0.6-1.3-1.3-1.3c-0.7,0-1.3,0.6-1.3,1.3v2h-2c-0.7,0-1.3,0.6-1.3,1.3s0.6,1.3,1.3,1.3
	h2v2c0,0.7,0.6,1.3,1.3,1.3c0.7,0,1.3-0.6,1.3-1.3v-2h2c0.7,0,1.3-0.6,1.3-1.3S373.6,103.1,372.9,103.1z"/>
<path class="st9" d="M586.1,72.8h-2v-2c0-0.7-0.6-1.3-1.3-1.3c-0.7,0-1.3,0.6-1.3,1.3v2h-2c-0.7,0-1.3,0.6-1.3,1.3s0.6,1.3,1.3,1.3
	h2v2c0,0.7,0.6,1.3,1.3,1.3c0.7,0,1.3-0.6,1.3-1.3l0,0v-2h2c0.7,0,1.3-0.6,1.3-1.3S586.8,72.8,586.1,72.8z"/>
<path class="st9" d="M648,122.3h-2v-2c0-0.7-0.6-1.3-1.3-1.3s-1.3,0.6-1.3,1.3v2h-2c-0.7,0-1.3,0.6-1.3,1.3s0.6,1.3,1.3,1.3h2v2
	c0,0.7,0.6,1.3,1.3,1.3s1.3-0.6,1.3-1.3v-2h2c0.7,0,1.3-0.6,1.3-1.3S648.7,122.3,648,122.3z"/>
<path class="st9" d="M731.9,69.6h-2v-2c0-0.7-0.6-1.3-1.3-1.3s-1.3,0.6-1.3,1.3v2h-2c-0.7,0-1.3,0.6-1.3,1.3s0.6,1.3,1.3,1.3h2v2
	c0,0.7,0.6,1.3,1.3,1.3s1.3-0.6,1.3-1.3v-2h2c0.7,0,1.3-0.6,1.3-1.3S732.6,69.6,731.9,69.6L731.9,69.6z"/>
<path class="st10" d="M516.8,234.8c-44.1,37-69-13.2-59.1-39.2c0,0,12.9,7.4,13.4-1.3c0.6-8.7-8.1-2.5-11.8-5.8s-2.3-7.8,1.1-8.9
	s5,0,5.6,4.3c0.6,3.9,6.7,4.3,8,1.1s0.5-14-15.1-14.4c-0.4-2.2,4.5-20.7-4-20.6c-6.8,0.1-4.1,14.9-4,19c-2.4-7-2.7-18.6-9.8-15.1
	s4.1,19.3,4.1,19.3s-7.6-12.9-12.2-6.9c-3.3,4.3,0.9,8.3,6.9,12.6c4.6,3.4,1.9,13.1,1.2,16.8c-2.2,11.7-9,57.6,26.8,72.3
	c18.7,7.7,38.1,1.3,38.1,1.3L516.8,234.8z"/>
<path class="st11" d="M516.8,234.8l-10.7,34.5c0,0-19.4,6.3-38.1-1.3c-29.6-12.1-30.1-45.5-28.2-63.4c-0.3,18.4,4.2,43.2,28.8,53.3
	c18.7,7.7,38.1,1.3,38.1,1.3l6.7-21.7C514.6,236.6,515.7,235.7,516.8,234.8z"/>
<path class="st10" d="M581.2,234.8c44.1,37,69-13.2,59.1-39.2c0,0-12.9,7.4-13.5-1.3c-0.6-8.7,8.1-2.5,11.8-5.8s2.3-7.8-1.1-8.9
	c-3.4-1.1-5,0-5.7,4.3c-0.6,3.9-6.7,4.3-8,1.1s-0.5-14,15.1-14.4c0.4-2.2-4.5-20.7,4-20.6c6.8,0.1,4.1,14.9,4,19
	c2.4-7,2.7-18.6,9.8-15.1s-4.1,19.3-4.1,19.3s7.6-12.9,12.2-6.9c3.3,4.3-0.9,8.3-6.9,12.6c-4.6,3.4-1.9,13.1-1.2,16.8
	c2.2,11.7,9,57.6-26.8,72.3c-18.7,7.7-38.1,1.3-38.1,1.3L581.2,234.8z"/>
<path class="st11" d="M581.3,234.8l10.7,34.5c0,0,19.4,6.3,38.1-1.3c29.6-12.1,30.1-45.5,28.2-63.4c0.3,18.4-4.2,43.2-28.8,53.3
	c-18.7,7.7-38.1,1.3-38.1,1.3l-6.7-21.7C583.5,236.6,582.4,235.7,581.3,234.8z"/>
<path class="st12" d="M602.8,242.5c-5.2-0.7-19.3-6.9-24.6-10.2c-13.1-10.3-43.8-11.1-57.1-1c-1.2,0.9-20.9,11.7-26.2,11.1
	c-4.3-0.4-5.6,35.1,0,36.7c1.8,0.5,3.7,0.9,5.6,1.2c-0.7,23.3-1.4,59.3,2.8,64c5,5.6,86.6,5.6,91.6,0c4.2-4.7,3.4-40.8,2.6-64
	c1.8-0.3,3.6-0.7,5.4-1.2C608.3,277.6,607,243.1,602.8,242.5z"/>
<path class="st11" d="M558.6,218.2h-19.3c0,11.8-1.1,17.7,9.7,17.7C559.7,235.9,558.6,230,558.6,218.2z"/>
<path class="st13" d="M655.1,359.8c-4.6-18.8-35.6-24.3-52.3-24H497.8c-16.7-0.3-47.7,5.2-52.3,24c-4.5,18.6,0.8,54,104.8,33.9
	C654.3,413.8,659.7,378.4,655.1,359.8z"/>
<path class="st14" d="M655.1,359.4c5.3,19-0.9,55.3-108.3,33.5c0,0,3.2-20.5-1.7-34.5C607.6,336,650.9,344.3,655.1,359.4z"/>
<path class="st13" d="M546.8,393c0,0,0.3-2.2,0.6-5.6c96.4,19.1,109.9-9.2,107.4-28.7c0.1,0.2,0.2,0.5,0.2,0.7
	C660.5,378.5,654.2,414.7,546.8,393z"/>
<path class="st15" d="M589.6,399.6c-3.7,0.3-7.3,0.2-11-0.2c-15.6-1.5-35.4-6.9-35.4-6.9l10.9-28.8c0,0,15.1-0.6,27.2-0.5
	c6,0,11.3,0.3,13.7,0.9C605.5,366.6,605.9,398,589.6,399.6z"/>
<path class="st16" d="M553.9,371.6c0.4,0,24.4,0.8,23.7,1.1c-0.7,0.3-1.6,15.3-1.6,15.3s-24.3-3.4-24-3.8S553.9,371.6,553.9,371.6z"
	/>
<path class="st6" d="M589.6,399.6c-3.7,0.3-7.3,0.2-11-0.2c-3.3-4.8-5-11.9-4.2-19.4c0.5-6.2,2.9-12,6.9-16.8c6,0,11.3,0.3,13.7,0.9
	C605.5,366.6,605.9,398,589.6,399.6z"/>
<path class="st17" d="M589.6,399.6c-2.1,0.2-4.2,0.2-6.3,0.1l1.2-0.1c16.3-1.6,15.9-33,5.4-35.6c-2.9-0.6-5.8-0.9-8.7-0.9
	c4.8,0,10.5,0.1,13.7,0.9C605.5,366.6,605.9,398,589.6,399.6z"/>
<path class="st17" d="M573.4,390.9c-0.7,0-1.3-0.4-1.4-1.1c-1.2-4.4-0.5-9.9,0.4-14c-1.8,3.1-3.4,7.8-2.9,12.3
	c0.1,0.8-0.5,1.6-1.3,1.7c-0.8,0.1-1.6-0.5-1.7-1.3c-1-8.1,4.4-18.6,8.6-19.4c0.8-0.1,1.6,0.4,1.7,1.2c0,0.3,0,0.5-0.1,0.8
	c0,0.1-3.9,11-2,17.9c0.2,0.8-0.2,1.6-1,1.9C573.7,390.9,573.6,390.9,573.4,390.9z"/>
<path class="st17" d="M562,389.1c-0.8,0-1.4-0.6-1.5-1.3c-1-8.1,4.4-18.6,8.6-19.4c0.8-0.1,1.6,0.4,1.8,1.3s-0.4,1.6-1.3,1.8
	c-1.8,0.3-7.1,8.5-6.2,16c0.1,0.8-0.5,1.6-1.3,1.7c0,0,0,0,0,0H562z"/>
<path class="st17" d="M555.9,388.5c-0.8,0-1.4-0.6-1.5-1.3c-1-8.1,4.4-18.6,8.6-19.4c0.8-0.1,1.6,0.4,1.8,1.3s-0.4,1.6-1.3,1.8
	c-1.8,0.3-7.1,8.5-6.2,16c0.1,0.8-0.5,1.6-1.3,1.7c0,0,0,0,0,0H555.9z"/>
<path class="st6" d="M573.5,390.4c-0.2,0-0.4,0-0.6-0.1c-4-1.6-7-13-4.4-20.7c0.3-0.8,1.1-1.2,1.9-0.9c0.8,0.3,1.2,1.1,0.9,1.9
	c-2.5,7.2,1,16.3,2.7,17c0.8,0.3,1.1,1.2,0.8,2C574.6,390,574.1,390.4,573.5,390.4L573.5,390.4z"/>
<path class="st6" d="M567.4,389.7c-0.2,0-0.4,0-0.6-0.1c-4-1.6-7-13-4.4-20.7c0.3-0.8,1.1-1.2,1.9-0.9c0.8,0.3,1.2,1.1,0.9,1.9l0,0
	c-2.5,7.2,1,16.3,2.7,17c0.8,0.3,1.1,1.2,0.8,2C568.6,389.4,568,389.8,567.4,389.7L567.4,389.7z"/>
<path class="st6" d="M561.3,389.1c-0.2,0-0.4,0-0.6-0.1c-4-1.6-7-13-4.4-20.7c0.3-0.8,1.1-1.2,1.9-0.9c0.8,0.3,1.2,1.1,0.9,1.9l0,0
	c-2.5,7.2,1,16.3,2.7,17c0.8,0.3,1.1,1.2,0.8,2C562.5,388.8,561.9,389.1,561.3,389.1L561.3,389.1z"/>
<path class="st18" d="M599.5,348.6c-5.1,4.1-95.4,4.8-101.2,0s-12.3-76.7-8.8-80.2s114-3.1,118.8,0
	C613.1,271.6,604.5,344.5,599.5,348.6z"/>
<path class="st19" d="M603.8,334.3c-1.5,7.7-3,13.3-4.3,14.4c-5.1,4.1-95.4,4.8-101.2,0s-12.3-76.7-8.8-80.2
	c0.5-0.5,5.6,46.8,20.4,59.6C535.8,350.4,585.5,344.9,603.8,334.3z"/>
<path class="st6" d="M563.9,309c0,9.8-6.4,14.8-14.8,14.8s-14.8-4.3-14.8-14.8s6.6-14.8,14.8-14.8
	C557.3,294.2,563.9,299.2,563.9,309z"/>
<path class="st6" d="M547.2,291.6c0,0-5.7-9.4-8.8-3.3C536.8,291.6,547.2,291.6,547.2,291.6z"/>
<path class="st6" d="M550.3,291.6c0,0,5.7-9.4,8.8-3.3C560.7,291.6,550.3,291.6,550.3,291.6z"/>
<path class="st20" d="M480.8,343.6c23.2,1.5,61,14.3,75.8,18.1c-2.2,3.5-5.6,31.5-4.1,33c-108.3,22-111.6-17.6-107-35.8
	C446.9,353.3,456.3,342.1,480.8,343.6z"/>
<path class="st14" d="M552.5,394.8c-100.7,20.4-110.6-12.3-107.9-31.6c2.9,18.3,23.6,38.5,107.9,21.4V394.8z"/>
<path class="st21" d="M596.3,171.8c-0.1,0.1-0.3,0.2-0.5,0.2c-1.4,0.3-2.9,0.5-4.4,0.6l-1.6,0.1h-0.2h-1.3h-1h-1.9
	c-18.4,0.4-55-1.1-72.3-1.9h-0.9l-2.5-0.1l-1.2-0.1l-4.8-0.2c-0.6-0.6-1.1-1.3-1.6-2.1c-3.4-4.8-7.4-13.4-5.1-15.2
	c2.6-2.1,6.6-0.5,6.7-1.7c0.1-1.2-6.3-10.5-3.7-13.4s2.6-0.3,3.7-1.4c0.6-0.6-1.2-5-1.6-9.4c-0.1-0.6-0.1-1.2-0.1-1.8
	c0-2.6,0.8-5,2.9-6.4c1.1-0.7,2.1-1.5,2.9-2.5c1.7-2.1-0.4-2.8,2.5-4.4c3.7-2.1,8.6,1,8.6,1s6.7-12.6,10.2-13.1s3.1,4.6,6,4
	c2.9-0.6,7.2-6.7,10.9-7.9c5.2-1.7-1.5,5.5,1,5.5s8.1-6.9,16.2-8.1c2.8,2.5-1.2,6.5,5.2,7.5s3.5,6.6,7.6,8.4
	c4.1,1.9,3.6,0.5,7.8,1.9s2.6,2.8,3.8,7.2c1.2,4.5,0.1,5.3,4.5,7.8c4.4,2.4,9,4.3,6.7,9.6c-2.3,5.3-2.7,9.1,0,8.1
	c2.7-1,3.2-1.2,2.5,1.9s-5.9,10.4-1.5,10.4S600.2,168.7,596.3,171.8z"/>
<path class="st22" d="M596.3,171.8c-0.1,0.1-0.3,0.2-0.5,0.2c-1.4,0.3-2.9,0.5-4.4,0.6l-1.6,0.1h-0.2h-1.3h-1h-1.9
	c-18.4,0.4-55-1.1-72.3-1.9h-0.9l-2.5-0.1l-1.2-0.1l-4.8-0.2c-0.6-0.6-1.1-1.3-1.6-2.1c-3.4-4.8-7.4-13.4-5.1-15.2
	c2.6-2.1,6.6-0.5,6.7-1.7c0.1-1.2-6.3-10.5-3.7-13.4s2.6-0.3,3.7-1.4c0.6-0.6-1.2-5-1.6-9.4c-0.1-0.6-0.1-1.2-0.1-1.8
	c0-2.6,0.8-5,2.9-6.4c1.1-0.7,2.1-1.5,2.9-2.5c1.7-2.1-0.4-2.8,2.5-4.4c3.7-2.1,8.6,1,8.6,1s6.7-12.6,10.2-13.1s3.1,4.6,6,4
	c2.9-0.6,7.2-6.7,10.9-7.9c5.2-1.7-1.5,5.5,1,5.5s8.1-6.9,16.2-8.1c2.8,2.5-1.2,6.5,5.2,7.5s3.5,6.6,7.6,8.4
	c4.1,1.9,3.6,0.5,7.8,1.9s2.6,2.8,3.8,7.2c1.2,4.5,0.1,5.3,4.5,7.8c4.4,2.4,9,4.3,6.7,9.6c-2.3,5.3-2.7,9.1,0,8.1
	c2.7-1,3.2-1.2,2.5,1.9s-5.9,10.4-1.5,10.4S600.2,168.7,596.3,171.8z"/>
<path class="st23" d="M593.1,169.6v1c-0.1,1-0.7,1.8-1.6,2.1c-0.5,0.2-1.1,0.2-1.6,0.1h-0.1h-0.2c-0.4,0.1-0.9,0.1-1.3,0
	c-0.4-0.1-0.7-0.2-1-0.4c-0.3-0.3-0.6-0.6-0.7-1c-0.1-0.3-0.1-0.6-0.1-0.9c0.2-3.8-0.2-7.5-1.1-11.2c-0.3-1.2,0.4-2.5,1.6-2.8
	c0.1,0,0.2,0,0.3-0.1c0,0,0.1,0,0.1,0c-0.2-0.8-0.4-1.6-0.7-2.4c-0.4-1.2,0,0,0,0c-0.4-1.3-0.9-2.6-1.5-3.9
	c-0.1-0.1-0.2-0.3-0.2-0.4l-0.2-0.4v-0.1c-0.1-0.1-0.1-0.2-0.2-0.3c-0.1-0.2-0.2-0.4-0.4-0.6c-0.5-0.9-1.1-1.7-1.8-2.4
	c0-0.1-0.1-0.1-0.2-0.2c-3.3-3.8-7.9-6.2-12.7-8.1c-11.6-4.6-25.1-4.3-37.3-1.4c0.5,1.7-0.5,3.5-2.2,3.9c-0.1,0-0.2,0-0.3,0.1
	c-6.2,2.1-10.9,5.3-16,8.9l0,0l-2,1.4c0,2.2-0.2,4.3-0.6,6.4c0,0.2-0.1,0.4-0.1,0.6c0.8,1.9,1.4,3.9,1.9,6l0.1,0.1
	c0.4,0.4,0.6,0.9,0.8,1.4c0.7,1.7,0.5,3.6-0.6,5l0,0c-0.3,0.4-0.5,0.7-0.9,1c0,0-0.1,0.1-0.1,0.1c-0.3,0.6-0.8,1.2-1.3,1.6
	c-0.7,0.6-1.5,1.1-2.4,1.4c-0.2,0.1-0.5,0.2-0.7,0.2c-0.1,0-0.3,0.1-0.4,0.1c-1.8,0.4-3.7,0.1-5.3-0.7c-1.1-0.6-2-1.3-2.9-2.2
	c0.4-0.9,1-1.7,1.8-2.4c0.3-0.2,0.6-0.4,0.9-0.6c-3.4-4.8-7.4-13.4-5.1-15.2c2.6-2.1,6.6-0.5,6.7-1.7c0.1-1.2-6.3-10.5-3.7-13.4
	s2.6-0.3,3.7-1.4c0.6-0.6-1.2-5-1.6-9.4h0.1c-0.1-0.6-0.1-1.2-0.2-1.8c0-2.6,0.8-5,2.9-6.4c1.1-0.7,2.1-1.5,2.9-2.5
	c0.4,0.1,0.6,0.5,0.6,0.9c0,0,0,0,0,0c-1.2,3.5-2.6,6.2-1.2,9.9c0.8-0.9,1.7-1.9,2.7-2.7c2-1.8,4.9,0.8,3.5,2.8
	c0.7,0,1.5,0.1,2.2,0.3c1.5-3.5,3.3-6.8,7.1-8.5c1.4-0.6,3.4,0.4,2.8,2.2c-0.1,0.4-0.3,1-0.5,1.5c0.4-0.6,0.6-1.1,0.8-1.4
	c1.4-1.8,3.8-2.4,5.9-1.5c2-1.9,4.1-3.9,6.2-5.7c3.5-3,6.9-5.1,11.6-4.4c3,0.4,3.1,4.8,0.8,6.1c-0.8,0.5-1.5,1-2.2,1.5
	c-0.8,0.6-1.5,1.3-2.2,2.1l0,0c-0.2,0.3-1.7,2.1-2.7,3.2c0.1,0.1,0.1,0.1,0.2,0.2c2.7-0.7,5.3-1.6,7.8-2.8c3.3-1.5,6.9-2.3,10.5-2.4
	c2.2,0.1,3.9,2,3.8,4.2c0,0.2,0,0.3,0,0.5c3.5,0.1,7.1,0.1,10.6,0c1.2,0,2.1,1,2.1,2.2c0,0.2,0,0.3-0.1,0.5
	c-0.1,0.8-0.3,1.5-0.6,2.2c1-0.1,1.9-0.2,2.9-0.2c0.5,0.1,0.9,0.6,0.9,1.1c0,0.4-0.3,0.7-0.6,0.8c-2,0.7-4,1.1-6,1.7
	c-0.8,0.2-1.6-0.3-1.8-1.1c-0.1-0.3,0-0.7,0.1-1c-1.4,0.5-2.9,0.8-4.5,0.9c2.2,0.7,4.4,1.5,6.5,2.5
	C588.5,139.1,593.4,155.5,593.1,169.6z"/>
<path class="st11" d="M511.4,193.1c-0.2,0-0.4,0-0.6,0c-12.3-0.7-14.8-15-11.5-21.6c0.4-0.9,1-1.7,1.8-2.4c0.3-0.2,0.6-0.4,0.9-0.6
	c2.6-1.6,4.8-0.5,6.4,1c0.4,0.4,0.8,0.9,1.2,1.4c0.4,0.6,0.8,1.2,1.2,1.8l0.1,0.3L511.4,193.1z"/>
<path class="st24" d="M505.7,180.3c0-0.3,0.1-0.5,0.1-0.8c0.5-1.7,1.3-3.3,2.3-4.7c0.1-0.2,0-0.4-0.1-0.5c-0.1-0.1-0.3-0.1-0.4,0
	c-3,1.8-5.7,5.8-4.4,9.5c1,2.8,5.6,4.7,7.1,1.3C511.4,182.3,508.6,178.5,505.7,180.3z"/>
<path class="st11" d="M584.8,194.5L584.8,194.5h-0.6v-0.7l0.4-19.5c0.3-0.5,0.5-1,0.9-1.4c0.5-0.8,1.2-1.6,1.9-2.2
	c1.7-1.5,4.2-2.5,7.1-0.2c0.5,0.4,1,1,1.4,1.6C599.8,178.3,597.6,193.8,584.8,194.5z"/>
<path class="st24" d="M589.9,181.7c0-0.3-0.1-0.5-0.2-0.8c-0.5-1.7-1.3-3.3-2.3-4.7c-0.1-0.2,0-0.4,0.1-0.5c0.1-0.1,0.3-0.1,0.4,0
	c3,1.8,5.7,5.8,4.4,9.5c-1,2.8-5.6,4.7-7.1,1.3C584.1,183.7,587,179.9,589.9,181.7z"/>
<path class="st10" d="M587.5,160.2c0,3.6,0,7.1-0.2,10.4c0,0.7,0,1.5-0.1,2.2c-0.1,3.1-0.3,6.1-0.6,8.9c-0.2,2-0.4,3.9-0.7,5.7
	c-0.3,2.4-0.8,4.7-1.3,6.9c0,0,0,0.1,0,0.1c-1.5,6.3-3.8,11.4-7.2,15.4c-5.9,7-15.2,10.5-29.6,10.5c-14.6,0-23.9-3.6-29.8-10.8
	c-3-3.8-5.1-8.1-6.3-12.8c-0.3-1.2-0.7-2.4-0.9-3.7c-0.5-2.2-0.9-4.6-1.2-7.1c-0.2-1.8-0.4-3.6-0.6-5.5c-0.3-3.1-0.4-6.3-0.5-9.8
	c0-0.4,0-0.9,0-1.3c-0.1-3-0.1-6-0.1-9.2C508.3,123.5,587.5,123.5,587.5,160.2z"/>
<path class="st11" d="M578.7,208.4c-0.4,0.5-0.8,1-1.2,1.5c-5.9,7-15.2,10.5-29.6,10.5c-14.6,0-23.9-3.6-29.8-10.8
	c-3-3.8-5.1-8.1-6.3-12.8c-0.3-1.2-0.7-2.4-0.9-3.7c-0.5-2.2-0.9-4.6-1.2-7.1c-0.2-1.8-0.4-3.6-0.6-5.5c-0.3-3.1-0.4-6.3-0.6-9.8
	c0-0.4,0-0.9,0-1.3c-0.1-3-0.1-6-0.1-9.2c0-7,3.2-13.7,8.7-18c-2.8,3.9-4.3,8.5-4.3,13.3c0,3.2,0,6.3,0.1,9.2c0,0.4,0,0.9,0,1.3
	c0.1,3.4,0.3,6.7,0.5,9.8c0.2,1.9,0.4,3.8,0.6,5.5c0.3,2.5,0.7,4.8,1.2,7.1c0.3,1.3,0.6,2.5,0.9,3.7c1.2,4.6,3.4,9,6.3,12.8
	c5.9,7.2,15.3,10.8,29.8,10.8C564.3,215.7,572.7,213.3,578.7,208.4z"/>
<path class="st21" d="M528.6,187.7c-4.5,0-9.1-3.6-9.1-10.4c0-0.8,0.7-1.5,1.5-1.5c0.8,0,1.5,0.7,1.5,1.5c0,5.1,3.2,7.4,6.1,7.4
	s6.1-2.3,6.1-7.4c0-0.8,0.7-1.5,1.5-1.5c0.8,0,1.5,0.7,1.5,1.5C537.7,184.1,533.2,187.7,528.6,187.7z"/>
<path class="st21" d="M568.8,187.7c-4.5,0-9.1-3.6-9.1-10.4c0-0.8,0.7-1.5,1.5-1.5c0.8,0,1.5,0.7,1.5,1.5c0,5.1,3.2,7.4,6.1,7.4
	s6.1-2.3,6.1-7.4c0-0.8,0.7-1.5,1.5-1.5c0.8,0,1.5,0.7,1.5,1.5C577.9,184.1,573.3,187.7,568.8,187.7z"/>
<path class="st21" d="M532.6,157.7c-0.5,0-1-0.3-1.3-0.7c-1-1.6-2-2.4-2.7-2.4s-1.7,0.9-2.7,2.4c-0.4,0.7-1.4,0.9-2.1,0.5
	c-0.7-0.4-0.9-1.4-0.5-2.1c1.6-2.6,3.4-3.9,5.3-3.9s3.6,1.3,5.3,3.9c0.4,0.7,0.2,1.6-0.5,2.1C533.2,157.6,532.9,157.7,532.6,157.7
	L532.6,157.7z"/>
<path class="st21" d="M572.8,157.7c-0.5,0-1-0.3-1.3-0.7c-1-1.6-2-2.4-2.7-2.4s-1.8,0.9-2.8,2.5c-0.4,0.7-1.4,0.9-2.1,0.5
	s-0.9-1.4-0.5-2.1l0,0c1.6-2.6,3.4-3.9,5.3-3.9s3.6,1.3,5.3,3.9c0.4,0.7,0.2,1.6-0.5,2.1C573.3,157.6,573,157.7,572.8,157.7
	L572.8,157.7z"/>
<path class="st21" d="M549.2,197.9h0.5c1.3,0,2.4,1.1,2.4,2.4v4.4c0,1.3-1.1,2.4-2.4,2.4h-0.5c-1.3,0-2.4-1.1-2.4-2.4v-4.4
	C546.8,199,547.9,197.9,549.2,197.9z"/>
<g class="st25">
	<path class="st26" d="M530,200.4c0,5.3-4.2,9.5-9.5,9.5c-0.8,0-1.7-0.1-2.5-0.3c-3-3.8-5.1-8.1-6.3-12.8c1.9-4.9,7.5-7.3,12.3-5.3
		C527.7,192.9,530,196.5,530,200.4z"/>
	<path class="st26" d="M584.8,194.5L584.8,194.5c-1.6,6.3-3.9,11.4-7.3,15.4h-0.1c-5.3,0-9.5-4.2-9.5-9.5c0-5.3,4.2-9.5,9.5-9.5
		c2.6,0,5.1,1,6.9,2.9C584.4,194,584.6,194.2,584.8,194.5L584.8,194.5z"/>
</g>
<text transform="matrix(1 0 0 1 789.59 90.68)" class="st27 st28 st29">&lt;article&gt;</text>
<text transform="matrix(1 0 0 1 916.59 157.68)" class="st27 st28 st29">&lt;main&gt;</text>
<text transform="matrix(1 0 0 1 338.85 39.3)" class="st27 st28 st29">&lt;header&gt;</text>
<text transform="matrix(1 0 0 1 145.85 88.3)" class="st27 st28 st29">&lt;footer&gt;</text>
<text transform="matrix(1 0 0 1 69.02 226.91)" class="st27 st28 st29">&lt;section&gt;</text>
<text transform="matrix(1 0 0 1 714.21 374.16)" class="st27 st28 st29">&lt;figure&gt;</text>
<text transform="matrix(1 0 0 1 836.35 313.44)" class="st27 st28 st29">&lt;figcaption&gt;</text>
<text transform="matrix(1 0 0 1 324.01 375.77)" class="st27 st28 st29">&lt;mark&gt;</text>
<text transform="matrix(1 0 0 1 250.01 285.77)" class="st27 st28 st29">&lt;nav&gt;</text>
<text transform="matrix(1 0 0 1 250.01 160.77)" class="st27 st28 st29">&lt;aside&gt;</text>
<text transform="matrix(1 0 0 1 93 352.17)" class="st27 st28 st29">&lt;summary&gt;</text>
<text transform="matrix(1 0 0 1 764.79 217.88)" class="st27 st28 st29">&lt;details&gt;</text>
<text transform="matrix(1 0 0 1 650.09 44.92)" class="st27 st28 st29">&lt;time&gt;</text>
<path class="st1" d="M-204,433H1174c1.6,0,3,1.3,3,2.8v414.3c0,1.6-1.3,2.8-3,2.8H-204c-1.6,0-3-1.3-3-2.8V435.8
	C-207,434.3-205.7,433-204,433z"/>
<image style="overflow:visible;" width="500" height="500" xlink:href="../../3.png"  transform="matrix(1 0 0 1 -593 -528)">
</image>
</svg>
