<?xml version="1.0" encoding="utf-8"?>
<!-- Generator: Adobe Illustrator 21.0.2, SVG Export Plug-In . SVG Version: 6.00 Build 0)  -->
<svg version="1.1" id="Слой_1" xmlns="http://www.w3.org/2000/svg" xmlns:xlink="http://www.w3.org/1999/xlink" x="0px" y="0px"
	 viewBox="0 0 500 415" style="enable-background:new 0 0 500 415;" xml:space="preserve">
<style type="text/css">
	.st0{fill:#F0F0F0;}
	.st1{fill:#E0E0E0;}
	.st2{fill:#27DEBF;}
	.st3{opacity:0.5;}
	.st4{opacity:0.7;enable-background:new    ;}
	.st5{opacity:0.3;enable-background:new    ;}
	.st6{opacity:0.7;fill:#27DEBF;enable-background:new    ;}
	.st7{opacity:0.6;enable-background:new    ;}
	.st8{opacity:0.2;enable-background:new    ;}
	.st9{opacity:0.5;enable-background:new    ;}
	.st10{fill:#FAFAFA;}
	.st11{opacity:0.5;fill:#FFFFFF;enable-background:new    ;}
	.st12{fill:#37474F;}
	.st13{opacity:0.8;}
	.st14{fill:#455A64;}
	.st15{opacity:0.7;}
	.st16{opacity:0.4;}
	.st17{fill:#FFFFFF;}
	.st18{opacity:0.15;enable-background:new    ;}
	.st19{opacity:0.9;fill:#37474F;enable-background:new    ;}
	.st20{fill:#263238;}
	.st21{fill:#F5F5F5;}
	.st22{opacity:0.6;fill:#FFFFFF;enable-background:new    ;}
	.st23{fill:#FFA8A7;}
	.st24{opacity:0.2;}
	.st25{fill:#F28F8F;}
</style>
<g id="Floor">
	<path id="Floor-2" class="st0" d="M399.4,195.5c84.2,48.6,84.2,127.4,0,176s-220.7,48.6-304.9,0s-84.2-127.4,0-176
		S315.2,146.9,399.4,195.5z"/>
</g>
<g id="Shadows">
	<path id="Shadow" class="st1" d="M393.2,328.9c12.5,7.2,12.5,18.9,0,26.1s-32.8,7.2-45.2,0s-12.5-18.9,0-26.1
		S380.7,321.7,393.2,328.9z"/>
	<path id="Shadow-2" class="st1" d="M80.2,321.4l-35.8-20.7c-1.3-0.7-1.3-1.9,0-2.6l197.2-113.9c1.4-0.7,3.1-0.7,4.6,0l35.8,20.6
		c1.3,0.7,1.3,1.9,0,2.6l-197.3,114C83.3,322.1,81.6,322.1,80.2,321.4z"/>
</g>
<g id="Device">
	<g id="PC">
		<g id="Monitor">
			<g id="_Группа_">
				<g id="_Группа_2">
					<path id="_Контур_" class="st2" d="M204.3,289l28.8-16.7c3-1.7,4.5-4,4.5-6.2v-4l-34.7-19.6c-1.7-1.1-2.8-3-2.9-5V202
						l-50.3,29.1v35.5c0.1,2,1.2,3.9,2.9,5l30.2,17.4C188.7,292.4,198.4,292.4,204.3,289z"/>
				</g>
				<g id="_Группа_3" class="st3">
					<path id="_Контур_2" d="M204.3,289l28.8-16.7c3-1.7,4.5-4,4.5-6.2v-4l-34.7-19.6c-1.7-1.1-2.8-3-2.9-5V202l-50.3,29.1
						v35.5c0.1,2,1.2,3.9,2.9,5l30.2,17.4C188.7,292.4,198.4,292.4,204.3,289z"/>
				</g>
				<path id="_Контур_3" class="st2" d="M161.8,272.9v4l-9.2-5.3c-1.7-1.1-2.8-3-2.9-5v-35.5l9.6-5.5c0.2,2.4,0.4,4.9,0.6,7.4
					l-6.7,3.9v27.8c0.1,2,1.2,3.9,2.9,5L161.8,272.9z"/>
				<path id="_Контур_4" class="st4" d="M161.8,272.9v4l-9.2-5.3c-1.7-1.1-2.8-3-2.9-5v-35.5l9.6-5.5c0.2,2.4,0.4,4.9,0.6,7.4
					l-6.7,3.9v27.8c0.1,2,1.2,3.9,2.9,5L161.8,272.9z"/>
				<path id="_Контур_5" class="st2" d="M153.2,264.6c0.1,2,1.2,3.9,2.9,5l26.7,15.4c5.9,3.4,15.6,3.4,21.5,0l28.8-16.7
					c5.9-3.4,5.9-9,0-12.4l-26.7-15.4c-1.7-1.1-2.8-3-2.9-5v-27.7l-50.3,29.1V264.6z"/>
				<path id="_Контур_6" class="st5" d="M153.2,264.6c0.1,2,1.2,3.9,2.9,5l26.7,15.4c5.9,3.4,15.6,3.4,21.5,0l28.8-16.7
					c5.9-3.4,5.9-9,0-12.4l-26.7-15.4c-1.7-1.1-2.8-3-2.9-5v-27.7l-50.3,29.1V264.6z"/>
				<path id="_Контур_7" class="st6" d="M212.2,243.9L212.2,243.9l-5.8-3.4c-1.7-1.1-2.8-3-2.9-5v-27.7l-50.3,29.1v27.8
					c0.1,2,1.2,3.9,2.9,5l5.7,3.3L212.2,243.9z"/>
				<path id="_Контур_8" class="st7" d="M212.2,243.9L212.2,243.9l-5.8-3.4c-1.7-1.1-2.8-3-2.9-5v-27.7l-50.3,29.1v27.8
					c0.1,2,1.2,3.9,2.9,5l5.7,3.3L212.2,243.9z"/>
				<path id="_Контур_9" class="st2" d="M237.6,262.2v4c0,2.3-1.5,4.5-4.5,6.2L204.3,289c-3.2,1.7-6.7,2.6-10.3,2.5v-4
					c3.6,0,7.1-0.9,10.3-2.5l28.8-16.6C236.1,266.7,237.6,264.4,237.6,262.2z"/>
				<path id="_Контур_10" class="st8" d="M237.6,262.2v4c0,2.3-1.5,4.5-4.5,6.2L204.3,289c-3.2,1.7-6.7,2.6-10.3,2.5v-4
					c3.6,0,7.1-0.9,10.3-2.5l28.8-16.6C236.1,266.7,237.6,264.4,237.6,262.2z"/>
			</g>
			<path id="_Контур_11" class="st2" d="M72.4,302.9c2.2,1.1,4.8,1,7-0.1L274,190.4c2.1-1.4,3.4-3.7,3.6-6.2V13.9
				c-0.1-2.4-1.3-4.7-3.4-6.1c-2.2-1.1-4.8-1-6.9,0.1L72.6,120.3c-2.1,1.4-3.4,3.7-3.6,6.2v170.4C69.1,299.3,70.3,301.6,72.4,302.9z
				"/>
			<path id="_Контур_12" class="st5" d="M72.4,302.9c2.2,1.1,4.8,1,7-0.1L274,190.4c2.1-1.4,3.4-3.7,3.6-6.2V13.9
				c-0.1-2.4-1.3-4.7-3.4-6.1c-2.2-1.1-4.8-1-6.9,0.1L72.6,120.3c-2.1,1.4-3.4,3.7-3.6,6.2v170.4C69.1,299.3,70.3,301.6,72.4,302.9z
				"/>
			<path id="_Контур_13" class="st2" d="M79.3,302.8L274,190.4c2.1-1.4,3.4-3.7,3.6-6.2V13.9c0-2.3-1.6-3.2-3.6-2.1
				L79.3,124.2c-2.1,1.4-3.5,3.7-3.6,6.3v170.3C75.7,303,77.3,303.9,79.3,302.8z"/>
			<path id="_Контур_14" class="st2" d="M79.3,302.8L274,190.4c2.1-1.4,3.4-3.7,3.6-6.2V13.9c0-2.3-1.6-3.2-3.6-2.1
				L79.3,124.2c-2.1,1.4-3.5,3.7-3.6,6.3v170.3C75.7,303,77.3,303.9,79.3,302.8z"/>
			<path id="_Контур_15" class="st9" d="M79.3,302.8L274,190.4c2.1-1.4,3.4-3.7,3.6-6.2V13.9c0-2.3-1.6-3.2-3.6-2.1
				L79.3,124.2c-2.1,1.4-3.5,3.7-3.6,6.3v170.3C75.7,303,77.3,303.9,79.3,302.8z"/>
			<path id="_Контур_16" class="st2" d="M78.8,303.1c-2.1,0.9-4.4,0.8-6.4-0.1c-2-1.4-3.3-3.7-3.4-6.1v-19.1l6.7,3.9v19.1
				C75.7,302.8,77,303.8,78.8,303.1z"/>
			<path id="_Контур_17" class="st4" d="M78.8,303.1c-2.1,0.9-4.4,0.8-6.4-0.1c-2-1.4-3.3-3.7-3.4-6.1v-19.1l6.7,3.9v19.1
				C75.7,302.8,77,303.8,78.8,303.1z"/>
			<path id="_Контур_18" class="st2" d="M75.7,281.6v19.1c0,2.3,1.6,3.2,3.6,2.1l194.6-112.3c2.1-1.4,3.4-3.7,3.6-6.2v-19.2
				L75.7,281.6z"/>
			<g id="_Группа_4" class="st3">
				<path d="M75.7,281.6v19.1c0,2.3,1.6,3.2,3.6,2.1l194.6-112.3c2.1-1.4,3.4-3.7,3.6-6.2v-19.2L75.7,281.6z"/>
			</g>
			<path id="_Контур_19" class="st10" d="M82.5,267.4V132.6c0.1-1.5,0.9-2.9,2.2-3.7l184-106.3c1.2-0.7,2.1-0.1,2.1,1.2v134.8
				c-0.1,1.5-0.9,2.9-2.1,3.7L84.6,268.7C83.4,269.4,82.5,268.8,82.5,267.4z"/>
			<path id="_Контур_20" class="st2" d="M176.6,231.1c-2,1.3-3.2,3.5-3.4,5.8c0,2.1,1.5,3,3.4,1.9c2-1.3,3.2-3.5,3.4-5.8
				C180,230.9,178.5,230,176.6,231.1z"/>
			<path id="_Контур_21" class="st11" d="M176.6,231.1c-2,1.3-3.2,3.5-3.4,5.8c0,2.1,1.5,3,3.4,1.9c2-1.3,3.2-3.5,3.4-5.8
				C180,230.9,178.5,230,176.6,231.1z"/>
			<path id="_Контур_22" class="st2" d="M76.8,126.8c-0.6,1.1-1,2.3-1.1,3.6v151.2l-6.7-3.9V126.5c0.1-1.3,0.4-2.5,1.1-3.5
				L76.8,126.8z"/>
			<path id="_Контур_23" class="st4" d="M76.8,126.8c-0.6,1.1-1,2.3-1.1,3.6v151.2l-6.7-3.9V126.5c0.1-1.3,0.4-2.5,1.1-3.5
				L76.8,126.8z"/>
		</g>
	</g>
	<g id="Keyboard">
		<path id="Shadow-3" class="st1" d="M146.6,341.8l48.6,28.2c1.7,0.9,3.8,0.9,5.5,0l143.7-82.9c1.5-0.9,1.5-2.3,0-3.1l-48.7-28.2
			c-1.7-0.9-3.8-0.9-5.5,0l-143.7,82.8C145.1,339.5,145.1,340.9,146.6,341.8z"/>
		<g id="Keyboard-2">
			<g id="_Группа_5">
				<path id="_Контур_24" class="st2" d="M341.4,278.9c-0.1-0.7-0.5-1.3-1.1-1.6l-45.7-26.4c-1.7-0.9-3.8-0.9-5.5,0
					l-139.4,80.6c-0.6,0.3-1.1,0.9-1.1,1.6v4.8c0.1,0.7,0.5,1.3,1.1,1.6l45.7,26.4c1.7,0.9,3.8,0.9,5.5,0l139.4-80.5
					c0.6-0.3,1.1-0.9,1.1-1.6C341.4,283.3,341.4,279.5,341.4,278.9z"/>
				<path id="_Контур_25" class="st9" d="M341.4,278.9c-0.1-0.7-0.5-1.3-1.1-1.6l-45.7-26.4c-1.7-0.9-3.8-0.9-5.5,0
					l-139.4,80.6c-0.6,0.3-1.1,0.9-1.1,1.6v4.8c0.1,0.7,0.5,1.3,1.1,1.6l45.7,26.4c1.7,0.9,3.8,0.9,5.5,0l139.4-80.5
					c0.6-0.3,1.1-0.9,1.1-1.6C341.4,283.3,341.4,279.5,341.4,278.9z"/>
				<path id="_Контур_26" class="st2" d="M195.4,361l-45.7-26.2c-1.5-0.9-1.5-2.3,0-3.1L289.1,251c1.7-0.9,3.8-0.9,5.5,0
					l45.7,26.4c1.5,0.9,1.5,2.3,0,3.1L200.9,361C199.2,361.9,197.1,361.9,195.4,361z"/>
				<path id="_Контур_27" class="st5" d="M195.4,361l-45.7-26.2c-1.5-0.9-1.5-2.3,0-3.1L289.1,251c1.7-0.9,3.8-0.9,5.5,0
					l45.7,26.4c1.5,0.9,1.5,2.3,0,3.1L200.9,361C199.2,361.9,197.1,361.9,195.4,361z"/>
				<path id="_Контур_28" class="st2" d="M198,361.7v4.9c-0.9,0-1.8-0.2-2.6-0.6l-45.6-26.4c-0.6-0.3-1.1-0.9-1.1-1.6v-4.8
					c0.1,0.7,0.5,1.3,1.1,1.6l45.6,26.3C196.2,361.4,197.1,361.7,198,361.7z"/>
				<path id="_Контур_29" class="st4" d="M198,361.7v4.9c-0.9,0-1.8-0.2-2.6-0.6l-45.6-26.4c-0.6-0.3-1.1-0.9-1.1-1.6v-4.8
					c0.1,0.7,0.5,1.3,1.1,1.6l45.6,26.3C196.2,361.4,197.1,361.7,198,361.7z"/>
			</g>
			<path class="st12" d="M256.3,285l5.2,3c0.1,0.1,0.2,0.1,0.3,0.1l4.8-2.7l-5.6-3.1L256.3,285z"/>
			<path class="st12" d="M262.5,281.4l5.2,3c0.1,0,0.2,0.1,0.3,0.1h0.2l4.6-2.7l-5.6-3.1L262.5,281.4z"/>
			<path class="st12" d="M245.7,291.1l5.2,3c0.1,0,0.2,0.1,0.3,0.1l7.8-4.4l-5.6-3.1L245.7,291.1z"/>
			<path class="st12" d="M239.5,294.7l5.2,3c0.1,0,0.2,0.1,0.3,0.1l4.8-2.7l-5.6-3.1L239.5,294.7z"/>
			<path class="st12" d="M210.9,342l4.8-2.7l-5.6-3.1l-4.7,2.7l5.2,3C210.7,342,210.8,342,210.9,342z"/>
			<path class="st12" d="M233.2,298.3l5.2,3c0.1,0.1,0.2,0.1,0.3,0.1l4.8-2.7l-5.6-3.1L233.2,298.3z"/>
			<path class="st12" d="M268.1,286.3l-4.7,2.7l5.2,3c0.1,0,0.2,0.1,0.3,0.1l4.8-2.7L268.1,286.3z"/>
			<path class="st12" d="M250.6,310.8l4.8-2.7l-5.6-3.1l-4.7,2.8l5.2,3C250.4,310.8,250.5,310.8,250.6,310.8z"/>
			<path class="st12" d="M275.2,288.5l4.8-2.7l-5.6-3.1l-4.7,2.7l5.2,3C275,288.5,275.1,288.5,275.2,288.5z"/>
			<path class="st12" d="M244.3,314.5l4.8-2.7l-5.6-3.1l-4.7,2.7l5.2,3C244.1,314.5,244.2,314.5,244.3,314.5z"/>
			<path class="st12" d="M238.1,318.1l4.8-2.7l-5.6-3.1l-4.7,2.7l5.2,3C237.9,318.1,238,318.1,238.1,318.1z"/>
			<path class="st12" d="M263.1,303.7l10.1-5.7l-12.7-7.2l-5.4,3l6.6,3.8c0.1,0,0.2,0.2,0.2,0.3c0,0.1-0.1,0.2-0.2,0.3l-4.2,2.4
				l5.2,3C262.9,303.6,263,303.6,263.1,303.7z"/>
			<path class="st12" d="M220.7,305.5l5.2,3c0.1,0,0.2,0.1,0.3,0.1l4.8-2.7l-5.6-3.1L220.7,305.5z"/>
			<path class="st12" d="M256.8,307.3l4.8-2.7l-5.6-3.1l-4.7,2.7l5.2,3C256.6,307.2,256.7,307.3,256.8,307.3z"/>
			<path class="st12" d="M185.5,340.3l4.8-2.7l-5.6-3.1l-4.7,2.7l5.2,3C185.3,340.3,185.4,340.3,185.5,340.3z"/>
			<path class="st12" d="M170.6,334.4l5.2,3c0.1,0,0.2,0.1,0.3,0.1h0.2l4.6-2.7l-5.6-3.1L170.6,334.4z"/>
			<path class="st12" d="M194.2,343.4h0.2l4.6-2.7l-5.6-3.1l-4.7,2.7l5.2,3C194,343.4,194.1,343.4,194.2,343.4z"/>
			<path class="st12" d="M198.3,349.2l4.8-2.7l-5.6-3.1l-4.7,2.7l5.2,3C198.1,349.2,198.2,349.2,198.3,349.2z"/>
			<path class="st12" d="M176.8,330.8l5.2,3c0.1,0,0.2,0.1,0.3,0.1l4.8-2.7l-5.6-3.1L176.8,330.8z"/>
			<path class="st12" d="M204.6,345.6l4.8-2.7l-5.6-3.1l-4.7,2.7l5.2,3C204.4,345.6,204.5,345.6,204.6,345.6z"/>
			<path class="st12" d="M195.6,320l5.2,3c0.1,0,0.2,0.1,0.3,0.1l4.8-2.7l-5.6-3.1L195.6,320z"/>
			<path class="st12" d="M201.9,316.4l5.2,3c0.1,0.1,0.2,0.1,0.3,0.1l4.8-2.7l-5.6-3.1L201.9,316.4z"/>
			<path class="st12" d="M208.1,312.8l5.2,3c0.1,0.1,0.2,0.1,0.3,0.1l4.8-2.7l-5.6-3.1L208.1,312.8z"/>
			<path class="st12" d="M189.4,323.6l5.2,3c0.1,0.1,0.2,0.1,0.3,0.1l4.8-2.7l-5.6-3.1L189.4,323.6z"/>
			<path class="st12" d="M214.4,309.1l5.2,3c0.1,0,0.2,0.1,0.3,0.1l4.8-2.7l-5.6-3.1L214.4,309.1z"/>
			<path class="st12" d="M183.1,327.3l5.2,3c0.1,0,0.2,0.1,0.3,0.1l4.8-2.7l-5.6-3.1L183.1,327.3z"/>
			<path class="st12" d="M226.9,301.9l5.2,3c0.1,0,0.2,0.1,0.3,0.1l4.8-2.7l-5.6-3.1L226.9,301.9z"/>
			<path class="st12" d="M242.6,301.1l5.2,3c0.1,0.1,0.2,0.1,0.3,0.1h0.2l4.6-2.7l-5.6-3.1L242.6,301.1z"/>
			<path class="st12" d="M276.4,273.4l5.2,3c0.1,0.1,0.2,0.1,0.3,0.1l4.8-2.7l-5.6-3.1L276.4,273.4z"/>
			<path class="st12" d="M282.6,269.8l5.2,3c0.1,0.1,0.2,0.1,0.3,0.1l4.8-2.7l-5.6-3.1L282.6,269.8z"/>
			<path class="st12" d="M236.3,304.7l5.2,3c0.1,0.1,0.2,0.1,0.3,0.1l4.8-2.7L241,302L236.3,304.7z"/>
			<path class="st12" d="M288.9,266.1l5.2,3c0.1,0.1,0.2,0.1,0.3,0.1l4.8-2.7l-5.6-3.1L288.9,266.1z"/>
			<path class="st12" d="M254.4,300.5h0.2l4.6-2.7l-5.6-3.1l-4.7,2.7l5.2,3C254.1,300.5,254.3,300.5,254.4,300.5z"/>
			<path class="st12" d="M283.5,277.4l5.2,3c0.1,0.1,0.2,0.1,0.4,0.1l4.8-2.7l-5.6-3.1L283.5,277.4z"/>
			<path class="st12" d="M296,270.2l5.2,3c0.1,0.1,0.2,0.1,0.3,0.1l4.8-2.7l-5.6-3.1L296,270.2z"/>
			<path class="st12" d="M295.2,276.9l4.8-2.7l-5.6-3.1l-4.7,2.7l5.2,3C295,276.9,295.1,276.9,295.2,276.9z"/>
			<path class="st12" d="M314.6,273.7c0.1,0,0.2,0.1,0.3,0.1h0.2l4.6-2.7l-12.7-7.2l-4.7,2.7L314.6,273.7z"/>
			<path class="st12" d="M230,308.3l5.2,3c0.1,0.1,0.2,0.1,0.3,0.1h0.2l4.6-2.7l-5.6-3.1L230,308.3z"/>
			<path class="st12" d="M302.3,281h0.2l4.6-2.7l-5.6-3.1l-4.7,2.7l5.2,3C302.1,281,302.2,281,302.3,281z"/>
			<path class="st12" d="M308.6,277.4l4.8-2.7l-5.6-3.1l-4.7,2.7l5.2,3C308.3,277.4,308.5,277.4,308.6,277.4z"/>
			<path class="st12" d="M198.7,326.3l5.2,3c0.1,0.1,0.2,0.1,0.3,0.1l4.8-2.7l-5.6-3.1L198.7,326.3z"/>
			<path class="st12" d="M186.2,333.6l5.2,3c0.1,0.1,0.2,0.1,0.3,0.1h0.2l4.6-2.7l-5.6-3.1L186.2,333.6z"/>
			<path class="st12" d="M206.7,336.2l4.8-2.7l-5.6-3.1l-4.7,2.7l5.2,3C206.5,336.2,206.6,336.2,206.7,336.2z"/>
			<path class="st12" d="M200.5,339.8l4.8-2.7l-5.6-3.1l-4.7,2.7l5.2,3C200.2,339.8,200.4,339.8,200.5,339.8z"/>
			<path class="st12" d="M213,332.6h0.2l4.6-2.6l-5.6-3.1l-4.7,2.7l5.2,3C212.8,332.6,212.9,332.6,213,332.6z"/>
			<path class="st12" d="M223.8,311.9l5.2,3c0.1,0.1,0.2,0.1,0.3,0.1h0.2l4.6-2.7l-5.6-3.1L223.8,311.9z"/>
			<path class="st12" d="M225.5,325.3l4.8-2.7l-5.6-3.1l-4.7,2.7l5.2,3C225.3,325.3,225.4,325.3,225.5,325.3z"/>
			<path class="st12" d="M219.3,329l4.8-2.7l-5.6-3.1l-4.7,2.7l5.2,3C219.1,328.9,219.2,329,219.3,329z"/>
			<path class="st12" d="M211.3,319.1l5.2,3c0.1,0.1,0.2,0.1,0.3,0.1l4.8-2.7l-5.6-3.1L211.3,319.1z"/>
			<path class="st12" d="M192.5,330l5.2,3c0.1,0.1,0.2,0.1,0.3,0.1l4.8-2.7l-5.6-3.1L192.5,330z"/>
			<path class="st12" d="M217.5,315.5l5.2,3c0.1,0.1,0.2,0.1,0.3,0.1l4.8-2.7l-5.6-3.1L217.5,315.5z"/>
			<path class="st12" d="M205,322.7l5.2,3c0.1,0.1,0.2,0.1,0.3,0.1h0.2l4.6-2.7l-5.6-3.1L205,322.7z"/>
			<path class="st12" d="M231.8,321.7l4.8-2.7l-5.6-3.1l-4.7,2.7l5.2,3C231.6,321.7,231.7,321.7,231.8,321.7z"/>
			<path class="st12" d="M268.8,277.7l5.2,3c0.1,0,0.2,0.1,0.3,0.1l4.8-2.7l-5.6-3.1L268.8,277.7z"/>
			<path class="st12" d="M169,335.3l-4.7,2.7l5.2,3c0.1,0,0.2,0.1,0.3,0.1h0.2l4.6-2.7L169,335.3z"/>
			<path class="st12" d="M178.4,338.1l-7,4.1l5.2,3c0.1,0,0.2,0.1,0.3,0.1h0.1l6.9-4L178.4,338.1z"/>
			<path class="st12" d="M161.4,329.8l-5.7,3.3l5.2,3c0.1,0.1,0.2,0.1,0.3,0.1l5.8-3.2L161.4,329.8z"/>
			<path class="st12" d="M191.3,347l-5.7,3.3l5.2,3c0.1,0.1,0.2,0.1,0.3,0.1l5.8-3.2L191.3,347z"/>
			<path class="st12" d="M187.1,341.2l-8.7,5l5.2,3c0.1,0,0.2,0.1,0.3,0.1h0.2l8.6-4.9L187.1,341.2z"/>
			<path class="st12" d="M171.2,330.4l4.8-2.7l-5.6-3.1l-4.7,2.7l5.2,3C171,330.4,171.1,330.4,171.2,330.4z"/>
			<path class="st12" d="M192.6,354.4l5.2,3c0.1,0.1,0.2,0.1,0.3,0.1l7.1-4l-5.6-3.1L192.6,354.4z"/>
			<path class="st12" d="M177.5,326.8l4.8-2.7l-5.6-3.1l-4.7,2.7l5.2,3C177.3,326.8,177.4,326.8,177.5,326.8z"/>
			<path class="st12" d="M205.3,310.8h0.2l4.6-2.7l-5.6-3.1l-4.7,2.7l5.2,3C205,310.8,205.1,310.8,205.3,310.8z"/>
			<path class="st12" d="M211.5,307.2l4.8-2.7l-5.6-3.1l-4.7,2.7l5.2,3C211.3,307.2,211.4,307.2,211.5,307.2z"/>
			<path class="st12" d="M199,314.4h0.2l4.6-2.7l-5.6-3.1l-4.7,2.7l5.2,3C198.8,314.4,198.9,314.4,199,314.4z"/>
			<path class="st12" d="M190,319.6h0.2l4.6-2.7l-5.6-3.1l-4.7,2.7l5.2,3C189.8,319.6,189.9,319.6,190,319.6z"/>
			<path class="st12" d="M183.7,323.2l4.8-2.7l-5.6-3.1l-4.7,2.7l5.2,3C183.5,323.2,183.6,323.2,183.7,323.2z"/>
			<path class="st12" d="M317.2,282.5l5.2,3c0.1,0,0.2,0.1,0.3,0.1h0.2l4.6-2.7l-5.6-3.1L317.2,282.5z"/>
			<path class="st12" d="M284.6,301.3l5.2,3c0.1,0.1,0.2,0.1,0.3,0.1l4.8-2.7l-5.6-3.1L284.6,301.3z"/>
			<path class="st12" d="M304.7,289.7l5.2,3c0.1,0.1,0.2,0.1,0.3,0.1h0.2l10.9-6.3l-5.6-3.1L304.7,289.7z"/>
			<path class="st12" d="M290.8,297.7l5.2,3c0.1,0.1,0.2,0.1,0.4,0.1l4.8-2.7l-5.6-3.1L290.8,297.7z"/>
			<path class="st12" d="M297.1,294.1l5.2,3c0.1,0.1,0.2,0.1,0.4,0.1l4.8-2.7l-5.6-3.1L297.1,294.1z"/>
			<path class="st12" d="M217.8,303.6h0.2l4.6-2.7l-5.6-3.1l-4.7,2.7l5.2,3C217.5,303.6,217.7,303.6,217.8,303.6z"/>
			<path class="st12" d="M321.1,272l-4.7,2.8l12.3,7.1c0.1,0,0.2,0.1,0.3,0.1h0.2l4.6-2.7L321.1,272z"/>
			<path class="st12" d="M208.4,345.3l5.2,3c0.1,0.1,0.2,0.1,0.3,0.1l5.8-3.2l-5.7-3.1L208.4,345.3z"/>
			<path class="st12" d="M215.7,341.1l5.2,3c0.1,0.1,0.2,0.1,0.4,0.1h0.2l35.6-20.6l-5.6-3.1L215.7,341.1z"/>
			<path class="st12" d="M217.1,338.4l4.8-2.7l-5.6-3.1l-4.7,2.7l5.2,3C216.9,338.3,217,338.4,217.1,338.4z"/>
			<path class="st12" d="M201.2,349.5l5.2,3c0.1,0.1,0.2,0.1,0.3,0.1l5.8-3.2l-5.6-3.1L201.2,349.5z"/>
			<path class="st12" d="M252.9,319.6l5.2,3c0.1,0.1,0.2,0.1,0.3,0.1h0.2l5.6-3.2l-5.6-3.1L252.9,319.6z"/>
			<path class="st12" d="M267.4,311.2l5.2,3c0.1,0,0.2,0.1,0.3,0.1h0.2l5.6-3.2l-5.6-3.1L267.4,311.2z"/>
			<path class="st12" d="M260.2,315.4l5.2,3c0.1,0,0.2,0.1,0.3,0.1l5.8-3.2l-5.6-3.1L260.2,315.4z"/>
			<path class="st12" d="M274.7,307l5.2,3c0.1,0.1,0.2,0.1,0.3,0.1h0.2l6.9-4l-5.6-3.1L274.7,307z"/>
			<path class="st12" d="M281.4,284.9h0.1l4.6-2.7l-5.5-3.2l-4.7,2.7l5.2,3C281.2,284.9,281.3,284.9,281.4,284.9z"/>
			<path class="st12" d="M289.3,296.7h0.2l4.6-2.7l-5.6-3.1l-4.7,2.7l5.2,3C289.1,296.7,289.2,296.7,289.3,296.7z"/>
			<path class="st12" d="M267.2,309.4l13-7.4l-5.6-3.1l-13,7.5l5.2,3C267,309.4,267.1,309.5,267.2,309.4z"/>
			<path class="st12" d="M303.1,288.7h0.2l4.6-2.7l-5.6-3.1l-4.7,2.7l5.2,3C302.9,288.7,303,288.7,303.1,288.7z"/>
			<path class="st12" d="M309.4,285.1h0.2l4.6-2.7l-5.6-3.1l-4.7,2.7l5.2,3C309.2,285.1,309.3,285.1,309.4,285.1z"/>
			<path class="st12" d="M261,313.1l4.8-2.7l-5.6-3.1l-4.7,2.7l5.2,3C260.7,313,260.8,313.1,261,313.1z"/>
			<path class="st12" d="M296.1,284.6h0.2l4.6-2.7l-5.7-3.2l-4.7,2.7l5.2,3C295.8,284.6,296,284.6,296.1,284.6z"/>
			<path class="st12" d="M229.6,331.1l4.8-2.7l-5.6-3.1l-4.7,2.7l5.2,3C229.4,331.1,229.5,331.1,229.6,331.1z"/>
			<path class="st12" d="M254.7,316.7l4.8-2.7l-5.6-3.2l-4.8,2.8l5.2,3C254.4,316.6,254.6,316.7,254.7,316.7z"/>
			<path class="st12" d="M223.4,334.8h0.2l4.6-2.7l-5.6-3.1l-4.7,2.7l5.2,3C223.2,334.8,223.3,334.8,223.4,334.8z"/>
			<path class="st12" d="M235.9,327.5l4.8-2.7l-5.6-3.1l-4.7,2.7l5.2,3C235.7,327.5,235.8,327.5,235.9,327.5z"/>
			<path class="st12" d="M242.2,323.9h0.2l4.6-2.7l-5.6-3.1l-4.7,2.7l5.2,3C241.9,323.9,242.1,323.9,242.2,323.9z"/>
			<path class="st12" d="M248.4,320.3h0.2l4.6-2.7l-5.6-3.1l-4.7,2.7l5.2,3C248.2,320.3,248.3,320.3,248.4,320.3z"/>
			<path class="st12" d="M233,294.7l4.8-2.7l-5.6-3.1l-4.7,2.7l5.2,3C232.8,294.7,232.9,294.7,233,294.7z"/>
			<path class="st12" d="M315.7,281.5h0.2l4.6-2.7l-5.6-3.1l-4.8,2.7l5.2,3C315.4,281.5,315.6,281.5,315.7,281.5z"/>
			<path class="st12" d="M245.6,287.5l4.8-2.7l-5.6-3.1l-4.7,2.7l5.2,3C245.3,287.5,245.4,287.5,245.6,287.5z"/>
			<path class="st12" d="M259.5,279.5l4.8-2.7l-5.6-3.1l-4.7,2.7l5.2,3C259.2,279.5,259.4,279.5,259.5,279.5z"/>
			<path class="st12" d="M253.2,283.1l4.8-2.7l-5.6-3.1l-4.7,2.7l5.2,3C253,283.1,253.1,283.1,253.2,283.1z"/>
			<path class="st12" d="M226.8,298.4l4.8-2.7l-5.6-3.1l-4.7,2.7l5.2,3C226.6,298.3,226.7,298.4,226.8,298.4z"/>
			<path class="st12" d="M239.3,291.1h0.2l4.6-2.7l-5.6-3.1l-4.7,2.7l5.2,3C239.1,291.1,239.2,291.1,239.3,291.1z"/>
			<path class="st12" d="M265.7,275.9l4.8-2.7l-5.6-3.1l-4.7,2.8l5.2,3C265.5,275.8,265.6,275.9,265.7,275.9z"/>
			<path class="st12" d="M290.3,259.6l4.8-2.7l-3-1.7l-4.7,2.7l2.7,1.5C290.1,259.5,290.2,259.6,290.3,259.6z"/>
			<path class="st12" d="M300.7,265.6l4.8-2.7l-5.6-3.1l-4.7,2.7l5.2,3C300.5,265.6,300.6,265.6,300.7,265.6z"/>
			<path class="st12" d="M271.5,270.4h0.2l4.6-2.7l-3-1.6l-4.7,2.7l2.6,1.5C271.3,270.4,271.4,270.4,271.5,270.4z"/>
			<path class="st12" d="M277.8,266.8h0.1l4.6-2.7l-3-1.6l-4.7,2.7l2.7,1.5C277.5,266.8,277.6,266.8,277.8,266.8z"/>
			<path class="st12" d="M284,263.2l4.8-2.7l-3-1.6l-4.7,2.7l2.7,1.5C283.8,263.2,283.9,263.2,284,263.2z"/>
		</g>
	</g>
</g>
<g id="Windows">
	<g id="_Группа_6">
		<g id="_Группа_7" class="st13">
			<g id="_Группа_8">
				<path class="st14" d="M291.1,27.2v135.3c-0.1,2-1.2,3.8-2.8,4.9L106,272.8c-0.3,0.2-0.6,0.3-0.9,0.3c-0.1,0-0.2,0-0.4,0
					c-0.1,0-0.2,0-0.2-0.1l-0.2-0.1l-0.2-0.1l-0.2-0.1c-0.2-0.2-0.4-0.5-0.5-0.7c-0.2-0.4-0.3-0.9-0.3-1.4V135.9
					c0.1-2,1.2-3.8,2.8-4.9L288.3,25.6c0.5-0.4,1.3-0.5,1.9-0.2c0.1,0,0.2,0.1,0.2,0.1l0,0c0.1,0.1,0.1,0.1,0.2,0.2l0.1,0.1l0.1,0.1
					c0.1,0.1,0.1,0.2,0.2,0.4c0,0.1,0.1,0.2,0.1,0.3l0,0c0,0.1,0,0.2,0,0.3C291.1,27,291.1,27.1,291.1,27.2z"/>
				<path class="st14" d="M289.6,26.2c0.1,0,0.2,0,0.3,0.1l0,0l0.1,0.1l0,0l0.1,0.1l0,0l0.1,0.3l0,0v135.8c-0.1,1.7-1,3.2-2.4,4.1
					L105.6,272.1c-0.1,0.1-0.3,0.1-0.5,0.1h-0.3l-0.1-0.1l0,0c-0.1-0.1-0.2-0.3-0.3-0.4c-0.1-0.3-0.2-0.7-0.2-1V135.9
					c0.1-1.6,0.9-3.2,2.3-4.1L288.8,26.4C289,26.2,289.3,26.2,289.6,26.2 M289.6,25.2c-0.4,0-0.9,0.1-1.3,0.4L106,131
					c-1.7,1.1-2.7,2.9-2.8,4.9v134.6c0,0.5,0.1,1,0.3,1.4c0.1,0.3,0.3,0.5,0.5,0.7l0.2,0.1l0.2,0.1l0.2,0.1c0.1,0,0.2,0.1,0.2,0.1
					c0.1,0,0.2,0,0.4,0l0,0c0.3,0,0.6-0.1,0.9-0.3l182.4-105.4c1.7-1.1,2.7-2.9,2.8-4.9V26.9c0-0.1,0-0.2,0-0.3l0,0
					c0-0.1,0-0.2-0.1-0.3c0-0.1-0.1-0.2-0.2-0.4c0-0.1-0.1-0.1-0.1-0.1s0-0.1-0.1-0.1c-0.1-0.1-0.1-0.1-0.2-0.2l0,0
					c-0.1-0.1-0.2-0.1-0.2-0.1c-0.2-0.1-0.4-0.1-0.6-0.1L289.6,25.2z"/>
			</g>
			<g id="_Группа_9" class="st15">
				<path class="st14" d="M291.1,27.2v135.3c-0.1,2-1.2,3.8-2.8,4.9L106,272.8c-0.3,0.2-0.6,0.3-0.9,0.3c-0.1,0-0.2,0-0.4,0
					c-0.1,0-0.2,0-0.2-0.1l-0.2-0.1l-0.2-0.1l-0.2-0.1c-0.2-0.2-0.4-0.5-0.5-0.7c-0.2-0.4-0.3-0.9-0.3-1.4V135.9
					c0.1-2,1.2-3.8,2.8-4.9L288.3,25.6c0.5-0.4,1.3-0.5,1.9-0.2c0.1,0,0.2,0.1,0.2,0.1l0,0c0.1,0.1,0.1,0.1,0.2,0.2l0.1,0.1l0.1,0.1
					c0.1,0.1,0.1,0.2,0.2,0.4c0,0.1,0.1,0.2,0.1,0.3l0,0c0,0.1,0,0.2,0,0.3C291.1,27,291.1,27.1,291.1,27.2z"/>
			</g>
		</g>
		<g id="_Группа_10">
			<g id="_Группа_11">
				<path class="st2" d="M290.2,25.4c-0.6-0.2-1.3-0.2-1.9,0.2L106,131c-1.7,1.1-2.7,2.9-2.8,4.9v9.2l-3.6-2.1v-9.1
					c0.1-2,1.2-3.8,2.8-4.9L284.7,23.6c0.6-0.4,1.4-0.5,2-0.2C287.3,23.7,289.6,25.1,290.2,25.4z"/>
			</g>
			<path id="_Контур_30" class="st2" d="M291.1,27.2c0-1.8-1.3-2.5-2.8-1.6L106,131c-1.7,1.1-2.7,2.9-2.8,4.9v9.2L291.1,36.4
				V27.2z"/>
			<g id="_Группа_12" class="st16">
				<path class="st17" d="M288.3,25.6L106,131c-0.8,0.5-1.5,1.3-2,2.1l-3.6-2.1c0.5-0.8,1.1-1.5,1.9-2.1L284.7,23.6
					c0.6-0.4,1.4-0.5,2-0.2c0.5,0.3,2.8,1.6,3.4,2C289.6,25.2,288.9,25.3,288.3,25.6z"/>
			</g>
			<path id="_Контур_31" class="st18" d="M99.6,143v-9.1c0-1,0.3-2,0.9-2.8l3.6,2.1c-0.5,0.8-0.8,1.8-0.8,2.8v9.2L99.6,143z"
				/>
		</g>
		<g id="_Группа_13">
			<path id="_Контур_32" class="st14" d="M274.2,37.7c-1,0.8-1.6,2.1-1.6,3.4c0,1.3,0.7,2,1.6,1.5c1-0.8,1.6-2.1,1.6-3.4
				S275.1,37.2,274.2,37.7z"/>
			<path id="_Контур_33" class="st14" d="M279.9,34.4c-1,0.8-1.6,2.1-1.6,3.4c0,1.3,0.7,2,1.6,1.5c1-0.8,1.6-2.1,1.6-3.4
				C281.6,34.6,280.8,33.8,279.9,34.4z"/>
			<path id="_Контур_34" class="st14" d="M285.6,31.1c-1,0.8-1.6,2.1-1.5,3.4c0,1.3,0.7,2,1.6,1.5c1-0.8,1.6-2.1,1.6-3.4
				C287.2,31.2,286.5,30.6,285.6,31.1z"/>
		</g>
		<path id="_Контур_35" class="st19" d="M104.2,272.8l-0.3-0.2c-0.3-0.1-0.6-0.3-0.9-0.5l0,0l-0.5-0.3l0,0l-0.7-0.4l-0.6-0.4
			l-0.3-0.2c-0.2-0.1-0.3-0.2-0.5-0.4c-0.2-0.2-0.3-0.4-0.4-0.6c-0.2-0.5-0.3-1-0.3-1.5V143l3.6,2.1v125.4c0,0.5,0.1,1,0.3,1.4
			c0.1,0.3,0.3,0.5,0.5,0.7C104,272.7,104.1,272.7,104.2,272.8L104.2,272.8z"/>
	</g>
	<g id="_Группа_14">
		<g id="_Группа_15">
			<path id="_Контур_36" class="st20" d="M164.2,191.9c0,0-6.6-4.3-7.5-4.3l-18.9-0.6l7.5,4v0.3L164.2,191.9z"/>
			<path id="_Составной_контур_" class="st10" d="M131.8,204.8V193l32.3-40.2v15.7L145.2,191v0.3l18.9,0.6v15.7
				L131.8,204.8z"/>
			<polygon id="_Контур_37" class="st14" points="164.2,152.8 156.7,148.5 124.3,188.7 131.8,193 			"/>
			<polygon id="_Контур_38" class="st12" points="124.3,188.7 124.3,200.5 131.8,204.8 131.8,193 			"/>
		</g>
		<g id="_Группа_16">
			<path id="_Составной_контур_2" class="st10" d="M183.7,199.8l-10,5.8l25-91.7l9.7-5.6L183.7,199.8z"/>
			<polygon id="_Контур_39" class="st14" points="208.4,108.3 200.9,104 191.2,109.6 198.7,113.9 			"/>
			<polygon id="_Контур_40" class="st12" points="191.2,109.6 198.7,113.9 173.7,205.6 166.2,201.3 			"/>
		</g>
		<g id="_Группа_17">
			<polygon id="_Контур_41" class="st20" points="210.4,156.5 217.9,160.9 236.8,138.2 229.3,133.9 			"/>
			<g id="_Группа_18">
				<path id="_Составной_контур_3" class="st10" d="M236.8,138.2l-18.9-0.7v-15.7l32.3,2.8v11.8l-32.3,40.1v-15.7
					l18.9-22.4V138.2z"/>
			</g>
			<polygon id="_Контур_42" class="st14" points="210.4,117.5 217.9,121.8 250.3,124.6 242.8,120.3 			"/>
			<polyline id="_Контур_43" class="st12" points="217.9,121.8 217.9,137.5 210.4,133.1 210.4,117.5 			"/>
			<polygon id="_Контур_44" class="st12" points="210.4,156.5 217.9,160.9 217.9,176.5 210.4,172.2 			"/>
		</g>
	</g>
	<g id="_Группа_19">
		<g id="_Группа_20">
			<g id="_Группа_21" class="st13">
				<g id="_Группа_22">
					<path class="st14" d="M350,50.6v135.2c-0.1,2-1.2,3.8-2.8,4.9l-77.7,44.8c-0.3,0.2-0.6,0.3-0.9,0.3c-0.1,0-0.2,0-0.4,0
						c-0.1,0-0.2,0-0.2-0.1l-0.1-0.1l-0.2-0.1l-0.1-0.1c-0.2-0.2-0.4-0.5-0.5-0.7c-0.2-0.4-0.3-0.9-0.3-1.4V98.6
						c0.1-2,1.2-3.8,2.8-4.9l77.6-44.8c0.5-0.4,1.3-0.5,1.9-0.2c0.1,0,0.2,0.1,0.2,0.1l0,0c0.1,0.1,0.1,0.1,0.2,0.2l0.1,0.1
						c0,0,0.1,0.1,0.1,0.2c0.1,0.1,0.1,0.2,0.2,0.4c0,0.1,0.1,0.2,0.1,0.3l0,0c0,0.1,0,0.2,0,0.3C350,50.3,350,50.4,350,50.6z"/>
					<path class="st14" d="M348.5,49.5c0.1,0,0.2,0,0.3,0.1l0,0l0.1,0.1l0,0l0.1,0.1l0,0l0.1,0.3l0,0v135.7c-0.1,1.7-1,3.2-2.4,4.1
						L269,234.8c-0.1,0.1-0.3,0.1-0.5,0.1h-0.3l-0.1-0.1l0,0c-0.1-0.1-0.2-0.3-0.3-0.4c-0.1-0.3-0.2-0.7-0.2-1V98.6
						c0.1-1.7,1-3.2,2.4-4.1l77.7-44.8C348,49.6,348.2,49.5,348.5,49.5 M348.5,48.6c-0.4,0-0.9,0.1-1.3,0.4l-77.7,44.8
						c-1.7,1.1-2.7,2.9-2.8,4.9v134.5c0,0.5,0.1,1,0.3,1.4c0.1,0.3,0.3,0.5,0.5,0.7l0.1,0.1l0.2,0.1l0.1,0.1c0.1,0,0.2,0.1,0.2,0.1
						c0.1,0,0.2,0,0.4,0l0,0c0.3,0,0.6-0.1,0.9-0.3l77.7-44.8c1.7-1.1,2.7-2.9,2.8-4.9V50.2c0-0.1,0-0.2,0-0.3l0,0
						c0-0.1,0-0.2-0.1-0.3c0-0.1-0.1-0.2-0.2-0.4c0-0.1-0.1-0.1-0.1-0.2c0,0,0-0.1-0.1-0.1c-0.1-0.1-0.1-0.1-0.2-0.2l0,0
						c-0.1-0.1-0.2-0.1-0.2-0.1C349,48.6,348.7,48.6,348.5,48.6L348.5,48.6z"/>
				</g>
				<g id="_Группа_23" class="st13">
					<path class="st14" d="M350,50.6v135.2c-0.1,2-1.2,3.8-2.8,4.9l-77.7,44.8c-0.3,0.2-0.6,0.3-0.9,0.3c-0.1,0-0.2,0-0.4,0
						c-0.1,0-0.2,0-0.2-0.1l-0.1-0.1l-0.2-0.1l-0.1-0.1c-0.2-0.2-0.4-0.5-0.5-0.7c-0.2-0.4-0.3-0.9-0.3-1.4V98.6
						c0.1-2,1.2-3.8,2.8-4.9l77.6-44.8c0.5-0.4,1.3-0.5,1.9-0.2c0.1,0,0.2,0.1,0.2,0.1l0,0c0.1,0.1,0.1,0.1,0.2,0.2l0.1,0.1
						c0,0,0.1,0.1,0.1,0.2c0.1,0.1,0.1,0.2,0.2,0.4c0,0.1,0.1,0.2,0.1,0.3l0,0c0,0.1,0,0.2,0,0.3C350,50.3,350,50.4,350,50.6z"/>
				</g>
			</g>
			<g id="_Группа_24">
				<g id="_Группа_25">
					<path class="st2" d="M349.1,48.7c-0.6-0.2-1.3-0.2-1.9,0.2l-77.7,44.8c-1.7,1.1-2.7,2.9-2.8,4.9v9.2l-3.6-2.1v-9.1
						c0.1-2,1.2-3.8,2.8-4.9l77.7-44.8c0.6-0.4,1.4-0.5,2-0.2C346.2,47.1,348.5,48.4,349.1,48.7z"/>
				</g>
				<path id="_Контур_45" class="st2" d="M350,50.6c0-1.8-1.3-2.5-2.8-1.6l-77.7,44.8c-1.7,1.1-2.7,2.9-2.8,4.9v9.2l83.3-48
					L350,50.6z"/>
				<g id="_Группа_26" class="st16">
					<path class="st17" d="M347.2,49l-77.7,44.8c-0.8,0.5-1.5,1.2-2,2.1l-3.5-2c0.5-0.8,1.1-1.5,2-2.1L343.8,47
						c0.6-0.4,1.4-0.5,2-0.2c0.5,0.3,2.8,1.6,3.4,2C348.4,48.5,347.7,48.6,347.2,49z"/>
				</g>
				<path id="_Контур_46" class="st18" d="M263.1,105.7v-9.1c0-1,0.3-2,0.9-2.8l3.6,2c-0.5,0.8-0.8,1.8-0.8,2.8v9.2
					L263.1,105.7z"/>
			</g>
			<g id="_Группа_27">
				<path id="_Контур_47" class="st14" d="M333.1,61c-1,0.8-1.6,2.1-1.6,3.4c0,1.3,0.7,2,1.6,1.5c1-0.8,1.6-2.1,1.6-3.4
					S334,60.5,333.1,61z"/>
				<path id="_Контур_48" class="st14" d="M338.8,57.7c-1,0.8-1.6,2.1-1.6,3.4c0,1.3,0.7,2,1.6,1.5c1-0.8,1.6-2.1,1.6-3.4
					C340.4,57.9,339.7,57.2,338.8,57.7z"/>
				<path id="_Контур_49" class="st14" d="M344.5,54.4c-1,0.8-1.6,2.1-1.6,3.4c0,1.3,0.7,2,1.6,1.5c1-0.8,1.6-2.1,1.6-3.4
					C346.1,54.6,345.4,53.9,344.5,54.4z"/>
			</g>
			<path id="_Контур_50" class="st19" d="M267.7,235.6l-0.4-0.2c-0.3-0.1-0.6-0.3-0.9-0.5l0,0l-0.5-0.3l0,0l-0.7-0.4l-0.6-0.4
				l-0.4-0.2c-0.2-0.1-0.3-0.2-0.5-0.4s-0.3-0.4-0.4-0.6c-0.2-0.5-0.3-1-0.3-1.5V105.7l3.6,2.1v125.4c0,0.5,0.1,1,0.3,1.4
				c0.1,0.3,0.3,0.5,0.5,0.7C267.5,235.4,267.6,235.5,267.7,235.6L267.7,235.6z"/>
		</g>
		<g id="_Группа_28">
			<g id="_Группа_29">
				<path id="_Составной_контур_4" class="st2" d="M273.6,115.4c0-0.2,0.1-0.4,0.1-0.5l2-4.2l0.1-0.1l0,0h0.1
					c0,0.1,0.1,0.1,0.1,0.2v1.4c0,0.1,0,0.3,0,0.4s-0.1,0.3-0.1,0.4l-1.1,2.2l1.1,1c0.1,0.1,0.1,0.1,0.1,0.2s0,0.3,0,0.4v1.4
					c0,0.1,0,0.2-0.1,0.3c0,0.1-0.1,0.1-0.1,0.2l0,0h-0.1l-2-1.8c-0.1-0.1-0.2-0.2-0.1-0.4V115.4z"/>
				<path id="_Составной_контур_5" class="st2" d="M281,104.9c0-0.1,0.1-0.3,0.1-0.4c0.1-0.1,0.2-0.2,0.3-0.3
					l0.8-0.4h0.1c0,0.1,0.1,0.1,0.1,0.2c0,0,0,0.1,0,0.2l-3.5,14.8c0,0.1-0.1,0.3-0.1,0.4c-0.1,0.1-0.2,0.3-0.3,0.3l-0.7,0.4h-0.1
					c0-0.1-0.1-0.1-0.1-0.2c0,0,0-0.1,0-0.2L281,104.9z"/>
				<path id="_Составной_контур_6" class="st2" d="M286.3,109.1c0,0.2-0.1,0.4-0.1,0.5l-2,4.2l-0.1,0.1l0,0H284
					c0-0.1-0.1-0.1-0.1-0.2v-1.4c0-0.1,0-0.3,0-0.4s0.1-0.3,0.1-0.4l1.1-2.2l-1.1-1c-0.1-0.1-0.1-0.1-0.1-0.2s0-0.3,0-0.4v-1.4
					c0-0.1,0-0.2,0.1-0.3c0-0.1,0.1-0.1,0.1-0.2h0.1h0.1l2,1.8c0.1,0.1,0.2,0.2,0.1,0.4L286.3,109.1z"/>
				<path id="_Составной_контур_7" class="st2" d="M291.9,108.1c0.1,0,0.1,0,0.2,0c0.1,0.1,0.1,0.2,0.1,0.3v1.6
					c0,0.1,0,0.2-0.1,0.3c0,0.1-0.1,0.2-0.2,0.2l-0.9,0.6c-0.1,0-0.1,0-0.2,0c-0.1-0.1-0.1-0.2-0.1-0.3v-1.6c0-0.1,0-0.2,0.1-0.3
					c0-0.1,0.1-0.2,0.2-0.2L291.9,108.1z"/>
				<path id="_Составной_контур_8" class="st2" d="M295.1,106.3c0.1,0,0.1,0,0.2,0c0.1,0.1,0.1,0.2,0.1,0.3v1.6
					c0,0.1,0,0.2-0.1,0.3c0,0.1-0.1,0.2-0.2,0.2l-0.9,0.6c-0.1,0-0.1,0-0.2,0c-0.1-0.1-0.1-0.2-0.1-0.3v-1.6c0-0.1,0-0.2,0.1-0.3
					c0-0.1,0.1-0.2,0.2-0.2L295.1,106.3z"/>
				<path id="_Составной_контур_9" class="st2" d="M298.3,104.5c0.1,0,0.1,0,0.2,0c0.1,0.1,0.1,0.2,0.1,0.3v1.6
					c0,0.1,0,0.2-0.1,0.3c0,0.1-0.1,0.2-0.2,0.2l-0.9,0.6c-0.1,0-0.1,0-0.2,0c-0.1-0.1-0.1-0.2-0.1-0.3v-1.6c0-0.1,0-0.2,0.1-0.3
					c0-0.1,0.1-0.2,0.2-0.2L298.3,104.5z"/>
			</g>
			<path id="_Контур_51" class="st2" d="M274.4,126.7l46.7-27c0.5-0.3,1-0.1,1,0.5c0,0.7-0.4,1.3-1,1.7l-46.7,27
				c-0.5,0.3-1,0.1-1-0.5C273.5,127.7,273.9,127.1,274.4,126.7z"/>
			<path id="_Контур_52" class="st1" d="M289.4,144l46.7-27c0.6-0.3,1-0.1,1,0.5c0,0.7-0.4,1.3-1,1.7l-46.7,27
				c-0.6,0.3-1,0.1-1-0.5C288.5,145,288.8,144.4,289.4,144z"/>
			<path id="_Контур_53" class="st1" d="M289.4,152.6l22.4-12.9c0.6-0.3,1-0.1,1,0.5c0,0.7-0.4,1.3-1,1.7l-22.4,12.9
				c-0.6,0.3-1,0.1-1-0.5C288.5,153.6,288.8,153,289.4,152.6z"/>
			<path id="_Контур_54" class="st1" d="M289.4,161.3l22.4-12.9c0.6-0.3,1-0.1,1,0.5c0,0.7-0.4,1.3-1,1.7l-22.4,12.9
				c-0.6,0.3-1,0.1-1-0.5C288.5,162.3,288.8,161.7,289.4,161.3z"/>
			<path id="_Контур_55" class="st2" d="M325,97.5l18.6-10.8c0.5-0.3,1-0.1,1,0.5c0,0.7-0.4,1.3-1,1.7L325,99.7
				c-0.5,0.3-1,0.1-1-0.5C324.1,98.5,324.4,97.9,325,97.5z"/>
			<path id="_Контур_56" class="st2" d="M274.4,221.8l46.7-27c0.5-0.3,1-0.1,1,0.5c0,0.7-0.4,1.3-1,1.7l-46.7,27
				c-0.5,0.3-1,0.1-1-0.5C273.5,222.8,273.9,222.2,274.4,221.8z"/>
			<path id="_Контур_57" class="st2" d="M325,192.6l18.6-10.8c0.5-0.3,1-0.1,1,0.5c0,0.7-0.4,1.3-1,1.7L325,194.8
				c-0.5,0.3-1,0.1-1-0.5C324,193.6,324.4,193,325,192.6z"/>
			<path id="_Контур_58" class="st2" d="M325,166.7l18.6-10.8c0.5-0.3,1-0.1,1,0.5c0,0.7-0.4,1.3-1,1.7L325,168.9
				c-0.5,0.3-1,0.1-1-0.5C324,167.7,324.4,167.1,325,166.7z"/>
			<path id="_Контур_59" class="st2" d="M325,175.4l18.6-10.8c0.5-0.3,1-0.1,1,0.5c0,0.7-0.4,1.3-1,1.7L325,177.6
				c-0.5,0.3-1,0.1-1-0.5C324,176.4,324.4,175.8,325,175.4z"/>
			<path id="_Контур_60" class="st21" d="M274.4,213.2l46.7-27c0.5-0.3,1-0.1,1,0.5c0,0.7-0.4,1.3-1,1.7l-46.7,27
				c-0.5,0.3-1,0.1-1-0.5C273.5,214.2,273.9,213.6,274.4,213.2z"/>
			<path id="_Контур_61" class="st2" d="M309.1,175.9l10.5-6c0.6-0.3,1-0.1,1,0.5c0,0.7-0.4,1.3-1,1.7l-10.5,6
				c-0.6,0.3-1,0.1-1-0.5C308.1,176.8,308.5,176.2,309.1,175.9z"/>
			<g id="_Группа_30">
				<path id="_Контур_62" class="st2" d="M274.4,135.4l27.2-15.7c0.5-0.3,1-0.1,1,0.5c0,0.7-0.4,1.3-1,1.7l-27.2,15.7
					c-0.5,0.3-1,0.1-1-0.5C273.5,136.3,273.9,135.7,274.4,135.4z"/>
				<path id="_Контур_63" class="st22" d="M274.4,135.4l27.2-15.7c0.5-0.3,1-0.1,1,0.5c0,0.7-0.4,1.3-1,1.7l-27.2,15.7
					c-0.5,0.3-1,0.1-1-0.5C273.5,136.3,273.9,135.7,274.4,135.4z"/>
			</g>
			<g id="_Группа_31">
				<path id="_Контур_64" class="st2" d="M274.4,144l9.2-5.4c0.5-0.3,1-0.1,1,0.5c0,0.7-0.4,1.3-1,1.7l-9.2,5.3
					c-0.5,0.3-1,0.1-1-0.5C273.5,144.9,273.9,144.3,274.4,144z"/>
				<path id="_Контур_65" class="st22" d="M274.4,144l9.2-5.4c0.5-0.3,1-0.1,1,0.5c0,0.7-0.4,1.3-1,1.7l-9.2,5.3
					c-0.5,0.3-1,0.1-1-0.5C273.5,144.9,273.9,144.3,274.4,144z"/>
			</g>
			<g id="_Группа_32">
				<path id="_Контур_66" class="st2" d="M274.4,152.7l9.2-5.3c0.5-0.3,1-0.1,1,0.5c0,0.7-0.4,1.3-1,1.7l-9.2,5.3
					c-0.5,0.3-1,0.1-1-0.5C273.5,153.6,273.9,153,274.4,152.7z"/>
				<path id="_Контур_67" class="st22" d="M274.4,152.7l9.2-5.3c0.5-0.3,1-0.1,1,0.5c0,0.7-0.4,1.3-1,1.7l-9.2,5.3
					c-0.5,0.3-1,0.1-1-0.5C273.5,153.6,273.9,153,274.4,152.7z"/>
			</g>
			<g id="_Группа_33">
				<path id="_Контур_68" class="st2" d="M274.4,161.3l9.2-5.4c0.5-0.3,1-0.1,1,0.5c0,0.7-0.4,1.3-1,1.7l-9.2,5.3
					c-0.5,0.3-1,0.1-1-0.5C273.5,162.3,273.9,161.7,274.4,161.3z"/>
				<path id="_Контур_69" class="st22" d="M274.4,161.3l9.2-5.4c0.5-0.3,1-0.1,1,0.5c0,0.7-0.4,1.3-1,1.7l-9.2,5.3
					c-0.5,0.3-1,0.1-1-0.5C273.5,162.3,273.9,161.7,274.4,161.3z"/>
			</g>
			<g id="_Группа_34">
				<path id="_Контур_70" class="st2" d="M274.4,169.9l9.2-5.3c0.5-0.3,1-0.1,1,0.5c0,0.7-0.4,1.3-1,1.7l-9.2,5.3
					c-0.5,0.3-1,0.1-1-0.5C273.5,170.9,273.9,170.3,274.4,169.9z"/>
				<path id="_Контур_71" class="st22" d="M274.4,169.9l9.2-5.3c0.5-0.3,1-0.1,1,0.5c0,0.7-0.4,1.3-1,1.7l-9.2,5.3
					c-0.5,0.3-1,0.1-1-0.5C273.5,170.9,273.9,170.3,274.4,169.9z"/>
			</g>
			<g id="_Группа_35">
				<path id="_Контур_72" class="st2" d="M305.5,117.4l11.9-6.8c0.5-0.3,1-0.1,1,0.5c0,0.7-0.4,1.3-1,1.7l-11.9,6.8
					c-0.5,0.3-1,0.1-1-0.5C304.6,118.4,305,117.8,305.5,117.4z"/>
				<path id="_Контур_73" class="st22" d="M305.5,117.4l11.9-6.8c0.5-0.3,1-0.1,1,0.5c0,0.7-0.4,1.3-1,1.7l-11.9,6.8
					c-0.5,0.3-1,0.1-1-0.5C304.6,118.4,305,117.8,305.5,117.4z"/>
			</g>
			<g id="_Группа_36">
				<path id="_Контур_74" class="st21" d="M300.6,163.4l27.2-15.7c0.5-0.3,1-0.1,1,0.5c0,0.7-0.4,1.3-1,1.7l-27.2,15.7
					c-0.6,0.3-1,0.1-1-0.5C299.7,164.4,300.1,163.8,300.6,163.4z"/>
			</g>
			<g id="_Группа_37">
				<path id="_Контур_75" class="st21" d="M316.4,163.1l27.2-15.7c0.6-0.3,1-0.1,1,0.5c0,0.7-0.4,1.3-1,1.7l-27.2,15.7
					c-0.6,0.3-1,0.1-1-0.5C315.4,164,315.8,163.4,316.4,163.1z"/>
			</g>
			<g id="_Группа_38">
				<path id="_Контур_76" class="st21" d="M331.8,145.5l11.9-6.8c0.5-0.3,1-0.1,1,0.5c0,0.7-0.4,1.3-1,1.7l-11.9,6.8
					c-0.6,0.3-1,0.1-1-0.5C330.8,146.4,331.2,145.8,331.8,145.5z"/>
			</g>
			<g id="_Группа_39">
				<path id="_Контур_77" class="st2" d="M289.4,135.4l27.2-15.7c0.5-0.3,1-0.1,1,0.5c0,0.7-0.4,1.3-1,1.7l-27.2,15.7
					c-0.5,0.3-1,0.1-1-0.5C288.5,136.3,288.8,135.7,289.4,135.4z"/>
				<path id="_Контур_78" class="st22" d="M289.4,135.4l27.2-15.7c0.5-0.3,1-0.1,1,0.5c0,0.7-0.4,1.3-1,1.7l-27.2,15.7
					c-0.5,0.3-1,0.1-1-0.5C288.5,136.3,288.8,135.7,289.4,135.4z"/>
			</g>
			<g id="_Группа_40">
				<path id="_Контур_79" class="st2" d="M320.5,117.4l11.9-6.8c0.6-0.3,1-0.1,1,0.5c0,0.7-0.4,1.3-1,1.7l-11.9,6.8
					c-0.5,0.3-1,0.1-1-0.5C319.6,118.4,319.9,117.7,320.5,117.4z"/>
				<path id="_Контур_80" class="st22" d="M320.5,117.4l11.9-6.8c0.6-0.3,1-0.1,1,0.5c0,0.7-0.4,1.3-1,1.7l-11.9,6.8
					c-0.5,0.3-1,0.1-1-0.5C319.6,118.4,319.9,117.7,320.5,117.4z"/>
			</g>
		</g>
	</g>
</g>
<g id="Character">
	<g id="Character-2">
		<g id="_Группа_41">
			<path id="_Контур_81" class="st23" d="M378.2,219.9c3.6,0.7,5.2,1.9,7.2,6.8s5.6,17,6.5,20.3c0.4,1.5-9,14.7-8.6,14.5
				c0.1-0.1-3.6-6.4-3.6-6.4l4.6-8.8l-3.3-8L378.2,219.9z"/>
		</g>
		<path id="_Контур_82" class="st2" d="M377,220c0,0,3.3-0.6,5.4,1.2s2.5,3,3.9,6.6s3.9,11.3,3.9,11.3s-0.7,4.1-7.4,4.9
			l-5.8-12.9C377.1,231.2,375.1,223.4,377,220z"/>
		<g id="_Группа_42">
			<path id="_Контур_83" class="st14" d="M370.3,325.8c-0.2,1.2-0.1,2.3,0.2,3.5c0.6,1.4,1.6,2.5,2.8,3.4
				c0.9,0.8,1.7,1.8,2.3,2.8c0.6,1.1,1.5,2.1,2.4,3c0.8,0.7,2.9,0.7,3.9,0.3s1.4-0.8,1.3-2.5s-5.1-2.2-5.1-2.2L370.3,325.8z"/>
			<path id="_Контур_84" class="st2" d="M382.7,331.4c0.4,0.2,0.5,1,0.6,2.6c0,1.2,0.6,3-1.1,3.8c-1.5,0.6-3.3,0.3-4.5-0.9
				c-1.1-1.6-2.3-3-3.5-4.5c-1.4-1.5-2.9-2-3.5-5.1c-0.4-2-0.1-2.7,1.2-3.3c1.8-0.8,4.6,1.8,6.1,2.1
				C379.2,326.5,382.3,331.3,382.7,331.4z"/>
			<path id="_Контур_85" class="st8" d="M382.7,331.4c0.4,0.2,0.5,1,0.6,2.6c0,1.2,0.6,3-1.1,3.8c-1.5,0.6-3.3,0.3-4.5-0.9
				c-1.1-1.6-2.3-3-3.5-4.5c-1.4-1.5-2.9-2-3.5-5.1c-0.4-2-0.1-2.7,1.2-3.3c1.8-0.8,4.6,1.8,6.1,2.1
				C379.2,326.5,382.3,331.3,382.7,331.4z"/>
			<path id="_Контур_86" class="st10" d="M378,326.1l-0.2-0.1c-1.7,0.1-3.2,1.1-3.9,2.6c-0.2,0.5,0.5,0.9,0.9,0.5
				c0.8-1.4,2.3-2.4,3.9-2.5C378.4,326.4,378.2,326.2,378,326.1z"/>
			<path id="_Контур_87" class="st10" d="M379.1,327.1c-1.6,0.2-2.9,1.1-3.6,2.5c-0.2,0.5,0.5,0.9,0.9,0.5
				c0.7-1.3,1.9-2.1,3.3-2.4C379.5,327.5,379.3,327.2,379.1,327.1z"/>
			<g id="_Группа_43">
				<path id="_Контур_88" class="st14" d="M347.6,350.8c-0.3,1.4,0.2,2.1,2,3.1c2.3,1.1,5,1.3,7.5,0.5
					c2.9-0.9,4.3-2.1,5.5-2.4s4.2-0.3,5.4-0.7s1.2-1,1.2-2.4L347.6,350.8z"/>
				<g id="_Группа_44">
					<path id="_Контур_89" class="st2" d="M368,341.9c0,0,0.6,1.7,0.9,3.2c0.3,1.2,0.6,3.2,0.2,4.1s-2.1,1.5-4.6,1.5
						c-1.6,0-4.2,1.1-6,2.1c-1.8,0.9-3.8,1.1-5.7,0.8c-2.3-0.3-4.6-1.6-5-2.5s-0.5-1.6,4.9-3.9c0,0,6.2-2.3,8.8-5.1L368,341.9z"/>
				</g>
				<g id="_Группа_45" class="st24">
					<path id="_Контур_90" d="M368,341.9c0,0,0.6,1.7,0.9,3.2c0.3,1.2,0.6,3.2,0.2,4.1s-2.1,1.5-4.6,1.5c-1.6,0-4.2,1.1-6,2.1
						c-1.8,0.9-3.8,1.1-5.7,0.8c-2.3-0.3-4.6-1.6-5-2.5s-0.5-1.6,4.9-3.9c0,0,6.2-2.3,8.8-5.1L368,341.9z"/>
				</g>
				<path id="_Контур_91" class="st10" d="M357.7,353.2c0,0-0.5-4.6-4.2-5.9c-3.4-1.2-6.3,1.3-6,3.5
					C347.8,352.2,351.9,355.5,357.7,353.2z"/>
				<path id="_Контур_92" class="st10" d="M354.5,346.4c0.9,0.1,1.8,0.5,2.5,1.1c1.1,0.9,1.1,1.5,1.1,1.5
					c0.2,0.3,0.5,0.3,0.8,0.1c0.2-0.1,0.3-0.4,0.2-0.6c0,0-0.3-2.3-3.3-2.7C355.3,345.8,354.8,346,354.5,346.4z"/>
				<path id="_Контур_93" class="st10" d="M356.6,345.5c0.9,0,1.9,0.4,2.6,1c1.1,0.9,1.1,1.6,1.1,1.6c0.2,0.3,0.5,0.3,0.8,0.1
					c0.2-0.1,0.3-0.4,0.2-0.6c0,0-0.3-2.3-3.3-2.7C357.5,344.8,356.9,345,356.6,345.5z"/>
				<path id="_Контур_94" class="st10" d="M358.7,344.2c0.9-0.1,1.9,0.2,2.6,0.8c1.1,0.8,1.2,1.5,1.2,1.5
					c0.2,0.2,0.6,0.2,0.8-0.1c0.1-0.1,0.2-0.3,0.1-0.5c0,0-0.4-2.3-3.5-2.5C359.5,343.5,359,343.7,358.7,344.2z"/>
			</g>
			<g id="_Группа_46">
				<path id="_Контур_95" class="st23" d="M382.7,328.8v3.1c-1.5,1-3.4,1-5,0.1c-0.1-0.2-0.3-3.2-0.3-3.2H382.7z"/>
			</g>
			<g id="_Группа_47">
				<path id="_Контур_96" class="st23" d="M368,339.8v2.3c0,0.9-1,2.1-3.5,2c-1.8-0.1-3.1-0.5-3-2V340L368,339.8z"/>
			</g>
			<g id="_Группа_48">
				<path id="_Контур_97" class="st14" d="M386.1,302.5c-0.2-6.5-1.5-9.4-1.5-9.4s0.5-8.1,1.6-18c1.6-15,0.9-18-2.1-24.7
					c0,0-25.3-2.6-26.1,8c-1,13.1-1.1,39.8-0.7,44.4s0.4,0.4,1.5,9.7c0.9,7.4,2.7,27.4,2.7,27.4c2.1,1,4.5,1,6.5-0.1
					c0,0,2.1-24.5,1.8-29.8c0-2.7-0.2-5.5-0.6-8.2c0,0,3-21.1,3.4-24.5c0,0,0.4,6.1,0.8,10.7s0.3,8.4,1.3,17.9
					c0.8,7.5,2.6,23.7,2.6,23.7c1.8,0.7,3.8,0.6,5.5-0.4C382.8,329.2,386.2,307.8,386.1,302.5z"/>
			</g>
			<path id="_Контур_98" class="st10" d="M371.5,329.6c0,0,0.1-3.6,5-4.1l0.3,0.1c-0.6-0.9-1.4-1.5-2.4-1.8
				c-1.4-0.5-2.9-0.1-3.8,1.1C369.8,325.9,370.7,328.9,371.5,329.6z"/>
		</g>
		<g id="_Группа_49">
			<g id="_Группа_50">
				<polygon id="_Контур_99" class="st23" points="365.3,216.5 366.5,226.3 375.1,225.5 374.1,214.7 				"/>
			</g>
		</g>
		<g id="_Группа_51">
			<g id="_Группа_52">
				<path id="_Контур_100" class="st12" d="M383.5,224.7c-0.9-2.6-3.1-5.3-6.4-4.7c-0.9,0.2-1.6,0.3-2.4,0.4
					c-0.1,2.3-4.3,3.4-8.6,2.1c-1.3,0.4-2.4,0.7-3.5,1.1c-3,1.1-4.3,6.1-4.3,14.5s-1.3,25.3-1.3,25.3s6.4,3.4,18.3,1.2
					s11.7-6.2,11.7-6.2s-0.2-4.9-5.6-13.2C386,233.1,384.9,228.5,383.5,224.7z"/>
			</g>
		</g>
		<g id="_Группа_53">
			<g id="_Группа_54">
				<path id="_Контур_101" class="st20" d="M358.9,204.1c-1.1-2.4-0.8-5.1,0.6-7.3c2.9-4.6,8.5-5.3,15.1-3.5
					c4.7,1.4,8,5.7,8.3,10.6c0.3,4.8-13.2,8.4-12.9,11.7L358.9,204.1z"/>
			</g>
			<g id="_Группа_55">
				<path id="_Контур_102" class="st25" d="M358.6,205.9c0,0-1.8,2.9-1.6,3.2c0.5,0.3,1,0.5,1.5,0.6L358.6,205.9z"/>
			</g>
			<g id="_Группа_56">
				<path id="_Контур_103" class="st23" d="M364.2,196.6c-1.8,1-5,2.9-5.6,9.7c-0.7,7,1,9.4,2,10.3c0.7,0.6,4,0.7,5.7,0.1
					c2.2-0.7,6.8-3.2,8.9-6.9c2.5-4.3,2.9-10-0.2-12.2C371.8,195.6,367.7,195.1,364.2,196.6z"/>
			</g>
			<path id="_Контур_104" class="st20" d="M364.3,204.9c-2.4-0.9-4.1-3.1-4.5-5.6c-0.7-4.5,4.9-6.4,4.9-6.4L364.3,204.9z"/>
			<g id="_Группа_57">
				<path id="_Контур_105" class="st20" d="M363.6,196.9c0,0-1.5,6.4,0.6,10.4c0,0,1.1-2.5,3.2-1.9s2.1,3.6,0.4,5.1
					c-0.9,0.9-2.2,1.2-3.3,0.8c0.7,1.8,1.8,3.5,3.2,4.9c0,0,6.4,2.9,12-3.4c5-5.7,4.1-15.6-3.6-18S363.6,196.9,363.6,196.9z"/>
			</g>
			<path id="_Контур_106" class="st20" d="M390.2,222.2L390.2,222.2c-4.8,0-8.8-3.9-8.8-8.8l0,0v-14.6l0,0
				c4.8,0,8.8,3.9,8.8,8.8l0,0V222.2z"/>
			<path id="_Контур_107" class="st20" d="M382.4,196.8c-0.8,0.2-1.2,1.1-1,1.9l0,0l0,0l2.9-0.9
				C384.1,197,383.2,196.5,382.4,196.8L382.4,196.8L382.4,196.8z"/>
		</g>
		<g id="_Группа_58">
			<g id="_Группа_59">
				<path id="_Контур_108" class="st23" d="M340.8,239.1c-1.3-1.4-1.5-4.6-3.1-6.8s-1.4-4.4-2.4-3.4s-0.3,4.6-0.3,4.6
					s-1.9,3.6-2.1,5.5s4.7,6.5,4.7,6.5L340.8,239.1z"/>
			</g>
			<g id="_Группа_60">
				<path id="_Контур_109" class="st23" d="M335.2,233.3c0,0-2,2.7-10.9-0.9c-2.5-1-0.8,4.3,2.2,6.5c2.8,2,6.3,2.6,9.1,4.6
					C335.7,243.2,335.2,233.3,335.2,233.3z"/>
			</g>
			<g id="_Группа_61">
				<path id="_Контур_110" class="st23" d="M363.3,223.4c-2.5,0.9-4.8,1.9-7.1,6.4c-3,5.7-8.6,16.9-8.6,16.9l-6.9-7.5
					c0,0-1-1.4-2.9,1.7s-1,3.9-1,3.9s8,10.7,9.5,12.1c1.5,1.4,3.9,0.3,5.5-1.8s9.7-16.9,9.7-16.9S366.9,228.7,363.3,223.4z"/>
			</g>
			<path id="_Контур_111" class="st2" d="M364.5,223c-3.3,0.3-6.2,2.2-7.7,5.1c-3,5.5-6.2,11.6-6.2,11.6s2.2,5.3,7.8,5.7
				c0-0.6,4.6-8.7,6.3-12.1S366.2,224.5,364.5,223z"/>
		</g>
		<path id="_Контур_112" class="st12" d="M372.6,277.3l0.5-5.1c2.8-0.4,5.4-1.4,7.7-2.9c0,0-1.6,2.6-6.2,3.8l-1.1,5l-0.3,9.9
			L372.6,277.3z"/>
	</g>
</g>
</svg>
