<?xml version="1.0" encoding="utf-8"?>
<!-- Generator: Adobe Illustrator 21.0.2, SVG Export Plug-In . SVG Version: 6.00 Build 0)  -->
<svg version="1.1" id="Слой_1" xmlns="http://www.w3.org/2000/svg" xmlns:xlink="http://www.w3.org/1999/xlink" x="0px" y="0px"
	 viewBox="0 0 650 500" style="enable-background:new 0 0 650 500;" xml:space="preserve">
<style type="text/css">
	.st0{fill:#1FB299;}
	.st1{fill:#2FDDBB;}
	.st2{fill:#1B9C86;}
	.st3{fill:#1EBC9E;}
	.st4{fill:#41C4AB;}
	.st5{fill:#F2F2F2;}
	.st6{font-family:'Cocon-Regular';}
	.st7{font-size:28px;}
</style>
<path class="st0" d="M625.2,88H24.8C17.2,88,11,81.8,11,74.2v-48c0-7.6,6.2-13.8,13.8-13.8h600.3c7.6,0,13.8,6.2,13.8,13.8v48
	C639,81.8,632.8,88,625.2,88z"/>
<path class="st1" d="M625.2,405H24.8c-7.6,0-13.8-6.2-13.8-13.8v-226c0-7.6,6.2-13.8,13.8-13.8h600.3c7.6,0,13.8,6.2,13.8,13.8v226
	C639,398.8,632.8,405,625.2,405z"/>
<path class="st2" d="M611.2,391H35.8c-7.6,0-13.8-6.2-13.8-13.8V208.8c0-7.6,6.2-13.8,13.8-13.8h575.3c7.6,0,13.8,6.2,13.8,13.8
	v168.3C625,384.8,618.8,391,611.2,391z"/>
<path class="st3" d="M597.2,307H47.8c-7.6,0-13.8-6.2-13.8-13.8v-30.3c0-7.6,6.2-13.8,13.8-13.8h549.3c7.6,0,13.8,6.2,13.8,13.8
	v30.3C611,300.8,604.8,307,597.2,307z"/>
<path class="st3" d="M596.2,375H46.8c-7.6,0-13.8-6.2-13.8-13.8v-30.3c0-7.6,6.2-13.8,13.8-13.8h549.3c7.6,0,13.8,6.2,13.8,13.8
	v30.3C610,368.8,603.8,375,596.2,375z"/>
<path class="st4" d="M630,144H20c-4.9,0-9-4-9-9v-30.7c0-4.9,4-9,9-9h610c4.9,0,9,4,9,9V135C639,140,635,144,630,144z"/>
<text transform="matrix(1 0 0 1 286.79 127.88)" class="st5 st6 st7">&lt;nav&gt;</text>
<text transform="matrix(1 0 0 1 275.79 181.88)" class="st5 st6 st7">&lt;main&gt;</text>
<text transform="matrix(1 0 0 1 37.79 229.88)" class="st5 st6 st7">&lt;article&gt;</text>
<text transform="matrix(1 0 0 1 76.79 287.88)" class="st5 st6 st7">&lt;section&gt;</text>
<text transform="matrix(1 0 0 1 76.79 353.88)" class="st5 st6 st7">&lt;section&gt;</text>
<path class="st0" d="M625.2,488H24.8c-7.6,0-13.8-6.2-13.8-13.8v-48c0-7.6,6.2-13.8,13.8-13.8h600.3c7.6,0,13.8,6.2,13.8,13.8v48
	C639,481.8,632.8,488,625.2,488z"/>
<text transform="matrix(1 0 0 1 266.79 459.88)" class="st5 st6 st7">&lt;footer&gt;</text>
<text transform="matrix(1 0 0 1 266.7899 59.8801)" class="st5 st6 st7">&lt;header&gt;</text>
</svg>
