<?xml version="1.0" encoding="utf-8"?>
<!-- Generator: Adobe Illustrator 21.0.2, SVG Export Plug-In . SVG Version: 6.00 Build 0)  -->
<svg version="1.1" id="Слой_1" xmlns="http://www.w3.org/2000/svg" xmlns:xlink="http://www.w3.org/1999/xlink" x="0px" y="0px"
	 viewBox="0 0 515 600" style="enable-background:new 0 0 515 600;" xml:space="preserve">
<style type="text/css">
	.st0{fill:#FFFFFF;}
	.st1{fill:#455A64;}
	.st2{fill:#1EA386;}
	.st3{fill:#55555A;}
	.st4{fill:#1FB299;}
	.st5{enable-background:new    ;}
	.st6{fill:#F2F2F2;}
	.st7{fill:#54DDC3;}
	.st8{fill:#2FDDBB;}
	.st9{display:none;fill:#FFFFFF;}
	.st10{display:none;fill:#455A64;}
	.st11{display:none;}
	.st12{display:inline;fill:#455A64;}
	.st13{font-family:'Manrope-Semibold';}
	.st14{font-size:20px;}
	.st15{display:none;fill:#1FB299;}
	.st16{display:none;fill:#F2F2F2;enable-background:new    ;}
	.st17{font-family:'Cocon-Regular';}
	.st18{font-size:18px;}
	.st19{display:none;fill:#54DDC3;}
	.st20{display:none;fill:#2FDDBB;}
</style>
<rect x="3" y="429" class="st0" width="512" height="170"/>
<rect x="3" y="429" class="st1" width="7" height="170"/>
<g>
	<path class="st2" d="M18.1,510.7l4.2-4.2l1,1l-3.3,3.3l3.3,3.3l-1,1L18.1,510.7z"/>
	<path class="st2" d="M36.7,502.7v12.8H35v-0.8c-0.4,0.4-0.8,0.6-1.3,0.8c-0.5,0.2-1.1,0.3-1.6,0.3c-0.6,0-1.3-0.1-1.8-0.4
		c-0.6-0.3-1.1-0.6-1.5-1.1c-0.7-0.9-1.1-2.1-1.1-3.5c0-0.7,0.1-1.3,0.3-1.9c0.2-0.6,0.5-1.1,0.8-1.6c0.4-0.5,0.9-0.9,1.5-1.1
		s1.2-0.4,1.9-0.4c0.5,0,1,0.1,1.4,0.2s0.9,0.4,1.2,0.7v-3.8h1.9V502.7z M34.8,512c0.1-0.4,0.2-0.9,0.2-1.4c0-1.1-0.2-1.9-0.7-2.4
		c-0.2-0.3-0.5-0.5-0.8-0.6s-0.7-0.2-1.1-0.2c-0.9,0-1.6,0.3-2,1c-0.2,0.3-0.4,0.6-0.5,1s-0.2,0.8-0.2,1.3c0,1,0.2,1.8,0.6,2.3
		c0.2,0.3,0.5,0.6,0.9,0.7c0.4,0.2,0.7,0.2,1.2,0.2c0.4,0,0.8-0.1,1.1-0.2c0.3-0.1,0.6-0.3,0.9-0.6C34.5,512.8,34.7,512.5,34.8,512z
		"/>
	<path class="st2" d="M41.4,502.6v1.9h-2v-1.9H41.4z M41.4,505.9v9.6h-2v-9.6H41.4z"/>
	<path class="st2" d="M52,505.9l-3.5,9.6h-2l-3.5-9.6h2l2.5,7.1l2.5-7.1H52z"/>
	<path class="st2" d="M63.6,508.8c-0.1-0.1-0.2-0.3-0.2-0.4c-0.2-0.3-0.5-0.5-0.9-0.7s-0.7-0.2-1.1-0.2c-0.4,0-0.8,0.1-1.1,0.2
		c-0.4,0.2-0.6,0.4-0.9,0.7c-0.4,0.5-0.6,1.3-0.6,2.3s0.2,1.7,0.6,2.2c0.2,0.3,0.5,0.5,0.8,0.7s0.7,0.2,1.1,0.2
		c0.4,0,0.8-0.1,1.1-0.2c0.3-0.2,0.6-0.4,0.9-0.7c0.1-0.1,0.2-0.2,0.2-0.4l1.9,0.8c-0.2,0.4-0.4,0.6-0.5,0.8c-0.4,0.5-1,0.9-1.6,1.2
		s-1.3,0.4-2,0.4s-1.4-0.1-2-0.4s-1.2-0.7-1.6-1.2c-0.8-0.9-1.1-2.1-1.1-3.5s0.4-2.5,1.1-3.5c0.4-0.5,1-0.9,1.6-1.2
		c0.6-0.3,1.3-0.4,2-0.4s1.4,0.1,2,0.4s1.2,0.7,1.6,1.2c0.2,0.3,0.4,0.5,0.5,0.8L63.6,508.8z"/>
	<path class="st2" d="M67.3,515.5v-13h2v13H67.3z"/>
	<path class="st2" d="M71.6,507.7c0,0,0.1-0.1,0.1-0.2s0.1-0.1,0.1-0.2c0.8-1.1,2-1.7,3.6-1.7c0.9,0,1.7,0.2,2.4,0.5
		c0.7,0.3,1.2,0.8,1.6,1.5c0.3,0.6,0.4,1.2,0.4,1.8v6H78v-1.8c-0.1,0.3-0.3,0.6-0.6,0.8c-0.3,0.2-0.5,0.5-0.8,0.6
		c-0.6,0.4-1.4,0.6-2.2,0.6c-0.5,0-1-0.1-1.4-0.3c-0.4-0.2-0.8-0.5-1.1-0.8c-0.2-0.3-0.4-0.7-0.5-0.9c-0.1-0.2-0.2-0.6-0.2-1
		c0-0.5,0.1-1,0.4-1.4s0.6-0.8,1.1-1.1c0.4-0.2,0.8-0.4,1.2-0.5c0.4-0.1,0.9-0.2,1.6-0.3l0.6-0.1l1.7-0.2c-0.1-0.5-0.3-0.9-0.7-1.1
		c-0.4-0.3-0.9-0.4-1.5-0.4c-0.9,0-1.5,0.2-1.9,0.7c-0.1,0.1-0.2,0.2-0.2,0.3L71.6,507.7z M75.9,511.1c-0.6,0.1-1,0.2-1.4,0.3
		c-0.3,0.1-0.6,0.2-0.9,0.4c-0.2,0.2-0.4,0.5-0.4,0.8c0,0.4,0.1,0.7,0.4,0.9c0.3,0.3,0.7,0.4,1.1,0.4c0.6,0,1.2-0.2,1.7-0.5
		c0.6-0.3,0.9-0.7,1.1-1.3c0.1-0.2,0.2-0.5,0.2-0.7s0-0.5,0-0.7C77.5,510.8,76.8,510.9,75.9,511.1z"/>
	<path class="st2" d="M87.8,508.9c-0.1-0.2-0.2-0.4-0.4-0.6c-0.2-0.2-0.4-0.4-0.6-0.5c-0.4-0.2-0.8-0.3-1.2-0.3
		c-0.5,0-0.9,0.1-1.2,0.2c-0.3,0.2-0.5,0.4-0.5,0.7c0,0.2,0,0.3,0.1,0.4c0.2,0.2,0.5,0.4,1.1,0.5c0.2,0.1,0.6,0.2,1,0.3
		c0.3,0.1,0.6,0.1,0.7,0.2c0.5,0.1,0.9,0.3,1.1,0.4s0.5,0.3,0.8,0.5c0.7,0.6,1.1,1.3,1.1,2.1c0,0.5-0.1,0.9-0.4,1.3
		c-0.3,0.4-0.6,0.7-1,1c-0.6,0.4-1.5,0.6-2.7,0.6c-1.4,0-2.5-0.4-3.3-1.3c-0.2-0.3-0.5-0.6-0.7-1c-0.2-0.4-0.3-0.8-0.4-1.1l1.9-0.5
		c0,0.2,0.1,0.4,0.2,0.7c0.1,0.2,0.2,0.4,0.4,0.6c0.4,0.4,1,0.7,1.8,0.7c0.3,0,0.6,0,0.9-0.1c0.3-0.1,0.5-0.2,0.7-0.3
		c0.2-0.2,0.3-0.4,0.4-0.7c0-0.3-0.1-0.5-0.3-0.7c-0.2-0.2-0.6-0.4-1.2-0.5c-0.2-0.1-0.5-0.1-0.9-0.2l-0.7-0.2
		c-0.4-0.1-0.8-0.2-1.1-0.4c-0.3-0.1-0.5-0.3-0.8-0.5s-0.5-0.5-0.7-0.9c-0.2-0.3-0.2-0.7-0.2-1c0-0.5,0.2-1,0.5-1.5
		c0.3-0.4,0.7-0.8,1.2-1c0.6-0.2,1.2-0.4,1.9-0.4c0.9,0,1.6,0.2,2.2,0.5c0.5,0.2,0.9,0.5,1.2,0.9c0.4,0.4,0.6,0.9,0.8,1.4
		L87.8,508.9z"/>
	<path class="st2" d="M97.2,508.9c-0.1-0.2-0.2-0.4-0.4-0.6c-0.2-0.2-0.4-0.4-0.6-0.5c-0.4-0.2-0.8-0.3-1.2-0.3
		c-0.5,0-0.9,0.1-1.2,0.2c-0.3,0.2-0.5,0.4-0.5,0.7c0,0.2,0,0.3,0.1,0.4c0.2,0.2,0.5,0.4,1.1,0.5c0.2,0.1,0.6,0.2,1,0.3
		c0.3,0.1,0.6,0.1,0.7,0.2c0.5,0.1,0.9,0.3,1.1,0.4s0.5,0.3,0.8,0.5c0.7,0.6,1.1,1.3,1.1,2.1c0,0.5-0.1,0.9-0.4,1.3
		c-0.3,0.4-0.6,0.7-1,1c-0.6,0.4-1.5,0.6-2.7,0.6c-1.4,0-2.5-0.4-3.3-1.3c-0.2-0.3-0.5-0.6-0.7-1c-0.2-0.4-0.3-0.8-0.4-1.1l1.9-0.5
		c0,0.2,0.1,0.4,0.2,0.7c0.1,0.2,0.2,0.4,0.4,0.6c0.4,0.4,1,0.7,1.8,0.7c0.3,0,0.6,0,0.9-0.1c0.3-0.1,0.5-0.2,0.7-0.3
		c0.2-0.2,0.3-0.4,0.4-0.7c0-0.3-0.1-0.5-0.3-0.7c-0.2-0.2-0.6-0.4-1.2-0.5c-0.2-0.1-0.5-0.1-0.9-0.2l-0.7-0.2
		c-0.4-0.1-0.8-0.2-1.1-0.4c-0.3-0.1-0.5-0.3-0.8-0.5s-0.5-0.5-0.7-0.9c-0.2-0.3-0.2-0.7-0.2-1c0-0.5,0.2-1,0.5-1.5
		c0.3-0.4,0.7-0.8,1.2-1c0.6-0.2,1.2-0.4,1.9-0.4c0.9,0,1.6,0.2,2.2,0.5c0.5,0.2,0.9,0.5,1.2,0.9c0.4,0.4,0.6,0.9,0.8,1.4
		L97.2,508.9z"/>
	<path class="st2" d="M102,508.2h9v1.6h-9V508.2z M102,511.6h9v1.6h-9V511.6z"/>
	<path class="st3" d="M116.2,502.7v3.2h-2v-3.2H116.2z M119.5,502.7v3.2h-2v-3.2H119.5z"/>
	<path class="st3" d="M130.9,508.3c0.2,0.6,0.3,1.5,0.3,2.4v4.7h-2v-4.7c0-0.6-0.1-1.1-0.2-1.6s-0.3-0.8-0.6-1.1
		c-0.4-0.3-0.9-0.5-1.5-0.5c-0.5,0-1,0.2-1.4,0.5s-0.7,0.8-0.8,1.4c-0.1,0.4-0.1,1-0.1,1.9v4.2h-2v-12.8h1.8v4l0.1-0.1
		c0.4-0.3,0.8-0.6,1.3-0.8c0.5-0.2,1-0.2,1.5-0.2s0.9,0.1,1.4,0.2c0.5,0.2,0.9,0.4,1.2,0.7C130.3,507.1,130.7,507.6,130.9,508.3z"/>
	<path class="st3" d="M135.5,512.9c0.2,0.3,0.5,0.5,0.9,0.7s0.7,0.2,1.1,0.2s0.8-0.1,1.1-0.2c0.3-0.2,0.6-0.4,0.9-0.7
		c0,0,0.1-0.2,0.2-0.4l2,0.8c-0.2,0.3-0.3,0.6-0.5,0.8c-0.4,0.5-1,0.9-1.6,1.1s-1.2,0.4-1.9,0.4c-0.8,0-1.5-0.1-2.1-0.4
		c-0.7-0.3-1.2-0.7-1.6-1.2c-0.8-0.9-1.1-2.1-1.1-3.4c0-1.5,0.4-2.6,1.1-3.6c0.4-0.5,1-0.9,1.6-1.2c0.6-0.3,1.3-0.4,2-0.4
		s1.4,0.1,2,0.4s1.1,0.7,1.6,1.2c0.8,0.9,1.1,2.1,1.1,3.5c0,0.1,0,0.3,0,0.5H135C135,512,135.2,512.5,135.5,512.9z M136.3,507.7
		c-0.4,0.2-0.6,0.4-0.9,0.7c-0.2,0.3-0.4,0.7-0.5,1.2h5c-0.1-0.5-0.3-0.9-0.5-1.2c-0.2-0.3-0.5-0.5-0.9-0.7
		c-0.3-0.2-0.7-0.2-1.1-0.2C137.1,507.5,136.7,507.6,136.3,507.7z"/>
	<path class="st3" d="M143.7,507.7c0,0,0.1-0.1,0.1-0.2s0.1-0.1,0.1-0.2c0.8-1.1,2-1.7,3.6-1.7c0.9,0,1.7,0.2,2.4,0.5
		s1.2,0.8,1.6,1.5c0.3,0.6,0.4,1.2,0.4,1.8v6h-1.8v-1.8c-0.1,0.3-0.3,0.6-0.6,0.8c-0.3,0.2-0.5,0.5-0.8,0.6
		c-0.6,0.4-1.4,0.6-2.2,0.6c-0.5,0-1-0.1-1.4-0.3c-0.4-0.2-0.8-0.5-1.1-0.8c-0.2-0.3-0.4-0.7-0.5-0.9c-0.1-0.2-0.2-0.6-0.2-1
		c0-0.5,0.1-1,0.4-1.4c0.3-0.4,0.6-0.8,1.1-1.1c0.4-0.2,0.8-0.4,1.2-0.5s0.9-0.2,1.6-0.3l0.6-0.1l1.7-0.2c-0.1-0.5-0.3-0.9-0.7-1.1
		c-0.4-0.3-0.9-0.4-1.5-0.4c-0.9,0-1.5,0.2-1.9,0.7c-0.1,0.1-0.2,0.2-0.2,0.3L143.7,507.7z M148,511.1c-0.6,0.1-1,0.2-1.4,0.3
		c-0.3,0.1-0.6,0.2-0.9,0.4c-0.2,0.2-0.4,0.5-0.4,0.8c0,0.4,0.1,0.7,0.4,0.9c0.3,0.3,0.7,0.4,1.1,0.4c0.6,0,1.2-0.2,1.7-0.5
		c0.6-0.3,0.9-0.7,1.1-1.3c0.1-0.2,0.2-0.5,0.2-0.7s0-0.5,0-0.7C149.7,510.8,149,510.9,148,511.1z"/>
	<path class="st3" d="M162.9,502.7v12.8h-1.8v-0.8c-0.4,0.4-0.8,0.6-1.3,0.8c-0.5,0.2-1.1,0.3-1.6,0.3c-0.6,0-1.3-0.1-1.8-0.4
		c-0.6-0.3-1.1-0.6-1.5-1.1c-0.7-0.9-1.1-2.1-1.1-3.5c0-0.7,0.1-1.3,0.3-1.9s0.5-1.1,0.8-1.6c0.4-0.5,0.9-0.9,1.5-1.1
		s1.2-0.4,1.9-0.4c0.5,0,1,0.1,1.4,0.2s0.9,0.4,1.2,0.7v-3.8h2V502.7z M161,512c0.1-0.4,0.2-0.9,0.2-1.4c0-1.1-0.2-1.9-0.7-2.4
		c-0.2-0.3-0.5-0.5-0.8-0.6s-0.7-0.2-1.1-0.2c-0.9,0-1.6,0.3-2,1c-0.2,0.3-0.4,0.6-0.5,1s-0.2,0.8-0.2,1.3c0,1,0.2,1.8,0.6,2.3
		c0.2,0.3,0.5,0.6,0.9,0.7c0.4,0.2,0.7,0.2,1.2,0.2c0.4,0,0.8-0.1,1.1-0.2c0.3-0.1,0.6-0.3,0.9-0.6C160.7,512.8,160.8,512.5,161,512
		z"/>
	<path class="st3" d="M167.6,512.9c0.2,0.3,0.5,0.5,0.9,0.7s0.7,0.2,1.1,0.2s0.8-0.1,1.1-0.2c0.3-0.2,0.6-0.4,0.9-0.7
		c0,0,0.1-0.2,0.2-0.4l2,0.8c-0.2,0.3-0.3,0.6-0.5,0.8c-0.4,0.5-1,0.9-1.6,1.1s-1.2,0.4-1.9,0.4c-0.8,0-1.5-0.1-2.1-0.4
		c-0.7-0.3-1.2-0.7-1.6-1.2c-0.8-0.9-1.1-2.1-1.1-3.4c0-1.5,0.4-2.6,1.1-3.6c0.4-0.5,1-0.9,1.6-1.2c0.6-0.3,1.3-0.4,2-0.4
		s1.4,0.1,2,0.4s1.1,0.7,1.6,1.2c0.8,0.9,1.1,2.1,1.1,3.5c0,0.1,0,0.3,0,0.5H167C167.1,512,167.3,512.5,167.6,512.9z M168.4,507.7
		c-0.4,0.2-0.6,0.4-0.9,0.7c-0.2,0.3-0.4,0.7-0.5,1.2h5c-0.1-0.5-0.3-0.9-0.5-1.2c-0.2-0.3-0.5-0.5-0.9-0.7
		c-0.3-0.2-0.7-0.2-1.1-0.2C169.2,507.5,168.8,507.6,168.4,507.7z"/>
	<path class="st3" d="M182.3,505.9v1.9c-0.4-0.2-0.8-0.2-1.4-0.2c-0.9,0-1.5,0.2-1.9,0.7c-0.3,0.3-0.5,0.6-0.6,1s-0.2,0.8-0.2,1.4
		v4.9h-2V506h1.8v1.4c0.2-0.4,0.5-0.7,0.9-1c0.5-0.4,1.1-0.6,1.9-0.6C181.3,505.6,181.8,505.7,182.3,505.9z"/>
	<path class="st3" d="M185.8,502.7v3.2h-2v-3.2H185.8z M189,502.7v3.2h-2v-3.2H189z"/>
	<path class="st2" d="M194.3,513.9l3.3-3.3l-3.3-3.3l1-1l4.3,4.2l-4.3,4.2L194.3,513.9z"/>
	<path class="st3" d="M217.3,502.7v12.8h-13.8v-12.8h2v10.7h3.9v-10.7h2v10.7h3.9v-10.7H217.3z"/>
	<path class="st3" d="M219.7,507.7c0,0,0.1-0.1,0.1-0.2s0.1-0.1,0.1-0.2c0.8-1.1,2-1.7,3.6-1.7c0.9,0,1.7,0.2,2.4,0.5
		s1.2,0.8,1.6,1.5c0.3,0.6,0.4,1.2,0.4,1.8v6h-1.8v-1.8c-0.1,0.3-0.3,0.6-0.6,0.8c-0.3,0.2-0.5,0.5-0.8,0.6
		c-0.6,0.4-1.4,0.6-2.2,0.6c-0.5,0-1-0.1-1.4-0.3c-0.4-0.2-0.8-0.5-1.1-0.8c-0.2-0.3-0.4-0.7-0.5-0.9c-0.1-0.2-0.2-0.6-0.2-1
		c0-0.5,0.1-1,0.4-1.4c0.3-0.4,0.6-0.8,1.1-1.1c0.4-0.2,0.8-0.4,1.2-0.5s0.9-0.2,1.6-0.3l0.6-0.1l1.7-0.2c-0.1-0.5-0.3-0.9-0.7-1.1
		c-0.4-0.3-0.9-0.4-1.5-0.4c-0.9,0-1.5,0.2-1.9,0.7c-0.1,0.1-0.2,0.2-0.2,0.3L219.7,507.7z M224,511.1c-0.6,0.1-1,0.2-1.4,0.3
		c-0.3,0.1-0.6,0.2-0.9,0.4c-0.2,0.2-0.4,0.5-0.4,0.8c0,0.4,0.1,0.7,0.4,0.9c0.3,0.3,0.7,0.4,1.1,0.4c0.6,0,1.2-0.2,1.7-0.5
		c0.6-0.3,0.9-0.7,1.1-1.3c0.1-0.2,0.2-0.5,0.2-0.7s0-0.5,0-0.7C225.6,510.8,225,510.9,224,511.1z"/>
	<path class="st3" d="M238.7,515.5h-2v-7.6h-4.5v7.6h-2v-9.6h8.5V515.5z"/>
	<path class="st3" d="M246.6,510.7l3.1,4.8h-2.2l-2.6-4h-1.6v4h-2v-9.6h2v4h1.6l2.5-4h2.2L246.6,510.7z"/>
	<path class="st3" d="M250.8,507.7c0,0,0.1-0.1,0.1-0.2s0.1-0.1,0.1-0.2c0.8-1.1,2-1.7,3.6-1.7c0.9,0,1.7,0.2,2.4,0.5
		s1.2,0.8,1.6,1.5c0.3,0.6,0.4,1.2,0.4,1.8v6h-1.8v-1.8c-0.1,0.3-0.3,0.6-0.6,0.8c-0.3,0.2-0.5,0.5-0.8,0.6
		c-0.6,0.4-1.4,0.6-2.2,0.6c-0.5,0-1-0.1-1.4-0.3c-0.5-0.2-0.8-0.5-1.1-0.8c-0.2-0.3-0.4-0.7-0.5-0.9c-0.1-0.3-0.2-0.6-0.2-1
		c0-0.5,0.1-1,0.4-1.4c0.3-0.4,0.6-0.8,1.1-1.1c0.4-0.2,0.8-0.4,1.2-0.5s0.9-0.2,1.6-0.3l0.6-0.1l1.7-0.2c-0.1-0.5-0.3-0.9-0.7-1.1
		c-0.4-0.3-0.9-0.4-1.5-0.4c-0.9,0-1.5,0.2-1.9,0.7c-0.1,0.1-0.2,0.2-0.2,0.3L250.8,507.7z M255,511.1c-0.6,0.1-1,0.2-1.4,0.3
		c-0.3,0.1-0.6,0.2-0.9,0.4c-0.2,0.2-0.4,0.5-0.4,0.8c0,0.4,0.1,0.7,0.4,0.9c0.3,0.3,0.7,0.4,1.1,0.4c0.6,0,1.2-0.2,1.7-0.5
		c0.6-0.3,0.9-0.7,1.1-1.3c0.1-0.2,0.2-0.5,0.2-0.7s0-0.5,0-0.7C256.7,510.8,256,510.9,255,511.1z"/>
	<path class="st3" d="M271.5,508.8c-0.1-0.1-0.2-0.3-0.2-0.4c-0.2-0.3-0.5-0.5-0.9-0.7s-0.7-0.2-1.1-0.2s-0.8,0.1-1.1,0.2
		c-0.4,0.2-0.6,0.4-0.8,0.7c-0.4,0.5-0.6,1.3-0.6,2.3s0.2,1.7,0.6,2.2c0.2,0.3,0.5,0.5,0.8,0.7s0.7,0.2,1.1,0.2s0.8-0.1,1.1-0.2
		c0.3-0.2,0.6-0.4,0.9-0.7c0.1-0.1,0.2-0.2,0.2-0.4l1.9,0.8c-0.2,0.4-0.4,0.6-0.5,0.8c-0.4,0.5-1,0.9-1.6,1.2s-1.3,0.4-2,0.4
		s-1.4-0.1-2-0.4s-1.2-0.7-1.6-1.2c-0.8-0.9-1.1-2.1-1.1-3.5s0.4-2.5,1.1-3.5c0.4-0.5,1-0.9,1.6-1.2c0.6-0.3,1.3-0.4,2-0.4
		s1.4,0.1,2,0.4s1.2,0.7,1.6,1.2c0.2,0.3,0.4,0.5,0.5,0.8L271.5,508.8z"/>
	<path class="st3" d="M275,507.7c0,0,0.1-0.1,0.1-0.2s0.1-0.1,0.1-0.2c0.8-1.1,2-1.7,3.6-1.7c0.9,0,1.7,0.2,2.4,0.5
		c0.7,0.3,1.2,0.8,1.6,1.5c0.3,0.6,0.4,1.2,0.4,1.8v6h-1.8v-1.8c-0.1,0.3-0.3,0.6-0.6,0.8c-0.3,0.2-0.5,0.5-0.8,0.6
		c-0.6,0.4-1.4,0.6-2.2,0.6c-0.5,0-1-0.1-1.4-0.3c-0.5-0.2-0.8-0.5-1.1-0.8c-0.2-0.3-0.4-0.7-0.5-0.9c-0.1-0.3-0.2-0.6-0.2-1
		c0-0.5,0.1-1,0.4-1.4s0.6-0.8,1.1-1.1c0.4-0.2,0.8-0.4,1.2-0.5c0.4-0.1,0.9-0.2,1.6-0.3l0.6-0.1l1.7-0.2c-0.1-0.5-0.3-0.9-0.7-1.1
		c-0.4-0.3-0.9-0.4-1.5-0.4c-0.9,0-1.5,0.2-1.9,0.7c-0.1,0.1-0.2,0.2-0.2,0.3L275,507.7z M279.3,511.1c-0.6,0.1-1,0.2-1.4,0.3
		c-0.3,0.1-0.6,0.2-0.9,0.4c-0.2,0.2-0.4,0.5-0.4,0.8c0,0.4,0.1,0.7,0.4,0.9c0.3,0.3,0.7,0.4,1.1,0.4c0.6,0,1.2-0.2,1.7-0.5
		c0.6-0.3,0.9-0.7,1.1-1.3c0.1-0.2,0.2-0.5,0.2-0.7s0-0.5,0-0.7C280.9,510.8,280.3,510.9,279.3,511.1z"/>
	<path class="st3" d="M294,515.5h-2v-6.4l-4.6,6.4h-1.8v-9.6h2v6.2l4.6-6.2h1.8V515.5z M292.6,502.2c0,0.5-0.1,0.9-0.4,1.3
		c-0.2,0.4-0.6,0.7-1,1s-0.8,0.4-1.3,0.4s-0.9-0.1-1.3-0.4s-0.7-0.6-0.9-1c-0.2-0.4-0.4-0.8-0.4-1.3h1.6c0,0.3,0.1,0.5,0.3,0.7
		c0.2,0.2,0.5,0.3,0.7,0.3c0.3,0,0.5-0.1,0.8-0.3c0.2-0.2,0.3-0.4,0.3-0.7H292.6z"/>
	<path class="st3" d="M304.1,507.7h-3.2v7.8h-2v-7.8h-3.2v-1.8h8.5L304.1,507.7L304.1,507.7z"/>
	<path class="st3" d="M305.2,507.7c0,0,0.1-0.1,0.1-0.2s0.1-0.1,0.1-0.2c0.8-1.1,2-1.7,3.6-1.7c0.9,0,1.7,0.2,2.4,0.5
		c0.7,0.3,1.2,0.8,1.6,1.5c0.3,0.6,0.4,1.2,0.4,1.8v6h-1.8v-1.8c-0.1,0.3-0.3,0.6-0.6,0.8c-0.3,0.2-0.5,0.5-0.8,0.6
		c-0.6,0.4-1.4,0.6-2.2,0.6c-0.5,0-1-0.1-1.4-0.3c-0.5-0.2-0.8-0.5-1.1-0.8c-0.2-0.3-0.4-0.7-0.5-0.9c-0.1-0.3-0.2-0.6-0.2-1
		c0-0.5,0.1-1,0.4-1.4s0.6-0.8,1.1-1.1c0.4-0.2,0.8-0.4,1.2-0.5c0.4-0.1,0.9-0.2,1.6-0.3l0.6-0.1l1.7-0.2c-0.1-0.5-0.3-0.9-0.7-1.1
		c-0.4-0.3-0.9-0.4-1.5-0.4c-0.9,0-1.5,0.2-1.9,0.7c-0.1,0.1-0.2,0.2-0.2,0.3L305.2,507.7z M309.5,511.1c-0.6,0.1-1,0.2-1.4,0.3
		c-0.3,0.1-0.6,0.2-0.9,0.4c-0.2,0.2-0.4,0.5-0.4,0.8c0,0.4,0.1,0.7,0.4,0.9c0.3,0.3,0.7,0.4,1.1,0.4c0.6,0,1.2-0.2,1.7-0.5
		c0.6-0.3,0.9-0.7,1.1-1.3c0.1-0.2,0.2-0.5,0.2-0.7s0-0.5,0-0.7C311.2,510.8,310.5,510.9,309.5,511.1z"/>
	<path class="st2" d="M317,510.7l4.2-4.2l1,1l-3.3,3.3l3.3,3.3l-1,1L317,510.7z"/>
	<path class="st2" d="M332.2,502.7l-3.4,12.8h-2l3.4-12.8H332.2z"/>
	<path class="st2" d="M342.2,502.7v12.8h-1.8v-0.8c-0.4,0.4-0.8,0.6-1.3,0.8c-0.5,0.2-1.1,0.3-1.6,0.3c-0.6,0-1.3-0.1-1.8-0.4
		c-0.6-0.3-1.1-0.6-1.5-1.1c-0.7-0.9-1.1-2.1-1.1-3.5c0-0.7,0.1-1.3,0.3-1.9c0.2-0.6,0.5-1.1,0.8-1.6c0.4-0.5,0.9-0.9,1.5-1.1
		c0.6-0.3,1.2-0.4,1.9-0.4c0.5,0,1,0.1,1.4,0.2c0.5,0.2,0.9,0.4,1.2,0.7v-3.8h2V502.7z M340.3,512c0.1-0.4,0.2-0.9,0.2-1.4
		c0-1.1-0.2-1.9-0.7-2.4c-0.2-0.3-0.5-0.5-0.8-0.6s-0.7-0.2-1.1-0.2c-0.9,0-1.6,0.3-2,1c-0.2,0.3-0.4,0.6-0.5,1s-0.2,0.8-0.2,1.3
		c0,1,0.2,1.8,0.6,2.3c0.2,0.3,0.5,0.6,0.9,0.7c0.4,0.2,0.7,0.2,1.2,0.2c0.4,0,0.8-0.1,1.1-0.2c0.3-0.1,0.6-0.3,0.8-0.6
		C340,512.8,340.2,512.5,340.3,512z"/>
	<path class="st2" d="M346.9,502.6v1.9h-2v-1.9H346.9z M346.9,505.9v9.6h-2v-9.6H346.9z"/>
	<path class="st2" d="M357.5,505.9l-3.5,9.6h-2l-3.5-9.6h2l2.5,7.1l2.5-7.1H357.5z"/>
	<path class="st2" d="M361.3,513.9l3.3-3.3l-3.3-3.3l1-1l4.3,4.2l-4.3,4.2L361.3,513.9z"/>
	<path class="st2" d="M18.1,531.1l4.2-4.2l1,1l-3.3,3.3l3.3,3.3l-1,1L18.1,531.1z"/>
	<path class="st2" d="M36.7,523.1v12.8H35v-0.8c-0.4,0.4-0.8,0.6-1.3,0.8s-1.1,0.3-1.6,0.3c-0.6,0-1.3-0.1-1.8-0.4
		c-0.6-0.3-1.1-0.6-1.5-1.1c-0.7-0.9-1.1-2.1-1.1-3.5c0-0.7,0.1-1.3,0.3-1.9c0.2-0.6,0.5-1.1,0.8-1.6c0.4-0.5,0.9-0.9,1.5-1.1
		s1.2-0.4,1.9-0.4c0.5,0,1,0.1,1.4,0.2s0.9,0.4,1.2,0.7v-3.8h1.9V523.1z M34.8,532.4c0.1-0.4,0.2-0.9,0.2-1.4c0-1.1-0.2-1.9-0.7-2.4
		c-0.2-0.3-0.5-0.5-0.8-0.6s-0.7-0.2-1.1-0.2c-0.9,0-1.6,0.3-2,1c-0.2,0.3-0.4,0.6-0.5,1s-0.2,0.8-0.2,1.3c0,1,0.2,1.8,0.6,2.3
		c0.2,0.3,0.5,0.6,0.9,0.7c0.4,0.2,0.7,0.2,1.2,0.2c0.4,0,0.8-0.1,1.1-0.2c0.3-0.1,0.6-0.3,0.9-0.6
		C34.5,533.2,34.7,532.9,34.8,532.4z"/>
	<path class="st2" d="M41.4,523v1.9h-2V523H41.4z M41.4,526.3v9.6h-2v-9.6H41.4z"/>
	<path class="st2" d="M52,526.3l-3.5,9.6h-2l-3.5-9.6h2l2.5,7.1l2.5-7.1H52z"/>
	<path class="st2" d="M63.6,529.2c-0.1-0.1-0.2-0.3-0.2-0.4c-0.2-0.3-0.5-0.5-0.9-0.7s-0.7-0.2-1.1-0.2c-0.4,0-0.8,0.1-1.1,0.2
		c-0.4,0.2-0.6,0.4-0.9,0.7c-0.4,0.5-0.6,1.3-0.6,2.3s0.2,1.7,0.6,2.2c0.2,0.3,0.5,0.5,0.8,0.7s0.7,0.2,1.1,0.2
		c0.4,0,0.8-0.1,1.1-0.2c0.3-0.2,0.6-0.4,0.9-0.7c0.1-0.1,0.2-0.2,0.2-0.4l1.9,0.8c-0.2,0.4-0.4,0.6-0.5,0.8c-0.4,0.5-1,0.9-1.6,1.2
		s-1.3,0.4-2,0.4s-1.4-0.1-2-0.4c-0.6-0.3-1.2-0.7-1.6-1.2c-0.8-0.9-1.1-2.1-1.1-3.5s0.4-2.5,1.1-3.5c0.4-0.5,1-0.9,1.6-1.2
		s1.3-0.4,2-0.4s1.4,0.1,2,0.4c0.6,0.3,1.2,0.7,1.6,1.2c0.2,0.3,0.4,0.5,0.5,0.8L63.6,529.2z"/>
	<path class="st2" d="M67.3,535.9v-13h2v13H67.3z"/>
	<path class="st2" d="M71.6,528.1c0,0,0.1-0.1,0.1-0.2c0-0.1,0.1-0.1,0.1-0.2c0.8-1.1,2-1.7,3.6-1.7c0.9,0,1.7,0.2,2.4,0.5
		c0.7,0.3,1.2,0.8,1.6,1.5c0.3,0.6,0.4,1.2,0.4,1.8v6H78V534c-0.1,0.3-0.3,0.6-0.6,0.8s-0.5,0.5-0.8,0.6c-0.6,0.4-1.4,0.6-2.2,0.6
		c-0.5,0-1-0.1-1.4-0.3s-0.8-0.5-1.1-0.8c-0.2-0.3-0.4-0.7-0.5-0.9s-0.2-0.6-0.2-1c0-0.5,0.1-1,0.4-1.4s0.6-0.8,1.1-1.1
		c0.4-0.2,0.8-0.4,1.2-0.5c0.4-0.1,0.9-0.2,1.6-0.3l0.6-0.1l1.7-0.2c-0.1-0.5-0.3-0.9-0.7-1.1c-0.4-0.3-0.9-0.4-1.5-0.4
		c-0.9,0-1.5,0.2-1.9,0.7c-0.1,0.1-0.2,0.2-0.2,0.3L71.6,528.1z M75.9,531.5c-0.6,0.1-1,0.2-1.4,0.3c-0.3,0.1-0.6,0.2-0.9,0.4
		c-0.2,0.2-0.4,0.5-0.4,0.8c0,0.4,0.1,0.7,0.4,0.9c0.3,0.3,0.7,0.4,1.1,0.4c0.6,0,1.2-0.2,1.7-0.5c0.6-0.3,0.9-0.7,1.1-1.3
		c0.1-0.2,0.2-0.5,0.2-0.7s0-0.5,0-0.7C77.5,531.2,76.8,531.3,75.9,531.5z"/>
	<path class="st2" d="M87.8,529.3c-0.1-0.2-0.2-0.4-0.4-0.6c-0.2-0.2-0.4-0.4-0.6-0.5c-0.4-0.2-0.8-0.3-1.2-0.3
		c-0.5,0-0.9,0.1-1.2,0.2c-0.3,0.2-0.5,0.4-0.5,0.7c0,0.2,0,0.3,0.1,0.4c0.2,0.2,0.5,0.4,1.1,0.5c0.2,0.1,0.6,0.2,1,0.3
		c0.3,0.1,0.6,0.1,0.7,0.2c0.5,0.1,0.9,0.3,1.1,0.4c0.2,0.1,0.5,0.3,0.8,0.5c0.7,0.6,1.1,1.3,1.1,2.1c0,0.5-0.1,0.9-0.4,1.3
		s-0.6,0.7-1,1c-0.6,0.4-1.5,0.6-2.7,0.6c-1.4,0-2.5-0.4-3.3-1.3c-0.2-0.3-0.5-0.6-0.7-1s-0.3-0.8-0.4-1.1l1.9-0.5
		c0,0.2,0.1,0.4,0.2,0.7c0.1,0.2,0.2,0.4,0.4,0.6c0.4,0.4,1,0.7,1.8,0.7c0.3,0,0.6,0,0.9-0.1s0.5-0.2,0.7-0.3
		c0.2-0.2,0.3-0.4,0.4-0.7c0-0.3-0.1-0.5-0.3-0.7c-0.2-0.2-0.6-0.4-1.2-0.5c-0.2-0.1-0.5-0.1-0.9-0.2l-0.7-0.2
		c-0.4-0.1-0.8-0.2-1.1-0.4c-0.3-0.1-0.5-0.3-0.8-0.5s-0.5-0.5-0.7-0.9c-0.2-0.3-0.2-0.7-0.2-1c0-0.5,0.2-1,0.5-1.5
		c0.3-0.4,0.7-0.8,1.2-1c0.6-0.2,1.2-0.4,1.9-0.4c0.9,0,1.6,0.2,2.2,0.5c0.5,0.2,0.9,0.5,1.2,0.9c0.4,0.4,0.6,0.9,0.8,1.4
		L87.8,529.3z"/>
	<path class="st2" d="M97.2,529.3c-0.1-0.2-0.2-0.4-0.4-0.6c-0.2-0.2-0.4-0.4-0.6-0.5c-0.4-0.2-0.8-0.3-1.2-0.3
		c-0.5,0-0.9,0.1-1.2,0.2c-0.3,0.2-0.5,0.4-0.5,0.7c0,0.2,0,0.3,0.1,0.4c0.2,0.2,0.5,0.4,1.1,0.5c0.2,0.1,0.6,0.2,1,0.3
		c0.3,0.1,0.6,0.1,0.7,0.2c0.5,0.1,0.9,0.3,1.1,0.4c0.2,0.1,0.5,0.3,0.8,0.5c0.7,0.6,1.1,1.3,1.1,2.1c0,0.5-0.1,0.9-0.4,1.3
		s-0.6,0.7-1,1c-0.6,0.4-1.5,0.6-2.7,0.6c-1.4,0-2.5-0.4-3.3-1.3c-0.2-0.3-0.5-0.6-0.7-1s-0.3-0.8-0.4-1.1l1.9-0.5
		c0,0.2,0.1,0.4,0.2,0.7c0.1,0.2,0.2,0.4,0.4,0.6c0.4,0.4,1,0.7,1.8,0.7c0.3,0,0.6,0,0.9-0.1s0.5-0.2,0.7-0.3
		c0.2-0.2,0.3-0.4,0.4-0.7c0-0.3-0.1-0.5-0.3-0.7c-0.2-0.2-0.6-0.4-1.2-0.5c-0.2-0.1-0.5-0.1-0.9-0.2l-0.7-0.2
		c-0.4-0.1-0.8-0.2-1.1-0.4c-0.3-0.1-0.5-0.3-0.8-0.5s-0.5-0.5-0.7-0.9c-0.2-0.3-0.2-0.7-0.2-1c0-0.5,0.2-1,0.5-1.5
		c0.3-0.4,0.7-0.8,1.2-1c0.6-0.2,1.2-0.4,1.9-0.4c0.9,0,1.6,0.2,2.2,0.5c0.5,0.2,0.9,0.5,1.2,0.9c0.4,0.4,0.6,0.9,0.8,1.4
		L97.2,529.3z"/>
	<path class="st2" d="M102,528.6h9v1.6h-9V528.6z M102,532h9v1.6h-9V532z"/>
	<path class="st3" d="M116.2,523.1v3.2h-2v-3.2H116.2z M119.5,523.1v3.2h-2v-3.2H119.5z"/>
	<path class="st3" d="M130.9,528.7c0.2,0.6,0.3,1.5,0.3,2.4v4.7h-2v-4.7c0-0.6-0.1-1.1-0.2-1.6s-0.3-0.8-0.6-1.1
		c-0.4-0.3-0.9-0.5-1.5-0.5c-0.5,0-1,0.2-1.4,0.5s-0.7,0.8-0.8,1.4c-0.1,0.4-0.1,1-0.1,1.9v4.2h-2v-9.6h1.8v0.8l0.1-0.1
		c0.4-0.3,0.8-0.6,1.3-0.8s1-0.2,1.5-0.2s0.9,0.1,1.4,0.2c0.5,0.2,0.9,0.4,1.2,0.7C130.3,527.5,130.7,528,130.9,528.7z"/>
	<path class="st3" d="M133.1,528.1c0,0,0.1-0.1,0.1-0.2c0-0.1,0.1-0.1,0.1-0.2c0.8-1.1,2-1.7,3.6-1.7c0.9,0,1.7,0.2,2.4,0.5
		s1.2,0.8,1.6,1.5c0.3,0.6,0.4,1.2,0.4,1.8v6h-1.8V534c-0.1,0.3-0.3,0.6-0.6,0.8s-0.5,0.5-0.8,0.6c-0.6,0.4-1.4,0.6-2.2,0.6
		c-0.5,0-1-0.1-1.4-0.3s-0.8-0.5-1.1-0.8c-0.2-0.3-0.4-0.7-0.5-0.9s-0.2-0.6-0.2-1c0-0.5,0.1-1,0.4-1.4c0.3-0.4,0.6-0.8,1.1-1.1
		c0.4-0.2,0.8-0.4,1.2-0.5s0.9-0.2,1.6-0.3l0.6-0.1l1.7-0.2c-0.1-0.5-0.3-0.9-0.7-1.1c-0.4-0.3-0.9-0.4-1.5-0.4
		c-0.9,0-1.5,0.2-1.9,0.7c-0.1,0.1-0.2,0.2-0.2,0.3L133.1,528.1z M137.3,531.5c-0.6,0.1-1,0.2-1.4,0.3c-0.3,0.1-0.6,0.2-0.9,0.4
		c-0.2,0.2-0.4,0.5-0.4,0.8c0,0.4,0.1,0.7,0.4,0.9c0.3,0.3,0.7,0.4,1.1,0.4c0.6,0,1.2-0.2,1.7-0.5c0.6-0.3,0.9-0.7,1.1-1.3
		c0.1-0.2,0.2-0.5,0.2-0.7s0-0.5,0-0.7C139,531.2,138.3,531.3,137.3,531.5z"/>
	<path class="st3" d="M151.6,526.3l-3.5,9.6h-2l-3.5-9.6h2l2.5,7.1l2.5-7.1H151.6z"/>
	<path class="st3" d="M155.2,523v1.9h-2V523H155.2z M155.2,526.3v9.6h-2v-9.6H155.2z"/>
	<path class="st3" d="M166.5,526.3v9.9c0,0.8-0.1,1.4-0.4,2c-0.3,0.6-0.7,1-1.3,1.4c-0.8,0.5-1.7,0.8-2.8,0.8
		c-0.4,0-0.8-0.1-1.2-0.2c-0.4-0.1-0.8-0.3-1.1-0.5c-0.6-0.3-1.1-0.8-1.5-1.4l1.8-0.9c0.1,0.2,0.3,0.4,0.5,0.5
		c0.2,0.2,0.4,0.3,0.7,0.4c0.3,0.1,0.5,0.1,0.8,0.1s0.7,0,1-0.1s0.6-0.2,0.8-0.4c0.3-0.2,0.5-0.4,0.6-0.7s0.1-0.6,0.1-1v-0.9
		c-0.7,0.6-1.6,0.9-2.7,0.9c-0.6,0-1.3-0.1-1.8-0.4c-0.6-0.3-1.1-0.6-1.5-1.1c-0.7-0.9-1.1-2.1-1.1-3.5c0-0.7,0.1-1.3,0.3-1.9
		c0.2-0.6,0.5-1.1,0.8-1.6c0.4-0.5,0.9-0.9,1.5-1.1s1.2-0.4,1.9-0.4c0.6,0,1.1,0.1,1.6,0.3s0.9,0.5,1.3,0.8v-0.8h1.7V526.3z
		 M163.1,534.1c0.3-0.1,0.6-0.3,0.9-0.6c0.2-0.3,0.4-0.6,0.5-1.1c0.1-0.4,0.2-0.9,0.2-1.4c0-1.1-0.2-1.9-0.7-2.4
		c-0.2-0.3-0.5-0.5-0.8-0.6s-0.7-0.2-1.1-0.2c-0.9,0-1.6,0.3-2,1c-0.2,0.3-0.4,0.6-0.5,1s-0.2,0.8-0.2,1.3c0,1,0.2,1.8,0.6,2.3
		c0.2,0.3,0.5,0.6,0.9,0.7c0.4,0.2,0.7,0.2,1.2,0.2C162.4,534.3,162.8,534.3,163.1,534.1z"/>
	<path class="st3" d="M168.7,528.1c0,0,0.1-0.1,0.1-0.2c0-0.1,0.1-0.1,0.1-0.2c0.8-1.1,2-1.7,3.6-1.7c0.9,0,1.7,0.2,2.4,0.5
		s1.2,0.8,1.6,1.5c0.3,0.6,0.4,1.2,0.4,1.8v6h-1.8V534c-0.1,0.3-0.3,0.6-0.6,0.8s-0.5,0.5-0.8,0.6c-0.6,0.4-1.4,0.6-2.2,0.6
		c-0.5,0-1-0.1-1.4-0.3s-0.8-0.5-1.1-0.8c-0.2-0.3-0.4-0.7-0.5-0.9s-0.2-0.6-0.2-1c0-0.5,0.1-1,0.4-1.4c0.3-0.4,0.6-0.8,1.1-1.1
		c0.4-0.2,0.8-0.4,1.2-0.5s0.9-0.2,1.6-0.3l0.6-0.1l1.7-0.2c-0.1-0.5-0.3-0.9-0.7-1.1c-0.4-0.3-0.9-0.4-1.5-0.4
		c-0.9,0-1.5,0.2-1.9,0.7c-0.1,0.1-0.2,0.2-0.2,0.3L168.7,528.1z M173,531.5c-0.6,0.1-1,0.2-1.4,0.3c-0.3,0.1-0.6,0.2-0.9,0.4
		c-0.2,0.2-0.4,0.5-0.4,0.8c0,0.4,0.1,0.7,0.4,0.9c0.3,0.3,0.7,0.4,1.1,0.4c0.6,0,1.2-0.2,1.7-0.5c0.6-0.3,0.9-0.7,1.1-1.3
		c0.1-0.2,0.2-0.5,0.2-0.7s0-0.5,0-0.7C174.7,531.2,174,531.3,173,531.5z"/>
	<path class="st3" d="M182.3,527.9v4c0,0.5,0,0.8,0,1.1c0,0.2,0.1,0.4,0.2,0.6c0.1,0.2,0.3,0.3,0.4,0.4c0.2,0.1,0.4,0.2,0.6,0.2
		c0.2,0,0.4,0,0.6,0c0.3,0,0.7,0,1-0.1v1.7c-0.4,0.1-0.9,0.2-1.5,0.2c-0.4,0-0.8,0-1-0.1c-0.9-0.2-1.6-0.7-1.9-1.3
		c-0.2-0.3-0.3-0.7-0.3-1.1c-0.1-0.4-0.1-0.9-0.1-1.5v-4.1h-2.1v-1.6h2.1v-2.7h2v2.7h2.8v1.6L182.3,527.9L182.3,527.9z"/>
	<path class="st3" d="M189.4,523v1.9h-2V523H189.4z M189.4,526.3v9.6h-2v-9.6H189.4z"/>
	<path class="st3" d="M194.2,535.7c-0.6-0.3-1.2-0.7-1.6-1.2c-0.8-0.9-1.1-2.1-1.1-3.5c0-0.7,0.1-1.3,0.3-1.9
		c0.2-0.6,0.5-1.1,0.9-1.6s0.9-0.9,1.6-1.2c0.6-0.3,1.3-0.4,2-0.4s1.4,0.1,2,0.4c0.6,0.3,1.2,0.7,1.6,1.2c0.8,0.9,1.2,2.1,1.2,3.5
		c0,0.7-0.1,1.3-0.3,1.9c-0.2,0.6-0.5,1.1-0.9,1.6s-0.9,0.9-1.6,1.2s-1.3,0.4-2,0.4C195.5,536.1,194.9,536,194.2,535.7z
		 M198.9,531.1c0-1-0.2-1.7-0.6-2.3c-0.2-0.3-0.5-0.5-0.9-0.7c-0.3-0.2-0.7-0.2-1.1-0.2c-0.4,0-0.8,0.1-1.2,0.2
		c-0.4,0.2-0.6,0.4-0.9,0.7c-0.4,0.5-0.6,1.3-0.6,2.3s0.2,1.7,0.6,2.2c0.2,0.3,0.5,0.5,0.9,0.7s0.7,0.2,1.2,0.2
		c0.4,0,0.8-0.1,1.1-0.2c0.4-0.2,0.6-0.4,0.9-0.7C198.7,532.8,198.9,532,198.9,531.1z"/>
	<path class="st3" d="M211.3,528.7c0.2,0.6,0.3,1.5,0.3,2.4v4.7h-2v-4.7c0-0.6-0.1-1.1-0.2-1.6s-0.3-0.8-0.6-1.1
		c-0.4-0.3-0.9-0.5-1.5-0.5c-0.5,0-1,0.2-1.4,0.5s-0.7,0.8-0.8,1.4c-0.1,0.4-0.1,1-0.1,1.9v4.2h-2v-9.6h1.8v0.8l0.1-0.1
		c0.4-0.3,0.8-0.6,1.3-0.8s1-0.2,1.5-0.2s0.9,0.1,1.4,0.2c0.5,0.2,0.9,0.4,1.2,0.7C210.8,527.5,211.2,528,211.3,528.7z"/>
	<path class="st3" d="M215.2,523.1v3.2h-2v-3.2H215.2z M218.4,523.1v3.2h-2v-3.2H218.4z"/>
	<path class="st2" d="M223.7,534.3l3.3-3.3l-3.3-3.3l1-1l4.3,4.2l-4.3,4.2L223.7,534.3z"/>
	<path class="st3" d="M241,525.1h-6.2v10.8h-2v-12.8h8.2V525.1z"/>
	<path class="st3" d="M249.3,526.3v9.6h-1.9v-7.8h-3.2l-0.6,4.6c-0.1,1.1-0.4,1.9-0.8,2.5c-0.4,0.5-1.1,0.8-1.9,0.8
		c-0.3,0-0.5,0-0.6,0v-1.8c0.4,0,0.7-0.1,0.9-0.2c0.2-0.1,0.3-0.3,0.4-0.6c0.1-0.2,0.1-0.6,0.2-1.1l0.7-5.9L249.3,526.3L249.3,526.3
		z"/>
	<path class="st3" d="M251.6,528.1c0,0,0.1-0.1,0.1-0.2c0-0.1,0.1-0.1,0.1-0.2c0.8-1.1,2-1.7,3.6-1.7c0.9,0,1.7,0.2,2.4,0.5
		c0.7,0.3,1.2,0.8,1.6,1.5c0.3,0.6,0.4,1.2,0.4,1.8v6H258V534c-0.1,0.3-0.3,0.6-0.6,0.8s-0.5,0.5-0.8,0.6c-0.6,0.4-1.4,0.6-2.2,0.6
		c-0.5,0-1-0.1-1.4-0.3c-0.5-0.2-0.8-0.5-1.1-0.8c-0.2-0.3-0.4-0.7-0.5-0.9c-0.1-0.3-0.2-0.6-0.2-1c0-0.5,0.1-1,0.4-1.4
		c0.3-0.4,0.6-0.8,1.1-1.1c0.4-0.2,0.8-0.4,1.2-0.5s0.9-0.2,1.6-0.3l0.6-0.1l1.7-0.2c-0.1-0.5-0.3-0.9-0.7-1.1
		c-0.4-0.3-0.9-0.4-1.5-0.4c-0.9,0-1.5,0.2-1.9,0.7c-0.1,0.1-0.2,0.2-0.2,0.3L251.6,528.1z M255.9,531.5c-0.6,0.1-1,0.2-1.4,0.3
		c-0.3,0.1-0.6,0.2-0.9,0.4c-0.2,0.2-0.4,0.5-0.4,0.8c0,0.4,0.1,0.7,0.4,0.9c0.3,0.3,0.7,0.4,1.1,0.4c0.6,0,1.2-0.2,1.7-0.5
		c0.6-0.3,0.9-0.7,1.1-1.3c0.1-0.2,0.2-0.5,0.2-0.7s0-0.5,0-0.7C257.5,531.2,256.9,531.3,255.9,531.5z"/>
	<path class="st3" d="M266.9,526.3c0.9,0,1.6,0.2,2.1,0.7c0.7,0.6,1,1.3,1,2.1c0,0.5-0.1,1-0.4,1.4c0,0-0.1,0.1-0.1,0.2
		c-0.1,0.1-0.1,0.1-0.2,0.2c0.3,0.3,0.6,0.5,0.7,0.8c0.3,0.4,0.4,0.9,0.4,1.4c0,0.4-0.1,0.8-0.3,1.2c-0.2,0.4-0.4,0.7-0.8,1
		c-0.2,0.2-0.5,0.3-0.9,0.5c-0.3,0.1-0.6,0.2-0.9,0.2h-5.6v-9.5L266.9,526.3z M264.2,530.3h2.7c0.4,0,0.7-0.1,0.9-0.4
		c0.2-0.2,0.2-0.5,0.2-0.8s-0.1-0.5-0.2-0.8c-0.1-0.2-0.2-0.3-0.4-0.3c-0.1-0.1-0.3-0.1-0.5-0.1h-2.7V530.3z M264.2,534.3h3.2
		c0.4,0,0.7-0.1,0.9-0.4c0.2-0.2,0.2-0.5,0.2-0.8s-0.1-0.6-0.2-0.8s-0.3-0.3-0.4-0.3c-0.1-0.1-0.3-0.1-0.6-0.1h-3.1V534.3z"/>
	<path class="st3" d="M280.9,526.3v9.6h-2v-4h-4.5v4h-2v-9.6h2v3.6h4.5v-3.6H280.9z"/>
	<path class="st3" d="M285.6,535.7c-0.6-0.3-1.2-0.7-1.6-1.2c-0.8-0.9-1.1-2.1-1.1-3.5c0-0.7,0.1-1.3,0.3-1.9
		c0.2-0.6,0.5-1.1,0.9-1.6s0.9-0.9,1.6-1.2c0.6-0.3,1.3-0.4,2-0.4s1.4,0.1,2,0.4s1.2,0.7,1.6,1.2c0.8,0.9,1.2,2.1,1.2,3.5
		c0,0.7-0.1,1.3-0.3,1.9c-0.2,0.6-0.5,1.1-0.9,1.6s-0.9,0.9-1.6,1.2s-1.3,0.4-2,0.4C286.9,536.1,286.2,536,285.6,535.7z
		 M290.2,531.1c0-1-0.2-1.7-0.6-2.3c-0.2-0.3-0.5-0.5-0.9-0.7c-0.3-0.2-0.7-0.2-1.1-0.2s-0.8,0.1-1.2,0.2c-0.4,0.2-0.6,0.4-0.8,0.7
		c-0.4,0.5-0.6,1.3-0.6,2.3s0.2,1.7,0.6,2.2c0.2,0.3,0.5,0.5,0.8,0.7c0.4,0.2,0.7,0.2,1.2,0.2c0.4,0,0.8-0.1,1.1-0.2
		c0.4-0.2,0.6-0.4,0.9-0.7C290,532.8,290.2,532,290.2,531.1z"/>
	<path class="st3" d="M296.5,533.3c0.2,0.3,0.5,0.5,0.9,0.7s0.7,0.2,1.1,0.2s0.8-0.1,1.1-0.2c0.3-0.2,0.6-0.4,0.9-0.7
		c0,0,0.1-0.2,0.2-0.4l2,0.8c-0.2,0.3-0.3,0.6-0.5,0.8c-0.4,0.5-1,0.9-1.6,1.1c-0.6,0.3-1.2,0.4-1.9,0.4c-0.8,0-1.5-0.1-2.1-0.4
		c-0.7-0.3-1.2-0.7-1.6-1.2c-0.8-0.9-1.1-2.1-1.1-3.4c0-1.5,0.4-2.6,1.1-3.6c0.4-0.5,1-0.9,1.6-1.2s1.3-0.4,2-0.4s1.4,0.1,2,0.4
		s1.1,0.7,1.6,1.2c0.8,0.9,1.1,2.1,1.1,3.5c0,0.1,0,0.3,0,0.5H296C296,532.4,296.2,532.9,296.5,533.3z M297.3,528.1
		c-0.4,0.2-0.6,0.4-0.9,0.7c-0.2,0.3-0.4,0.7-0.5,1.2h5c-0.1-0.5-0.3-0.9-0.5-1.2s-0.5-0.5-0.9-0.7c-0.3-0.2-0.7-0.2-1.1-0.2
		C298.1,527.9,297.7,528,297.3,528.1z"/>
	<path class="st3" d="M319,526.3v9.6h-2v-5.3l-2.5,4.1h-1.2l-2.5-4.1v5.3h-2v-9.6h1.8l3.3,5.4l3.3-5.4H319z"/>
	<path class="st3" d="M323.7,533.3c0.2,0.3,0.5,0.5,0.9,0.7s0.7,0.2,1.1,0.2s0.8-0.1,1.1-0.2c0.3-0.2,0.6-0.4,0.9-0.7
		c0,0,0.1-0.2,0.2-0.4l2,0.8c-0.2,0.3-0.3,0.6-0.5,0.8c-0.4,0.5-1,0.9-1.6,1.1c-0.6,0.3-1.2,0.4-1.9,0.4c-0.8,0-1.5-0.1-2.1-0.4
		c-0.7-0.3-1.2-0.7-1.6-1.2c-0.8-0.9-1.1-2.1-1.1-3.4c0-1.5,0.4-2.6,1.1-3.6c0.4-0.5,1-0.9,1.6-1.2s1.3-0.4,2-0.4s1.4,0.1,2,0.4
		s1.1,0.7,1.6,1.2c0.8,0.9,1.1,2.1,1.1,3.5c0,0.1,0,0.3,0,0.5h-7.3C323.2,532.4,323.4,532.9,323.7,533.3z M324.6,528.1
		c-0.4,0.2-0.6,0.4-0.9,0.7c-0.2,0.3-0.4,0.7-0.5,1.2h5c-0.1-0.5-0.3-0.9-0.5-1.2s-0.5-0.5-0.9-0.7c-0.3-0.2-0.7-0.2-1.1-0.2
		C325.3,527.9,325,528,324.6,528.1z"/>
	<path class="st3" d="M340.9,526.3v9.6h-2v-4h-4.5v4h-2v-9.6h2v3.6h4.5v-3.6H340.9z"/>
	<path class="st3" d="M356.2,531.1c0,0.7-0.1,1.3-0.3,1.9c-0.2,0.6-0.5,1.1-0.9,1.6s-0.9,0.9-1.6,1.2s-1.3,0.4-2,0.4s-1.4-0.1-2-0.4
		c-0.6-0.3-1.2-0.7-1.6-1.2c-0.6-0.7-0.9-1.5-1.1-2.5h-1.5v3.8h-2v-9.6h2v3.8h1.5c0.2-1,0.5-1.8,1.1-2.5c0.4-0.5,0.9-0.9,1.6-1.2
		c0.6-0.3,1.3-0.4,2-0.4s1.4,0.1,2,0.4s1.1,0.7,1.6,1.2C355.8,528.5,356.2,529.7,356.2,531.1z M354.1,531.1c0-1-0.2-1.7-0.6-2.3
		c-0.2-0.3-0.5-0.5-0.9-0.7s-0.7-0.2-1.2-0.2s-0.8,0.1-1.2,0.2c-0.4,0.2-0.6,0.4-0.8,0.7c-0.4,0.5-0.6,1.3-0.6,2.3s0.2,1.7,0.6,2.2
		c0.2,0.3,0.5,0.5,0.9,0.7s0.7,0.2,1.1,0.2s0.8-0.1,1.1-0.2c0.4-0.2,0.6-0.4,0.9-0.7C353.9,532.8,354.1,532,354.1,531.1z"/>
	<path class="st3" d="M368.3,529.2c-0.1-0.1-0.2-0.3-0.2-0.4c-0.2-0.3-0.5-0.5-0.9-0.7s-0.7-0.2-1.1-0.2s-0.8,0.1-1.1,0.2
		c-0.4,0.2-0.6,0.4-0.8,0.7c-0.4,0.5-0.6,1.3-0.6,2.3s0.2,1.7,0.6,2.2c0.2,0.3,0.5,0.5,0.8,0.7s0.7,0.2,1.1,0.2s0.8-0.1,1.1-0.2
		c0.3-0.2,0.6-0.4,0.9-0.7c0.1-0.1,0.2-0.2,0.2-0.4l1.9,0.8c-0.2,0.4-0.4,0.6-0.5,0.8c-0.4,0.5-1,0.9-1.6,1.2s-1.3,0.4-2,0.4
		s-1.4-0.1-2-0.4c-0.6-0.3-1.2-0.7-1.6-1.2c-0.8-0.9-1.1-2.1-1.1-3.5s0.4-2.5,1.1-3.5c0.4-0.5,1-0.9,1.6-1.2s1.3-0.4,2-0.4
		s1.4,0.1,2,0.4c0.6,0.3,1.2,0.7,1.6,1.2c0.2,0.3,0.4,0.5,0.5,0.8L368.3,529.2z"/>
	<path class="st3" d="M371.8,528.1c0,0,0.1-0.1,0.1-0.2c0-0.1,0.1-0.1,0.1-0.2c0.8-1.1,2-1.7,3.6-1.7c0.9,0,1.7,0.2,2.4,0.5
		c0.7,0.3,1.2,0.8,1.6,1.5c0.3,0.6,0.4,1.2,0.4,1.8v6h-1.8V534c-0.1,0.3-0.3,0.6-0.6,0.8s-0.5,0.5-0.8,0.6c-0.6,0.4-1.4,0.6-2.2,0.6
		c-0.5,0-1-0.1-1.4-0.3c-0.5-0.2-0.8-0.5-1.1-0.8c-0.2-0.3-0.4-0.7-0.5-0.9c-0.1-0.3-0.2-0.6-0.2-1c0-0.5,0.1-1,0.4-1.4
		s0.6-0.8,1.1-1.1c0.4-0.2,0.8-0.4,1.2-0.5c0.4-0.1,0.9-0.2,1.6-0.3l0.6-0.1l1.7-0.2c-0.1-0.5-0.3-0.9-0.7-1.1
		c-0.4-0.3-0.9-0.4-1.5-0.4c-0.9,0-1.5,0.2-1.9,0.7c-0.1,0.1-0.2,0.2-0.2,0.3L371.8,528.1z M376.1,531.5c-0.6,0.1-1,0.2-1.4,0.3
		c-0.3,0.1-0.6,0.2-0.9,0.4c-0.2,0.2-0.4,0.5-0.4,0.8c0,0.4,0.1,0.7,0.4,0.9c0.3,0.3,0.7,0.4,1.1,0.4c0.6,0,1.2-0.2,1.7-0.5
		c0.6-0.3,0.9-0.7,1.1-1.3c0.1-0.2,0.2-0.5,0.2-0.7s0-0.5,0-0.7C377.8,531.2,377.1,531.3,376.1,531.5z"/>
	<path class="st3" d="M390.8,535.9h-2v-6.4l-4.6,6.4h-1.8v-9.6h2v6.2l4.6-6.2h1.8V535.9z M389.4,522.6c0,0.5-0.1,0.9-0.4,1.3
		c-0.2,0.4-0.6,0.7-1,1s-0.8,0.4-1.3,0.4s-0.9-0.1-1.3-0.4s-0.7-0.6-0.9-1c-0.2-0.4-0.4-0.8-0.4-1.3h1.6c0,0.3,0.1,0.5,0.3,0.7
		c0.2,0.2,0.5,0.3,0.7,0.3c0.3,0,0.5-0.1,0.8-0.3c0.2-0.2,0.3-0.4,0.3-0.7H389.4z"/>
	<path class="st3" d="M400.9,528.1h-3.2v7.8h-2v-7.8h-3.2v-1.8h8.5L400.9,528.1L400.9,528.1z"/>
	<path class="st3" d="M402.1,528.1c0,0,0.1-0.1,0.1-0.2c0-0.1,0.1-0.1,0.1-0.2c0.8-1.1,2-1.7,3.6-1.7c0.9,0,1.7,0.2,2.4,0.5
		c0.7,0.3,1.2,0.8,1.6,1.5c0.3,0.6,0.4,1.2,0.4,1.8v6h-1.8V534c-0.1,0.3-0.3,0.6-0.6,0.8s-0.5,0.5-0.8,0.6c-0.6,0.4-1.4,0.6-2.2,0.6
		c-0.5,0-1-0.1-1.4-0.3c-0.5-0.2-0.8-0.5-1.1-0.8c-0.2-0.3-0.4-0.7-0.5-0.9c-0.1-0.3-0.2-0.6-0.2-1c0-0.5,0.1-1,0.4-1.4
		s0.6-0.8,1.1-1.1c0.4-0.2,0.8-0.4,1.2-0.5c0.4-0.1,0.9-0.2,1.6-0.3l0.6-0.1l1.7-0.2c-0.1-0.5-0.3-0.9-0.7-1.1
		c-0.4-0.3-0.9-0.4-1.5-0.4c-0.9,0-1.5,0.2-1.9,0.7c-0.1,0.1-0.2,0.2-0.2,0.3L402.1,528.1z M406.3,531.5c-0.6,0.1-1,0.2-1.4,0.3
		c-0.3,0.1-0.6,0.2-0.9,0.4c-0.2,0.2-0.4,0.5-0.4,0.8c0,0.4,0.1,0.7,0.4,0.9c0.3,0.3,0.7,0.4,1.1,0.4c0.6,0,1.2-0.2,1.7-0.5
		c0.6-0.3,0.9-0.7,1.1-1.3c0.1-0.2,0.2-0.5,0.2-0.7s0-0.5,0-0.7C408,531.2,407.3,531.3,406.3,531.5z"/>
	<path class="st2" d="M413.9,531.1l4.2-4.2l1,1l-3.3,3.3l3.3,3.3l-1,1L413.9,531.1z"/>
	<path class="st2" d="M429.1,523.1l-3.4,12.8h-2l3.4-12.8H429.1z"/>
	<path class="st2" d="M439.1,523.1v12.8h-1.8v-0.8c-0.4,0.4-0.8,0.6-1.3,0.8s-1.1,0.3-1.6,0.3c-0.6,0-1.3-0.1-1.8-0.4
		c-0.6-0.3-1.1-0.6-1.5-1.1c-0.7-0.9-1.1-2.1-1.1-3.5c0-0.7,0.1-1.3,0.3-1.9c0.2-0.6,0.5-1.1,0.8-1.6c0.4-0.5,0.9-0.9,1.5-1.1
		c0.6-0.3,1.2-0.4,1.9-0.4c0.5,0,1,0.1,1.4,0.2c0.5,0.2,0.9,0.4,1.2,0.7v-3.8h2V523.1z M437.2,532.4c0.1-0.4,0.2-0.9,0.2-1.4
		c0-1.1-0.2-1.9-0.7-2.4c-0.2-0.3-0.5-0.5-0.8-0.6s-0.7-0.2-1.1-0.2c-0.9,0-1.6,0.3-2,1c-0.2,0.3-0.4,0.6-0.5,1s-0.2,0.8-0.2,1.3
		c0,1,0.2,1.8,0.6,2.3c0.2,0.3,0.5,0.6,0.9,0.7c0.4,0.2,0.7,0.2,1.2,0.2c0.4,0,0.8-0.1,1.1-0.2c0.3-0.1,0.6-0.3,0.8-0.6
		S437,532.9,437.2,532.4z"/>
	<path class="st2" d="M443.7,523v1.9h-2V523H443.7z M443.7,526.3v9.6h-2v-9.6H443.7z"/>
	<path class="st2" d="M454.3,526.3l-3.5,9.6h-2l-3.5-9.6h2l2.5,7.1l2.5-7.1H454.3z"/>
	<path class="st2" d="M458.1,534.3l3.3-3.3l-3.3-3.3l1-1l4.3,4.2l-4.3,4.2L458.1,534.3z"/>
	<path class="st2" d="M18.1,551.5l4.2-4.2l1,1l-3.3,3.3l3.3,3.3l-1,1L18.1,551.5z"/>
	<path class="st2" d="M36.7,543.5v12.8H35v-0.8c-0.4,0.4-0.8,0.6-1.3,0.8s-1.1,0.3-1.6,0.3c-0.6,0-1.3-0.1-1.8-0.4
		c-0.6-0.3-1.1-0.6-1.5-1.1c-0.7-0.9-1.1-2.1-1.1-3.5c0-0.7,0.1-1.3,0.3-1.9c0.2-0.6,0.5-1.1,0.8-1.6c0.4-0.5,0.9-0.9,1.5-1.1
		s1.2-0.4,1.9-0.4c0.5,0,1,0.1,1.4,0.2c0.5,0.2,0.9,0.4,1.2,0.7v-3.8h1.9V543.5z M34.8,552.8c0.1-0.4,0.2-0.9,0.2-1.4
		c0-1.1-0.2-1.9-0.7-2.4c-0.2-0.3-0.5-0.5-0.8-0.6s-0.7-0.2-1.1-0.2c-0.9,0-1.6,0.3-2,1c-0.2,0.3-0.4,0.6-0.5,1s-0.2,0.8-0.2,1.3
		c0,1,0.2,1.8,0.6,2.3c0.2,0.3,0.5,0.6,0.9,0.7c0.4,0.2,0.7,0.2,1.2,0.2c0.4,0,0.8-0.1,1.1-0.2c0.3-0.1,0.6-0.3,0.9-0.6
		C34.5,553.6,34.7,553.3,34.8,552.8z"/>
	<path class="st2" d="M41.4,543.4v1.9h-2v-1.9H41.4z M41.4,546.7v9.6h-2v-9.6H41.4z"/>
	<path class="st2" d="M52,546.7l-3.5,9.6h-2l-3.5-9.6h2l2.5,7.1l2.5-7.1H52z"/>
	<path class="st2" d="M63.6,549.6c-0.1-0.1-0.2-0.3-0.2-0.4c-0.2-0.3-0.5-0.5-0.9-0.7s-0.7-0.2-1.1-0.2c-0.4,0-0.8,0.1-1.1,0.2
		c-0.4,0.2-0.6,0.4-0.9,0.7c-0.4,0.5-0.6,1.3-0.6,2.2c0,1,0.2,1.7,0.6,2.2c0.2,0.3,0.5,0.5,0.8,0.7s0.7,0.2,1.1,0.2
		c0.4,0,0.8-0.1,1.1-0.2c0.3-0.2,0.6-0.4,0.9-0.7c0.1-0.1,0.2-0.2,0.2-0.4l1.9,0.8c-0.2,0.4-0.4,0.6-0.5,0.8c-0.4,0.5-1,0.9-1.6,1.2
		s-1.3,0.4-2,0.4s-1.4-0.1-2-0.4c-0.6-0.3-1.2-0.7-1.6-1.2c-0.8-0.9-1.1-2.1-1.1-3.5s0.4-2.5,1.1-3.5c0.4-0.5,1-0.9,1.6-1.2
		s1.3-0.4,2-0.4s1.4,0.1,2,0.4c0.6,0.3,1.2,0.7,1.6,1.2c0.2,0.3,0.4,0.5,0.5,0.8L63.6,549.6z"/>
	<path class="st2" d="M67.3,556.3v-13h2v13H67.3z"/>
	<path class="st2" d="M71.6,548.5c0,0,0.1-0.1,0.1-0.2c0-0.1,0.1-0.1,0.1-0.2c0.8-1.1,2-1.7,3.6-1.7c0.9,0,1.7,0.2,2.4,0.5
		s1.2,0.8,1.6,1.5c0.3,0.6,0.4,1.2,0.4,1.8v6H78v-1.8c-0.1,0.3-0.3,0.6-0.6,0.8s-0.5,0.5-0.8,0.6c-0.6,0.4-1.4,0.6-2.2,0.6
		c-0.5,0-1-0.1-1.4-0.3c-0.5-0.2-0.8-0.5-1.1-0.8c-0.2-0.3-0.4-0.7-0.5-0.9s-0.2-0.6-0.2-1c0-0.5,0.1-1,0.4-1.4s0.6-0.8,1.1-1.1
		c0.4-0.2,0.8-0.4,1.2-0.5c0.4-0.1,0.9-0.2,1.6-0.3l0.6-0.1l1.7-0.2c-0.1-0.5-0.3-0.9-0.7-1.1c-0.4-0.3-0.9-0.4-1.5-0.4
		c-0.9,0-1.5,0.2-1.9,0.7c-0.1,0.1-0.2,0.2-0.2,0.3L71.6,548.5z M75.9,551.9c-0.6,0.1-1,0.2-1.4,0.3c-0.3,0.1-0.6,0.2-0.9,0.4
		c-0.2,0.2-0.4,0.5-0.4,0.8c0,0.4,0.1,0.7,0.4,0.9s0.7,0.4,1.1,0.4c0.6,0,1.2-0.2,1.7-0.5c0.6-0.3,0.9-0.7,1.1-1.3
		c0.1-0.2,0.2-0.5,0.2-0.7s0-0.5,0-0.7C77.5,551.6,76.8,551.7,75.9,551.9z"/>
	<path class="st2" d="M87.8,549.7c-0.1-0.2-0.2-0.4-0.4-0.6c-0.2-0.2-0.4-0.4-0.6-0.5c-0.4-0.2-0.8-0.3-1.2-0.3
		c-0.5,0-0.9,0.1-1.2,0.2c-0.3,0.2-0.5,0.4-0.5,0.7c0,0.2,0,0.3,0.1,0.4c0.2,0.2,0.5,0.4,1.1,0.5c0.2,0.1,0.6,0.2,1,0.3
		c0.3,0.1,0.6,0.1,0.7,0.2c0.5,0.1,0.9,0.3,1.1,0.4c0.2,0.1,0.5,0.3,0.8,0.5c0.7,0.6,1.1,1.3,1.1,2.1c0,0.5-0.1,0.9-0.4,1.3
		c-0.2,0.4-0.6,0.7-1,1c-0.6,0.4-1.5,0.6-2.7,0.6c-1.4,0-2.5-0.4-3.3-1.3c-0.2-0.3-0.5-0.6-0.7-1s-0.3-0.8-0.4-1.1l1.9-0.5
		c0,0.2,0.1,0.4,0.2,0.7c0.1,0.2,0.2,0.4,0.4,0.6c0.4,0.4,1,0.7,1.8,0.7c0.3,0,0.6,0,0.9-0.1s0.5-0.2,0.7-0.3
		c0.2-0.2,0.3-0.4,0.4-0.7c0-0.3-0.1-0.5-0.3-0.7c-0.2-0.2-0.6-0.4-1.2-0.5c-0.2-0.1-0.5-0.1-0.9-0.2l-0.7-0.2
		c-0.4-0.1-0.8-0.2-1.1-0.4c-0.3-0.1-0.5-0.3-0.8-0.5s-0.5-0.5-0.7-0.8s-0.2-0.7-0.2-1c0-0.5,0.2-1,0.5-1.5c0.3-0.4,0.7-0.8,1.2-1
		c0.6-0.2,1.2-0.4,1.9-0.4c0.9,0,1.6,0.2,2.2,0.5c0.5,0.2,0.9,0.5,1.2,0.9c0.4,0.4,0.6,0.9,0.8,1.4L87.8,549.7z"/>
	<path class="st2" d="M97.2,549.7c-0.1-0.2-0.2-0.4-0.4-0.6c-0.2-0.2-0.4-0.4-0.6-0.5c-0.4-0.2-0.8-0.3-1.2-0.3
		c-0.5,0-0.9,0.1-1.2,0.2c-0.3,0.2-0.5,0.4-0.5,0.7c0,0.2,0,0.3,0.1,0.4c0.2,0.2,0.5,0.4,1.1,0.5c0.2,0.1,0.6,0.2,1,0.3
		c0.3,0.1,0.6,0.1,0.7,0.2c0.5,0.1,0.9,0.3,1.1,0.4c0.2,0.1,0.5,0.3,0.8,0.5c0.7,0.6,1.1,1.3,1.1,2.1c0,0.5-0.1,0.9-0.4,1.3
		c-0.2,0.4-0.6,0.7-1,1c-0.6,0.4-1.5,0.6-2.7,0.6c-1.4,0-2.5-0.4-3.3-1.3c-0.2-0.3-0.5-0.6-0.7-1s-0.3-0.8-0.4-1.1l1.9-0.5
		c0,0.2,0.1,0.4,0.2,0.7c0.1,0.2,0.2,0.4,0.4,0.6c0.4,0.4,1,0.7,1.8,0.7c0.3,0,0.6,0,0.9-0.1s0.5-0.2,0.7-0.3
		c0.2-0.2,0.3-0.4,0.4-0.7c0-0.3-0.1-0.5-0.3-0.7c-0.2-0.2-0.6-0.4-1.2-0.5c-0.2-0.1-0.5-0.1-0.9-0.2l-0.7-0.2
		c-0.4-0.1-0.8-0.2-1.1-0.4c-0.3-0.1-0.5-0.3-0.8-0.5s-0.5-0.5-0.7-0.8s-0.2-0.7-0.2-1c0-0.5,0.2-1,0.5-1.5c0.3-0.4,0.7-0.8,1.2-1
		c0.6-0.2,1.2-0.4,1.9-0.4c0.9,0,1.6,0.2,2.2,0.5c0.5,0.2,0.9,0.5,1.2,0.9c0.4,0.4,0.6,0.9,0.8,1.4L97.2,549.7z"/>
	<path class="st2" d="M102,549h9v1.6h-9V549z M102,552.4h9v1.6h-9V552.4z"/>
	<path class="st3" d="M116.2,543.5v3.2h-2v-3.2H116.2z M119.5,543.5v3.2h-2v-3.2H119.5z"/>
	<path class="st3" d="M128.4,549.6c-0.1-0.1-0.2-0.3-0.2-0.4c-0.2-0.3-0.5-0.5-0.9-0.7s-0.7-0.2-1.1-0.2s-0.8,0.1-1.1,0.2
		c-0.4,0.2-0.6,0.4-0.9,0.7c-0.4,0.5-0.6,1.3-0.6,2.2c0,1,0.2,1.7,0.6,2.2c0.2,0.3,0.5,0.5,0.8,0.7s0.7,0.2,1.1,0.2s0.8-0.1,1.1-0.2
		c0.3-0.2,0.6-0.4,0.9-0.7c0.1-0.1,0.2-0.2,0.2-0.4l1.9,0.8c-0.2,0.4-0.4,0.6-0.5,0.8c-0.4,0.5-1,0.9-1.6,1.2
		c-0.6,0.3-1.3,0.4-2,0.4s-1.4-0.1-2-0.4c-0.6-0.3-1.2-0.7-1.6-1.2c-0.8-0.9-1.1-2.1-1.1-3.5s0.4-2.5,1.1-3.5c0.4-0.5,1-0.9,1.6-1.2
		s1.3-0.4,2-0.4s1.4,0.1,2,0.4c0.6,0.3,1.2,0.7,1.6,1.2c0.2,0.3,0.4,0.5,0.5,0.8L128.4,549.6z"/>
	<path class="st3" d="M134,556.1c-0.6-0.3-1.2-0.7-1.6-1.2c-0.8-0.9-1.1-2.1-1.1-3.5c0-0.7,0.1-1.3,0.3-1.9c0.2-0.6,0.5-1.1,0.9-1.6
		s0.9-0.9,1.6-1.2c0.6-0.3,1.3-0.4,2-0.4s1.4,0.1,2,0.4c0.6,0.3,1.2,0.7,1.6,1.2c0.8,0.9,1.2,2.1,1.2,3.5c0,0.7-0.1,1.3-0.3,1.9
		s-0.5,1.1-0.9,1.6s-0.9,0.9-1.6,1.2s-1.3,0.4-2,0.4C135.3,556.5,134.6,556.4,134,556.1z M138.6,551.5c0-1-0.2-1.7-0.6-2.3
		c-0.2-0.3-0.5-0.5-0.9-0.7s-0.7-0.2-1.1-0.2c-0.4,0-0.8,0.1-1.2,0.2c-0.4,0.2-0.6,0.4-0.9,0.7c-0.4,0.5-0.6,1.3-0.6,2.3
		s0.2,1.7,0.6,2.2c0.2,0.3,0.5,0.5,0.9,0.7s0.7,0.2,1.2,0.2c0.4,0,0.8-0.1,1.1-0.2c0.4-0.2,0.6-0.4,0.9-0.7
		C138.4,553.2,138.6,552.4,138.6,551.5z"/>
	<path class="st3" d="M151.1,549.1c0.2,0.6,0.3,1.5,0.3,2.4v4.7h-2v-4.7c0-0.6-0.1-1.1-0.2-1.6c-0.1-0.4-0.3-0.8-0.6-1.1
		c-0.4-0.3-0.9-0.5-1.5-0.5c-0.5,0-1,0.2-1.4,0.5s-0.7,0.8-0.8,1.4c-0.1,0.4-0.1,1-0.1,1.9v4.2h-2v-9.6h1.8v0.8l0.1-0.1
		c0.4-0.3,0.8-0.6,1.3-0.8s1-0.2,1.5-0.2s0.9,0.1,1.4,0.2s0.9,0.4,1.2,0.7C150.5,547.9,150.9,548.4,151.1,549.1z"/>
	<path class="st3" d="M156.5,548.3v4c0,0.5,0,0.8,0,1.1c0,0.2,0.1,0.4,0.2,0.6c0.1,0.2,0.3,0.3,0.4,0.4s0.4,0.2,0.6,0.2
		c0.2,0,0.4,0,0.6,0c0.3,0,0.7,0,1-0.1v1.7c-0.4,0.1-0.9,0.2-1.5,0.2c-0.4,0-0.8,0-1-0.1c-0.9-0.2-1.6-0.7-1.9-1.3
		c-0.2-0.3-0.3-0.7-0.3-1.1c-0.1-0.4-0.1-0.9-0.1-1.5v-4.1h-2.1v-1.6h2.1V544h2v2.7h2.8v1.6H156.5z"/>
	<path class="st3" d="M163.6,553.7c0.2,0.3,0.5,0.5,0.9,0.7s0.7,0.2,1.1,0.2s0.8-0.1,1.1-0.2c0.3-0.2,0.6-0.4,0.9-0.7
		c0,0,0.1-0.2,0.2-0.4l2,0.9c-0.2,0.3-0.3,0.6-0.5,0.8c-0.4,0.5-1,0.9-1.6,1.1s-1.2,0.4-1.9,0.4c-0.8,0-1.5-0.1-2.1-0.4
		c-0.7-0.3-1.2-0.7-1.6-1.2c-0.8-0.9-1.1-2.1-1.1-3.4c0-1.5,0.4-2.6,1.1-3.6c0.4-0.5,1-0.9,1.6-1.2s1.3-0.4,2-0.4s1.4,0.1,2,0.4
		s1.1,0.7,1.6,1.2c0.8,0.9,1.1,2.1,1.1,3.5c0,0.1,0,0.3,0,0.5H163C163.1,552.8,163.3,553.3,163.6,553.7z M164.5,548.5
		c-0.4,0.2-0.6,0.4-0.9,0.7c-0.2,0.3-0.4,0.7-0.5,1.2h5c-0.1-0.5-0.3-0.9-0.5-1.2s-0.5-0.5-0.9-0.7c-0.3-0.2-0.7-0.2-1.1-0.2
		S164.8,548.4,164.5,548.5z"/>
	<path class="st3" d="M180.7,549.1c0.2,0.6,0.3,1.5,0.3,2.4v4.7h-2v-4.7c0-0.6-0.1-1.1-0.2-1.6c-0.1-0.4-0.3-0.8-0.6-1.1
		c-0.4-0.3-0.9-0.5-1.5-0.5c-0.5,0-1,0.2-1.4,0.5s-0.7,0.8-0.8,1.4c-0.1,0.4-0.1,1-0.1,1.9v4.2h-2v-9.6h1.8v0.8l0.1-0.1
		c0.4-0.3,0.8-0.6,1.3-0.8s1-0.2,1.5-0.2s0.9,0.1,1.4,0.2s0.9,0.4,1.2,0.7C180.1,547.9,180.5,548.4,180.7,549.1z"/>
	<path class="st3" d="M186,548.3v4c0,0.5,0,0.8,0,1.1c0,0.2,0.1,0.4,0.2,0.6c0.1,0.2,0.3,0.3,0.4,0.4s0.4,0.2,0.6,0.2
		c0.2,0,0.4,0,0.6,0c0.3,0,0.7,0,1-0.1v1.7c-0.4,0.1-0.9,0.2-1.5,0.2c-0.4,0-0.8,0-1-0.1c-0.9-0.2-1.6-0.7-1.9-1.3
		c-0.2-0.3-0.3-0.7-0.3-1.1c-0.1-0.4-0.1-0.9-0.1-1.5v-4.1h-2v-1.6h2.1V544h2v2.7h2.8v1.6H186z"/>
	<path class="st3" d="M192.8,543.5v3.2h-2v-3.2H192.8z M196,543.5v3.2h-2v-3.2H196z"/>
	<path class="st2" d="M201.4,554.7l3.3-3.3l-3.3-3.3l1-1l4.3,4.2l-4.3,4.2L201.4,554.7z"/>
	<path class="st3" d="M221.5,552.5c-0.2,0.7-0.6,1.4-1,1.9c-0.6,0.7-1.2,1.2-2,1.5s-1.7,0.5-2.6,0.5c-0.9,0-1.8-0.2-2.6-0.5
		c-0.8-0.4-1.5-0.9-2-1.5c-1-1.2-1.5-2.7-1.5-4.6c0-1.9,0.5-3.4,1.5-4.6c0.5-0.7,1.2-1.2,2-1.5s1.7-0.5,2.6-0.5s1.8,0.2,2.6,0.5
		s1.5,0.9,2,1.5s0.9,1.4,1.2,2.3l-2.1,0.4c-0.2-0.6-0.4-1.1-0.7-1.4c-0.3-0.4-0.8-0.8-1.3-1s-1.1-0.4-1.7-0.4
		c-0.6,0-1.2,0.1-1.7,0.4s-1,0.6-1.3,1c-0.6,0.8-0.9,1.9-0.9,3.4s0.3,2.6,0.9,3.4c0.3,0.4,0.7,0.8,1.3,1c0.5,0.2,1.1,0.4,1.7,0.4
		c0.6,0,1.2-0.1,1.8-0.3c0.5-0.2,1-0.6,1.3-1s0.5-0.8,0.6-1.3L221.5,552.5z"/>
	<path class="st3" d="M225.7,556.1c-0.6-0.3-1.2-0.7-1.6-1.2c-0.8-0.9-1.1-2.1-1.1-3.5c0-0.7,0.1-1.3,0.3-1.9
		c0.2-0.6,0.5-1.1,0.9-1.6s0.9-0.9,1.6-1.2c0.6-0.3,1.3-0.4,2-0.4s1.4,0.1,2,0.4c0.6,0.3,1.2,0.7,1.6,1.2c0.8,0.9,1.2,2.1,1.2,3.5
		c0,0.7-0.1,1.3-0.3,1.9s-0.5,1.1-0.9,1.6s-0.9,0.9-1.6,1.2s-1.3,0.4-2,0.4C227,556.5,226.4,556.4,225.7,556.1z M230.4,551.5
		c0-1-0.2-1.7-0.6-2.3c-0.2-0.3-0.5-0.5-0.9-0.7s-0.7-0.2-1.1-0.2c-0.4,0-0.8,0.1-1.2,0.2c-0.4,0.2-0.6,0.4-0.9,0.7
		c-0.4,0.5-0.6,1.3-0.6,2.3s0.2,1.7,0.6,2.2c0.2,0.3,0.5,0.5,0.9,0.7s0.7,0.2,1.2,0.2c0.4,0,0.8-0.1,1.1-0.2
		c0.4-0.2,0.6-0.4,0.9-0.7C230.2,553.2,230.4,552.4,230.4,551.5z"/>
	<path class="st3" d="M242.6,554.4h0.8v3.1h-1.9v-1.2h-6.1v1.2h-1.9v-3.1c0.5,0,0.9-0.3,1.2-0.8s0.6-1.3,0.7-2.5l0.5-4.4h6.7V554.4z
		 M240.7,548.5h-3.1l-0.3,2.9c-0.2,1.5-0.5,2.5-0.9,3h4.4L240.7,548.5L240.7,548.5z"/>
	<path class="st3" d="M247.8,553.7c0.2,0.3,0.5,0.5,0.9,0.7s0.7,0.2,1.1,0.2s0.8-0.1,1.1-0.2c0.3-0.2,0.6-0.4,0.9-0.7
		c0,0,0.1-0.2,0.2-0.4l2,0.9c-0.2,0.3-0.3,0.6-0.5,0.8c-0.4,0.5-1,0.9-1.6,1.1c-0.6,0.3-1.2,0.4-1.9,0.4c-0.8,0-1.5-0.1-2.1-0.4
		s-1.2-0.7-1.6-1.2c-0.8-0.9-1.1-2.1-1.1-3.4c0-1.5,0.4-2.6,1.1-3.6c0.4-0.5,1-0.9,1.6-1.2s1.3-0.4,2-0.4s1.4,0.1,2,0.4
		s1.1,0.7,1.6,1.2c0.8,0.9,1.1,2.1,1.1,3.5c0,0.1,0,0.3,0,0.5h-7.3C247.3,552.8,247.5,553.3,247.8,553.7z M248.7,548.5
		c-0.4,0.2-0.6,0.4-0.9,0.7c-0.2,0.3-0.4,0.7-0.5,1.2h5c-0.1-0.5-0.3-0.9-0.5-1.2s-0.5-0.5-0.9-0.7c-0.3-0.2-0.7-0.2-1.1-0.2
		S249,548.4,248.7,548.5z"/>
	<path class="st3" d="M265.3,549.6c0.2,0.6,0.3,1.2,0.3,1.9c0,1.4-0.4,2.6-1.1,3.5c-0.4,0.5-0.9,0.9-1.5,1.1
		c-0.6,0.3-1.2,0.4-1.9,0.4c-1.1,0-2-0.3-2.7-0.9v4.9h-2v-13.8h1.8v0.8c0.4-0.3,0.8-0.6,1.3-0.8s1-0.3,1.6-0.3
		c0.7,0,1.3,0.1,1.9,0.4c0.6,0.3,1.1,0.6,1.5,1.1C264.9,548.4,265.2,549,265.3,549.6z M263.5,551.5c0-1-0.2-1.8-0.6-2.3
		c-0.4-0.6-1.1-1-2.1-1c-0.4,0-0.8,0.1-1.1,0.2s-0.6,0.3-0.8,0.6c-0.5,0.6-0.7,1.4-0.7,2.4c0,0.5,0.1,0.9,0.2,1.4
		c0.1,0.4,0.3,0.8,0.5,1.1c0.5,0.6,1.1,0.8,2,0.8c0.4,0,0.8-0.1,1.1-0.2c0.4-0.2,0.6-0.4,0.9-0.7
		C263.3,553.2,263.5,552.5,263.5,551.5z"/>
	<path class="st3" d="M276.6,551.5l3.1,4.8h-2.2l-2.5-4h-1.2v4H272v-4h-1.2l-2.5,4h-2.2l3.1-4.8l-3-4.8h2.2l2.3,4h1.2v-4h1.8v4h1.2
		l2.3-4h2.2L276.6,551.5z"/>
	<path class="st3" d="M289.6,556.3h-2v-6.4l-4.6,6.4h-1.8v-9.6h2v6.2l4.6-6.2h1.8V556.3z"/>
	<path class="st3" d="M302.2,546.7v9.6h-2V551l-2.5,4.1h-1.2L294,551v5.3h-2v-9.6h1.8l3.3,5.4l3.3-5.4H302.2z"/>
	<path class="st3" d="M306.9,556.1c-0.6-0.3-1.2-0.7-1.6-1.2c-0.8-0.9-1.1-2.1-1.1-3.5c0-0.7,0.1-1.3,0.3-1.9
		c0.2-0.6,0.5-1.1,0.9-1.6s0.9-0.9,1.6-1.2s1.3-0.4,2-0.4s1.4,0.1,2,0.4s1.2,0.7,1.6,1.2c0.8,0.9,1.2,2.1,1.2,3.5
		c0,0.7-0.1,1.3-0.3,1.9c-0.2,0.6-0.5,1.1-0.9,1.6s-0.9,0.9-1.6,1.2s-1.3,0.4-2,0.4C308.2,556.5,307.6,556.4,306.9,556.1z
		 M311.6,551.5c0-1-0.2-1.7-0.6-2.3c-0.2-0.3-0.5-0.5-0.9-0.7c-0.3-0.2-0.7-0.2-1.1-0.2s-0.8,0.1-1.2,0.2c-0.4,0.2-0.6,0.4-0.8,0.7
		c-0.4,0.5-0.6,1.3-0.6,2.3s0.2,1.7,0.6,2.2c0.2,0.3,0.5,0.5,0.8,0.7c0.4,0.2,0.7,0.2,1.2,0.2c0.4,0,0.8-0.1,1.1-0.2
		c0.4-0.2,0.6-0.4,0.9-0.7C311.3,553.2,311.6,552.4,311.6,551.5z"/>
	<path class="st3" d="M317.8,553.7c0.2,0.3,0.5,0.5,0.9,0.7s0.7,0.2,1.1,0.2s0.8-0.1,1.1-0.2c0.3-0.2,0.6-0.4,0.9-0.7
		c0,0,0.1-0.2,0.2-0.4l2,0.9c-0.2,0.3-0.3,0.6-0.5,0.8c-0.4,0.5-1,0.9-1.6,1.1c-0.6,0.3-1.2,0.4-1.9,0.4c-0.8,0-1.5-0.1-2.1-0.4
		s-1.2-0.7-1.6-1.2c-0.8-0.9-1.1-2.1-1.1-3.4c0-1.5,0.4-2.6,1.1-3.6c0.4-0.5,1-0.9,1.6-1.2s1.3-0.4,2-0.4s1.4,0.1,2,0.4
		s1.1,0.7,1.6,1.2c0.8,0.9,1.1,2.1,1.1,3.5c0,0.1,0,0.3,0,0.5h-7.3C317.3,552.8,317.5,553.3,317.8,553.7z M318.7,548.5
		c-0.4,0.2-0.6,0.4-0.9,0.7c-0.2,0.3-0.4,0.7-0.5,1.2h5c-0.1-0.5-0.3-0.9-0.5-1.2s-0.5-0.5-0.9-0.7c-0.3-0.2-0.7-0.2-1.1-0.2
		C319.4,548.3,319,548.4,318.7,548.5z"/>
	<path class="st3" d="M334.9,546.7c0.9,0,1.6,0.2,2.1,0.7c0.7,0.6,1,1.3,1,2.1c0,0.5-0.1,1-0.4,1.4c0,0-0.1,0.1-0.1,0.2
		c-0.1,0.1-0.1,0.1-0.2,0.2c0.3,0.3,0.6,0.5,0.7,0.8c0.3,0.4,0.4,0.9,0.4,1.4c0,0.4-0.1,0.8-0.3,1.2s-0.4,0.7-0.8,1
		c-0.2,0.2-0.5,0.3-0.9,0.5c-0.3,0.1-0.6,0.2-0.9,0.2h-5.6v-9.5L334.9,546.7z M332.2,550.7h2.7c0.4,0,0.7-0.1,0.9-0.4
		c0.2-0.2,0.2-0.5,0.2-0.8s-0.1-0.5-0.2-0.8c-0.1-0.2-0.2-0.3-0.4-0.3c-0.1-0.1-0.3-0.1-0.5-0.1h-2.7V550.7z M332.2,554.7h3.2
		c0.4,0,0.7-0.1,0.9-0.4c0.2-0.2,0.2-0.5,0.2-0.8s-0.1-0.6-0.2-0.8s-0.3-0.3-0.4-0.3s-0.3-0.1-0.6-0.1h-3.1V554.7z"/>
	<path class="st3" d="M342.7,553.7c0.2,0.3,0.5,0.5,0.9,0.7s0.7,0.2,1.1,0.2s0.8-0.1,1.1-0.2c0.3-0.2,0.6-0.4,0.9-0.7
		c0,0,0.1-0.2,0.2-0.4l2,0.9c-0.2,0.3-0.3,0.6-0.5,0.8c-0.4,0.5-1,0.9-1.6,1.1c-0.6,0.3-1.2,0.4-1.9,0.4c-0.8,0-1.5-0.1-2.1-0.4
		s-1.2-0.7-1.6-1.2c-0.8-0.9-1.1-2.1-1.1-3.4c0-1.5,0.4-2.6,1.1-3.6c0.4-0.5,1-0.9,1.6-1.2s1.3-0.4,2-0.4s1.4,0.1,2,0.4
		s1.1,0.7,1.6,1.2c0.8,0.9,1.1,2.1,1.1,3.5c0,0.1,0,0.3,0,0.5h-7.3C342.2,552.8,342.4,553.3,342.7,553.7z M343.5,548.5
		c-0.4,0.2-0.6,0.4-0.9,0.7c-0.2,0.3-0.4,0.7-0.5,1.2h5c-0.1-0.5-0.3-0.9-0.5-1.2s-0.5-0.5-0.9-0.7c-0.3-0.2-0.7-0.2-1.1-0.2
		C344.3,548.3,343.9,548.4,343.5,548.5z"/>
	<path class="st3" d="M357.5,547.7c0.6,0.2,1,0.6,1.4,1.1c0.4,0.4,0.7,1,0.8,1.5s0.3,1.2,0.3,1.8s-0.1,1.2-0.3,1.7
		c-0.2,0.5-0.5,1-0.9,1.5c-0.4,0.4-0.9,0.7-1.5,1c-0.6,0.2-1.2,0.3-1.8,0.3c-0.7,0-1.3-0.1-1.9-0.4c-0.6-0.2-1.1-0.6-1.5-1.1
		c-0.7-0.8-1.1-1.9-1.1-3.3c0-0.3,0-0.7,0-1.2c0-1,0.1-1.8,0.2-2.5c0.2-1.6,0.9-2.8,2-3.6c0.5-0.4,1.1-0.6,1.8-0.8
		c0.7-0.1,1.4-0.2,2.3-0.2c0.6,0,1.4,0.1,2.1,0.2v1.8c-1-0.1-1.8-0.2-2.5-0.2c-1.2,0-2,0.2-2.6,0.6c-0.4,0.3-0.6,0.6-0.8,1
		c-0.2,0.4-0.3,0.9-0.3,1.5c0.4-0.4,0.8-0.6,1.3-0.8s1-0.3,1.5-0.3C356.3,547.3,356.9,547.4,357.5,547.7z M354.3,549.3
		c-0.3,0.1-0.6,0.3-0.8,0.6c-0.4,0.4-0.6,1.1-0.6,2s0.2,1.5,0.6,2c0.2,0.3,0.5,0.5,0.8,0.6s0.7,0.2,1.1,0.2s0.7-0.1,1.1-0.2
		c0.3-0.1,0.6-0.3,0.8-0.6c0.4-0.4,0.6-1.1,0.6-2s-0.2-1.5-0.6-2c-0.2-0.3-0.5-0.5-0.8-0.6s-0.7-0.2-1.1-0.2
		S354.7,549.1,354.3,549.3z"/>
	<path class="st3" d="M367,550.4v1.6h-5.3v-1.6H367z"/>
	<path class="st3" d="M375.8,549.6c-0.1-0.1-0.2-0.3-0.2-0.4c-0.2-0.3-0.5-0.5-0.9-0.7s-0.7-0.2-1.1-0.2s-0.8,0.1-1.1,0.2
		c-0.4,0.2-0.6,0.4-0.8,0.7c-0.4,0.5-0.6,1.3-0.6,2.2c0,1,0.2,1.7,0.6,2.2c0.2,0.3,0.5,0.5,0.8,0.7s0.7,0.2,1.1,0.2s0.8-0.1,1.1-0.2
		c0.3-0.2,0.6-0.4,0.9-0.7c0.1-0.1,0.2-0.2,0.2-0.4l1.9,0.8c-0.2,0.4-0.4,0.6-0.5,0.8c-0.4,0.5-1,0.9-1.6,1.2s-1.3,0.4-2,0.4
		s-1.4-0.1-2-0.4c-0.6-0.3-1.2-0.7-1.6-1.2c-0.8-0.9-1.1-2.1-1.1-3.5s0.4-2.5,1.1-3.5c0.4-0.5,1-0.9,1.6-1.2s1.3-0.4,2-0.4
		s1.4,0.1,2,0.4c0.6,0.3,1.2,0.7,1.6,1.2c0.2,0.3,0.4,0.5,0.5,0.8L375.8,549.6z"/>
	<path class="st3" d="M387.1,548.5h-3.2v7.8h-2v-7.8h-3.2v-1.8h8.5L387.1,548.5L387.1,548.5z"/>
	<path class="st3" d="M397.7,549.6c0.2,0.6,0.3,1.2,0.3,1.9c0,1.4-0.4,2.6-1.1,3.5c-0.4,0.5-0.9,0.9-1.5,1.1
		c-0.6,0.3-1.2,0.4-1.9,0.4c-1.1,0-2-0.3-2.7-0.9v4.9h-2v-13.8h1.8v0.8c0.4-0.3,0.8-0.6,1.3-0.8s1-0.3,1.6-0.3
		c0.7,0,1.3,0.1,1.9,0.4c0.6,0.3,1.1,0.6,1.5,1.1C397.2,548.4,397.5,549,397.7,549.6z M395.8,551.5c0-1-0.2-1.8-0.6-2.3
		c-0.4-0.6-1.1-1-2.1-1c-0.4,0-0.8,0.1-1.1,0.2s-0.6,0.3-0.8,0.6c-0.5,0.6-0.7,1.4-0.7,2.4c0,0.5,0.1,0.9,0.2,1.4
		c0.1,0.4,0.3,0.8,0.5,1.1c0.5,0.6,1.1,0.8,2,0.8c0.4,0,0.8-0.1,1.1-0.2c0.4-0.2,0.6-0.4,0.9-0.7
		C395.7,553.2,395.8,552.5,395.8,551.5z"/>
	<path class="st3" d="M399.7,548.5c0,0,0.1-0.1,0.1-0.2c0-0.1,0.1-0.1,0.1-0.2c0.8-1.1,2-1.7,3.6-1.7c0.9,0,1.7,0.2,2.4,0.5
		s1.2,0.8,1.6,1.5c0.3,0.6,0.4,1.2,0.4,1.8v6h-1.8v-1.8c-0.1,0.3-0.3,0.6-0.6,0.8s-0.5,0.5-0.8,0.6c-0.6,0.4-1.4,0.6-2.2,0.6
		c-0.5,0-1-0.1-1.4-0.3c-0.5-0.2-0.8-0.5-1.1-0.8c-0.2-0.3-0.4-0.7-0.5-0.9c-0.1-0.3-0.2-0.6-0.2-1c0-0.5,0.1-1,0.4-1.4
		s0.6-0.8,1.1-1.1c0.4-0.2,0.8-0.4,1.2-0.5c0.4-0.1,0.9-0.2,1.6-0.3l0.6-0.1l1.7-0.2c-0.1-0.5-0.3-0.9-0.7-1.1
		c-0.4-0.3-0.9-0.4-1.5-0.4c-0.9,0-1.5,0.2-1.9,0.7c-0.1,0.1-0.2,0.2-0.2,0.3L399.7,548.5z M404,551.9c-0.6,0.1-1,0.2-1.4,0.3
		c-0.3,0.1-0.6,0.2-0.9,0.4s-0.4,0.5-0.4,0.8c0,0.4,0.1,0.7,0.4,0.9c0.3,0.3,0.7,0.4,1.1,0.4c0.6,0,1.2-0.2,1.7-0.5
		c0.6-0.3,0.9-0.7,1.1-1.3c0.1-0.2,0.2-0.5,0.2-0.7s0-0.5,0-0.7C405.6,551.6,405,551.7,404,551.9z"/>
	<path class="st3" d="M418.7,546.7v9.6h-2v-4h-4.5v4h-2v-9.6h2v3.6h4.5v-3.6H418.7z"/>
	<path class="st3" d="M429.6,556.3h-2v-6.4l-4.6,6.4h-1.8v-9.6h2v6.2l4.6-6.2h1.8V556.3z"/>
	<path class="st3" d="M442.1,554.3v3.6h-2v-1.6H432v-9.6h2v7.6h4.5v-7.6h2v7.6H442.1z"/>
	<path class="st3" d="M446.1,546.7v3.3h2.2c0.4,0,0.8,0.1,1.2,0.2c0.4,0.1,0.7,0.4,1,0.6c0.3,0.3,0.5,0.6,0.7,1s0.2,0.8,0.2,1.2
		s-0.1,0.8-0.2,1.2c-0.2,0.4-0.4,0.8-0.7,1s-0.6,0.5-1,0.6s-0.8,0.2-1.2,0.2h-4.2v-9.6h2V546.7z M446.1,554.4h2.1
		c0.4,0,0.7-0.2,0.9-0.4c0.2-0.2,0.4-0.5,0.4-0.9c0-0.3-0.1-0.6-0.3-0.9c-0.2-0.3-0.5-0.4-0.9-0.4h-2.1v2.6H446.1z M454.5,546.7v9.6
		h-2v-9.6H454.5z"/>
	<path class="st2" d="M458.2,551.5l4.2-4.2l1,1l-3.3,3.3l3.3,3.3l-1,1L458.2,551.5z"/>
	<path class="st2" d="M473.4,543.5l-3.4,12.8h-2l3.4-12.8H473.4z"/>
	<path class="st2" d="M483.4,543.5v12.8h-1.8v-0.8c-0.4,0.4-0.8,0.6-1.3,0.8s-1.1,0.3-1.6,0.3c-0.6,0-1.3-0.1-1.8-0.4
		c-0.6-0.3-1.1-0.6-1.5-1.1c-0.7-0.9-1.1-2.1-1.1-3.5c0-0.7,0.1-1.3,0.3-1.9c0.2-0.6,0.5-1.1,0.8-1.6c0.4-0.5,0.9-0.9,1.5-1.1
		c0.6-0.3,1.2-0.4,1.9-0.4c0.5,0,1,0.1,1.4,0.2c0.5,0.2,0.9,0.4,1.2,0.7v-3.8h2V543.5z M481.5,552.8c0.1-0.4,0.2-0.9,0.2-1.4
		c0-1.1-0.2-1.9-0.7-2.4c-0.2-0.3-0.5-0.5-0.8-0.6s-0.7-0.2-1.1-0.2c-0.9,0-1.6,0.3-2,1c-0.2,0.3-0.4,0.6-0.5,1s-0.2,0.8-0.2,1.3
		c0,1,0.2,1.8,0.6,2.3c0.2,0.3,0.5,0.6,0.9,0.7c0.4,0.2,0.7,0.2,1.2,0.2c0.4,0,0.8-0.1,1.1-0.2c0.3-0.1,0.6-0.3,0.8-0.6
		C481.2,553.6,481.4,553.3,481.5,552.8z"/>
	<path class="st2" d="M488.1,543.4v1.9h-2v-1.9H488.1z M488.1,546.7v9.6h-2v-9.6H488.1z"/>
	<path class="st2" d="M498.7,546.7l-3.5,9.6h-2l-3.5-9.6h2l2.5,7.1l2.5-7.1H498.7z"/>
	<path class="st2" d="M502.4,554.7l3.3-3.3l-3.3-3.3l1-1l4.3,4.2l-4.3,4.2L502.4,554.7z"/>
	<path class="st2" d="M18.1,571.9l4.2-4.2l1,1L20,572l3.3,3.3l-1,1L18.1,571.9z"/>
	<path class="st2" d="M36.7,563.9v12.8H35v-0.8c-0.4,0.4-0.8,0.6-1.3,0.8s-1.1,0.3-1.6,0.3c-0.6,0-1.3-0.1-1.8-0.4
		c-0.6-0.3-1.1-0.6-1.5-1.1c-0.7-0.9-1.1-2.1-1.1-3.5c0-0.7,0.1-1.3,0.3-1.9c0.2-0.6,0.5-1.1,0.8-1.6c0.4-0.5,0.9-0.9,1.5-1.1
		s1.2-0.4,1.9-0.4c0.5,0,1,0.1,1.4,0.2c0.5,0.2,0.9,0.4,1.2,0.7v-3.8h1.9V563.9z M34.8,573.2c0.1-0.4,0.2-0.9,0.2-1.4
		c0-1.1-0.2-1.9-0.7-2.4c-0.2-0.3-0.5-0.5-0.8-0.6s-0.7-0.2-1.1-0.2c-0.9,0-1.6,0.3-2,1c-0.2,0.3-0.4,0.6-0.5,1s-0.2,0.8-0.2,1.3
		c0,1,0.2,1.8,0.6,2.3c0.2,0.3,0.5,0.6,0.9,0.7s0.7,0.2,1.2,0.2c0.4,0,0.8-0.1,1.1-0.2c0.3-0.1,0.6-0.3,0.9-0.6
		C34.5,574,34.7,573.7,34.8,573.2z"/>
	<path class="st2" d="M41.4,563.8v1.9h-2v-1.9H41.4z M41.4,567.1v9.6h-2v-9.6H41.4z"/>
	<path class="st2" d="M52,567.1l-3.5,9.6h-2l-3.5-9.6h2l2.5,7.1l2.5-7.1H52z"/>
	<path class="st2" d="M63.6,570c-0.1-0.1-0.2-0.3-0.2-0.4c-0.2-0.3-0.5-0.5-0.9-0.7s-0.7-0.2-1.1-0.2c-0.4,0-0.8,0.1-1.1,0.2
		c-0.4,0.2-0.6,0.4-0.9,0.7c-0.4,0.5-0.6,1.3-0.6,2.2c0,1,0.2,1.7,0.6,2.3c0.2,0.3,0.5,0.5,0.8,0.7s0.7,0.2,1.1,0.2
		c0.4,0,0.8-0.1,1.1-0.2c0.3-0.2,0.6-0.4,0.9-0.7c0.1-0.1,0.2-0.2,0.2-0.4l1.9,0.8c-0.2,0.4-0.4,0.6-0.5,0.8c-0.4,0.5-1,0.9-1.6,1.2
		s-1.3,0.4-2,0.4s-1.4-0.1-2-0.4c-0.6-0.3-1.2-0.7-1.6-1.2c-0.8-0.9-1.1-2.1-1.1-3.5s0.4-2.5,1.1-3.5c0.4-0.5,1-0.9,1.6-1.2
		s1.3-0.4,2-0.4s1.4,0.1,2,0.4c0.6,0.3,1.2,0.7,1.6,1.2c0.2,0.3,0.4,0.5,0.5,0.8L63.6,570z"/>
	<path class="st2" d="M67.3,576.7v-13h2v13H67.3z"/>
	<path class="st2" d="M71.6,568.9c0,0,0.1-0.1,0.1-0.2c0-0.1,0.1-0.1,0.1-0.2c0.8-1.1,2-1.7,3.6-1.7c0.9,0,1.7,0.2,2.4,0.5
		c0.7,0.3,1.2,0.8,1.6,1.5c0.3,0.6,0.4,1.2,0.4,1.8v6H78v-1.8c-0.1,0.3-0.3,0.6-0.6,0.8s-0.5,0.5-0.8,0.6c-0.6,0.4-1.4,0.6-2.2,0.6
		c-0.5,0-1-0.1-1.4-0.3s-0.8-0.5-1.1-0.8c-0.2-0.3-0.4-0.7-0.5-0.9s-0.2-0.6-0.2-1c0-0.5,0.1-1,0.4-1.4s0.6-0.8,1.1-1.1
		c0.4-0.2,0.8-0.4,1.2-0.5c0.4-0.1,0.9-0.2,1.6-0.3l0.6-0.1l1.7-0.2c-0.1-0.5-0.3-0.9-0.7-1.1c-0.4-0.3-0.9-0.4-1.5-0.4
		c-0.9,0-1.5,0.2-1.9,0.7c-0.1,0.1-0.2,0.2-0.2,0.3L71.6,568.9z M75.9,572.3c-0.6,0.1-1,0.2-1.4,0.3c-0.3,0.1-0.6,0.2-0.9,0.4
		c-0.2,0.2-0.4,0.5-0.4,0.8c0,0.4,0.1,0.7,0.4,0.9s0.7,0.4,1.1,0.4c0.6,0,1.2-0.2,1.7-0.5c0.6-0.3,0.9-0.7,1.1-1.3
		c0.1-0.2,0.2-0.5,0.2-0.7s0-0.5,0-0.7C77.5,572,76.8,572.1,75.9,572.3z"/>
	<path class="st2" d="M87.8,570.1c-0.1-0.2-0.2-0.4-0.4-0.6c-0.2-0.2-0.4-0.4-0.6-0.5c-0.4-0.2-0.8-0.3-1.2-0.3
		c-0.5,0-0.9,0.1-1.2,0.2c-0.3,0.2-0.5,0.4-0.5,0.7c0,0.2,0,0.3,0.1,0.4c0.2,0.2,0.5,0.4,1.1,0.5c0.2,0.1,0.6,0.2,1,0.3
		c0.3,0.1,0.6,0.1,0.7,0.2c0.5,0.1,0.9,0.3,1.1,0.4s0.5,0.3,0.8,0.5c0.7,0.6,1.1,1.3,1.1,2.1c0,0.5-0.1,0.9-0.4,1.3s-0.6,0.7-1,1
		c-0.6,0.4-1.5,0.6-2.7,0.6c-1.4,0-2.5-0.4-3.3-1.3c-0.2-0.3-0.5-0.6-0.7-1s-0.3-0.8-0.4-1.1l1.9-0.5c0,0.2,0.1,0.4,0.2,0.7
		c0.1,0.2,0.2,0.4,0.4,0.6c0.4,0.4,1,0.7,1.8,0.7c0.3,0,0.6,0,0.9-0.1s0.5-0.2,0.7-0.3c0.2-0.2,0.3-0.4,0.4-0.7
		c0-0.3-0.1-0.5-0.3-0.7c-0.2-0.2-0.6-0.4-1.2-0.5c-0.2-0.1-0.5-0.1-0.9-0.2l-0.7-0.2c-0.4-0.1-0.8-0.2-1.1-0.4
		c-0.3-0.1-0.5-0.3-0.8-0.5s-0.5-0.5-0.7-0.8s-0.2-0.7-0.2-1c0-0.5,0.2-1,0.5-1.5s0.7-0.8,1.2-1c0.6-0.2,1.2-0.4,1.9-0.4
		c0.9,0,1.6,0.2,2.2,0.5c0.5,0.2,0.9,0.5,1.2,0.9c0.4,0.4,0.6,0.9,0.8,1.4L87.8,570.1z"/>
	<path class="st2" d="M97.2,570.1c-0.1-0.2-0.2-0.4-0.4-0.6c-0.2-0.2-0.4-0.4-0.6-0.5c-0.4-0.2-0.8-0.3-1.2-0.3
		c-0.5,0-0.9,0.1-1.2,0.2c-0.3,0.2-0.5,0.4-0.5,0.7c0,0.2,0,0.3,0.1,0.4c0.2,0.2,0.5,0.4,1.1,0.5c0.2,0.1,0.6,0.2,1,0.3
		c0.3,0.1,0.6,0.1,0.7,0.2c0.5,0.1,0.9,0.3,1.1,0.4s0.5,0.3,0.8,0.5c0.7,0.6,1.1,1.3,1.1,2.1c0,0.5-0.1,0.9-0.4,1.3s-0.6,0.7-1,1
		c-0.6,0.4-1.5,0.6-2.7,0.6c-1.4,0-2.5-0.4-3.3-1.3c-0.2-0.3-0.5-0.6-0.7-1s-0.3-0.8-0.4-1.1l1.9-0.5c0,0.2,0.1,0.4,0.2,0.7
		c0.1,0.2,0.2,0.4,0.4,0.6c0.4,0.4,1,0.7,1.8,0.7c0.3,0,0.6,0,0.9-0.1s0.5-0.2,0.7-0.3c0.2-0.2,0.3-0.4,0.4-0.7
		c0-0.3-0.1-0.5-0.3-0.7c-0.2-0.2-0.6-0.4-1.2-0.5c-0.2-0.1-0.5-0.1-0.9-0.2l-0.7-0.2c-0.4-0.1-0.8-0.2-1.1-0.4
		c-0.3-0.1-0.5-0.3-0.8-0.5s-0.5-0.5-0.7-0.8s-0.2-0.7-0.2-1c0-0.5,0.2-1,0.5-1.5s0.7-0.8,1.2-1c0.6-0.2,1.2-0.4,1.9-0.4
		c0.9,0,1.6,0.2,2.2,0.5c0.5,0.2,0.9,0.5,1.2,0.9c0.4,0.4,0.6,0.9,0.8,1.4L97.2,570.1z"/>
	<path class="st2" d="M102,569.4h9v1.6h-9V569.4z M102,572.8h9v1.6h-9V572.8z"/>
	<path class="st3" d="M116.2,563.9v3.2h-2v-3.2H116.2z M119.5,563.9v3.2h-2v-3.2H119.5z"/>
	<path class="st3" d="M125.7,565.9c-0.2,0.2-0.3,0.6-0.3,1v0.2h2.6v1.6h-2.6v8h-2v-8h-2.1v-1.6h2.1V567c0-1.1,0.3-1.9,0.9-2.5
		s1.5-0.9,2.7-0.9c0.4,0,0.7,0,1,0.1v1.7c-0.2,0-0.5-0.1-0.8-0.1c-0.2,0-0.5,0-0.7,0.1C126.2,565.5,125.9,565.6,125.7,565.9z"/>
	<path class="st3" d="M131.7,576.5c-0.6-0.3-1.2-0.7-1.6-1.2c-0.8-0.9-1.1-2.1-1.1-3.5c0-0.7,0.1-1.3,0.3-1.9
		c0.2-0.6,0.5-1.1,0.9-1.6s0.9-0.9,1.6-1.2c0.6-0.3,1.3-0.4,2-0.4s1.4,0.1,2,0.4c0.6,0.3,1.2,0.7,1.6,1.2c0.8,0.9,1.2,2.1,1.2,3.5
		c0,0.7-0.1,1.3-0.3,1.9c-0.2,0.6-0.5,1.1-0.9,1.6s-0.9,0.9-1.6,1.2s-1.3,0.4-2,0.4C133,576.9,132.3,576.8,131.7,576.5z
		 M136.3,571.9c0-1-0.2-1.7-0.6-2.3c-0.2-0.3-0.5-0.5-0.9-0.7c-0.3-0.2-0.7-0.2-1.1-0.2c-0.4,0-0.8,0.1-1.2,0.2
		c-0.4,0.2-0.6,0.4-0.9,0.7c-0.4,0.5-0.6,1.3-0.6,2.3s0.2,1.7,0.6,2.3c0.2,0.3,0.5,0.5,0.9,0.7s0.7,0.2,1.2,0.2
		c0.4,0,0.8-0.1,1.1-0.2c0.4-0.2,0.6-0.4,0.9-0.7C136.1,573.6,136.3,572.8,136.3,571.9z"/>
	<path class="st3" d="M142.5,576.5c-0.6-0.3-1.2-0.7-1.6-1.2c-0.8-0.9-1.1-2.1-1.1-3.5c0-0.7,0.1-1.3,0.3-1.9
		c0.2-0.6,0.5-1.1,0.9-1.6s0.9-0.9,1.6-1.2c0.6-0.3,1.3-0.4,2-0.4s1.4,0.1,2,0.4c0.6,0.3,1.2,0.7,1.6,1.2c0.8,0.9,1.2,2.1,1.2,3.5
		c0,0.7-0.1,1.3-0.3,1.9c-0.2,0.6-0.5,1.1-0.9,1.6s-0.9,0.9-1.6,1.2s-1.3,0.4-2,0.4C143.8,576.9,143.2,576.8,142.5,576.5z
		 M147.2,571.9c0-1-0.2-1.7-0.6-2.3c-0.2-0.3-0.5-0.5-0.9-0.7c-0.3-0.2-0.7-0.2-1.1-0.2c-0.4,0-0.8,0.1-1.2,0.2
		c-0.4,0.2-0.6,0.4-0.9,0.7c-0.4,0.5-0.6,1.3-0.6,2.3s0.2,1.7,0.6,2.3c0.2,0.3,0.5,0.5,0.9,0.7s0.7,0.2,1.2,0.2
		c0.4,0,0.8-0.1,1.1-0.2c0.4-0.2,0.6-0.4,0.9-0.7C147,573.6,147.2,572.8,147.2,571.9z"/>
	<path class="st3" d="M154.2,568.7v4c0,0.5,0,0.8,0,1.1c0,0.2,0.1,0.4,0.2,0.6c0.1,0.2,0.3,0.3,0.4,0.4c0.2,0.1,0.4,0.2,0.6,0.2
		c0.2,0,0.4,0,0.6,0c0.3,0,0.7,0,1-0.1v1.7c-0.4,0.1-0.9,0.2-1.5,0.2c-0.4,0-0.8,0-1-0.1c-0.9-0.2-1.6-0.7-1.9-1.3
		c-0.2-0.3-0.3-0.7-0.3-1.1s-0.1-0.9-0.1-1.5v-4.1h-2.1v-1.6h2.1v-2.7h2v2.7h2.8v1.6L154.2,568.7L154.2,568.7z"/>
	<path class="st3" d="M161.4,574.1c0.2,0.3,0.5,0.5,0.9,0.7s0.7,0.2,1.1,0.2s0.8-0.1,1.1-0.2c0.3-0.2,0.6-0.4,0.9-0.7
		c0,0,0.1-0.2,0.2-0.4l2,0.9c-0.2,0.3-0.3,0.6-0.5,0.8c-0.4,0.5-1,0.9-1.6,1.1s-1.2,0.4-1.9,0.4c-0.8,0-1.5-0.1-2.1-0.4
		c-0.7-0.3-1.2-0.7-1.6-1.2c-0.8-0.9-1.1-2.1-1.1-3.4c0-1.5,0.4-2.6,1.1-3.6c0.4-0.5,1-0.9,1.6-1.2s1.3-0.4,2-0.4s1.4,0.1,2,0.4
		s1.1,0.7,1.6,1.2c0.8,0.9,1.1,2.1,1.1,3.5c0,0.1,0,0.3,0,0.5h-7.3C160.8,573.2,161,573.7,161.4,574.1z M162.2,568.9
		c-0.4,0.2-0.6,0.4-0.9,0.7c-0.2,0.3-0.4,0.7-0.5,1.2h5c-0.1-0.5-0.3-0.9-0.5-1.2s-0.5-0.5-0.9-0.7c-0.3-0.2-0.7-0.2-1.1-0.2
		C163,568.7,162.6,568.8,162.2,568.9z"/>
	<path class="st3" d="M176.1,567.1v1.9c-0.4-0.2-0.8-0.2-1.4-0.2c-0.9,0-1.5,0.2-1.9,0.7c-0.3,0.3-0.5,0.6-0.6,1s-0.2,0.8-0.2,1.4
		v4.9h-2v-9.6h1.8v1.4c0.2-0.4,0.5-0.7,0.9-1c0.5-0.4,1.1-0.6,1.9-0.6C175.1,566.8,175.6,566.9,176.1,567.1z"/>
	<path class="st3" d="M179.6,563.9v3.2h-2v-3.2H179.6z M182.8,563.9v3.2h-2v-3.2H182.8z"/>
	<path class="st2" d="M188.1,575.1l3.3-3.3l-3.3-3.3l1-1l4.3,4.2l-4.3,4.2L188.1,575.1z"/>
	<path class="st3" d="M207.9,576.7h-2v-10.8h-6.7v10.8h-2v-12.8h10.7V576.7z"/>
	<path class="st3" d="M212.7,576.5c-0.6-0.3-1.2-0.7-1.6-1.2c-0.8-0.9-1.1-2.1-1.1-3.5c0-0.7,0.1-1.3,0.3-1.9
		c0.2-0.6,0.5-1.1,0.9-1.6s0.9-0.9,1.6-1.2c0.6-0.3,1.3-0.4,2-0.4s1.4,0.1,2,0.4c0.6,0.3,1.2,0.7,1.6,1.2c0.8,0.9,1.2,2.1,1.2,3.5
		c0,0.7-0.1,1.3-0.3,1.9c-0.2,0.6-0.5,1.1-0.9,1.6s-0.9,0.9-1.6,1.2s-1.3,0.4-2,0.4C214.1,576.9,213.4,576.8,212.7,576.5z
		 M217.4,571.9c0-1-0.2-1.7-0.6-2.3c-0.2-0.3-0.5-0.5-0.9-0.7c-0.3-0.2-0.7-0.2-1.1-0.2c-0.4,0-0.8,0.1-1.2,0.2
		c-0.4,0.2-0.6,0.4-0.9,0.7c-0.4,0.5-0.6,1.3-0.6,2.3s0.2,1.7,0.6,2.3c0.2,0.3,0.5,0.5,0.9,0.7s0.7,0.2,1.2,0.2
		c0.4,0,0.8-0.1,1.1-0.2c0.4-0.2,0.6-0.4,0.9-0.7C217.2,573.6,217.4,572.8,217.4,571.9z"/>
	<path class="st3" d="M229.7,574.8h0.8v3.1h-1.9v-1.2h-6.1v1.2h-1.9v-3.1c0.5,0,0.9-0.3,1.2-0.8s0.6-1.3,0.7-2.5l0.5-4.4h6.7V574.8z
		 M227.8,568.9h-3.1l-0.3,2.9c-0.2,1.5-0.5,2.4-0.9,3h4.4L227.8,568.9L227.8,568.9z"/>
	<path class="st3" d="M237.4,567.1c0.9,0,1.6,0.2,2.1,0.7c0.7,0.6,1,1.3,1,2.1c0,0.5-0.1,1-0.4,1.4c0,0-0.1,0.1-0.1,0.2
		c-0.1,0.1-0.1,0.1-0.2,0.2c0.3,0.3,0.6,0.5,0.7,0.8c0.3,0.4,0.4,0.9,0.4,1.4c0,0.4-0.1,0.8-0.3,1.2s-0.4,0.7-0.8,1
		c-0.2,0.2-0.5,0.3-0.9,0.5c-0.3,0.1-0.6,0.2-0.9,0.2h-5.6v-9.5L237.4,567.1z M234.7,571.1h2.7c0.4,0,0.7-0.1,0.9-0.4
		c0.2-0.2,0.2-0.5,0.2-0.8s-0.1-0.5-0.2-0.8c-0.1-0.2-0.2-0.3-0.4-0.3c-0.1-0.1-0.3-0.1-0.5-0.1h-2.7V571.1z M234.7,575.1h3.2
		c0.4,0,0.7-0.1,0.9-0.4c0.2-0.2,0.2-0.5,0.2-0.8s-0.1-0.6-0.2-0.8c-0.1-0.2-0.3-0.3-0.4-0.3c-0.1-0.1-0.3-0.1-0.6-0.1h-3.1
		L234.7,575.1L234.7,575.1z"/>
	<path class="st3" d="M242.8,568.9c0,0,0.1-0.1,0.1-0.2c0-0.1,0.1-0.1,0.1-0.2c0.8-1.1,2-1.7,3.6-1.7c0.9,0,1.7,0.2,2.4,0.5
		s1.2,0.8,1.6,1.5c0.3,0.6,0.4,1.2,0.4,1.8v6h-1.8v-1.8c-0.1,0.3-0.3,0.6-0.6,0.8s-0.5,0.5-0.8,0.6c-0.6,0.4-1.4,0.6-2.2,0.6
		c-0.5,0-1-0.1-1.4-0.3c-0.5-0.2-0.8-0.5-1.1-0.8c-0.2-0.3-0.4-0.7-0.5-0.9c-0.1-0.3-0.2-0.6-0.2-1c0-0.5,0.1-1,0.4-1.4
		c0.3-0.4,0.6-0.8,1.1-1.1c0.4-0.2,0.8-0.4,1.2-0.5s0.9-0.2,1.6-0.3l0.6-0.1l1.7-0.2c-0.1-0.5-0.3-0.9-0.7-1.1
		c-0.4-0.3-0.9-0.4-1.5-0.4c-0.9,0-1.5,0.2-1.9,0.7c-0.1,0.1-0.2,0.2-0.2,0.3L242.8,568.9z M247,572.3c-0.6,0.1-1,0.2-1.4,0.3
		c-0.3,0.1-0.6,0.2-0.9,0.4c-0.2,0.2-0.4,0.5-0.4,0.8c0,0.4,0.1,0.7,0.4,0.9c0.3,0.3,0.7,0.4,1.1,0.4c0.6,0,1.2-0.2,1.7-0.5
		s0.9-0.7,1.1-1.3c0.1-0.2,0.2-0.5,0.2-0.7s0-0.5,0-0.7C248.7,572,248,572.1,247,572.3z"/>
	<path class="st3" d="M261.4,567.1v9.6h-1.9v-7.8h-3.2l-0.6,4.6c-0.1,1.1-0.4,1.9-0.8,2.5c-0.4,0.5-1.1,0.8-1.9,0.8
		c-0.3,0-0.5,0-0.6,0V575c0.4,0,0.7-0.1,0.9-0.2c0.2-0.1,0.3-0.3,0.4-0.6c0.1-0.2,0.1-0.6,0.2-1.1l0.7-5.9L261.4,567.1L261.4,567.1z
		"/>
	<path class="st3" d="M274,570c-0.1-0.1-0.2-0.3-0.2-0.4c-0.2-0.3-0.5-0.5-0.9-0.7s-0.7-0.2-1.1-0.2s-0.8,0.1-1.1,0.2
		c-0.4,0.2-0.6,0.4-0.8,0.7c-0.4,0.5-0.6,1.3-0.6,2.2c0,1,0.2,1.7,0.6,2.3c0.2,0.3,0.5,0.5,0.8,0.7s0.7,0.2,1.1,0.2s0.8-0.1,1.1-0.2
		c0.3-0.2,0.6-0.4,0.9-0.7c0.1-0.1,0.2-0.2,0.2-0.4l1.9,0.8c-0.2,0.4-0.4,0.6-0.5,0.8c-0.4,0.5-1,0.9-1.6,1.2s-1.3,0.4-2,0.4
		s-1.4-0.1-2-0.4c-0.6-0.3-1.2-0.7-1.6-1.2c-0.8-0.9-1.1-2.1-1.1-3.5s0.4-2.5,1.1-3.5c0.4-0.5,1-0.9,1.6-1.2s1.3-0.4,2-0.4
		s1.4,0.1,2,0.4c0.6,0.3,1.2,0.7,1.6,1.2c0.2,0.3,0.4,0.5,0.5,0.8L274,570z"/>
	<path class="st3" d="M277.6,568.9c0,0,0.1-0.1,0.1-0.2c0-0.1,0.1-0.1,0.1-0.2c0.8-1.1,2-1.7,3.6-1.7c0.9,0,1.7,0.2,2.4,0.5
		c0.7,0.3,1.2,0.8,1.6,1.5c0.3,0.6,0.4,1.2,0.4,1.8v6H284v-1.8c-0.1,0.3-0.3,0.6-0.6,0.8s-0.5,0.5-0.8,0.6c-0.6,0.4-1.4,0.6-2.2,0.6
		c-0.5,0-1-0.1-1.4-0.3c-0.5-0.2-0.8-0.5-1.1-0.8c-0.2-0.3-0.4-0.7-0.5-0.9c-0.1-0.3-0.2-0.6-0.2-1c0-0.5,0.1-1,0.4-1.4
		s0.6-0.8,1.1-1.1c0.4-0.2,0.8-0.4,1.2-0.5s0.9-0.2,1.6-0.3l0.6-0.1l1.7-0.2c-0.1-0.5-0.3-0.9-0.7-1.1c-0.4-0.3-0.9-0.4-1.5-0.4
		c-0.9,0-1.5,0.2-1.9,0.7c-0.1,0.1-0.2,0.2-0.2,0.3L277.6,568.9z M281.8,572.3c-0.6,0.1-1,0.2-1.4,0.3c-0.3,0.1-0.6,0.2-0.9,0.4
		c-0.2,0.2-0.4,0.5-0.4,0.8c0,0.4,0.1,0.7,0.4,0.9c0.3,0.3,0.7,0.4,1.1,0.4c0.6,0,1.2-0.2,1.7-0.5s0.9-0.7,1.1-1.3
		c0.1-0.2,0.2-0.5,0.2-0.7s0-0.5,0-0.7C283.5,572,282.8,572.1,281.8,572.3z"/>
	<path class="st3" d="M296.5,576.7h-2v-6.4l-4.6,6.4h-1.8v-9.6h2v6.2l4.6-6.2h1.8V576.7z M295.1,563.4c0,0.5-0.1,0.9-0.4,1.3
		c-0.2,0.4-0.6,0.7-1,1s-0.8,0.4-1.3,0.4s-0.9-0.1-1.3-0.4s-0.7-0.6-0.9-1c-0.2-0.4-0.4-0.8-0.4-1.3h1.6c0,0.3,0.1,0.5,0.3,0.7
		c0.2,0.2,0.5,0.3,0.7,0.3c0.3,0,0.5-0.1,0.8-0.3c0.2-0.2,0.3-0.4,0.3-0.7H295.1z"/>
	<path class="st3" d="M306.6,568.9h-3.2v7.8h-2v-7.8h-3.2v-1.8h8.5L306.6,568.9L306.6,568.9z"/>
	<path class="st3" d="M307.8,568.9c0,0,0.1-0.1,0.1-0.2c0-0.1,0.1-0.1,0.1-0.2c0.8-1.1,2-1.7,3.6-1.7c0.9,0,1.7,0.2,2.4,0.5
		c0.7,0.3,1.2,0.8,1.6,1.5c0.3,0.6,0.4,1.2,0.4,1.8v6h-1.8v-1.8c-0.1,0.3-0.3,0.6-0.6,0.8s-0.5,0.5-0.8,0.6
		c-0.6,0.4-1.4,0.6-2.2,0.6c-0.5,0-1-0.1-1.4-0.3c-0.5-0.2-0.8-0.5-1.1-0.8c-0.2-0.3-0.4-0.7-0.5-0.9c-0.1-0.3-0.2-0.6-0.2-1
		c0-0.5,0.1-1,0.4-1.4s0.6-0.8,1.1-1.1c0.4-0.2,0.8-0.4,1.2-0.5s0.9-0.2,1.6-0.3l0.6-0.1l1.7-0.2c-0.1-0.5-0.3-0.9-0.7-1.1
		c-0.4-0.3-0.9-0.4-1.5-0.4c-0.9,0-1.5,0.2-1.9,0.7c-0.1,0.1-0.2,0.2-0.2,0.3L307.8,568.9z M312,572.3c-0.6,0.1-1,0.2-1.4,0.3
		c-0.3,0.1-0.6,0.2-0.9,0.4c-0.2,0.2-0.4,0.5-0.4,0.8c0,0.4,0.1,0.7,0.4,0.9c0.3,0.3,0.7,0.4,1.1,0.4c0.6,0,1.2-0.2,1.7-0.5
		s0.9-0.7,1.1-1.3c0.1-0.2,0.2-0.5,0.2-0.7s0-0.5,0-0.7C313.7,572,313,572.1,312,572.3z"/>
	<path class="st2" d="M319.6,571.9l4.2-4.2l1,1l-3.3,3.3l3.3,3.3l-1,1L319.6,571.9z"/>
	<path class="st2" d="M334.8,563.9l-3.4,12.8h-2l3.4-12.8H334.8z"/>
	<path class="st2" d="M344.8,563.9v12.8H343v-0.8c-0.4,0.4-0.8,0.6-1.3,0.8s-1.1,0.3-1.6,0.3c-0.6,0-1.3-0.1-1.8-0.4
		c-0.6-0.3-1.1-0.6-1.5-1.1c-0.7-0.9-1.1-2.1-1.1-3.5c0-0.7,0.1-1.3,0.3-1.9c0.2-0.6,0.5-1.1,0.8-1.6c0.4-0.5,0.9-0.9,1.5-1.1
		c0.6-0.3,1.2-0.4,1.9-0.4c0.5,0,1,0.1,1.4,0.2c0.5,0.2,0.9,0.4,1.2,0.7v-3.8h2V563.9z M342.9,573.2c0.1-0.4,0.2-0.9,0.2-1.4
		c0-1.1-0.2-1.9-0.7-2.4c-0.2-0.3-0.5-0.5-0.8-0.6s-0.7-0.2-1.1-0.2c-0.9,0-1.6,0.3-2,1c-0.2,0.3-0.4,0.6-0.5,1s-0.2,0.8-0.2,1.3
		c0,1,0.2,1.8,0.6,2.3c0.2,0.3,0.5,0.6,0.9,0.7s0.7,0.2,1.2,0.2c0.4,0,0.8-0.1,1.1-0.2c0.3-0.1,0.6-0.3,0.8-0.6
		C342.6,574,342.7,573.7,342.9,573.2z"/>
	<path class="st2" d="M349.4,563.8v1.9h-2v-1.9H349.4z M349.4,567.1v9.6h-2v-9.6H349.4z"/>
	<path class="st2" d="M360.1,567.1l-3.5,9.6h-2l-3.5-9.6h2l2.5,7.1l2.5-7.1H360.1z"/>
	<path class="st2" d="M363.8,575.1l3.3-3.3l-3.3-3.3l1-1l4.3,4.2l-4.3,4.2L363.8,575.1z"/>
</g>
<g>
	<g>
		<path class="st1" d="M184.3,462.1c0.2,0.5,0.3,1,0.3,1.5c0,0.6-0.1,1.1-0.3,1.7c-0.2,0.5-0.5,1-0.8,1.4c-0.6,0.8-1.3,1.3-2.3,1.6
			c-0.5,0.2-1,0.3-1.5,0.3H173v-15h9.9v2.3h-7.5v3h4.3c0.8,0,1.5,0.2,2.2,0.5s1.2,0.8,1.7,1.4C183.8,461.2,184.1,461.6,184.3,462.1z
			 M181.6,462.1c-0.2-0.3-0.5-0.6-0.9-0.8c-0.4-0.2-0.7-0.3-1.1-0.3h-4.3v5.3h4.3c0.3,0,0.7-0.1,1-0.2c0.3-0.2,0.6-0.4,0.8-0.6
			c0.5-0.5,0.7-1.1,0.7-1.9C182.1,463.1,182,462.6,181.6,462.1z"/>
		<path class="st1" d="M196,457.3v11.3h-2.2v-9.2h-3.7l-0.7,5.4c-0.2,1.3-0.5,2.2-1,2.9s-1.2,1-2.2,1c-0.3,0-0.5,0-0.7,0v-2.1
			c0.5,0,0.8-0.1,1.1-0.3c0.2-0.2,0.4-0.4,0.5-0.7c0.1-0.3,0.2-0.7,0.2-1.3l0.9-6.9L196,457.3L196,457.3z"/>
		<path class="st1" d="M201.5,468.4c-0.7-0.3-1.4-0.8-1.9-1.4c-0.9-1.1-1.3-2.5-1.3-4.1c0-0.8,0.1-1.5,0.3-2.2s0.6-1.3,1-1.9
			c0.5-0.6,1.1-1.1,1.9-1.4s1.5-0.5,2.4-0.5c0.8,0,1.6,0.2,2.4,0.5s1.4,0.8,1.8,1.4c0.9,1.1,1.4,2.5,1.4,4.1c0,0.8-0.1,1.5-0.3,2.2
			s-0.6,1.3-1,1.9c-0.5,0.6-1.1,1.1-1.8,1.4s-1.5,0.5-2.4,0.5C203.1,468.9,202.3,468.7,201.5,468.4z M207,462.9c0-1.1-0.2-2-0.7-2.7
			c-0.3-0.3-0.6-0.6-1-0.8c-0.4-0.2-0.9-0.3-1.3-0.3c-0.5,0-0.9,0.1-1.4,0.3c-0.4,0.2-0.8,0.4-1,0.8c-0.5,0.6-0.7,1.5-0.7,2.7
			c0,1.1,0.2,2,0.7,2.6c0.3,0.3,0.6,0.6,1,0.8c0.4,0.2,0.9,0.3,1.4,0.3s0.9-0.1,1.3-0.3c0.4-0.2,0.8-0.5,1-0.8
			C206.7,464.9,207,464.1,207,462.9z"/>
		<path class="st1" d="M221.3,457.3v11.3H219V465c-0.4,0.3-0.9,0.6-1.4,0.8s-1.1,0.3-1.6,0.3c-0.6,0-1.1-0.1-1.7-0.3
			c-0.6-0.2-1-0.5-1.5-0.8c-0.7-0.6-1.1-1.2-1.3-2s-0.3-1.7-0.3-2.9v-2.8h2.4v2.8c0,0.7,0.1,1.3,0.2,1.8s0.4,0.9,0.8,1.2
			c0.5,0.4,1.1,0.6,1.9,0.6c0.6,0,1.2-0.2,1.5-0.6c0.5-0.4,0.8-0.9,0.9-1.6c0.1-0.4,0.1-1.1,0.1-2.2l0,0v-2.1h2.3V457.3z"/>
		<path class="st1" d="M234.2,457.3v11.3h-2.3v-4.7h-5.3v4.7h-2.4v-11.3h2.4v4.2h5.3v-4.2H234.2z"/>
		<path class="st1" d="M236.9,459.4c0-0.1,0.1-0.1,0.1-0.2s0.1-0.1,0.1-0.2c1-1.3,2.4-2,4.3-2c1.1,0,2,0.2,2.8,0.6s1.4,1,1.8,1.8
			c0.3,0.7,0.5,1.4,0.5,2.1v7.1h-2.1v-2.1c-0.1,0.3-0.4,0.7-0.7,1s-0.6,0.5-1,0.7c-0.8,0.4-1.6,0.7-2.6,0.7c-0.6,0-1.1-0.1-1.7-0.4
			c-0.5-0.3-1-0.6-1.3-1s-0.5-0.8-0.6-1.1c-0.1-0.3-0.2-0.7-0.2-1.1c0-0.6,0.2-1.2,0.5-1.7s0.7-0.9,1.3-1.3c0.5-0.3,0.9-0.4,1.4-0.5
			s1.1-0.2,1.9-0.3l0.7-0.1l2-0.3c-0.1-0.6-0.4-1-0.9-1.3c-0.4-0.3-1-0.5-1.8-0.5c-1,0-1.8,0.3-2.3,0.9c-0.1,0.2-0.2,0.3-0.3,0.3
			L236.9,459.4z M241.9,463.4c-0.7,0.1-1.2,0.2-1.6,0.3s-0.8,0.3-1,0.5c-0.3,0.2-0.4,0.5-0.4,0.9s0.2,0.8,0.5,1.1
			c0.3,0.3,0.8,0.5,1.3,0.5c0.7,0,1.4-0.2,2-0.6c0.7-0.4,1.1-0.9,1.3-1.5c0.1-0.3,0.2-0.5,0.2-0.8s0-0.5,0-0.9
			C243.9,463,243.1,463.2,241.9,463.4z"/>
		<path class="st1" d="M258.3,457.3v11.3H256v-3.8h-2.8l-1.9,3.8h-2.7l2-4.2c-0.4-0.2-0.7-0.4-1-0.7c-0.3-0.3-0.6-0.7-0.8-1.2
			s-0.3-1-0.3-1.5s0.1-1,0.3-1.5s0.5-0.9,0.8-1.2c0.3-0.3,0.8-0.6,1.2-0.8c0.5-0.2,0.9-0.3,1.4-0.3h6.1V457.3z M256,459.5h-3.4
			c-0.4,0-0.7,0.2-1,0.5s-0.4,0.6-0.4,1s0.1,0.7,0.4,1c0.3,0.3,0.6,0.5,1,0.5h3.4V459.5z"/>
		<path class="st1" d="M271.2,457.3c1.1,0,1.9,0.3,2.5,0.8c0.8,0.7,1.2,1.5,1.2,2.5c0,0.6-0.1,1.1-0.4,1.6c0,0.1-0.1,0.1-0.2,0.2
			s-0.1,0.2-0.2,0.2c0.4,0.3,0.7,0.6,0.9,1c0.3,0.5,0.5,1.1,0.5,1.7c0,0.5-0.1,1-0.3,1.4c-0.2,0.4-0.5,0.8-0.9,1.1
			c-0.3,0.2-0.6,0.4-1,0.5s-0.8,0.2-1.1,0.2h-6.5v-11.2L271.2,457.3z M268,462h3.2c0.5,0,0.8-0.2,1.1-0.5c0.2-0.3,0.3-0.6,0.3-0.9
			s-0.1-0.6-0.3-0.9c-0.1-0.2-0.3-0.3-0.4-0.4c-0.2-0.1-0.4-0.1-0.6-0.1H268V462z M268,466.7h3.7c0.4,0,0.8-0.2,1.1-0.5
			c0.2-0.3,0.3-0.6,0.3-0.9s-0.1-0.7-0.3-0.9c-0.2-0.2-0.3-0.3-0.5-0.4s-0.4-0.1-0.7-0.1H268V466.7z"/>
		<path class="st1" d="M280.3,465.6c0.3,0.3,0.6,0.6,1,0.8s0.9,0.3,1.3,0.3c0.5,0,0.9-0.1,1.3-0.3s0.7-0.5,1-0.8
			c0,0,0.1-0.2,0.3-0.5l2.3,1c-0.2,0.4-0.4,0.7-0.6,0.9c-0.5,0.6-1.1,1-1.8,1.3c-0.7,0.3-1.5,0.5-2.3,0.5c-0.9,0-1.7-0.2-2.5-0.5
			s-1.4-0.8-1.9-1.4c-0.9-1.1-1.3-2.4-1.3-4c0-1.7,0.4-3.1,1.3-4.2c0.5-0.6,1.1-1.1,1.9-1.4c0.7-0.3,1.5-0.5,2.4-0.5
			c0.8,0,1.6,0.2,2.4,0.5c0.7,0.3,1.3,0.8,1.8,1.4c0.9,1.1,1.3,2.4,1.3,4.1c0,0.2,0,0.4,0,0.6h-8.5
			C279.7,464.4,280,465.1,280.3,465.6z M281.4,459.5c-0.4,0.2-0.8,0.5-1,0.8c-0.3,0.4-0.5,0.8-0.6,1.4h5.9c-0.1-0.6-0.3-1.1-0.6-1.4
			c-0.3-0.4-0.6-0.6-1-0.8s-0.9-0.3-1.3-0.3C282.2,459.2,281.8,459.3,281.4,459.5z"/>
		<path class="st1" d="M300.9,460.7c0.2,0.7,0.3,1.5,0.3,2.3c0,1.7-0.4,3.1-1.3,4.1c-0.5,0.6-1,1-1.7,1.3s-1.4,0.5-2.2,0.5
			c-1.3,0-2.3-0.3-3.2-1v5.7h-2.4v-16.3h2.1v1c0.5-0.4,1-0.7,1.6-0.9s1.2-0.3,1.8-0.3c0.8,0,1.5,0.2,2.2,0.5s1.3,0.8,1.7,1.3
			C300.4,459.3,300.7,460,300.9,460.7z M298.8,462.9c0-1.2-0.2-2.1-0.7-2.7c-0.5-0.8-1.3-1.1-2.4-1.1c-0.5,0-0.9,0.1-1.3,0.2
			c-0.4,0.2-0.7,0.4-1,0.7c-0.6,0.7-0.8,1.6-0.8,2.9c0,0.6,0.1,1.1,0.2,1.6s0.3,0.9,0.6,1.3c0.6,0.7,1.3,1,2.3,1
			c0.5,0,0.9-0.1,1.3-0.3c0.4-0.2,0.8-0.5,1-0.9C298.5,465,298.8,464.1,298.8,462.9z"/>
		<path class="st1" d="M311.1,460.8c-0.1-0.2-0.2-0.3-0.3-0.5c-0.3-0.4-0.6-0.6-1-0.8c-0.4-0.2-0.9-0.3-1.3-0.3
			c-0.5,0-0.9,0.1-1.3,0.3s-0.8,0.5-1,0.8c-0.5,0.6-0.7,1.5-0.7,2.6c0,1.2,0.3,2,0.7,2.6c0.3,0.3,0.6,0.6,1,0.8
			c0.4,0.2,0.9,0.3,1.3,0.3s0.9-0.1,1.3-0.3c0.4-0.2,0.7-0.4,1-0.8c0.1-0.1,0.2-0.3,0.3-0.5l2.2,1c-0.3,0.4-0.5,0.7-0.6,0.9
			c-0.5,0.6-1.1,1.1-1.9,1.4c-0.7,0.3-1.5,0.5-2.3,0.4c-0.8,0-1.6-0.1-2.3-0.4c-0.7-0.3-1.4-0.8-1.9-1.4c-0.9-1.1-1.3-2.4-1.3-4.1
			c0-1.6,0.4-3,1.3-4.1c0.5-0.6,1.1-1.1,1.9-1.4c0.7-0.3,1.5-0.5,2.3-0.5s1.6,0.2,2.4,0.5s1.4,0.8,1.9,1.4c0.3,0.3,0.5,0.6,0.6,1
			L311.1,460.8z"/>
		<path class="st1" d="M324.5,459.4h-3.8v9.2h-2.3v-9.2h-3.8v-2.1h10v2.1H324.5z"/>
		<path class="st1" d="M332.8,462.9l3.7,5.6h-2.6l-3.1-4.7h-1.9v4.7h-2.4v-11.3h2.4v4.7h1.9l2.9-4.7h2.6L332.8,462.9z"/>
		<path class="st1" d="M337.7,459.4c0-0.1,0.1-0.1,0.1-0.2s0.1-0.1,0.1-0.2c1-1.3,2.4-2,4.3-2c1.1,0,2,0.2,2.8,0.6s1.4,1,1.8,1.8
			c0.3,0.7,0.5,1.4,0.5,2.1v7.1h-2.1v-2.1c-0.1,0.3-0.4,0.7-0.7,1s-0.6,0.5-1,0.7c-0.8,0.4-1.6,0.7-2.6,0.7c-0.6,0-1.1-0.1-1.7-0.4
			c-0.5-0.3-1-0.6-1.3-1s-0.5-0.8-0.6-1.1c-0.1-0.3-0.2-0.7-0.2-1.1c0-0.6,0.2-1.2,0.5-1.7s0.7-0.9,1.3-1.3c0.5-0.3,0.9-0.4,1.4-0.5
			s1.1-0.2,1.9-0.3l0.7-0.1l2-0.3c-0.1-0.6-0.4-1-0.9-1.3c-0.4-0.3-1-0.5-1.8-0.5c-1,0-1.8,0.3-2.3,0.9c-0.1,0.2-0.2,0.3-0.3,0.3
			L337.7,459.4z M342.8,463.4c-0.7,0.1-1.2,0.2-1.6,0.3c-0.4,0.1-0.8,0.3-1,0.5c-0.3,0.2-0.4,0.5-0.4,0.9s0.2,0.8,0.5,1.1
			c0.3,0.3,0.8,0.5,1.3,0.5c0.7,0,1.4-0.2,2-0.6c0.7-0.4,1.1-0.9,1.3-1.5c0.1-0.3,0.2-0.5,0.2-0.8s0-0.5,0-0.9
			C344.7,463,343.9,463.2,342.8,463.4z"/>
	</g>
</g>
<path class="st4" d="M450.9,99.4H74.7c-4.8,0-8.6-4.6-8.6-10.3V53.3c0-5.7,3.9-10.3,8.6-10.3h376.1c4.8,0,8.6,4.6,8.6,10.3v35.8
	C459.5,94.8,455.7,99.4,450.9,99.4z"/>
<path class="st4" d="M450.9,398H74.7c-4.8,0-8.6-4.6-8.6-10.3v-35.8c0-5.7,3.9-10.3,8.6-10.3h376.1c4.8,0,8.6,4.6,8.6,10.3v35.8
	C459.5,393.4,455.7,398,450.9,398z"/>
<g class="st5">
	<path class="st6" d="M191.8,71.7c-0.9,0.3-3.4,1.4-4.6,2c1.3,0.7,4.3,2.1,5.9,2.7v0.5c0,0.7-0.7,0.9-1.3,0.9c-0.2,0-0.7-0.2-1-0.3
		c-1.6-0.6-4.7-2.2-6.4-3.4v-0.3c0-0.6,0.4-1,1-1.4c1.4-0.8,5.5-2.7,7.7-3.3V70C193.2,70.7,192.8,71.3,191.8,71.7z"/>
	<path class="st6" d="M199.6,79.1c-2.6,0-4.5-2.2-4.5-4.9c0-3.2,1.5-5.3,4.4-5.3c1,0,2,0.7,2.4,1.5v-4.6h0.7c1.2,0,1.7,0.7,1.7,1.6
		v6.8C204.3,77.2,203,79.1,199.6,79.1z M199.5,71c-1.2,0-2,1.2-2,2.8c0,2,1,3.3,2.4,3.3s1.9-1,1.9-2.8C201.9,71.9,200.8,71,199.5,71
		z"/>
	<path class="st6" d="M208.1,68.5c-0.8,0-1.4-0.6-1.4-1.4s0.6-1.4,1.4-1.4c0.8,0,1.4,0.6,1.4,1.4C209.6,67.8,208.9,68.5,208.1,68.5z
		 M209.9,79c-1.9,0-2.9-1.1-2.9-3v-6.6h0.7c1.1,0,1.7,0.6,1.7,1.8v4.5c0,1,0.4,1.3,1.5,1.3h0.5v0.5C211.3,78.6,210.9,79,209.9,79z"
		/>
	<path class="st6" d="M219.7,73.4c-0.6,1.8-1.7,4.1-2.8,5.6h-0.5c-0.7,0-1.1-0.3-1.6-1c-1.3-2-3-6.2-3.2-8.9h1.3
		c0.8,0,1.4,0.6,1.4,1.2c0.3,1.8,0.8,3.7,1.9,5.7c0.9-1.8,1.8-4.4,2.1-6.8h1c0.8,0,1.1,0.4,1.1,1.2
		C220.5,70.6,220.3,71.8,219.7,73.4z"/>
	<path class="st6" d="M233.3,72.3c-0.3-0.6-1.2-1-2.6-1c-1.4,0-2.6,1.1-2.6,2.6c0,1.8,1,3,2.7,3c1.4,0,2.2-0.5,2.6-0.9h0.1v1
		c0,1.2-1.1,2-2.9,2c-2.7,0-5-2.1-5-4.8c0-2.8,1.9-5.1,5.2-5.1c1.5,0,2.6,0.9,2.6,2.1L233.3,72.3L233.3,72.3z"/>
	<path class="st6" d="M238.3,79c-2,0-3.1-1.1-3.1-3V66h0.7c1.2,0,1.7,0.7,1.7,1.6v8.2c0,1,0.5,1.3,1.6,1.3h0.6v0.5
		C239.9,78.6,239.4,79,238.3,79z"/>
	<path class="st6" d="M244.9,79h-0.5c-2.3,0-3.9-1.3-3.9-3.1c0-1.7,1.3-3,4.8-3h0.8v-0.1c0-1.4-0.6-1.8-2.1-1.8
		c-1.7,0-2.7,0.7-3.1,1.1h0.1v-0.8c0-1.1,1-2.4,3.5-2.4c2.2,0,4.1,1,4.1,4.4v2.2C248.6,77.6,247.1,79,244.9,79z M246.3,74.6h-0.9
		c-1.8,0-2.4,0.4-2.4,1.2c0,0.8,0.6,1.2,1.7,1.2c1,0,1.5-0.5,1.5-1.5L246.3,74.6L246.3,74.6z"/>
	<path class="st6" d="M253.5,79.1c-1.8,0-3.1-0.9-3.1-1.9v-1.1h0.1c0.5,0.5,1.8,0.9,2.9,0.9c1.2,0,1.8-0.3,1.8-1.1
		c0-0.6-0.3-0.8-2-1.1c-2.1-0.3-3-1.1-3-2.6c0-1.8,1.6-3.4,4.1-3.4c2.2,0,3.1,1.1,3.1,2.1v0.9h-0.1c-0.5-0.5-1.6-0.9-2.8-0.9
		c-1.5,0-1.9,0.5-1.9,1.1c0,0.5,0.3,0.7,1.9,1c2,0.3,3.1,1.2,3.1,2.8C257.5,77.9,256.1,79.1,253.5,79.1z"/>
	<path class="st6" d="M262.3,79.1c-1.8,0-3.1-0.9-3.1-1.9v-1.1h0.1c0.5,0.5,1.8,0.9,2.9,0.9c1.2,0,1.8-0.3,1.8-1.1
		c0-0.6-0.3-0.8-2-1.1c-2.1-0.3-3-1.1-3-2.6c0-1.8,1.6-3.4,4.1-3.4c2.2,0,3.1,1.1,3.1,2.1v0.9H266c-0.5-0.5-1.6-0.9-2.8-0.9
		c-1.5,0-1.9,0.5-1.9,1.1c0,0.5,0.3,0.7,1.9,1c2,0.3,3.1,1.2,3.1,2.8C266.4,77.9,264.9,79.1,262.3,79.1z"/>
	<path class="st6" d="M268.1,72.5v-0.8c0-0.5,0.5-1,1.2-1h7.2v0.9c0,0.4-0.6,0.9-1.2,0.9H268.1z M268.1,75.9v-0.8
		c0-0.5,0.5-0.9,1.2-0.9h7.2V75c0,0.5-0.6,0.9-1.2,0.9H268.1z"/>
	<path class="st6" d="M280.6,70.9H280c-0.9,0-1.3-0.6-1.4-1.5l-0.3-2.8h1.1c0.8,0,1.4,0.5,1.4,1.3V68L280.6,70.9z M284,70.9h-0.6
		c-0.9,0-1.3-0.6-1.4-1.5l-0.3-2.8h1.1c0.8,0,1.4,0.5,1.4,1.3V68L284,70.9z"/>
	<path class="st6" d="M293.8,78.9c-1,0-1.6-0.6-1.6-1.6v-4c0-1.6-0.9-2.2-1.9-2.2c-0.8,0-1.7,0.6-1.7,2.3v5.5h-0.8
		c-1.1,0-1.7-0.6-1.7-1.6V65.9h0.8c1.2,0,1.7,0.6,1.7,1.5v2.8c0.4-0.6,1.2-1.3,2.1-1.3c2.5,0,4,1.5,4,4.3v5.7H293.8z"/>
	<path class="st6" d="M300.6,75.1H299c0.2,1.2,1.3,2,2.7,2c1,0,2.2-0.2,3-0.9h0.1V77c0,1.2-0.8,2.2-3.5,2.2c-2.4,0-4.8-1.9-4.8-4.9
		c0-3.2,2-5.3,4.8-5.3c2,0,3.9,1.4,3.9,3.8C305.1,74.5,303.8,75.1,300.6,75.1z M301,71c-1.2,0-2,1-2,2.1v0.3h1.1
		c2.3,0,2.8-0.3,2.8-0.9C302.8,71.4,302.1,71,301,71z"/>
	<path class="st6" d="M310.9,79h-0.5c-2.3,0-3.9-1.3-3.9-3.1c0-1.7,1.3-3,4.8-3h0.8v-0.1c0-1.4-0.6-1.8-2.1-1.8
		c-1.7,0-2.7,0.7-3.1,1.1h-0.1v-0.8c0-1.1,1-2.4,3.5-2.4c2.2,0,4.1,1,4.1,4.4v2.2C314.6,77.6,313.1,79,310.9,79z M312.2,74.6h-0.9
		c-1.8,0-2.4,0.4-2.4,1.2c0,0.8,0.6,1.2,1.7,1.2c1,0,1.5-0.5,1.5-1.5L312.2,74.6L312.2,74.6z"/>
	<path class="st6" d="M320.6,79.1c-2.6,0-4.5-2.2-4.5-4.9c0-3.2,1.5-5.3,4.4-5.3c1,0,2,0.7,2.4,1.5v-4.6h0.7c1.2,0,1.7,0.7,1.7,1.6
		v6.8C325.2,77.2,323.9,79.1,320.6,79.1z M320.4,71c-1.2,0-2,1.2-2,2.8c0,2,1,3.3,2.4,3.3c1.3,0,1.9-1,1.9-2.8
		C322.8,71.9,321.7,71,320.4,71z"/>
	<path class="st6" d="M331.2,75.1h-1.6c0.2,1.2,1.3,2,2.7,2c1,0,2.2-0.2,3-0.9h0.1V77c0,1.2-0.8,2.2-3.5,2.2c-2.4,0-4.8-1.9-4.8-4.9
		c0-3.2,2-5.3,4.8-5.3c2,0,3.9,1.4,3.9,3.8C335.7,74.5,334.4,75.1,331.2,75.1z M331.6,71c-1.2,0-2,1-2,2.1v0.3h1.1
		c2.3,0,2.8-0.3,2.8-0.9C333.5,71.4,332.8,71,331.6,71z"/>
	<path class="st6" d="M343.1,71.5c-0.4-0.1-0.8-0.3-1.4-0.3c-1.1,0-1.7,0.6-1.7,2.1v5.6h-0.7c-1.1,0-1.8-0.5-1.8-1.5v-4.5
		c0-1.9,1-3.8,3.6-3.8c1.5,0,2,0.8,2,1.6V71.5L343.1,71.5z"/>
	<path class="st6" d="M346.3,70.9h-0.6c-0.9,0-1.3-0.6-1.4-1.5l-0.3-2.8h1.1c0.8,0,1.4,0.5,1.4,1.3V68L346.3,70.9z M349.7,70.9h-0.6
		c-0.9,0-1.3-0.6-1.4-1.5l-0.3-2.8h1.1c0.8,0,1.4,0.5,1.4,1.3V68L349.7,70.9z"/>
	<path class="st6" d="M353,75.4c0.9-0.3,3.4-1.4,4.6-2c-1.3-0.7-4.3-2.1-5.9-2.7v-0.5c0-0.7,0.7-0.9,1.3-0.9c0.3,0,0.8,0.2,1,0.3
		c1.7,0.6,4.7,2.2,6.4,3.4v0.3c0,0.6-0.4,1-1,1.4c-1.4,0.8-5.5,2.7-7.7,3.3v-0.8C351.6,76.3,352,75.7,353,75.4z"/>
</g>
<g class="st5">
	<path class="st6" d="M185.8,369.7c-0.9,0.3-3.4,1.4-4.6,2c1.3,0.7,4.3,2.1,5.9,2.7v0.5c0,0.7-0.7,0.9-1.3,0.9c-0.2,0-0.7-0.2-1-0.3
		c-1.6-0.6-4.7-2.2-6.4-3.4v-0.3c0-0.6,0.4-1,1-1.4c1.4-0.8,5.5-2.7,7.7-3.3v0.8C187.2,368.7,186.8,369.3,185.8,369.7z"/>
	<path class="st6" d="M193.6,377.1c-2.6,0-4.5-2.2-4.5-4.9c0-3.2,1.5-5.3,4.4-5.3c1,0,2,0.7,2.4,1.5v-4.6h0.7c1.2,0,1.7,0.7,1.7,1.6
		v6.8C198.3,375.2,197,377.1,193.6,377.1z M193.5,369c-1.2,0-2,1.2-2,2.8c0,2,1,3.3,2.4,3.3s1.9-1,1.9-2.8
		C195.9,369.9,194.8,369,193.5,369z"/>
	<path class="st6" d="M202.1,366.5c-0.8,0-1.4-0.6-1.4-1.4s0.6-1.4,1.4-1.4c0.8,0,1.4,0.6,1.4,1.4
		C203.6,365.8,202.9,366.5,202.1,366.5z M203.9,377c-1.9,0-2.9-1.1-2.9-3v-6.6h0.7c1.1,0,1.7,0.6,1.7,1.8v4.5c0,1,0.4,1.3,1.5,1.3
		h0.5v0.5C205.3,376.6,204.9,377,203.9,377z"/>
	<path class="st6" d="M213.7,371.4c-0.6,1.8-1.7,4.1-2.8,5.6h-0.5c-0.7,0-1.1-0.3-1.6-1c-1.3-2-3-6.2-3.2-8.9h1.3
		c0.8,0,1.4,0.6,1.4,1.2c0.3,1.8,0.8,3.7,1.9,5.7c0.9-1.8,1.8-4.4,2.1-6.8h1c0.8,0,1.1,0.4,1.1,1.2
		C214.5,368.6,214.3,369.8,213.7,371.4z"/>
	<path class="st6" d="M227.3,370.3c-0.3-0.6-1.2-1-2.6-1c-1.4,0-2.6,1.1-2.6,2.6c0,1.8,1,3,2.7,3c1.4,0,2.2-0.5,2.6-0.9h0.1v1.1
		c0,1.2-1.1,2-2.9,2c-2.7,0-5-2.1-5-4.8c0-2.8,1.9-5.1,5.2-5.1c1.5,0,2.6,0.9,2.6,2.1L227.3,370.3L227.3,370.3z"/>
	<path class="st6" d="M232.3,377c-2,0-3.1-1.1-3.1-3v-10h0.7c1.2,0,1.7,0.7,1.7,1.6v8.2c0,1,0.5,1.3,1.6,1.3h0.6v0.5
		C233.9,376.6,233.4,377,232.3,377z"/>
	<path class="st6" d="M238.9,377h-0.5c-2.3,0-3.9-1.3-3.9-3.1c0-1.7,1.3-3,4.8-3h0.8v-0.1c0-1.4-0.6-1.8-2.1-1.8
		c-1.7,0-2.7,0.7-3.1,1.1h0.1v-0.8c0-1.1,1-2.4,3.5-2.4c2.2,0,4.1,1,4.1,4.4v2.2C242.6,375.6,241.1,377,238.9,377z M240.3,372.6
		h-0.9c-1.8,0-2.4,0.4-2.4,1.2c0,0.8,0.6,1.2,1.7,1.2c1,0,1.5-0.5,1.5-1.5L240.3,372.6L240.3,372.6z"/>
	<path class="st6" d="M247.5,377.1c-1.8,0-3.1-0.9-3.1-1.9v-1.1h0.1c0.5,0.5,1.8,0.9,2.9,0.9c1.2,0,1.8-0.3,1.8-1.1
		c0-0.6-0.3-0.8-2-1.1c-2.1-0.3-3-1.1-3-2.6c0-1.8,1.6-3.4,4.1-3.4c2.2,0,3.1,1.1,3.1,2.1v0.9h-0.1c-0.5-0.5-1.6-0.9-2.8-0.9
		c-1.5,0-1.9,0.5-1.9,1.1c0,0.5,0.3,0.7,1.9,1c2,0.3,3.1,1.2,3.1,2.8C251.5,375.9,250.1,377.1,247.5,377.1z"/>
	<path class="st6" d="M256.3,377.1c-1.8,0-3.1-0.9-3.1-1.9v-1.1h0.1c0.5,0.5,1.8,0.9,2.9,0.9c1.2,0,1.8-0.3,1.8-1.1
		c0-0.6-0.3-0.8-2-1.1c-2.1-0.3-3-1.1-3-2.6c0-1.8,1.6-3.4,4.1-3.4c2.2,0,3.1,1.1,3.1,2.1v0.9H260c-0.5-0.5-1.6-0.9-2.8-0.9
		c-1.5,0-1.9,0.5-1.9,1.1c0,0.5,0.3,0.7,1.9,1c2,0.3,3.1,1.2,3.1,2.8C260.4,375.9,258.9,377.1,256.3,377.1z"/>
	<path class="st6" d="M262.1,370.5v-0.8c0-0.5,0.5-1,1.2-1h7.2v0.9c0,0.4-0.6,0.9-1.2,0.9H262.1z M262.1,373.9v-0.8
		c0-0.5,0.5-0.9,1.2-0.9h7.2v0.8c0,0.5-0.6,0.9-1.2,0.9H262.1z"/>
	<path class="st6" d="M274.6,368.9H274c-0.9,0-1.3-0.6-1.4-1.5l-0.3-2.8h1.1c0.8,0,1.4,0.5,1.4,1.3v0.2L274.6,368.9z M278,368.9
		h-0.6c-0.9,0-1.3-0.6-1.4-1.5l-0.3-2.8h1.1c0.8,0,1.4,0.5,1.4,1.3v0.2L278,368.9z"/>
	<path class="st6" d="M285.5,366.1c-0.4-0.1-0.8-0.2-1.4-0.2c-1,0-1.7,0.3-1.7,1.6v0.9h2.8v0.7c0,0.9-0.9,1.4-1.7,1.4h-1v6.5h-1
		c-0.8,0-1.5-0.6-1.5-1.4v-8.1c0-1.4,1-3.6,3.8-3.6c1,0,1.9,0.6,1.9,1.5L285.5,366.1L285.5,366.1z"/>
	<path class="st6" d="M290.9,366.9c2.9,0,4.6,2.3,4.6,4.9c0,2.9-1.7,5.2-4.8,5.2c-2.9,0-4.6-2.3-4.6-4.9
		C286.1,369.3,287.8,366.9,290.9,366.9z M290.7,369.1c-1.4,0-2.1,1.2-2.1,2.8c0,1.9,0.7,3.1,2.3,3.1c1.4,0,2.1-1.2,2.1-2.7
		C293,370.3,292.3,369.1,290.7,369.1z"/>
	<path class="st6" d="M301.8,366.9c2.9,0,4.6,2.3,4.6,4.9c0,2.9-1.7,5.2-4.8,5.2c-2.9,0-4.6-2.3-4.6-4.9
		C296.9,369.3,298.6,366.9,301.8,366.9z M301.5,369.1c-1.4,0-2.1,1.2-2.1,2.8c0,1.9,0.7,3.1,2.3,3.1c1.4,0,2.1-1.2,2.1-2.7
		C303.8,370.3,303.1,369.1,301.5,369.1z"/>
	<path class="st6" d="M309,365.6c0.3-0.4,0.8-0.7,1.1-0.7h0.6v2.2h3.4v1c0,0.5-0.5,1.2-1.4,1.2h-1.9v3.8c0,1.3,0.6,1.7,1.5,1.7
		c0.8,0,1.4-0.1,1.7-0.3h0.1v0.9c0,1-0.7,1.6-2.1,1.6c-2.4,0-3.6-1.3-3.6-3.6v-5.8C308.3,366.6,308.5,366.2,309,365.6z"/>
	<path class="st6" d="M319.2,373.1h-1.6c0.2,1.2,1.3,2,2.7,2c1,0,2.2-0.2,3-0.9h0.1v0.8c0,1.2-0.8,2.2-3.5,2.2
		c-2.4,0-4.8-1.9-4.8-4.9c0-3.2,2-5.3,4.8-5.3c2,0,3.9,1.4,3.9,3.8C323.7,372.5,322.4,373.1,319.2,373.1z M319.6,369
		c-1.2,0-2,1-2,2.1v0.3h1.1c2.3,0,2.8-0.3,2.8-0.9C321.4,369.4,320.7,369,319.6,369z"/>
	<path class="st6" d="M331.1,369.5c-0.4-0.1-0.8-0.3-1.4-0.3c-1.1,0-1.7,0.6-1.7,2.1v5.6h-0.7c-1.1,0-1.8-0.5-1.8-1.5v-4.5
		c0-1.9,1-3.8,3.6-3.8c1.5,0,2,0.8,2,1.6V369.5L331.1,369.5z"/>
	<path class="st6" d="M334.3,368.9h-0.6c-0.9,0-1.3-0.6-1.4-1.5l-0.3-2.8h1.1c0.8,0,1.4,0.5,1.4,1.3v0.2L334.3,368.9z M337.7,368.9
		h-0.6c-0.9,0-1.3-0.6-1.4-1.5l-0.3-2.8h1.1c0.8,0,1.4,0.5,1.4,1.3v0.2L337.7,368.9z"/>
	<path class="st6" d="M340.9,373.4c0.9-0.3,3.4-1.4,4.6-2c-1.3-0.7-4.3-2.1-5.9-2.7v-0.5c0-0.7,0.7-0.9,1.3-0.9c0.3,0,0.8,0.2,1,0.3
		c1.7,0.6,4.7,2.2,6.4,3.4v0.3c0,0.6-0.4,1-1,1.4c-1.4,0.8-5.5,2.7-7.7,3.3v-0.8C339.6,374.3,339.9,373.7,340.9,373.4z"/>
</g>
<path class="st7" d="M191,336H75c-4.9,0-9-4-9-9V114c0-4.9,4.1-9,9-9h116c4.9,0,9,4.1,9,9v213C200,332,195.9,336,191,336z"/>
<path class="st8" d="M450,336H215c-4.9,0-9-4-9-9V114c0-4.9,4.1-9,9-9h235c5,0,9,4.1,9,9v213C459,332,455,336,450,336z"/>
<g class="st5">
	<path class="st6" d="M88.8,202.7c-0.9,0.3-3.4,1.4-4.6,2c1.3,0.7,4.3,2.1,5.9,2.7v0.5c0,0.7-0.7,0.9-1.3,0.9c-0.2,0-0.7-0.2-1-0.3
		c-1.6-0.6-4.7-2.2-6.4-3.4v-0.3c0-0.6,0.4-1,1-1.4c1.4-0.8,5.5-2.7,7.7-3.3v0.8C90.2,201.7,89.8,202.3,88.8,202.7z"/>
	<path class="st6" d="M96.6,210.1c-2.6,0-4.5-2.2-4.5-4.9c0-3.2,1.5-5.3,4.4-5.3c1,0,2,0.7,2.4,1.5v-4.6h0.7c1.2,0,1.7,0.7,1.7,1.6
		v6.8C101.3,208.2,100,210.1,96.6,210.1z M96.5,202c-1.2,0-2,1.2-2,2.8c0,2,1,3.3,2.4,3.3s1.9-1,1.9-2.8
		C98.9,202.9,97.8,202,96.5,202z"/>
	<path class="st6" d="M105.1,199.5c-0.8,0-1.4-0.6-1.4-1.4c0-0.8,0.6-1.4,1.4-1.4s1.4,0.6,1.4,1.4
		C106.6,198.8,105.9,199.5,105.1,199.5z M106.9,210c-1.9,0-2.9-1.1-2.9-3v-6.6h0.7c1.1,0,1.7,0.6,1.7,1.8v4.5c0,1,0.4,1.3,1.5,1.3
		h0.5v0.5C108.3,209.6,107.9,210,106.9,210z"/>
	<path class="st6" d="M116.7,204.4c-0.6,1.8-1.7,4.1-2.8,5.6h-0.5c-0.7,0-1.1-0.3-1.6-1c-1.3-2-3-6.2-3.2-8.9h1.3
		c0.8,0,1.4,0.6,1.4,1.2c0.3,1.8,0.8,3.7,1.9,5.7c0.9-1.8,1.8-4.4,2.1-6.8h1c0.8,0,1.1,0.4,1.1,1.2
		C117.5,201.6,117.3,202.8,116.7,204.4z"/>
	<path class="st6" d="M130.3,203.3c-0.3-0.6-1.2-1-2.6-1s-2.6,1.1-2.6,2.6c0,1.8,1,3,2.7,3c1.4,0,2.2-0.5,2.6-0.9h0.1v1.1
		c0,1.2-1.1,2-2.9,2c-2.7,0-5-2.1-5-4.8c0-2.8,1.9-5.1,5.2-5.1c1.5,0,2.6,0.9,2.6,2.1L130.3,203.3L130.3,203.3z"/>
	<path class="st6" d="M135.3,210c-2,0-3.1-1.1-3.1-3v-10h0.7c1.2,0,1.7,0.7,1.7,1.6v8.2c0,1,0.5,1.3,1.6,1.3h0.6v0.5
		C136.9,209.6,136.4,210,135.3,210z"/>
	<path class="st6" d="M141.9,210h-0.5c-2.3,0-3.9-1.3-3.9-3.1c0-1.7,1.3-3,4.8-3h0.8v-0.1c0-1.4-0.6-1.8-2.1-1.8
		c-1.7,0-2.7,0.7-3.1,1.1h0.1v-0.8c0-1.1,1-2.4,3.5-2.4c2.2,0,4.1,1,4.1,4.4v2.2C145.6,208.6,144.1,210,141.9,210z M143.3,205.6
		h-0.9c-1.8,0-2.4,0.4-2.4,1.2s0.6,1.2,1.7,1.2c1,0,1.5-0.5,1.5-1.5L143.3,205.6L143.3,205.6z"/>
	<path class="st6" d="M150.5,210.1c-1.8,0-3.1-0.9-3.1-1.9v-1.1h0.1c0.5,0.5,1.8,0.9,2.9,0.9c1.2,0,1.8-0.3,1.8-1.1
		c0-0.6-0.3-0.8-2-1.1c-2.1-0.3-3-1.1-3-2.6c0-1.8,1.6-3.4,4.1-3.4c2.2,0,3.1,1.1,3.1,2.1v0.9h-0.1c-0.5-0.5-1.6-0.9-2.8-0.9
		c-1.5,0-1.9,0.5-1.9,1.1c0,0.5,0.3,0.7,1.9,1c2,0.3,3.1,1.2,3.1,2.8C154.5,208.9,153.1,210.1,150.5,210.1z"/>
	<path class="st6" d="M159.3,210.1c-1.8,0-3.1-0.9-3.1-1.9v-1.1h0.1c0.5,0.5,1.8,0.9,2.9,0.9c1.2,0,1.8-0.3,1.8-1.1
		c0-0.6-0.3-0.8-2-1.1c-2.1-0.3-3-1.1-3-2.6c0-1.8,1.6-3.4,4.1-3.4c2.2,0,3.1,1.1,3.1,2.1v0.9H163c-0.5-0.5-1.6-0.9-2.8-0.9
		c-1.5,0-1.9,0.5-1.9,1.1c0,0.5,0.3,0.7,1.9,1c2,0.3,3.1,1.2,3.1,2.8C163.4,208.9,161.9,210.1,159.3,210.1z"/>
	<path class="st6" d="M165.1,203.5v-0.8c0-0.5,0.5-1,1.2-1h7.2v0.9c0,0.4-0.6,0.9-1.2,0.9L165.1,203.5L165.1,203.5z M165.1,206.9
		v-0.8c0-0.5,0.5-0.9,1.2-0.9h7.2v0.8c0,0.5-0.6,0.9-1.2,0.9H165.1z"/>
	<path class="st6" d="M83.7,223.5h-0.6c-0.9,0-1.3-0.6-1.4-1.5l-0.3-2.8h1.1c0.8,0,1.4,0.5,1.4,1.3v0.2L83.7,223.5z M87.1,223.5
		h-0.6c-0.9,0-1.3-0.6-1.4-1.5l-0.3-2.8H86c0.8,0,1.4,0.5,1.4,1.3v0.2L87.1,223.5z"/>
	<path class="st6" d="M97,231.5c-1.1,0-1.8-0.7-1.8-1.6V226c0-1.6-0.7-2.4-2-2.4c-1,0-1.8,0.8-1.8,2.2v5.6h-0.7
		c-1,0-1.7-0.7-1.7-1.6v-4.2c0-2.1,1.4-4.2,4.4-4.2c2.3,0,4.2,1.5,4.2,4.3v5.7L97,231.5L97,231.5z"/>
	<path class="st6" d="M103.9,231.6h-0.5c-2.3,0-3.9-1.3-3.9-3.1c0-1.7,1.3-3,4.8-3h0.8v-0.1c0-1.4-0.6-1.8-2.1-1.8
		c-1.7,0-2.7,0.7-3.1,1.1h-0.1V224c0-1.1,1-2.4,3.5-2.4c2.2,0,4.1,1,4.1,4.4v2.2C107.6,230.2,106,231.6,103.9,231.6z M105.2,227.2
		h-0.9c-1.8,0-2.4,0.4-2.4,1.2s0.6,1.2,1.7,1.2c1,0,1.5-0.5,1.5-1.5v-0.9H105.2z"/>
	<path class="st6" d="M116.5,226c-0.6,1.8-1.7,4.1-2.8,5.6h-0.5c-0.7,0-1.1-0.3-1.6-1c-1.3-2-3-6.2-3.2-8.9h1.3
		c0.8,0,1.4,0.6,1.4,1.2c0.3,1.8,0.8,3.7,1.9,5.7c0.9-1.8,1.8-4.4,2.1-6.8h1c0.8,0,1.1,0.4,1.1,1.2
		C117.3,223.2,117.1,224.4,116.5,226z"/>
	<path class="st6" d="M120.3,221.1c-0.8,0-1.4-0.6-1.4-1.4c0-0.8,0.6-1.4,1.4-1.4s1.4,0.6,1.4,1.4
		C121.7,220.4,121,221.1,120.3,221.1z M122,231.6c-1.9,0-2.9-1.1-2.9-3V222h0.7c1.1,0,1.7,0.6,1.7,1.8v4.5c0,1,0.4,1.3,1.5,1.3h0.5
		v0.5C123.4,231.2,123,231.6,122,231.6z"/>
	<path class="st6" d="M133.3,228.8c0,0.4,0,0.9,0,1.2c0,2.4-1.6,4.6-4.8,4.6c-2,0-3.4-1-3.4-2.1v-1.1h0.1c0.6,0.6,1.7,1,3.1,1
		c1.7,0,2.6-0.8,2.5-2.2v-1V229c-0.2,0.7-1.1,1.4-2.5,1.4c-2.4,0-4-1.6-4-3.9c0-2.7,1.8-5,4.9-5c2.4,0,4,1.8,4,4.3v1.7
		C133.3,227.8,133.3,228.3,133.3,228.8z M126.9,226.2c0,1.3,0.8,2.2,1.9,2.2c1.2,0,2.1-0.9,2.1-2.4s-0.8-2.3-1.8-2.3
		C127.8,223.7,126.9,224.7,126.9,226.2z"/>
	<path class="st6" d="M139.6,231.6h-0.5c-2.3,0-3.9-1.3-3.9-3.1c0-1.7,1.3-3,4.8-3h0.8v-0.1c0-1.4-0.6-1.8-2.1-1.8
		c-1.7,0-2.7,0.7-3.1,1.1h-0.1V224c0-1.1,1-2.4,3.5-2.4c2.2,0,4.1,1,4.1,4.4v2.2C143.3,230.2,141.8,231.6,139.6,231.6z M140.9,227.2
		H140c-1.8,0-2.4,0.4-2.4,1.2s0.6,1.2,1.7,1.2c1,0,1.5-0.5,1.5-1.5L140.9,227.2L140.9,227.2z"/>
	<path class="st6" d="M146,220.2c0.3-0.4,0.8-0.7,1.1-0.7h0.6v2.2h3.4v1c0,0.5-0.5,1.2-1.4,1.2h-1.9v3.8c0,1.3,0.6,1.7,1.5,1.7
		c0.8,0,1.4-0.1,1.7-0.3h0.1v0.9c0,1-0.7,1.6-2.1,1.6c-2.4,0-3.6-1.3-3.6-3.6v-5.8C145.3,221.2,145.5,220.8,146,220.2z"/>
	<path class="st6" d="M154,221.1c-0.8,0-1.4-0.6-1.4-1.4c0-0.8,0.6-1.4,1.4-1.4c0.8,0,1.4,0.6,1.4,1.4
		C155.4,220.4,154.8,221.1,154,221.1z M155.7,231.6c-1.9,0-2.9-1.1-2.9-3V222h0.7c1.1,0,1.7,0.6,1.7,1.8v4.5c0,1,0.4,1.3,1.5,1.3
		h0.5v0.5C157.1,231.2,156.7,231.6,155.7,231.6z"/>
	<path class="st6" d="M162.8,221.5c2.9,0,4.6,2.3,4.6,4.9c0,2.9-1.7,5.2-4.8,5.2c-2.9,0-4.6-2.3-4.6-4.9
		C158,223.9,159.7,221.5,162.8,221.5z M162.6,223.7c-1.4,0-2.1,1.2-2.1,2.8c0,1.9,0.7,3.1,2.3,3.1c1.4,0,2.1-1.2,2.1-2.7
		C164.9,224.9,164.2,223.7,162.6,223.7z"/>
	<path class="st6" d="M177.2,231.5c-1.1,0-1.8-0.7-1.8-1.6V226c0-1.6-0.7-2.4-2-2.4c-1,0-1.8,0.8-1.8,2.2v5.6H171
		c-1,0-1.7-0.7-1.7-1.6v-4.2c0-2.1,1.4-4.2,4.4-4.2c2.3,0,4.2,1.5,4.2,4.3v5.7L177.2,231.5L177.2,231.5z"/>
	<path class="st6" d="M181.9,223.5h-0.6c-0.9,0-1.3-0.6-1.4-1.5l-0.3-2.8h1.1c0.8,0,1.4,0.5,1.4,1.3v0.2L181.9,223.5z M185.4,223.5
		h-0.6c-0.9,0-1.3-0.6-1.4-1.5l-0.3-2.8h1.1c0.8,0,1.4,0.5,1.4,1.3v0.2L185.4,223.5z"/>
	<path class="st6" d="M188.6,228c0.9-0.3,3.4-1.4,4.6-2c-1.3-0.7-4.3-2.1-5.9-2.7v-0.5c0-0.7,0.7-0.9,1.3-0.9c0.3,0,0.8,0.2,1,0.3
		c1.7,0.6,4.7,2.2,6.4,3.4v0.3c0,0.6-0.4,1-1,1.4c-1.4,0.8-5.5,2.7-7.7,3.3v-0.8C187.2,228.9,187.6,228.3,188.6,228z"/>
</g>
<g class="st5">
	<path class="st6" d="M247.8,213.7c-0.9,0.3-3.4,1.4-4.6,2c1.3,0.7,4.3,2.1,5.9,2.7v0.5c0,0.7-0.7,0.9-1.3,0.9c-0.2,0-0.7-0.2-1-0.3
		c-1.6-0.6-4.7-2.2-6.4-3.4v-0.3c0-0.6,0.4-1,1-1.4c1.4-0.8,5.5-2.7,7.7-3.3v0.8C249.2,212.7,248.8,213.3,247.8,213.7z"/>
	<path class="st6" d="M255.6,221.1c-2.6,0-4.5-2.2-4.5-4.9c0-3.2,1.5-5.3,4.4-5.3c1,0,2,0.7,2.4,1.5v-4.6h0.7c1.2,0,1.7,0.7,1.7,1.6
		v6.8C260.3,219.2,259,221.1,255.6,221.1z M255.5,213c-1.2,0-2,1.2-2,2.8c0,2,1,3.3,2.4,3.3s1.9-1,1.9-2.8
		C257.9,213.9,256.8,213,255.5,213z"/>
	<path class="st6" d="M264.1,210.5c-0.8,0-1.4-0.6-1.4-1.4c0-0.8,0.6-1.4,1.4-1.4s1.4,0.6,1.4,1.4
		C265.6,209.8,264.9,210.5,264.1,210.5z M265.9,221c-1.9,0-2.9-1.1-2.9-3v-6.6h0.7c1.1,0,1.7,0.6,1.7,1.8v4.5c0,1,0.4,1.3,1.5,1.3
		h0.5v0.5C267.3,220.6,266.9,221,265.9,221z"/>
	<path class="st6" d="M275.7,215.4c-0.6,1.8-1.7,4.1-2.8,5.6h-0.5c-0.7,0-1.1-0.3-1.6-1c-1.3-2-3-6.2-3.2-8.9h1.3
		c0.8,0,1.4,0.6,1.4,1.2c0.3,1.8,0.8,3.7,1.9,5.7c0.9-1.8,1.8-4.4,2.1-6.8h1c0.8,0,1.1,0.4,1.1,1.2
		C276.5,212.6,276.3,213.8,275.7,215.4z"/>
	<path class="st6" d="M289.3,214.3c-0.3-0.6-1.2-1-2.6-1s-2.6,1.1-2.6,2.6c0,1.8,1,3,2.7,3c1.4,0,2.2-0.5,2.6-0.9h0.1v1.1
		c0,1.2-1.1,2-2.9,2c-2.7,0-5-2.1-5-4.8c0-2.8,1.9-5.1,5.2-5.1c1.5,0,2.6,0.9,2.6,2.1L289.3,214.3L289.3,214.3z"/>
	<path class="st6" d="M294.3,221c-2,0-3.1-1.1-3.1-3v-10h0.7c1.2,0,1.7,0.7,1.7,1.6v8.2c0,1,0.5,1.3,1.6,1.3h0.6v0.5
		C295.9,220.6,295.4,221,294.3,221z"/>
	<path class="st6" d="M300.9,221h-0.5c-2.3,0-3.9-1.3-3.9-3.1c0-1.7,1.3-3,4.8-3h0.8v-0.1c0-1.4-0.6-1.8-2.1-1.8
		c-1.7,0-2.7,0.7-3.1,1.1h0.1v-0.8c0-1.1,1-2.4,3.5-2.4c2.2,0,4.1,1,4.1,4.4v2.2C304.6,219.6,303.1,221,300.9,221z M302.3,216.6
		h-0.9c-1.8,0-2.4,0.4-2.4,1.2s0.6,1.2,1.7,1.2c1,0,1.5-0.5,1.5-1.5L302.3,216.6L302.3,216.6z"/>
	<path class="st6" d="M309.5,221.1c-1.8,0-3.1-0.9-3.1-1.9v-1.1h0.1c0.5,0.5,1.8,0.9,2.9,0.9c1.2,0,1.8-0.3,1.8-1.1
		c0-0.6-0.3-0.8-2-1.1c-2.1-0.3-3-1.1-3-2.6c0-1.8,1.6-3.4,4.1-3.4c2.2,0,3.1,1.1,3.1,2.1v0.9h-0.1c-0.5-0.5-1.6-0.9-2.8-0.9
		c-1.5,0-1.9,0.5-1.9,1.1c0,0.5,0.3,0.7,1.9,1c2,0.3,3.1,1.2,3.1,2.8C313.5,219.9,312.1,221.1,309.5,221.1z"/>
	<path class="st6" d="M318.3,221.1c-1.8,0-3.1-0.9-3.1-1.9v-1.1h0.1c0.5,0.5,1.8,0.9,2.9,0.9c1.2,0,1.8-0.3,1.8-1.1
		c0-0.6-0.3-0.8-2-1.1c-2.1-0.3-3-1.1-3-2.6c0-1.8,1.6-3.4,4.1-3.4c2.2,0,3.1,1.1,3.1,2.1v0.9H322c-0.5-0.5-1.6-0.9-2.8-0.9
		c-1.5,0-1.9,0.5-1.9,1.1c0,0.5,0.3,0.7,1.9,1c2,0.3,3.1,1.2,3.1,2.8C322.4,219.9,320.9,221.1,318.3,221.1z"/>
	<path class="st6" d="M324.1,214.5v-0.8c0-0.5,0.5-1,1.2-1h7.2v0.9c0,0.4-0.6,0.9-1.2,0.9L324.1,214.5L324.1,214.5z M324.1,217.9
		v-0.8c0-0.5,0.5-0.9,1.2-0.9h7.2v0.8c0,0.5-0.6,0.9-1.2,0.9H324.1z"/>
	<path class="st6" d="M336.6,212.9H336c-0.9,0-1.3-0.6-1.4-1.5l-0.3-2.8h1.1c0.8,0,1.4,0.5,1.4,1.3v0.2L336.6,212.9z M340,212.9
		h-0.6c-0.9,0-1.3-0.6-1.4-1.5l-0.3-2.8h1.1c0.8,0,1.4,0.5,1.4,1.3v0.2L340,212.9z"/>
	<path class="st6" d="M349.3,214.3c-0.3-0.6-1.2-1-2.6-1s-2.6,1.1-2.6,2.6c0,1.8,1,3,2.7,3c1.4,0,2.2-0.5,2.6-0.9h0.1v1.1
		c0,1.2-1.1,2-2.9,2c-2.7,0-5-2.1-5-4.8c0-2.8,1.9-5.1,5.2-5.1c1.5,0,2.6,0.9,2.6,2.1L349.3,214.3L349.3,214.3z"/>
	<path class="st6" d="M355.5,210.9c2.9,0,4.6,2.3,4.6,4.9c0,2.9-1.7,5.2-4.8,5.2c-2.9,0-4.6-2.3-4.6-4.9
		C350.7,213.3,352.3,210.9,355.5,210.9z M355.3,213.1c-1.4,0-2.1,1.2-2.1,2.8c0,1.9,0.7,3.1,2.3,3.1c1.4,0,2.1-1.2,2.1-2.7
		C357.6,214.3,356.8,213.1,355.3,213.1z"/>
	<path class="st6" d="M369.9,220.9c-1.1,0-1.8-0.7-1.8-1.6v-3.9c0-1.6-0.7-2.4-2-2.4c-1,0-1.8,0.8-1.8,2.2v5.6h-0.7
		c-1,0-1.7-0.7-1.7-1.6V215c0-2.1,1.4-4.2,4.4-4.2c2.3,0,4.2,1.5,4.2,4.3v5.7L369.9,220.9L369.9,220.9z"/>
	<path class="st6" d="M373.6,209.6c0.3-0.4,0.8-0.7,1.1-0.7h0.6v2.2h3.4v1c0,0.5-0.5,1.2-1.4,1.2h-1.9v3.8c0,1.3,0.6,1.7,1.5,1.7
		c0.8,0,1.4-0.1,1.7-0.3h0.1v0.9c0,1-0.7,1.6-2.1,1.6c-2.4,0-3.6-1.3-3.6-3.6v-5.8C372.9,210.6,373.1,210.2,373.6,209.6z"/>
	<path class="st6" d="M383.8,217.1h-1.6c0.2,1.2,1.3,2,2.7,2c1,0,2.2-0.2,3-0.9h0.1v0.8c0,1.2-0.8,2.2-3.5,2.2
		c-2.4,0-4.8-1.9-4.8-4.9c0-3.2,2-5.3,4.8-5.3c2,0,3.9,1.4,3.9,3.8C388.3,216.5,387,217.1,383.8,217.1z M384.2,213c-1.2,0-2,1-2,2.1
		v0.3h1.1c2.3,0,2.8-0.3,2.8-0.9C386.1,213.4,385.3,213,384.2,213z"/>
	<path class="st6" d="M398.1,220.9c-1.1,0-1.8-0.7-1.8-1.6v-3.9c0-1.6-0.7-2.4-2-2.4c-1,0-1.8,0.8-1.8,2.2v5.6h-0.7
		c-1,0-1.7-0.7-1.7-1.6V215c0-2.1,1.4-4.2,4.4-4.2c2.3,0,4.2,1.5,4.2,4.3v5.7L398.1,220.9L398.1,220.9z"/>
	<path class="st6" d="M401.9,209.6c0.3-0.4,0.8-0.7,1.1-0.7h0.6v2.2h3.4v1c0,0.5-0.5,1.2-1.4,1.2h-1.9v3.8c0,1.3,0.6,1.7,1.5,1.7
		c0.8,0,1.4-0.1,1.7-0.3h0.1v0.9c0,1-0.7,1.6-2.1,1.6c-2.4,0-3.6-1.3-3.6-3.6v-5.8C401.2,210.6,401.3,210.2,401.9,209.6z"/>
	<path class="st6" d="M410.1,212.9h-0.6c-0.9,0-1.3-0.6-1.4-1.5l-0.3-2.8h1.1c0.8,0,1.4,0.5,1.4,1.3v0.2L410.1,212.9z M413.5,212.9
		h-0.6c-0.9,0-1.3-0.6-1.4-1.5l-0.3-2.8h1.1c0.8,0,1.4,0.5,1.4,1.3v0.2L413.5,212.9z"/>
	<path class="st6" d="M416.8,217.4c0.9-0.3,3.4-1.4,4.6-2c-1.3-0.7-4.3-2.1-5.9-2.7v-0.5c0-0.7,0.7-0.9,1.3-0.9c0.3,0,0.8,0.2,1,0.3
		c1.7,0.6,4.7,2.2,6.4,3.4v0.3c0,0.6-0.4,1-1,1.4c-1.4,0.8-5.5,2.7-7.7,3.3v-0.8C415.4,218.3,415.8,217.7,416.8,217.4z"/>
</g>
<g>
	<g>
		<path class="st1" d="M236,10.9v18h-2.8v-6.3h-8.8v6.3h-2.8v-18h2.8v8.9h8.8v-8.9C233.2,10.9,236,10.9,236,10.9z"/>
		<path class="st1" d="M252.8,13.7h-5.9v15.2h-2.8V13.7h-5.9v-2.8h14.6L252.8,13.7L252.8,13.7z"/>
		<path class="st1" d="M273.3,28.9h-2.9V17l-5.6,11.9h-1.2L257.9,17v11.9H255v-18h2.9l6.3,13.1l6.3-13.1h2.9L273.3,28.9L273.3,28.9z
			"/>
		<path class="st1" d="M280.1,10.9v15.2h8v2.8h-10.9v-18C277.2,10.9,280.1,10.9,280.1,10.9z"/>
		<path class="st1" d="M302.2,23.2v2.7h-1.8v3h-2.8v-3h-7.8v-2.7l5.8-12.3h2.9l-5.8,12.3h4.9v-4.8h2.8v4.8H302.2z"/>
	</g>
</g>
<rect x="45" y="419" class="st9" width="436" height="170"/>
<rect x="45" y="419" class="st10" width="7" height="170"/>
<g class="st11">
	<text transform="matrix(1 0 0 1 142.3564 458.563)" class="st12 st13 st14">Семантическая верстка</text>
</g>
<path class="st15" d="M452.9,102.4H76.7c-4.8,0-8.6-4.6-8.6-10.3V56.3c0-5.7,3.9-10.3,8.6-10.3h376.1c4.8,0,8.6,4.6,8.6,10.3v35.8
	C461.5,97.8,457.7,102.4,452.9,102.4z"/>
<path class="st15" d="M452.9,401H76.7c-4.8,0-8.6-4.6-8.6-10.3v-35.8c0-5.7,3.9-10.3,8.6-10.3h376.1c4.8,0,8.6,4.6,8.6,10.3v35.8
	C461.5,396.4,457.7,401,452.9,401z"/>
<text transform="matrix(1 0 0 1 222.79 78.88)" class="st16 st17 st18">&lt;header&gt;</text>
<text transform="matrix(1 0 0 1 231.79 378.88)" class="st16 st17 st18">&lt;footer&gt;</text>
<path class="st19" d="M186,339H77c-4.9,0-9-4-9-9V117c0-4.9,4.1-9,9-9h109c4.9,0,9,4.1,9,9v213C195,335,190.9,339,186,339z"/>
<path class="st20" d="M452,339H211c-4.9,0-9-4-9-9V117c0-4.9,4.1-9,9-9h241c5,0,9,4.1,9,9v213C461,335,457,339,452,339z"/>
<text transform="matrix(1 0 0 1 105.79 227.88)" class="st16 st17 st18">&lt;nav&gt;</text>
<text transform="matrix(1 0 0 1 295.79 227.88)" class="st16 st17 st18">&lt;main&gt;</text>
</svg>
