<?xml version="1.0" encoding="utf-8"?>
<!-- Generator: Adobe Illustrator 21.0.2, SVG Export Plug-In . SVG Version: 6.00 Build 0)  -->
<svg version="1.1" id="Слой_1" xmlns="http://www.w3.org/2000/svg" xmlns:xlink="http://www.w3.org/1999/xlink" x="0px" y="0px"
	 viewBox="0 0 515 600" style="enable-background:new 0 0 515 600;" xml:space="preserve">
<style type="text/css">
	.st0{display:none;fill:#C1C1C1;}
	.st1{fill:#455A64;}
	.st2{font-family:'Manrope-Semibold';}
	.st3{font-size:20px;}
	.st4{fill:#1FB299;}
	.st5{fill:#2FDDBB;}
	.st6{fill:#F2F2F2;}
	.st7{font-family:'Cocon-Regular';}
	.st8{font-size:18px;}
	.st9{fill:#FFFFFF;}
	.st10{fill:#1EA386;}
	.st11{fill:#55555A;}
	.st12{enable-background:new    ;}
	.st13{fill:#54DDC3;}
</style>
<rect class="st0" width="515" height="600"/>
<g>
	<text transform="matrix(1 0 0 1 171.3564 468.5636)" class="st1 st2 st3">Блочная верстка</text>
</g>
<path class="st4" d="M450.9,99.4H74.7c-4.8,0-8.6-4.6-8.6-10.3V53.3c0-5.7,3.9-10.3,8.6-10.3h376.1c4.8,0,8.6,4.6,8.6,10.3v35.8
	C459.5,94.8,455.7,99.4,450.9,99.4z"/>
<path class="st4" d="M450.9,398H74.7c-4.8,0-8.6-4.6-8.6-10.3v-35.8c0-5.7,3.9-10.3,8.6-10.3h376.1c4.8,0,8.6,4.6,8.6,10.3v35.8
	C459.5,393.4,455.7,398,450.9,398z"/>
<path class="st5" d="M452,336H211c-4.9,0-9-4-9-9V114c0-4.9,4.1-9,9-9h241c5,0,9,4.1,9,9v213C461,332,457,336,452,336z"/>
<text transform="matrix(1 0 0 1 80.79 209.8798)" class="st6 st7 st8">&lt;div class=</text>
<text transform="matrix(1 0 0 1 80.79 231.4798)" class="st6 st7 st8">&quot;navigation&quot;&gt;</text>
<g>
	<g>
		<path class="st1" d="M236,10.9v18h-2.8v-6.3h-8.8v6.3h-2.8v-18h2.8v8.9h8.8v-8.9C233.2,10.9,236,10.9,236,10.9z"/>
		<path class="st1" d="M252.8,13.7h-5.9v15.2h-2.8V13.7h-5.9v-2.8h14.6L252.8,13.7L252.8,13.7z"/>
		<path class="st1" d="M273.3,28.9h-2.9V17l-5.6,11.9h-1.2L257.9,17v11.9H255v-18h2.9l6.3,13.1l6.3-13.1h2.9L273.3,28.9L273.3,28.9z
			"/>
		<path class="st1" d="M280.1,10.9v15.2h8v2.8h-10.9v-18C277.2,10.9,280.1,10.9,280.1,10.9z"/>
		<path class="st1" d="M300.4,10.9v2.6h-7l-0.3,4.7c0.4-0.3,0.9-0.5,1.4-0.7c0.5-0.1,1-0.2,1.5-0.2c0.7,0,1.4,0.1,2.1,0.4
			s1.3,0.6,1.8,1.1c0.6,0.6,1.1,1.2,1.4,1.9s0.5,1.5,0.5,2.3s-0.2,1.6-0.5,2.5c-0.3,0.8-0.8,1.5-1.4,2s-1.2,1-2,1.3
			c-0.7,0.3-1.5,0.5-2.3,0.5s-1.6-0.1-2.4-0.4s-1.4-0.7-2-1.3c-0.8-0.8-1.4-1.7-1.7-2.8l2.7-0.7c0.2,0.6,0.5,1.1,0.9,1.6
			c0.3,0.3,0.7,0.5,1.1,0.7s0.8,0.3,1.2,0.3c0.4,0,0.9-0.1,1.3-0.3c0.4-0.2,0.8-0.4,1.1-0.7c0.3-0.3,0.6-0.7,0.7-1.1
			c0.2-0.4,0.3-0.9,0.3-1.3c0-0.5-0.1-0.9-0.3-1.3c-0.2-0.4-0.4-0.8-0.8-1.1c-0.6-0.6-1.4-0.9-2.3-0.9c-0.4,0-0.8,0.1-1.2,0.2
			s-0.7,0.4-1,0.6s-0.5,0.5-0.6,0.8l-2.5-1.4l0.5-9.3C290.6,10.9,300.4,10.9,300.4,10.9z"/>
	</g>
</g>
<rect x="45" y="429" class="st9" width="436" height="170"/>
<rect x="45" y="429" class="st1" width="7" height="170"/>
<g>
	<g>
		<path class="st1" d="M157,464.1c-0.3,0.8-0.7,1.6-1.2,2.3c-0.7,0.8-1.5,1.4-2.4,1.8s-2,0.6-3,0.6c-1.1,0-2.1-0.2-3.1-0.6
			s-1.7-1-2.4-1.8c-1.2-1.4-1.7-3.2-1.7-5.4c0-2.2,0.6-4,1.7-5.4c0.6-0.8,1.4-1.4,2.4-1.8s2-0.6,3.1-0.6s2.1,0.2,3.1,0.6
			s1.7,1,2.4,1.8c0.6,0.7,1,1.6,1.4,2.7l-2.4,0.4c-0.2-0.7-0.4-1.2-0.8-1.7c-0.4-0.5-0.9-0.9-1.6-1.2c-0.6-0.3-1.3-0.4-2-0.4
			s-1.4,0.1-2,0.4s-1.1,0.7-1.5,1.2c-0.7,0.9-1.1,2.2-1.1,4c0,1.7,0.4,3,1.1,4c0.4,0.5,0.9,0.9,1.5,1.2c0.6,0.3,1.3,0.4,2,0.4
			c0.8,0,1.4-0.1,2.1-0.4c0.6-0.3,1.2-0.7,1.6-1.2c0.3-0.5,0.6-1,0.8-1.5L157,464.1z"/>
		<path class="st1" d="M162,465.6c0.3,0.3,0.6,0.6,1,0.8s0.9,0.3,1.3,0.3c0.5,0,0.9-0.1,1.3-0.3s0.7-0.5,1-0.8c0,0,0.1-0.2,0.3-0.5
			l2.3,1c-0.2,0.4-0.4,0.7-0.6,0.9c-0.5,0.6-1.1,1-1.8,1.3s-1.5,0.5-2.3,0.5c-0.9,0-1.7-0.2-2.5-0.5s-1.4-0.8-1.9-1.4
			c-0.9-1.1-1.3-2.4-1.3-4c0-1.7,0.4-3.1,1.3-4.2c0.5-0.6,1.1-1.1,1.9-1.4c0.7-0.3,1.5-0.5,2.4-0.5c0.8,0,1.6,0.2,2.4,0.5
			c0.7,0.3,1.3,0.8,1.8,1.4c0.9,1.1,1.3,2.4,1.3,4.1c0,0.2,0,0.4,0,0.6h-8.5C161.4,464.4,161.6,465.1,162,465.6z M163,459.5
			c-0.4,0.2-0.8,0.5-1,0.8c-0.3,0.4-0.5,0.8-0.6,1.4h5.9c-0.1-0.6-0.3-1.1-0.6-1.4c-0.3-0.4-0.6-0.6-1-0.8s-0.9-0.3-1.3-0.3
			C163.9,459.2,163.4,459.3,163,459.5z"/>
		<path class="st1" d="M184.2,457.3v11.3h-2.4v-6.2l-3,4.9h-1.4l-3-4.9v6.2H172v-11.3h2.1l3.9,6.4l3.9-6.4H184.2z"/>
		<path class="st1" d="M186.9,459.4c0-0.1,0.1-0.1,0.1-0.2s0.1-0.1,0.1-0.2c1-1.3,2.4-2,4.3-2c1.1,0,2,0.2,2.8,0.6s1.4,1,1.8,1.8
			c0.3,0.7,0.5,1.4,0.5,2.1v7.1h-2.1v-2.1c-0.1,0.3-0.4,0.7-0.7,1s-0.6,0.5-1,0.7c-0.8,0.4-1.6,0.7-2.6,0.7c-0.6,0-1.1-0.1-1.7-0.4
			c-0.5-0.3-1-0.6-1.3-1s-0.5-0.8-0.6-1.1c-0.1-0.3-0.2-0.7-0.2-1.1c0-0.6,0.2-1.2,0.5-1.7s0.7-0.9,1.3-1.3c0.5-0.3,0.9-0.4,1.4-0.5
			s1.1-0.2,1.9-0.3l0.7-0.1l2-0.3c-0.1-0.6-0.4-1-0.9-1.3c-0.4-0.3-1-0.5-1.8-0.5c-1,0-1.8,0.3-2.3,0.9c-0.1,0.2-0.2,0.3-0.3,0.3
			L186.9,459.4z M191.9,463.4c-0.7,0.1-1.2,0.2-1.6,0.3s-0.8,0.3-1,0.5c-0.3,0.2-0.4,0.5-0.4,0.9s0.2,0.8,0.5,1.1
			c0.3,0.3,0.8,0.5,1.3,0.5c0.7,0,1.4-0.2,2-0.6c0.7-0.4,1.1-0.9,1.3-1.5c0.1-0.3,0.2-0.5,0.2-0.8s0-0.5,0-0.9
			C193.8,463,193.1,463.2,191.9,463.4z"/>
		<path class="st1" d="M209.3,457.3v11.3H207v-4.7h-5.3v4.7h-2.4v-11.3h2.4v4.2h5.3v-4.2H209.3z"/>
		<path class="st1" d="M221.2,459.4h-3.8v9.2H215v-9.2h-3.8v-2.1h10V459.4z"/>
		<path class="st1" d="M233,468.6h-2.4v-7.5l-5.4,7.5h-2.1v-11.3h2.4v7.3l5.4-7.3h2.1V468.6z"/>
		<path class="st1" d="M245.5,457.3v11.3h-2.4V465c-0.4,0.3-0.9,0.6-1.4,0.8s-1.1,0.3-1.6,0.3c-0.6,0-1.1-0.1-1.7-0.3
			c-0.6-0.2-1-0.5-1.5-0.8c-0.7-0.6-1.1-1.2-1.3-2s-0.3-1.7-0.3-2.9v-2.8h2.4v2.8c0,0.7,0.1,1.3,0.2,1.8s0.4,0.9,0.8,1.2
			c0.5,0.4,1.1,0.6,1.9,0.6c0.6,0,1.2-0.2,1.5-0.6c0.5-0.4,0.8-0.9,0.9-1.6c0.1-0.4,0.1-1.1,0.1-2.2l0,0v-2.1h2.4V457.3z"/>
		<path class="st1" d="M251,465.6c0.3,0.3,0.6,0.6,1,0.8s0.9,0.3,1.3,0.3c0.5,0,0.9-0.1,1.3-0.3s0.7-0.5,1-0.8c0,0,0.1-0.2,0.3-0.5
			l2.3,1c-0.2,0.4-0.4,0.7-0.6,0.9c-0.5,0.6-1.1,1-1.8,1.3s-1.5,0.5-2.3,0.5c-0.9,0-1.7-0.2-2.5-0.5s-1.4-0.8-1.9-1.4
			c-0.9-1.1-1.3-2.4-1.3-4c0-1.7,0.4-3.1,1.3-4.2c0.5-0.6,1.1-1.1,1.9-1.4c0.7-0.3,1.5-0.5,2.4-0.5c0.8,0,1.6,0.2,2.4,0.5
			c0.7,0.3,1.3,0.8,1.8,1.4c0.9,1.1,1.3,2.4,1.3,4.1c0,0.2,0,0.4,0,0.6h-8.5C250.5,464.4,250.7,465.1,251,465.6z M252.1,459.5
			c-0.4,0.2-0.8,0.5-1,0.8c-0.3,0.4-0.5,0.8-0.6,1.4h5.9c-0.1-0.6-0.3-1.1-0.6-1.4c-0.3-0.4-0.6-0.6-1-0.8s-0.9-0.3-1.3-0.3
			C252.9,459.2,252.5,459.3,252.1,459.5z"/>
		<path class="st1" d="M268.8,460.8c-0.1-0.2-0.2-0.3-0.3-0.5c-0.3-0.4-0.6-0.6-1-0.8c-0.4-0.2-0.9-0.3-1.3-0.3
			c-0.5,0-0.9,0.1-1.3,0.3s-0.8,0.5-1,0.8c-0.5,0.6-0.7,1.5-0.7,2.6c0,1.2,0.3,2,0.7,2.6c0.3,0.3,0.6,0.6,1,0.8
			c0.4,0.2,0.9,0.3,1.3,0.3s0.9-0.1,1.3-0.3c0.4-0.2,0.7-0.4,1-0.8c0.1-0.1,0.2-0.3,0.3-0.5l2.2,1c-0.3,0.4-0.5,0.7-0.6,0.9
			c-0.5,0.6-1.1,1.1-1.9,1.4c-0.7,0.3-1.5,0.5-2.3,0.4c-0.8,0-1.6-0.1-2.3-0.4c-0.7-0.3-1.4-0.8-1.9-1.4c-0.9-1.1-1.3-2.4-1.3-4.1
			c0-1.6,0.4-3,1.3-4.1c0.5-0.6,1.1-1.1,1.9-1.4c0.7-0.3,1.5-0.5,2.3-0.5s1.6,0.2,2.4,0.5s1.4,0.8,1.9,1.4c0.3,0.3,0.5,0.6,0.6,1
			L268.8,460.8z"/>
		<path class="st1" d="M279.5,462.9l3.7,5.6h-2.6l-3.1-4.7h-1.9v4.7h-2.4v-11.3h2.4v4.7h1.9l2.9-4.7h2.6L279.5,462.9z"/>
		<path class="st1" d="M284.4,459.4c0-0.1,0.1-0.1,0.1-0.2s0.1-0.1,0.1-0.2c1-1.3,2.4-2,4.3-2c1.1,0,2,0.2,2.8,0.6s1.4,1,1.8,1.8
			c0.3,0.7,0.5,1.4,0.5,2.1v7.1h-2.1v-2.1c-0.1,0.3-0.4,0.7-0.7,1s-0.6,0.5-1,0.7c-0.8,0.4-1.6,0.7-2.6,0.7c-0.6,0-1.1-0.1-1.7-0.4
			c-0.5-0.3-1-0.6-1.3-1s-0.5-0.8-0.6-1.1c-0.1-0.3-0.2-0.7-0.2-1.1c0-0.6,0.2-1.2,0.5-1.7s0.7-0.9,1.3-1.3c0.5-0.3,0.9-0.4,1.4-0.5
			s1.1-0.2,1.9-0.3l0.7-0.1l2-0.3c-0.1-0.6-0.4-1-0.9-1.3c-0.4-0.3-1-0.5-1.8-0.5c-1,0-1.8,0.3-2.3,0.9c-0.1,0.2-0.2,0.3-0.3,0.3
			L284.4,459.4z M289.4,463.4c-0.7,0.1-1.2,0.2-1.6,0.3s-0.8,0.3-1,0.5c-0.3,0.2-0.4,0.5-0.4,0.9s0.2,0.8,0.5,1.1
			c0.3,0.3,0.8,0.5,1.3,0.5c0.7,0,1.4-0.2,2-0.6c0.7-0.4,1.1-0.9,1.3-1.5c0.1-0.3,0.2-0.5,0.2-0.8s0-0.5,0-0.9
			C291.4,463,290.6,463.2,289.4,463.4z"/>
		<path class="st1" d="M305.9,457.3v11.3h-2.4v-3.8h-2.8l-1.9,3.8h-2.7l2-4.2c-0.4-0.2-0.7-0.4-1-0.7c-0.3-0.3-0.6-0.7-0.8-1.2
			c-0.2-0.5-0.3-1-0.3-1.5s0.1-1,0.3-1.5c0.2-0.5,0.5-0.9,0.8-1.2c0.3-0.3,0.8-0.6,1.2-0.8c0.5-0.2,0.9-0.3,1.4-0.3h6.2V457.3z
			 M303.5,459.5H300c-0.4,0-0.7,0.2-1,0.5s-0.4,0.6-0.4,1s0.1,0.7,0.4,1s0.6,0.5,1,0.5h3.4v-3H303.5z"/>
		<path class="st1" d="M318.7,457.3c1.1,0,1.9,0.3,2.5,0.8c0.8,0.7,1.2,1.5,1.2,2.5c0,0.6-0.1,1.1-0.4,1.6c0,0.1-0.1,0.1-0.2,0.2
			s-0.1,0.2-0.2,0.2c0.4,0.3,0.7,0.6,0.9,1c0.3,0.5,0.5,1.1,0.5,1.7c0,0.5-0.1,1-0.3,1.4c-0.2,0.4-0.5,0.8-0.9,1.1
			c-0.3,0.2-0.6,0.4-1,0.5s-0.8,0.2-1.1,0.2h-6.5v-11.2L318.7,457.3z M315.5,462h3.2c0.5,0,0.8-0.2,1.1-0.5c0.2-0.3,0.3-0.6,0.3-0.9
			s-0.1-0.6-0.3-0.9c-0.1-0.2-0.3-0.3-0.4-0.4s-0.4-0.1-0.6-0.1h-3.2v2.8H315.5z M315.5,466.7h3.7c0.4,0,0.8-0.2,1.1-0.5
			c0.2-0.3,0.3-0.6,0.3-0.9s-0.1-0.7-0.3-0.9c-0.2-0.2-0.3-0.3-0.5-0.4s-0.4-0.1-0.7-0.1h-3.6V466.7z"/>
		<path class="st1" d="M327.9,465.6c0.3,0.3,0.6,0.6,1,0.8s0.9,0.3,1.3,0.3c0.5,0,0.9-0.1,1.3-0.3s0.7-0.5,1-0.8
			c0,0,0.1-0.2,0.3-0.5l2.3,1c-0.2,0.4-0.4,0.7-0.6,0.9c-0.5,0.6-1.1,1-1.8,1.3c-0.7,0.3-1.5,0.5-2.3,0.5c-0.9,0-1.7-0.2-2.5-0.5
			s-1.4-0.8-1.9-1.4c-0.9-1.1-1.3-2.4-1.3-4c0-1.7,0.4-3.1,1.3-4.2c0.5-0.6,1.1-1.1,1.9-1.4c0.7-0.3,1.5-0.5,2.4-0.5
			c0.8,0,1.6,0.2,2.4,0.5c0.7,0.3,1.3,0.8,1.8,1.4c0.9,1.1,1.3,2.4,1.3,4.1c0,0.2,0,0.4,0,0.6h-8.5
			C327.3,464.4,327.5,465.1,327.9,465.6z M328.9,459.5c-0.4,0.2-0.8,0.5-1,0.8c-0.3,0.4-0.5,0.8-0.6,1.4h5.9
			c-0.1-0.6-0.3-1.1-0.6-1.4c-0.3-0.4-0.6-0.6-1-0.8s-0.9-0.3-1.3-0.3C329.7,459.2,329.3,459.3,328.9,459.5z"/>
		<path class="st1" d="M348.5,460.7c0.2,0.7,0.3,1.5,0.3,2.3c0,1.7-0.4,3.1-1.3,4.1c-0.5,0.6-1,1-1.7,1.3s-1.4,0.5-2.2,0.5
			c-1.3,0-2.3-0.3-3.2-1v5.7H338v-16.3h2.1v1c0.5-0.4,1-0.7,1.6-0.9c0.6-0.2,1.2-0.3,1.8-0.3c0.8,0,1.5,0.2,2.2,0.5s1.3,0.8,1.7,1.3
			C347.9,459.3,348.3,460,348.5,460.7z M346.3,462.9c0-1.2-0.2-2.1-0.7-2.7c-0.5-0.8-1.3-1.1-2.4-1.1c-0.5,0-0.9,0.1-1.3,0.2
			c-0.4,0.2-0.7,0.4-1,0.7c-0.6,0.7-0.8,1.6-0.8,2.9c0,0.6,0.1,1.1,0.2,1.6s0.3,0.9,0.6,1.3c0.6,0.7,1.3,1,2.3,1
			c0.5,0,0.9-0.1,1.3-0.3s0.8-0.5,1-0.9C346.1,465,346.3,464.1,346.3,462.9z"/>
		<path class="st1" d="M358.6,460.8c-0.1-0.2-0.2-0.3-0.3-0.5c-0.3-0.4-0.6-0.6-1-0.8c-0.4-0.2-0.9-0.3-1.3-0.3
			c-0.5,0-0.9,0.1-1.3,0.3s-0.8,0.5-1,0.8c-0.5,0.6-0.7,1.5-0.7,2.6c0,1.2,0.3,2,0.7,2.6c0.3,0.3,0.6,0.6,1,0.8
			c0.4,0.2,0.9,0.3,1.3,0.3s0.9-0.1,1.3-0.3c0.4-0.2,0.7-0.4,1-0.8c0.1-0.1,0.2-0.3,0.3-0.5l2.2,1c-0.3,0.4-0.5,0.7-0.6,0.9
			c-0.5,0.6-1.1,1.1-1.9,1.4c-0.7,0.3-1.5,0.5-2.3,0.4c-0.8,0-1.6-0.1-2.3-0.4c-0.7-0.3-1.4-0.8-1.9-1.4c-0.9-1.1-1.3-2.4-1.3-4.1
			c0-1.6,0.4-3,1.3-4.1c0.5-0.6,1.1-1.1,1.9-1.4c0.7-0.3,1.5-0.5,2.3-0.5s1.6,0.2,2.4,0.5s1.4,0.8,1.9,1.4c0.3,0.3,0.5,0.6,0.6,1
			L358.6,460.8z"/>
		<path class="st1" d="M372,459.4h-3.8v9.2h-2.3v-9.2h-3.8v-2.1h10v2.1H372z"/>
		<path class="st1" d="M380.3,462.9l3.7,5.6h-2.6l-3.1-4.7h-1.9v4.7H374v-11.3h2.4v4.7h1.9l2.9-4.7h2.6L380.3,462.9z"/>
		<path class="st1" d="M385.2,459.4c0-0.1,0.1-0.1,0.1-0.2s0.1-0.1,0.1-0.2c1-1.3,2.4-2,4.3-2c1.1,0,2,0.2,2.8,0.6s1.4,1,1.8,1.8
			c0.3,0.7,0.5,1.4,0.5,2.1v7.1h-2.1v-2.1c-0.1,0.3-0.4,0.7-0.7,1s-0.6,0.5-1,0.7c-0.8,0.4-1.6,0.7-2.6,0.7c-0.6,0-1.1-0.1-1.7-0.4
			c-0.5-0.3-1-0.6-1.3-1s-0.5-0.8-0.6-1.1c-0.1-0.3-0.2-0.7-0.2-1.1c0-0.6,0.2-1.2,0.5-1.7s0.7-0.9,1.3-1.3c0.5-0.3,0.9-0.4,1.4-0.5
			s1.1-0.2,1.9-0.3l0.7-0.1l2-0.3c-0.1-0.6-0.4-1-0.9-1.3c-0.4-0.3-1-0.5-1.8-0.5c-1,0-1.8,0.3-2.3,0.9c-0.1,0.2-0.2,0.3-0.3,0.3
			L385.2,459.4z M390.3,463.4c-0.7,0.1-1.2,0.2-1.6,0.3s-0.8,0.3-1,0.5c-0.3,0.2-0.4,0.5-0.4,0.9s0.2,0.8,0.5,1.1
			c0.3,0.3,0.8,0.5,1.3,0.5c0.7,0,1.4-0.2,2-0.6c0.7-0.4,1.1-0.9,1.3-1.5c0.1-0.3,0.2-0.5,0.2-0.8s0-0.5,0-0.9
			C392.2,463,391.4,463.2,390.3,463.4z"/>
	</g>
</g>
<g>
	<path class="st10" d="M62.1,510.7l4.2-4.2l1,1l-3.3,3.3l3.3,3.3l-1,1L62.1,510.7z"/>
	<path class="st10" d="M80.5,508.3c0.2,0.6,0.3,1.5,0.3,2.4v4.7h-2v-4.7c0-0.6-0.1-1.1-0.2-1.6s-0.3-0.8-0.6-1.1
		c-0.4-0.3-0.9-0.5-1.5-0.5c-0.5,0-1,0.2-1.4,0.5s-0.7,0.8-0.8,1.4c-0.1,0.4-0.1,1-0.1,1.9v4.2h-2v-12.8H74v4l0.1-0.1
		c0.4-0.3,0.8-0.6,1.3-0.8c0.5-0.2,1-0.2,1.5-0.2s0.9,0.1,1.4,0.2c0.5,0.2,0.9,0.4,1.2,0.7C80,507.1,80.4,507.6,80.5,508.3z"/>
	<path class="st10" d="M85.1,512.9c0.2,0.3,0.5,0.5,0.9,0.7s0.7,0.2,1.1,0.2s0.8-0.1,1.1-0.2c0.3-0.2,0.6-0.4,0.9-0.7
		c0,0,0.1-0.2,0.2-0.4l2,0.8c-0.2,0.3-0.3,0.6-0.5,0.8c-0.4,0.5-1,0.9-1.6,1.1s-1.2,0.4-1.9,0.4c-0.8,0-1.5-0.1-2.1-0.4
		c-0.7-0.3-1.2-0.7-1.6-1.2c-0.8-0.9-1.1-2.1-1.1-3.4c0-1.5,0.4-2.6,1.1-3.6c0.4-0.5,1-0.9,1.6-1.2c0.6-0.3,1.3-0.4,2-0.4
		s1.4,0.1,2,0.4s1.1,0.7,1.6,1.2c0.8,0.9,1.1,2.1,1.1,3.5c0,0.1,0,0.3,0,0.5h-7.3C84.6,512,84.8,512.5,85.1,512.9z M86,507.7
		c-0.4,0.2-0.6,0.4-0.9,0.7c-0.2,0.3-0.4,0.7-0.5,1.2h5c-0.1-0.5-0.3-0.9-0.5-1.2c-0.2-0.3-0.5-0.5-0.9-0.7
		c-0.3-0.2-0.7-0.2-1.1-0.2S86.4,507.6,86,507.7z"/>
	<path class="st10" d="M93.4,507.7c0,0,0.1-0.1,0.1-0.2s0.1-0.1,0.1-0.2c0.8-1.1,2-1.7,3.6-1.7c0.9,0,1.7,0.2,2.4,0.5
		c0.7,0.3,1.2,0.8,1.6,1.5c0.3,0.6,0.4,1.2,0.4,1.8v6h-1.8v-1.8c-0.1,0.3-0.3,0.6-0.6,0.8c-0.3,0.2-0.5,0.5-0.8,0.6
		c-0.6,0.4-1.4,0.6-2.2,0.6c-0.5,0-1-0.1-1.4-0.3c-0.4-0.2-0.8-0.5-1.1-0.8c-0.2-0.3-0.4-0.7-0.5-0.9c-0.1-0.2-0.2-0.6-0.2-1
		c0-0.5,0.1-1,0.4-1.4s0.6-0.8,1.1-1.1c0.4-0.2,0.8-0.4,1.2-0.5c0.4-0.1,0.9-0.2,1.6-0.3l0.6-0.1l1.7-0.2c-0.1-0.5-0.3-0.9-0.7-1.1
		c-0.4-0.3-0.9-0.4-1.5-0.4c-0.9,0-1.5,0.2-1.9,0.7c-0.1,0.1-0.2,0.2-0.2,0.3L93.4,507.7z M97.7,511.1c-0.6,0.1-1,0.2-1.4,0.3
		c-0.3,0.1-0.6,0.2-0.9,0.4c-0.2,0.2-0.4,0.5-0.4,0.8c0,0.4,0.1,0.7,0.4,0.9c0.3,0.3,0.7,0.4,1.1,0.4c0.6,0,1.2-0.2,1.7-0.5
		c0.6-0.3,0.9-0.7,1.1-1.3c0.1-0.2,0.2-0.5,0.2-0.7s0-0.5,0-0.7C99.3,510.8,98.7,510.9,97.7,511.1z"/>
	<path class="st10" d="M112.6,502.7v12.8h-1.8v-0.8c-0.4,0.4-0.8,0.6-1.3,0.8c-0.5,0.2-1.1,0.3-1.6,0.3c-0.6,0-1.3-0.1-1.8-0.4
		c-0.6-0.3-1.1-0.6-1.5-1.1c-0.7-0.9-1.1-2.1-1.1-3.5c0-0.7,0.1-1.3,0.3-1.9c0.2-0.6,0.5-1.1,0.8-1.6c0.4-0.5,0.9-0.9,1.5-1.1
		s1.2-0.4,1.9-0.4c0.5,0,1,0.1,1.4,0.2s0.9,0.4,1.2,0.7v-3.8h2V502.7z M110.6,512c0.1-0.4,0.2-0.9,0.2-1.4c0-1.1-0.2-1.9-0.7-2.4
		c-0.2-0.3-0.5-0.5-0.8-0.6s-0.7-0.2-1.1-0.2c-0.9,0-1.6,0.3-2,1c-0.2,0.3-0.4,0.6-0.5,1s-0.2,0.8-0.2,1.3c0,1,0.2,1.8,0.6,2.3
		c0.2,0.3,0.5,0.6,0.9,0.7c0.4,0.2,0.7,0.2,1.2,0.2c0.4,0,0.8-0.1,1.1-0.2c0.3-0.1,0.6-0.3,0.9-0.6
		C110.3,512.8,110.5,512.5,110.6,512z"/>
	<path class="st10" d="M117.2,512.9c0.2,0.3,0.5,0.5,0.9,0.7s0.7,0.2,1.1,0.2s0.8-0.1,1.1-0.2c0.3-0.2,0.6-0.4,0.9-0.7
		c0,0,0.1-0.2,0.2-0.4l2,0.8c-0.2,0.3-0.3,0.6-0.5,0.8c-0.4,0.5-1,0.9-1.6,1.1s-1.2,0.4-1.9,0.4c-0.8,0-1.5-0.1-2.1-0.4
		c-0.7-0.3-1.2-0.7-1.6-1.2c-0.8-0.9-1.1-2.1-1.1-3.4c0-1.5,0.4-2.6,1.1-3.6c0.4-0.5,1-0.9,1.6-1.2c0.6-0.3,1.3-0.4,2-0.4
		s1.4,0.1,2,0.4s1.1,0.7,1.6,1.2c0.8,0.9,1.1,2.1,1.1,3.5c0,0.1,0,0.3,0,0.5h-7.3C116.7,512,116.9,512.5,117.2,512.9z M118.1,507.7
		c-0.4,0.2-0.6,0.4-0.9,0.7c-0.2,0.3-0.4,0.7-0.5,1.2h5c-0.1-0.5-0.3-0.9-0.5-1.2c-0.2-0.3-0.5-0.5-0.9-0.7
		c-0.3-0.2-0.7-0.2-1.1-0.2C118.8,507.5,118.5,507.6,118.1,507.7z"/>
	<path class="st10" d="M132,505.9v1.9c-0.4-0.2-0.8-0.2-1.4-0.2c-0.9,0-1.5,0.2-1.9,0.7c-0.3,0.3-0.5,0.6-0.6,1s-0.2,0.8-0.2,1.4
		v4.9h-2V506h1.8v1.4c0.2-0.4,0.5-0.7,0.9-1c0.5-0.4,1.1-0.6,1.9-0.6C131,505.6,131.4,505.7,132,505.9z"/>
	<path class="st10" d="M136,513.9l3.3-3.3l-3.3-3.3l1-1l4.3,4.2l-4.3,4.2L136,513.9z"/>
	<path class="st11" d="M158.9,502.7v12.8h-13.8v-12.8h2v10.7h3.9v-10.7h2v10.7h3.9v-10.7H158.9z"/>
	<path class="st11" d="M161.3,507.7c0,0,0.1-0.1,0.1-0.2s0.1-0.1,0.1-0.2c0.8-1.1,2-1.7,3.6-1.7c0.9,0,1.7,0.2,2.4,0.5
		s1.2,0.8,1.6,1.5c0.3,0.6,0.4,1.2,0.4,1.8v6h-1.8v-1.8c-0.1,0.3-0.3,0.6-0.6,0.8c-0.3,0.2-0.5,0.5-0.8,0.6
		c-0.6,0.4-1.4,0.6-2.2,0.6c-0.5,0-1-0.1-1.4-0.3c-0.4-0.2-0.8-0.5-1.1-0.8c-0.2-0.3-0.4-0.7-0.5-0.9c-0.1-0.2-0.2-0.6-0.2-1
		c0-0.5,0.1-1,0.4-1.4c0.3-0.4,0.6-0.8,1.1-1.1c0.4-0.2,0.8-0.4,1.2-0.5s0.9-0.2,1.6-0.3l0.6-0.1l1.7-0.2c-0.1-0.5-0.3-0.9-0.7-1.1
		c-0.4-0.3-0.9-0.4-1.5-0.4c-0.9,0-1.5,0.2-1.9,0.7c-0.1,0.1-0.2,0.2-0.2,0.3L161.3,507.7z M165.6,511.1c-0.6,0.1-1,0.2-1.4,0.3
		c-0.3,0.1-0.6,0.2-0.9,0.4c-0.2,0.2-0.4,0.5-0.4,0.8c0,0.4,0.1,0.7,0.4,0.9c0.3,0.3,0.7,0.4,1.1,0.4c0.6,0,1.2-0.2,1.7-0.5
		c0.6-0.3,0.9-0.7,1.1-1.3c0.1-0.2,0.2-0.5,0.2-0.7s0-0.5,0-0.7C167.3,510.8,166.6,510.9,165.6,511.1z"/>
	<path class="st11" d="M180.3,515.5h-2v-7.6h-4.5v7.6h-2v-9.6h8.5V515.5z"/>
	<path class="st11" d="M188.2,510.7l3.1,4.8h-2.2l-2.6-4h-1.6v4h-2v-9.6h2v4h1.6l2.5-4h2.2L188.2,510.7z"/>
	<path class="st11" d="M192.4,507.7c0,0,0.1-0.1,0.1-0.2s0.1-0.1,0.1-0.2c0.8-1.1,2-1.7,3.6-1.7c0.9,0,1.7,0.2,2.4,0.5
		s1.2,0.8,1.6,1.5c0.3,0.6,0.4,1.2,0.4,1.8v6h-1.8v-1.8c-0.1,0.3-0.3,0.6-0.6,0.8c-0.3,0.2-0.5,0.5-0.8,0.6
		c-0.6,0.4-1.4,0.6-2.2,0.6c-0.5,0-1-0.1-1.4-0.3c-0.4-0.2-0.8-0.5-1.1-0.8c-0.2-0.3-0.4-0.7-0.5-0.9c-0.1-0.2-0.2-0.6-0.2-1
		c0-0.5,0.1-1,0.4-1.4c0.3-0.4,0.6-0.8,1.1-1.1c0.4-0.2,0.8-0.4,1.2-0.5s0.9-0.2,1.6-0.3l0.6-0.1l1.7-0.2c-0.1-0.5-0.3-0.9-0.7-1.1
		c-0.4-0.3-0.9-0.4-1.5-0.4c-0.9,0-1.5,0.2-1.9,0.7c-0.1,0.1-0.2,0.2-0.2,0.3L192.4,507.7z M196.7,511.1c-0.6,0.1-1,0.2-1.4,0.3
		c-0.3,0.1-0.6,0.2-0.9,0.4c-0.2,0.2-0.4,0.5-0.4,0.8c0,0.4,0.1,0.7,0.4,0.9c0.3,0.3,0.7,0.4,1.1,0.4c0.6,0,1.2-0.2,1.7-0.5
		c0.6-0.3,0.9-0.7,1.1-1.3c0.1-0.2,0.2-0.5,0.2-0.7s0-0.5,0-0.7C198.3,510.8,197.6,510.9,196.7,511.1z"/>
	<path class="st11" d="M213.1,508.8c-0.1-0.1-0.2-0.3-0.2-0.4c-0.2-0.3-0.5-0.5-0.9-0.7s-0.7-0.2-1.1-0.2c-0.4,0-0.8,0.1-1.1,0.2
		c-0.4,0.2-0.6,0.4-0.9,0.7c-0.4,0.5-0.6,1.3-0.6,2.3s0.2,1.7,0.6,2.2c0.2,0.3,0.5,0.5,0.8,0.7s0.7,0.2,1.1,0.2
		c0.4,0,0.8-0.1,1.1-0.2c0.3-0.2,0.6-0.4,0.9-0.7c0.1-0.1,0.2-0.2,0.2-0.4l1.9,0.8c-0.2,0.4-0.4,0.6-0.5,0.8c-0.4,0.5-1,0.9-1.6,1.2
		s-1.3,0.4-2,0.4s-1.4-0.1-2-0.4s-1.2-0.7-1.6-1.2c-0.8-0.9-1.1-2.1-1.1-3.5s0.4-2.5,1.1-3.5c0.4-0.5,1-0.9,1.6-1.2
		c0.6-0.3,1.3-0.4,2-0.4s1.4,0.1,2,0.4s1.2,0.7,1.6,1.2c0.2,0.3,0.4,0.5,0.5,0.8L213.1,508.8z"/>
	<path class="st11" d="M216.6,507.7c0,0,0.1-0.1,0.1-0.2s0.1-0.1,0.1-0.2c0.8-1.1,2-1.7,3.6-1.7c0.9,0,1.7,0.2,2.4,0.5
		s1.2,0.8,1.6,1.5c0.3,0.6,0.4,1.2,0.4,1.8v6H223v-1.8c-0.1,0.3-0.3,0.6-0.6,0.8c-0.3,0.2-0.5,0.5-0.8,0.6c-0.6,0.4-1.4,0.6-2.2,0.6
		c-0.5,0-1-0.1-1.4-0.3c-0.4-0.2-0.8-0.5-1.1-0.8c-0.2-0.3-0.4-0.7-0.5-0.9c-0.1-0.2-0.2-0.6-0.2-1c0-0.5,0.1-1,0.4-1.4
		c0.3-0.4,0.6-0.8,1.1-1.1c0.4-0.2,0.8-0.4,1.2-0.5s0.9-0.2,1.6-0.3l0.6-0.1l1.7-0.2c-0.1-0.5-0.3-0.9-0.7-1.1
		c-0.4-0.3-0.9-0.4-1.5-0.4c-0.9,0-1.5,0.2-1.9,0.7c-0.1,0.1-0.2,0.2-0.2,0.3L216.6,507.7z M220.9,511.1c-0.6,0.1-1,0.2-1.4,0.3
		c-0.3,0.1-0.6,0.2-0.9,0.4c-0.2,0.2-0.4,0.5-0.4,0.8c0,0.4,0.1,0.7,0.4,0.9c0.3,0.3,0.7,0.4,1.1,0.4c0.6,0,1.2-0.2,1.7-0.5
		c0.6-0.3,0.9-0.7,1.1-1.3c0.1-0.2,0.2-0.5,0.2-0.7s0-0.5,0-0.7C222.5,510.8,221.9,510.9,220.9,511.1z"/>
	<path class="st11" d="M235.6,515.5h-2v-6.4l-4.6,6.4h-1.8v-9.6h2v6.2l4.6-6.2h1.8V515.5z M234.2,502.2c0,0.5-0.1,0.9-0.4,1.3
		c-0.2,0.4-0.6,0.7-1,1c-0.4,0.2-0.8,0.4-1.3,0.4s-0.9-0.1-1.3-0.4s-0.7-0.6-0.9-1s-0.4-0.8-0.4-1.3h1.6c0,0.3,0.1,0.5,0.3,0.7
		s0.5,0.3,0.7,0.3c0.3,0,0.5-0.1,0.8-0.3c0.2-0.2,0.3-0.4,0.3-0.7H234.2z"/>
	<path class="st11" d="M245.7,507.7h-3.2v7.8h-2v-7.8h-3.2v-1.8h8.5v1.8H245.7z"/>
	<path class="st11" d="M246.8,507.7c0,0,0.1-0.1,0.1-0.2s0.1-0.1,0.1-0.2c0.8-1.1,2-1.7,3.6-1.7c0.9,0,1.7,0.2,2.4,0.5
		s1.2,0.8,1.6,1.5c0.3,0.6,0.4,1.2,0.4,1.8v6h-1.8v-1.8c-0.1,0.3-0.3,0.6-0.6,0.8c-0.3,0.2-0.5,0.5-0.8,0.6
		c-0.6,0.4-1.4,0.6-2.2,0.6c-0.5,0-1-0.1-1.4-0.3c-0.4-0.2-0.8-0.5-1.1-0.8c-0.2-0.3-0.4-0.7-0.5-0.9c-0.1-0.2-0.2-0.6-0.2-1
		c0-0.5,0.1-1,0.4-1.4c0.3-0.4,0.6-0.8,1.1-1.1c0.4-0.2,0.8-0.4,1.2-0.5s0.9-0.2,1.6-0.3l0.6-0.1l1.7-0.2c-0.1-0.5-0.3-0.9-0.7-1.1
		c-0.4-0.3-0.9-0.4-1.5-0.4c-0.9,0-1.5,0.2-1.9,0.7c-0.1,0.1-0.2,0.2-0.2,0.3L246.8,507.7z M251.1,511.1c-0.6,0.1-1,0.2-1.4,0.3
		c-0.3,0.1-0.6,0.2-0.9,0.4c-0.2,0.2-0.4,0.5-0.4,0.8c0,0.4,0.1,0.7,0.4,0.9c0.3,0.3,0.7,0.4,1.1,0.4c0.6,0,1.2-0.2,1.7-0.5
		c0.6-0.3,0.9-0.7,1.1-1.3c0.1-0.2,0.2-0.5,0.2-0.7s0-0.5,0-0.7C252.8,510.8,252.1,510.9,251.1,511.1z"/>
	<path class="st10" d="M258.6,510.7l4.2-4.2l1,1l-3.3,3.3l3.3,3.3l-1,1L258.6,510.7z"/>
	<path class="st10" d="M273.8,502.7l-3.4,12.8h-2l3.4-12.8H273.8z"/>
	<path class="st10" d="M284.6,508.3c0.2,0.6,0.3,1.5,0.3,2.4v4.7h-2v-4.7c0-0.6-0.1-1.1-0.2-1.6s-0.3-0.8-0.6-1.1
		c-0.4-0.3-0.9-0.5-1.5-0.5c-0.5,0-1,0.2-1.4,0.5s-0.7,0.8-0.8,1.4c-0.1,0.4-0.1,1-0.1,1.9v4.2h-2v-12.8h1.8v4l0.1-0.1
		c0.4-0.3,0.8-0.6,1.3-0.8c0.5-0.2,1-0.2,1.5-0.2s0.9,0.1,1.4,0.2c0.5,0.2,0.9,0.4,1.2,0.7C284,507.1,284.4,507.6,284.6,508.3z"/>
	<path class="st10" d="M289.1,512.9c0.2,0.3,0.5,0.5,0.9,0.7s0.7,0.2,1.1,0.2s0.8-0.1,1.1-0.2c0.3-0.2,0.6-0.4,0.9-0.7
		c0,0,0.1-0.2,0.2-0.4l2,0.8c-0.2,0.3-0.3,0.6-0.5,0.8c-0.4,0.5-1,0.9-1.6,1.1c-0.6,0.3-1.2,0.4-1.9,0.4c-0.8,0-1.5-0.1-2.1-0.4
		c-0.7-0.3-1.2-0.7-1.6-1.2c-0.8-0.9-1.1-2.1-1.1-3.4c0-1.5,0.4-2.6,1.1-3.6c0.4-0.5,1-0.9,1.6-1.2c0.6-0.3,1.3-0.4,2-0.4
		s1.4,0.1,2,0.4s1.1,0.7,1.6,1.2c0.8,0.9,1.1,2.1,1.1,3.5c0,0.1,0,0.3,0,0.5h-7.3C288.6,512,288.8,512.5,289.1,512.9z M290,507.7
		c-0.4,0.2-0.6,0.4-0.9,0.7c-0.2,0.3-0.4,0.7-0.5,1.2h5c-0.1-0.5-0.3-0.9-0.5-1.2c-0.2-0.3-0.5-0.5-0.9-0.7
		c-0.3-0.2-0.7-0.2-1.1-0.2S290.4,507.6,290,507.7z"/>
	<path class="st10" d="M297.4,507.7c0,0,0.1-0.1,0.1-0.2s0.1-0.1,0.1-0.2c0.8-1.1,2-1.7,3.6-1.7c0.9,0,1.7,0.2,2.4,0.5
		c0.7,0.3,1.2,0.8,1.6,1.5c0.3,0.6,0.4,1.2,0.4,1.8v6h-1.8v-1.8c-0.1,0.3-0.3,0.6-0.6,0.8c-0.3,0.2-0.5,0.5-0.8,0.6
		c-0.6,0.4-1.4,0.6-2.2,0.6c-0.5,0-1-0.1-1.4-0.3c-0.5-0.2-0.8-0.5-1.1-0.8c-0.2-0.3-0.4-0.7-0.5-0.9c-0.1-0.3-0.2-0.6-0.2-1
		c0-0.5,0.1-1,0.4-1.4s0.6-0.8,1.1-1.1c0.4-0.2,0.8-0.4,1.2-0.5c0.4-0.1,0.9-0.2,1.6-0.3l0.6-0.1l1.7-0.2c-0.1-0.5-0.3-0.9-0.7-1.1
		c-0.4-0.3-0.9-0.4-1.5-0.4c-0.9,0-1.5,0.2-1.9,0.7c-0.1,0.1-0.2,0.2-0.2,0.3L297.4,507.7z M301.7,511.1c-0.6,0.1-1,0.2-1.4,0.3
		c-0.3,0.1-0.6,0.2-0.9,0.4c-0.2,0.2-0.4,0.5-0.4,0.8c0,0.4,0.1,0.7,0.4,0.9c0.3,0.3,0.7,0.4,1.1,0.4c0.6,0,1.2-0.2,1.7-0.5
		c0.6-0.3,0.9-0.7,1.1-1.3c0.1-0.2,0.2-0.5,0.2-0.7s0-0.5,0-0.7C303.4,510.8,302.7,510.9,301.7,511.1z"/>
	<path class="st10" d="M316.6,502.7v12.8h-1.8v-0.8c-0.4,0.4-0.8,0.6-1.3,0.8c-0.5,0.2-1.1,0.3-1.6,0.3c-0.6,0-1.3-0.1-1.8-0.4
		c-0.6-0.3-1.1-0.6-1.5-1.1c-0.7-0.9-1.1-2.1-1.1-3.5c0-0.7,0.1-1.3,0.3-1.9c0.2-0.6,0.5-1.1,0.8-1.6c0.4-0.5,0.9-0.9,1.5-1.1
		c0.6-0.3,1.2-0.4,1.9-0.4c0.5,0,1,0.1,1.4,0.2c0.5,0.2,0.9,0.4,1.2,0.7v-3.8h2V502.7z M314.6,512c0.1-0.4,0.2-0.9,0.2-1.4
		c0-1.1-0.2-1.9-0.7-2.4c-0.2-0.3-0.5-0.5-0.8-0.6s-0.7-0.2-1.1-0.2c-0.9,0-1.6,0.3-2,1c-0.2,0.3-0.4,0.6-0.5,1s-0.2,0.8-0.2,1.3
		c0,1,0.2,1.8,0.6,2.3c0.2,0.3,0.5,0.6,0.9,0.7c0.4,0.2,0.7,0.2,1.2,0.2c0.4,0,0.8-0.1,1.1-0.2c0.3-0.1,0.6-0.3,0.8-0.6
		C314.3,512.8,314.5,512.5,314.6,512z"/>
	<path class="st10" d="M321.3,512.9c0.2,0.3,0.5,0.5,0.9,0.7s0.7,0.2,1.1,0.2s0.8-0.1,1.1-0.2c0.3-0.2,0.6-0.4,0.9-0.7
		c0,0,0.1-0.2,0.2-0.4l2,0.8c-0.2,0.3-0.3,0.6-0.5,0.8c-0.4,0.5-1,0.9-1.6,1.1c-0.6,0.3-1.2,0.4-1.9,0.4c-0.8,0-1.5-0.1-2.1-0.4
		c-0.7-0.3-1.2-0.7-1.6-1.2c-0.8-0.9-1.1-2.1-1.1-3.4c0-1.5,0.4-2.6,1.1-3.6c0.4-0.5,1-0.9,1.6-1.2c0.6-0.3,1.3-0.4,2-0.4
		s1.4,0.1,2,0.4s1.1,0.7,1.6,1.2c0.8,0.9,1.1,2.1,1.1,3.5c0,0.1,0,0.3,0,0.5h-7.3C320.8,512,320.9,512.5,321.3,512.9z M322.1,507.7
		c-0.4,0.2-0.6,0.4-0.9,0.7c-0.2,0.3-0.4,0.7-0.5,1.2h5c-0.1-0.5-0.3-0.9-0.5-1.2c-0.2-0.3-0.5-0.5-0.9-0.7
		c-0.3-0.2-0.7-0.2-1.1-0.2C322.9,507.5,322.5,507.6,322.1,507.7z"/>
	<path class="st10" d="M336,505.9v1.9c-0.4-0.2-0.8-0.2-1.4-0.2c-0.9,0-1.5,0.2-1.9,0.7c-0.3,0.3-0.5,0.6-0.6,1s-0.2,0.8-0.2,1.4
		v4.9h-2V506h1.8v1.4c0.2-0.4,0.5-0.7,0.9-1c0.5-0.4,1.1-0.6,1.9-0.6C335,505.6,335.5,505.7,336,505.9z"/>
	<path class="st10" d="M340,513.9l3.3-3.3l-3.3-3.3l1-1l4.3,4.2l-4.3,4.2L340,513.9z"/>
	<path class="st10" d="M62.1,531.1l4.2-4.2l1,1l-3.3,3.3l3.3,3.3l-1,1L62.1,531.1z"/>
	<path class="st10" d="M80.5,528.7c0.2,0.6,0.3,1.5,0.3,2.4v4.7h-2v-4.7c0-0.6-0.1-1.1-0.2-1.6s-0.3-0.8-0.6-1.1
		c-0.4-0.3-0.9-0.5-1.5-0.5c-0.5,0-1,0.2-1.4,0.5s-0.7,0.8-0.8,1.4c-0.1,0.4-0.1,1-0.1,1.9v4.2h-2v-9.6H74v0.8l0.1-0.1
		c0.4-0.3,0.8-0.6,1.3-0.8s1-0.2,1.5-0.2s0.9,0.1,1.4,0.2c0.5,0.2,0.9,0.4,1.2,0.7C80,527.5,80.4,528,80.5,528.7z"/>
	<path class="st10" d="M82.7,528.1c0,0,0.1-0.1,0.1-0.2c0-0.1,0.1-0.1,0.1-0.2c0.8-1.1,2-1.7,3.6-1.7c0.9,0,1.7,0.2,2.4,0.5
		c0.7,0.3,1.2,0.8,1.6,1.5c0.3,0.6,0.4,1.2,0.4,1.8v6h-1.8V534c-0.1,0.3-0.3,0.6-0.6,0.8s-0.5,0.5-0.8,0.6c-0.6,0.4-1.4,0.6-2.2,0.6
		c-0.5,0-1-0.1-1.4-0.3s-0.8-0.5-1.1-0.8c-0.2-0.3-0.4-0.7-0.5-0.9s-0.2-0.6-0.2-1c0-0.5,0.1-1,0.4-1.4s0.6-0.8,1.1-1.1
		c0.4-0.2,0.8-0.4,1.2-0.5c0.4-0.1,0.9-0.2,1.6-0.3l0.6-0.1l1.7-0.2c-0.1-0.5-0.3-0.9-0.7-1.1c-0.4-0.3-0.9-0.4-1.5-0.4
		c-0.9,0-1.5,0.2-1.9,0.7c-0.1,0.1-0.2,0.2-0.2,0.3L82.7,528.1z M87,531.5c-0.6,0.1-1,0.2-1.4,0.3c-0.3,0.1-0.6,0.2-0.9,0.4
		c-0.2,0.2-0.4,0.5-0.4,0.8c0,0.4,0.1,0.7,0.4,0.9c0.3,0.3,0.7,0.4,1.1,0.4c0.6,0,1.2-0.2,1.7-0.5c0.6-0.3,0.9-0.7,1.1-1.3
		c0.1-0.2,0.2-0.5,0.2-0.7s0-0.5,0-0.7C88.7,531.2,88,531.3,87,531.5z"/>
	<path class="st10" d="M101.2,526.3l-3.5,9.6h-2l-3.5-9.6h2l2.5,7.1l2.5-7.1H101.2z"/>
	<path class="st10" d="M105,534.3l3.3-3.3l-3.3-3.3l1-1l4.3,4.2l-4.3,4.2L105,534.3z"/>
	<path class="st11" d="M126,525.1h-6.2v10.8h-2v-12.8h8.2V525.1z"/>
	<path class="st11" d="M134.3,526.3v9.6h-1.9v-7.8h-3.2l-0.6,4.6c-0.1,1.1-0.4,1.9-0.8,2.5s-1.1,0.8-1.9,0.8c-0.3,0-0.5,0-0.6,0
		v-1.8c0.4,0,0.7-0.1,0.9-0.2c0.2-0.1,0.3-0.3,0.4-0.6c0.1-0.2,0.1-0.6,0.2-1.1l0.7-5.9L134.3,526.3L134.3,526.3z"/>
	<path class="st11" d="M136.6,528.1c0,0,0.1-0.1,0.1-0.2c0-0.1,0.1-0.1,0.1-0.2c0.8-1.1,2-1.7,3.6-1.7c0.9,0,1.7,0.2,2.4,0.5
		s1.2,0.8,1.6,1.5c0.3,0.6,0.4,1.2,0.4,1.8v6H143V534c-0.1,0.3-0.3,0.6-0.6,0.8s-0.5,0.5-0.8,0.6c-0.6,0.4-1.4,0.6-2.2,0.6
		c-0.5,0-1-0.1-1.4-0.3s-0.8-0.5-1.1-0.8c-0.2-0.3-0.4-0.7-0.5-0.9s-0.2-0.6-0.2-1c0-0.5,0.1-1,0.4-1.4c0.3-0.4,0.6-0.8,1.1-1.1
		c0.4-0.2,0.8-0.4,1.2-0.5s0.9-0.2,1.6-0.3l0.6-0.1l1.7-0.2c-0.1-0.5-0.3-0.9-0.7-1.1c-0.4-0.3-0.9-0.4-1.5-0.4
		c-0.9,0-1.5,0.2-1.9,0.7c-0.1,0.1-0.2,0.2-0.2,0.3L136.6,528.1z M140.8,531.5c-0.6,0.1-1,0.2-1.4,0.3c-0.3,0.1-0.6,0.2-0.9,0.4
		c-0.2,0.2-0.4,0.5-0.4,0.8c0,0.4,0.1,0.7,0.4,0.9c0.3,0.3,0.7,0.4,1.1,0.4c0.6,0,1.2-0.2,1.7-0.5c0.6-0.3,0.9-0.7,1.1-1.3
		c0.1-0.2,0.2-0.5,0.2-0.7s0-0.5,0-0.7C142.5,531.2,141.8,531.3,140.8,531.5z"/>
	<path class="st11" d="M151.9,526.3c0.9,0,1.6,0.2,2.1,0.7c0.7,0.6,1,1.3,1,2.1c0,0.5-0.1,1-0.4,1.4c0,0-0.1,0.1-0.1,0.2
		c-0.1,0.1-0.1,0.1-0.2,0.2c0.3,0.3,0.6,0.5,0.7,0.8c0.3,0.4,0.4,0.9,0.4,1.4c0,0.4-0.1,0.8-0.3,1.2s-0.4,0.7-0.8,1
		c-0.2,0.2-0.5,0.3-0.9,0.5c-0.3,0.1-0.6,0.2-0.9,0.2h-5.6v-9.5L151.9,526.3z M149.1,530.3h2.7c0.4,0,0.7-0.1,0.9-0.4
		c0.2-0.2,0.2-0.5,0.2-0.8s-0.1-0.5-0.2-0.8c-0.1-0.2-0.2-0.3-0.4-0.3c-0.1-0.1-0.3-0.1-0.5-0.1h-2.7V530.3z M149.1,534.3h3.2
		c0.4,0,0.7-0.1,0.9-0.4c0.2-0.2,0.2-0.5,0.2-0.8s-0.1-0.6-0.2-0.8c-0.1-0.2-0.3-0.3-0.4-0.3c-0.1-0.1-0.3-0.1-0.6-0.1h-3.1
		L149.1,534.3L149.1,534.3z"/>
	<path class="st11" d="M165.9,526.3v9.6h-2v-4h-4.5v4h-2v-9.6h2v3.6h4.5v-3.6H165.9z"/>
	<path class="st11" d="M170.6,535.7c-0.6-0.3-1.2-0.7-1.6-1.2c-0.8-0.9-1.1-2.1-1.1-3.5c0-0.7,0.1-1.3,0.3-1.9
		c0.2-0.6,0.5-1.1,0.9-1.6s0.9-0.9,1.6-1.2c0.6-0.3,1.3-0.4,2-0.4s1.4,0.1,2,0.4c0.6,0.3,1.2,0.7,1.6,1.2c0.8,0.9,1.2,2.1,1.2,3.5
		c0,0.7-0.1,1.3-0.3,1.9c-0.2,0.6-0.5,1.1-0.9,1.6s-0.9,0.9-1.6,1.2s-1.3,0.4-2,0.4C171.9,536.1,171.2,536,170.6,535.7z
		 M175.2,531.1c0-1-0.2-1.7-0.6-2.3c-0.2-0.3-0.5-0.5-0.9-0.7c-0.3-0.2-0.7-0.2-1.1-0.2c-0.4,0-0.8,0.1-1.2,0.2
		c-0.4,0.2-0.6,0.4-0.9,0.7c-0.4,0.5-0.6,1.3-0.6,2.3s0.2,1.7,0.6,2.2c0.2,0.3,0.5,0.5,0.9,0.7s0.7,0.2,1.2,0.2
		c0.4,0,0.8-0.1,1.1-0.2c0.4-0.2,0.6-0.4,0.9-0.7C175,532.8,175.2,532,175.2,531.1z"/>
	<path class="st11" d="M181.4,533.3c0.2,0.3,0.5,0.5,0.9,0.7s0.7,0.2,1.1,0.2s0.8-0.1,1.1-0.2c0.3-0.2,0.6-0.4,0.9-0.7
		c0,0,0.1-0.2,0.2-0.4l2,0.8c-0.2,0.3-0.3,0.6-0.5,0.8c-0.4,0.5-1,0.9-1.6,1.1s-1.2,0.4-1.9,0.4c-0.8,0-1.5-0.1-2.1-0.4
		c-0.7-0.3-1.2-0.7-1.6-1.2c-0.8-0.9-1.1-2.1-1.1-3.4c0-1.5,0.4-2.6,1.1-3.6c0.4-0.5,1-0.9,1.6-1.2s1.3-0.4,2-0.4s1.4,0.1,2,0.4
		s1.1,0.7,1.6,1.2c0.8,0.9,1.1,2.1,1.1,3.5c0,0.1,0,0.3,0,0.5h-7.3C180.9,532.4,181.1,532.9,181.4,533.3z M182.3,528.1
		c-0.4,0.2-0.6,0.4-0.9,0.7c-0.2,0.3-0.4,0.7-0.5,1.2h5c-0.1-0.5-0.3-0.9-0.5-1.2s-0.5-0.5-0.9-0.7c-0.3-0.2-0.7-0.2-1.1-0.2
		C183,527.9,182.7,528,182.3,528.1z"/>
	<path class="st11" d="M204,526.3v9.6h-2v-5.3l-2.5,4.1h-1.2l-2.5-4.1v5.3h-2v-9.6h1.8l3.3,5.4l3.3-5.4H204z"/>
	<path class="st11" d="M208.7,533.3c0.2,0.3,0.5,0.5,0.9,0.7s0.7,0.2,1.1,0.2s0.8-0.1,1.1-0.2c0.3-0.2,0.6-0.4,0.9-0.7
		c0,0,0.1-0.2,0.2-0.4l2,0.8c-0.2,0.3-0.3,0.6-0.5,0.8c-0.4,0.5-1,0.9-1.6,1.1s-1.2,0.4-1.9,0.4c-0.8,0-1.5-0.1-2.1-0.4
		c-0.7-0.3-1.2-0.7-1.6-1.2c-0.8-0.9-1.1-2.1-1.1-3.4c0-1.5,0.4-2.6,1.1-3.6c0.4-0.5,1-0.9,1.6-1.2s1.3-0.4,2-0.4s1.4,0.1,2,0.4
		s1.1,0.7,1.6,1.2c0.8,0.9,1.1,2.1,1.1,3.5c0,0.1,0,0.3,0,0.5h-7.3C208.2,532.4,208.4,532.9,208.7,533.3z M209.6,528.1
		c-0.4,0.2-0.6,0.4-0.9,0.7c-0.2,0.3-0.4,0.7-0.5,1.2h5c-0.1-0.5-0.3-0.9-0.5-1.2s-0.5-0.5-0.9-0.7c-0.3-0.2-0.7-0.2-1.1-0.2
		C210.3,527.9,209.9,528,209.6,528.1z"/>
	<path class="st11" d="M225.8,526.3v9.6h-2v-4h-4.5v4h-2v-9.6h2v3.6h4.5v-3.6H225.8z"/>
	<path class="st11" d="M241.2,531.1c0,0.7-0.1,1.3-0.3,1.9c-0.2,0.6-0.5,1.1-0.9,1.6s-0.9,0.9-1.6,1.2s-1.3,0.4-2,0.4
		s-1.4-0.1-2-0.4s-1.2-0.7-1.6-1.2c-0.6-0.7-0.9-1.5-1.1-2.5h-1.5v3.8h-2v-9.6h2v3.8h1.5c0.2-1,0.5-1.8,1.1-2.5
		c0.4-0.5,0.9-0.9,1.6-1.2c0.6-0.3,1.3-0.4,2-0.4s1.4,0.1,2,0.4c0.6,0.3,1.1,0.7,1.6,1.2C240.8,528.5,241.2,529.7,241.2,531.1z
		 M239.1,531.1c0-1-0.2-1.7-0.6-2.3c-0.2-0.3-0.5-0.5-0.9-0.7s-0.7-0.2-1.2-0.2c-0.4,0-0.8,0.1-1.2,0.2c-0.4,0.2-0.6,0.4-0.9,0.7
		c-0.4,0.5-0.6,1.3-0.6,2.3s0.2,1.7,0.6,2.2c0.2,0.3,0.5,0.5,0.9,0.7s0.7,0.2,1.1,0.2c0.4,0,0.8-0.1,1.1-0.2
		c0.4-0.2,0.6-0.4,0.9-0.7C238.9,532.8,239.1,532,239.1,531.1z"/>
	<path class="st11" d="M253.3,529.2c-0.1-0.1-0.2-0.3-0.2-0.4c-0.2-0.3-0.5-0.5-0.9-0.7s-0.7-0.2-1.1-0.2c-0.4,0-0.8,0.1-1.1,0.2
		c-0.4,0.2-0.6,0.4-0.9,0.7c-0.4,0.5-0.6,1.3-0.6,2.3s0.2,1.7,0.6,2.2c0.2,0.3,0.5,0.5,0.8,0.7s0.7,0.2,1.1,0.2
		c0.4,0,0.8-0.1,1.1-0.2c0.3-0.2,0.6-0.4,0.9-0.7c0.1-0.1,0.2-0.2,0.2-0.4l1.9,0.8c-0.2,0.4-0.4,0.6-0.5,0.8c-0.4,0.5-1,0.9-1.6,1.2
		s-1.3,0.4-2,0.4s-1.4-0.1-2-0.4c-0.6-0.3-1.2-0.7-1.6-1.2c-0.8-0.9-1.1-2.1-1.1-3.5s0.4-2.5,1.1-3.5c0.4-0.5,1-0.9,1.6-1.2
		s1.3-0.4,2-0.4s1.4,0.1,2,0.4c0.6,0.3,1.2,0.7,1.6,1.2c0.2,0.3,0.4,0.5,0.5,0.8L253.3,529.2z"/>
	<path class="st11" d="M256.8,528.1c0,0,0.1-0.1,0.1-0.2c0-0.1,0.1-0.1,0.1-0.2c0.8-1.1,2-1.7,3.6-1.7c0.9,0,1.7,0.2,2.4,0.5
		c0.7,0.3,1.2,0.8,1.6,1.5c0.3,0.6,0.4,1.2,0.4,1.8v6h-1.8V534c-0.1,0.3-0.3,0.6-0.6,0.8s-0.5,0.5-0.8,0.6c-0.6,0.4-1.4,0.6-2.2,0.6
		c-0.5,0-1-0.1-1.4-0.3c-0.5-0.2-0.8-0.5-1.1-0.8c-0.2-0.3-0.4-0.7-0.5-0.9s-0.2-0.6-0.2-1c0-0.5,0.1-1,0.4-1.4s0.6-0.8,1.1-1.1
		c0.4-0.2,0.8-0.4,1.2-0.5c0.4-0.1,0.9-0.2,1.6-0.3l0.6-0.1l1.7-0.2c-0.1-0.5-0.3-0.9-0.7-1.1c-0.4-0.3-0.9-0.4-1.5-0.4
		c-0.9,0-1.5,0.2-1.9,0.7c-0.1,0.1-0.2,0.2-0.2,0.3L256.8,528.1z M261.1,531.5c-0.6,0.1-1,0.2-1.4,0.3c-0.3,0.1-0.6,0.2-0.9,0.4
		c-0.2,0.2-0.4,0.5-0.4,0.8c0,0.4,0.1,0.7,0.4,0.9c0.3,0.3,0.7,0.4,1.1,0.4c0.6,0,1.2-0.2,1.7-0.5c0.6-0.3,0.9-0.7,1.1-1.3
		c0.1-0.2,0.2-0.5,0.2-0.7s0-0.5,0-0.7C262.8,531.2,262.1,531.3,261.1,531.5z"/>
	<path class="st11" d="M275.8,535.9h-2v-6.4l-4.6,6.4h-1.8v-9.6h2v6.2l4.6-6.2h1.8V535.9z M274.4,522.6c0,0.5-0.1,0.9-0.4,1.3
		c-0.2,0.4-0.6,0.7-1,1c-0.4,0.2-0.8,0.4-1.3,0.4s-0.9-0.1-1.3-0.4s-0.7-0.6-0.9-1c-0.2-0.4-0.4-0.8-0.4-1.3h1.6
		c0,0.3,0.1,0.5,0.3,0.7c0.2,0.2,0.5,0.3,0.7,0.3c0.3,0,0.5-0.1,0.8-0.3c0.2-0.2,0.3-0.4,0.3-0.7H274.4z"/>
	<path class="st11" d="M285.9,528.1h-3.2v7.8h-2v-7.8h-3.2v-1.8h8.5L285.9,528.1L285.9,528.1z"/>
	<path class="st11" d="M287.1,528.1c0,0,0.1-0.1,0.1-0.2c0-0.1,0.1-0.1,0.1-0.2c0.8-1.1,2-1.7,3.6-1.7c0.9,0,1.7,0.2,2.4,0.5
		c0.7,0.3,1.2,0.8,1.6,1.5c0.3,0.6,0.4,1.2,0.4,1.8v6h-1.8V534c-0.1,0.3-0.3,0.6-0.6,0.8s-0.5,0.5-0.8,0.6c-0.6,0.4-1.4,0.6-2.2,0.6
		c-0.5,0-1-0.1-1.4-0.3c-0.5-0.2-0.8-0.5-1.1-0.8c-0.2-0.3-0.4-0.7-0.5-0.9c-0.1-0.3-0.2-0.6-0.2-1c0-0.5,0.1-1,0.4-1.4
		s0.6-0.8,1.1-1.1c0.4-0.2,0.8-0.4,1.2-0.5c0.4-0.1,0.9-0.2,1.6-0.3l0.6-0.1l1.7-0.2c-0.1-0.5-0.3-0.9-0.7-1.1
		c-0.4-0.3-0.9-0.4-1.5-0.4c-0.9,0-1.5,0.2-1.9,0.7c-0.1,0.1-0.2,0.2-0.2,0.3L287.1,528.1z M291.3,531.5c-0.6,0.1-1,0.2-1.4,0.3
		c-0.3,0.1-0.6,0.2-0.9,0.4c-0.2,0.2-0.4,0.5-0.4,0.8c0,0.4,0.1,0.7,0.4,0.9c0.3,0.3,0.7,0.4,1.1,0.4c0.6,0,1.2-0.2,1.7-0.5
		c0.6-0.3,0.9-0.7,1.1-1.3c0.1-0.2,0.2-0.5,0.2-0.7s0-0.5,0-0.7C293,531.2,292.3,531.3,291.3,531.5z"/>
	<path class="st10" d="M302.6,531.1l4.2-4.2l1,1l-3.3,3.3l3.3,3.3l-1,1L302.6,531.1z"/>
	<path class="st10" d="M317.8,523.1l-3.4,12.8h-2l3.4-12.8H317.8z"/>
	<path class="st10" d="M328,528.7c0.2,0.6,0.3,1.5,0.3,2.4v4.7h-2v-4.7c0-0.6-0.1-1.1-0.2-1.6s-0.3-0.8-0.6-1.1
		c-0.4-0.3-0.9-0.5-1.5-0.5c-0.5,0-1,0.2-1.4,0.5s-0.7,0.8-0.8,1.4c-0.1,0.4-0.1,1-0.1,1.9v4.2h-2v-9.6h1.8v0.8l0.1-0.1
		c0.4-0.3,0.8-0.6,1.3-0.8s1-0.2,1.5-0.2s0.9,0.1,1.4,0.2c0.5,0.2,0.9,0.4,1.2,0.7C327.4,527.5,327.8,528,328,528.7z"/>
	<path class="st10" d="M330.2,528.1c0,0,0.1-0.1,0.1-0.2c0-0.1,0.1-0.1,0.1-0.2c0.8-1.1,2-1.7,3.6-1.7c0.9,0,1.7,0.2,2.4,0.5
		c0.7,0.3,1.2,0.8,1.6,1.5c0.3,0.6,0.4,1.2,0.4,1.8v6h-1.8V534c-0.1,0.3-0.3,0.6-0.6,0.8s-0.5,0.5-0.8,0.6c-0.6,0.4-1.4,0.6-2.2,0.6
		c-0.5,0-1-0.1-1.4-0.3c-0.5-0.2-0.8-0.5-1.1-0.8c-0.2-0.3-0.4-0.7-0.5-0.9c-0.1-0.3-0.2-0.6-0.2-1c0-0.5,0.1-1,0.4-1.4
		s0.6-0.8,1.1-1.1c0.4-0.2,0.8-0.4,1.2-0.5c0.4-0.1,0.9-0.2,1.6-0.3l0.6-0.1l1.7-0.2c-0.1-0.5-0.3-0.9-0.7-1.1
		c-0.4-0.3-0.9-0.4-1.5-0.4c-0.9,0-1.5,0.2-1.9,0.7c-0.1,0.1-0.2,0.2-0.2,0.3L330.2,528.1z M334.4,531.5c-0.6,0.1-1,0.2-1.4,0.3
		c-0.3,0.1-0.6,0.2-0.9,0.4c-0.2,0.2-0.4,0.5-0.4,0.8c0,0.4,0.1,0.7,0.4,0.9c0.3,0.3,0.7,0.4,1.1,0.4c0.6,0,1.2-0.2,1.7-0.5
		c0.6-0.3,0.9-0.7,1.1-1.3c0.1-0.2,0.2-0.5,0.2-0.7s0-0.5,0-0.7C336.1,531.2,335.4,531.3,334.4,531.5z"/>
	<path class="st10" d="M348.7,526.3l-3.5,9.6h-2l-3.5-9.6h2l2.5,7.1l2.5-7.1H348.7z"/>
	<path class="st10" d="M352.4,534.3l3.3-3.3l-3.3-3.3l1-1l4.3,4.2l-4.3,4.2L352.4,534.3z"/>
	<path class="st10" d="M62.1,551.5l4.2-4.2l1,1l-3.3,3.3l3.3,3.3l-1,1L62.1,551.5z"/>
	<path class="st10" d="M85.4,548.7c0.1,0.5,0.2,1.1,0.2,1.8v5.8h-2v-5.8c0-0.4,0-0.7-0.1-1c-0.1-0.2-0.2-0.5-0.5-0.7
		c-0.2-0.2-0.3-0.3-0.6-0.4c-0.2-0.1-0.5-0.1-0.7-0.1c-0.3,0-0.5,0.1-0.8,0.2c-0.3,0.1-0.5,0.3-0.6,0.5c-0.2,0.2-0.3,0.5-0.4,0.7
		s-0.1,0.5-0.1,0.8v0.1v5.8h-2v-5.8c0-0.4,0-0.7-0.1-1c-0.1-0.2-0.2-0.5-0.5-0.7c-0.2-0.2-0.3-0.3-0.6-0.4c-0.2-0.1-0.5-0.1-0.7-0.1
		c-0.3,0-0.5,0.1-0.8,0.2c-0.3,0.1-0.5,0.3-0.6,0.5c-0.2,0.2-0.3,0.5-0.4,0.7s-0.1,0.5-0.1,0.8v5.8h-2v-9.6h1.8v1.1
		c0.3-0.4,0.7-0.7,1.2-0.9s1-0.3,1.5-0.3c0.4,0,0.8,0.1,1.2,0.2c0.4,0.1,0.7,0.4,1,0.6c0.2,0.2,0.4,0.5,0.6,0.7
		c0.3-0.5,0.7-0.9,1.2-1.2s1.1-0.4,1.7-0.4c0.4,0,0.8,0.1,1.2,0.2c0.4,0.1,0.7,0.4,1,0.6C85,547.8,85.3,548.2,85.4,548.7z"/>
	<path class="st10" d="M87.6,548.5c0,0,0.1-0.1,0.1-0.2c0-0.1,0.1-0.1,0.1-0.2c0.8-1.1,2-1.7,3.6-1.7c0.9,0,1.7,0.2,2.4,0.5
		s1.2,0.8,1.6,1.5c0.3,0.6,0.4,1.2,0.4,1.8v6H94v-1.8c-0.1,0.3-0.3,0.6-0.6,0.8s-0.5,0.5-0.8,0.6c-0.6,0.4-1.4,0.6-2.2,0.6
		c-0.5,0-1-0.1-1.4-0.3c-0.5-0.2-0.8-0.5-1.1-0.8c-0.2-0.3-0.4-0.7-0.5-0.9s-0.2-0.6-0.2-1c0-0.5,0.1-1,0.4-1.4s0.6-0.8,1.1-1.1
		c0.4-0.2,0.8-0.4,1.2-0.5c0.4-0.1,0.9-0.2,1.6-0.3l0.6-0.1l1.7-0.2c-0.1-0.5-0.3-0.9-0.7-1.1c-0.4-0.3-0.9-0.4-1.5-0.4
		c-0.9,0-1.5,0.2-1.9,0.7c-0.1,0.1-0.2,0.2-0.2,0.3L87.6,548.5z M91.8,551.9c-0.6,0.1-1,0.2-1.4,0.3c-0.3,0.1-0.6,0.2-0.9,0.4
		c-0.2,0.2-0.4,0.5-0.4,0.8c0,0.4,0.1,0.7,0.4,0.9s0.7,0.4,1.1,0.4c0.6,0,1.2-0.2,1.7-0.5c0.6-0.3,0.9-0.7,1.1-1.3
		c0.1-0.2,0.2-0.5,0.2-0.7s0-0.5,0-0.7C93.5,551.6,92.8,551.7,91.8,551.9z"/>
	<path class="st10" d="M100.3,543.4v1.9h-2v-1.9H100.3z M100.3,546.7v9.6h-2v-9.6H100.3z"/>
	<path class="st10" d="M111.4,549.1c0.2,0.6,0.3,1.5,0.3,2.4v4.7h-2v-4.7c0-0.6-0.1-1.1-0.2-1.6c-0.1-0.4-0.3-0.8-0.6-1.1
		c-0.4-0.3-0.9-0.5-1.5-0.5c-0.5,0-1,0.2-1.4,0.5s-0.7,0.8-0.8,1.4c-0.1,0.4-0.1,1-0.1,1.9v4.2h-2v-9.6h1.8v0.8l0.1-0.1
		c0.4-0.3,0.8-0.6,1.3-0.8s1-0.2,1.5-0.2s0.9,0.1,1.4,0.2s0.9,0.4,1.2,0.7C110.8,547.9,111.2,548.4,111.4,549.1z"/>
	<path class="st10" d="M116.1,554.7l3.3-3.3l-3.3-3.3l1-1l4.3,4.2l-4.3,4.2L116.1,554.7z"/>
	<path class="st11" d="M136.2,552.5c-0.2,0.7-0.6,1.4-1,1.9c-0.6,0.7-1.2,1.2-2,1.5s-1.7,0.5-2.6,0.5c-0.9,0-1.8-0.2-2.6-0.5
		c-0.8-0.4-1.5-0.9-2-1.5c-1-1.2-1.5-2.7-1.5-4.6c0-1.9,0.5-3.4,1.5-4.6c0.5-0.7,1.2-1.2,2-1.5c0.8-0.3,1.7-0.5,2.6-0.5
		s1.8,0.2,2.6,0.5s1.5,0.9,2,1.5s0.9,1.4,1.2,2.3l-2.1,0.4c-0.2-0.6-0.4-1.1-0.7-1.4c-0.3-0.4-0.8-0.8-1.3-1s-1.1-0.4-1.7-0.4
		c-0.6,0-1.2,0.1-1.7,0.4s-1,0.6-1.3,1c-0.6,0.8-0.9,1.9-0.9,3.4s0.3,2.6,0.9,3.4c0.3,0.4,0.7,0.8,1.3,1c0.5,0.2,1.1,0.4,1.7,0.4
		c0.6,0,1.2-0.1,1.8-0.3c0.5-0.2,1-0.6,1.3-1s0.5-0.8,0.6-1.3L136.2,552.5z"/>
	<path class="st11" d="M140.4,556.1c-0.6-0.3-1.2-0.7-1.6-1.2c-0.8-0.9-1.1-2.1-1.1-3.5c0-0.7,0.1-1.3,0.3-1.9
		c0.2-0.6,0.5-1.1,0.9-1.6s0.9-0.9,1.6-1.2c0.6-0.3,1.3-0.4,2-0.4s1.4,0.1,2,0.4c0.6,0.3,1.2,0.7,1.6,1.2c0.8,0.9,1.2,2.1,1.2,3.5
		c0,0.7-0.1,1.3-0.3,1.9s-0.5,1.1-0.9,1.6s-0.9,0.9-1.6,1.2s-1.3,0.4-2,0.4C141.7,556.5,141.1,556.4,140.4,556.1z M145.1,551.5
		c0-1-0.2-1.7-0.6-2.3c-0.2-0.3-0.5-0.5-0.9-0.7s-0.7-0.2-1.1-0.2c-0.4,0-0.8,0.1-1.2,0.2c-0.4,0.2-0.6,0.4-0.9,0.7
		c-0.4,0.5-0.6,1.3-0.6,2.3s0.2,1.7,0.6,2.2c0.2,0.3,0.5,0.5,0.9,0.7s0.7,0.2,1.2,0.2c0.4,0,0.8-0.1,1.1-0.2
		c0.4-0.2,0.6-0.4,0.9-0.7C144.9,553.2,145.1,552.4,145.1,551.5z"/>
	<path class="st11" d="M157.3,554.4h0.8v3.1h-1.9v-1.2h-6.1v1.2h-1.9v-3.1c0.5,0,0.9-0.3,1.2-0.8s0.6-1.3,0.7-2.5l0.5-4.4h6.7V554.4
		z M155.5,548.5h-3.1l-0.3,2.9c-0.2,1.5-0.5,2.5-0.9,3h4.4L155.5,548.5L155.5,548.5z"/>
	<path class="st11" d="M162.5,553.7c0.2,0.3,0.5,0.5,0.9,0.7s0.7,0.2,1.1,0.2s0.8-0.1,1.1-0.2c0.3-0.2,0.6-0.4,0.9-0.7
		c0,0,0.1-0.2,0.2-0.4l2,0.9c-0.2,0.3-0.3,0.6-0.5,0.8c-0.4,0.5-1,0.9-1.6,1.1s-1.2,0.4-1.9,0.4c-0.8,0-1.5-0.1-2.1-0.4
		c-0.7-0.3-1.2-0.7-1.6-1.2c-0.8-0.9-1.1-2.1-1.1-3.4c0-1.5,0.4-2.6,1.1-3.6c0.4-0.5,1-0.9,1.6-1.2s1.3-0.4,2-0.4s1.4,0.1,2,0.4
		s1.1,0.7,1.6,1.2c0.8,0.9,1.1,2.1,1.1,3.5c0,0.1,0,0.3,0,0.5H162C162,552.8,162.2,553.3,162.5,553.7z M163.4,548.5
		c-0.4,0.2-0.6,0.4-0.9,0.7c-0.2,0.3-0.4,0.7-0.5,1.2h5c-0.1-0.5-0.3-0.9-0.5-1.2s-0.5-0.5-0.9-0.7c-0.3-0.2-0.7-0.2-1.1-0.2
		C164.1,548.3,163.8,548.4,163.4,548.5z"/>
	<path class="st11" d="M180,549.6c0.2,0.6,0.3,1.2,0.3,1.9c0,1.4-0.4,2.6-1.1,3.5c-0.4,0.5-0.9,0.9-1.5,1.1s-1.2,0.4-1.9,0.4
		c-1.1,0-2-0.3-2.7-0.9v4.9h-2v-13.8h1.8v0.8c0.4-0.3,0.8-0.6,1.3-0.8s1-0.3,1.6-0.3c0.7,0,1.3,0.1,1.9,0.4s1.1,0.6,1.5,1.1
		S179.9,549,180,549.6z M178.2,551.5c0-1-0.2-1.8-0.6-2.3c-0.4-0.6-1.1-1-2.1-1c-0.4,0-0.8,0.1-1.1,0.2s-0.6,0.3-0.8,0.6
		c-0.5,0.6-0.7,1.4-0.7,2.4c0,0.5,0.1,0.9,0.2,1.4c0.1,0.4,0.3,0.8,0.5,1.1c0.5,0.6,1.1,0.8,2,0.8c0.4,0,0.8-0.1,1.1-0.2
		c0.4-0.2,0.6-0.4,0.9-0.7C178,553.2,178.2,552.5,178.2,551.5z"/>
	<path class="st11" d="M191.3,551.5l3.1,4.8h-2.2l-2.5-4h-1.2v4h-1.8v-4h-1.2l-2.5,4h-2.2l3.1-4.8l-3-4.8h2.2l2.3,4h1.2v-4h1.8v4
		h1.2l2.3-4h2.2L191.3,551.5z"/>
	<path class="st11" d="M204.3,556.3h-2v-6.4l-4.6,6.4h-1.8v-9.6h2v6.2l4.6-6.2h1.8V556.3z"/>
	<path class="st11" d="M217,546.7v9.6h-2V551l-2.5,4.1h-1.2l-2.5-4.1v5.3h-2v-9.6h1.8l3.3,5.4l3.3-5.4H217z"/>
	<path class="st11" d="M221.6,556.1c-0.6-0.3-1.2-0.7-1.6-1.2c-0.8-0.9-1.1-2.1-1.1-3.5c0-0.7,0.1-1.3,0.3-1.9
		c0.2-0.6,0.5-1.1,0.9-1.6s0.9-0.9,1.6-1.2c0.6-0.3,1.3-0.4,2-0.4s1.4,0.1,2,0.4c0.6,0.3,1.2,0.7,1.6,1.2c0.8,0.9,1.2,2.1,1.2,3.5
		c0,0.7-0.1,1.3-0.3,1.9s-0.5,1.1-0.9,1.6s-0.9,0.9-1.6,1.2s-1.3,0.4-2,0.4C222.9,556.5,222.3,556.4,221.6,556.1z M226.3,551.5
		c0-1-0.2-1.7-0.6-2.3c-0.2-0.3-0.5-0.5-0.9-0.7s-0.7-0.2-1.1-0.2c-0.4,0-0.8,0.1-1.2,0.2c-0.4,0.2-0.6,0.4-0.9,0.7
		c-0.4,0.5-0.6,1.3-0.6,2.3s0.2,1.7,0.6,2.2c0.2,0.3,0.5,0.5,0.9,0.7s0.7,0.2,1.2,0.2c0.4,0,0.8-0.1,1.1-0.2
		c0.4-0.2,0.6-0.4,0.9-0.7C226.1,553.2,226.3,552.4,226.3,551.5z"/>
	<path class="st11" d="M232.5,553.7c0.2,0.3,0.5,0.5,0.9,0.7s0.7,0.2,1.1,0.2s0.8-0.1,1.1-0.2c0.3-0.2,0.6-0.4,0.9-0.7
		c0,0,0.1-0.2,0.2-0.4l2,0.9c-0.2,0.3-0.3,0.6-0.5,0.8c-0.4,0.5-1,0.9-1.6,1.1s-1.2,0.4-1.9,0.4c-0.8,0-1.5-0.1-2.1-0.4
		c-0.7-0.3-1.2-0.7-1.6-1.2c-0.8-0.9-1.1-2.1-1.1-3.4c0-1.5,0.4-2.6,1.1-3.6c0.4-0.5,1-0.9,1.6-1.2s1.3-0.4,2-0.4s1.4,0.1,2,0.4
		s1.1,0.7,1.6,1.2c0.8,0.9,1.1,2.1,1.1,3.5c0,0.1,0,0.3,0,0.5H232C232,552.8,232.2,553.3,232.5,553.7z M233.4,548.5
		c-0.4,0.2-0.6,0.4-0.9,0.7c-0.2,0.3-0.4,0.7-0.5,1.2h5c-0.1-0.5-0.3-0.9-0.5-1.2s-0.5-0.5-0.9-0.7c-0.3-0.2-0.7-0.2-1.1-0.2
		C234.1,548.3,233.7,548.4,233.4,548.5z"/>
	<path class="st11" d="M249.6,546.7c0.9,0,1.6,0.2,2.1,0.7c0.7,0.6,1,1.3,1,2.1c0,0.5-0.1,1-0.4,1.4c0,0-0.1,0.1-0.1,0.2
		s-0.1,0.1-0.2,0.2c0.3,0.3,0.6,0.5,0.7,0.8c0.3,0.4,0.4,0.9,0.4,1.4c0,0.4-0.1,0.8-0.3,1.2s-0.4,0.7-0.8,1
		c-0.2,0.2-0.5,0.3-0.9,0.5c-0.3,0.1-0.6,0.2-0.9,0.2h-5.6v-9.5L249.6,546.7z M246.9,550.7h2.7c0.4,0,0.7-0.1,0.9-0.4
		c0.2-0.2,0.2-0.5,0.2-0.8s-0.1-0.5-0.2-0.8c-0.1-0.2-0.2-0.3-0.4-0.3c-0.1-0.1-0.3-0.1-0.5-0.1h-2.7V550.7z M246.9,554.7h3.2
		c0.4,0,0.7-0.1,0.9-0.4c0.2-0.2,0.2-0.5,0.2-0.8s-0.1-0.6-0.2-0.8c-0.1-0.2-0.3-0.3-0.4-0.3s-0.3-0.1-0.6-0.1h-3.1L246.9,554.7
		L246.9,554.7z"/>
	<path class="st11" d="M257.4,553.7c0.2,0.3,0.5,0.5,0.9,0.7s0.7,0.2,1.1,0.2s0.8-0.1,1.1-0.2c0.3-0.2,0.6-0.4,0.9-0.7
		c0,0,0.1-0.2,0.2-0.4l2,0.9c-0.2,0.3-0.3,0.6-0.5,0.8c-0.4,0.5-1,0.9-1.6,1.1s-1.2,0.4-1.9,0.4c-0.8,0-1.5-0.1-2.1-0.4
		c-0.7-0.3-1.2-0.7-1.6-1.2c-0.8-0.9-1.1-2.1-1.1-3.4c0-1.5,0.4-2.6,1.1-3.6c0.4-0.5,1-0.9,1.6-1.2s1.3-0.4,2-0.4s1.4,0.1,2,0.4
		c0.6,0.3,1.1,0.7,1.6,1.2c0.8,0.9,1.1,2.1,1.1,3.5c0,0.1,0,0.3,0,0.5h-7.3C256.9,552.8,257.1,553.3,257.4,553.7z M258.3,548.5
		c-0.4,0.2-0.6,0.4-0.9,0.7c-0.2,0.3-0.4,0.7-0.5,1.2h5c-0.1-0.5-0.3-0.9-0.5-1.2s-0.5-0.5-0.9-0.7c-0.3-0.2-0.7-0.2-1.1-0.2
		S258.6,548.4,258.3,548.5z"/>
	<path class="st11" d="M272.2,547.7c0.6,0.2,1,0.6,1.4,1.1c0.4,0.4,0.7,1,0.8,1.5s0.3,1.2,0.3,1.8s-0.1,1.2-0.3,1.7
		c-0.2,0.5-0.5,1-0.9,1.5c-0.4,0.4-0.9,0.7-1.5,1c-0.6,0.2-1.2,0.3-1.8,0.3c-0.7,0-1.3-0.1-1.9-0.4c-0.6-0.2-1.1-0.6-1.5-1.1
		c-0.7-0.8-1.1-1.9-1.1-3.3c0-0.3,0-0.7,0-1.2c0-1,0.1-1.8,0.2-2.5c0.2-1.6,0.9-2.8,2-3.6c0.5-0.4,1.1-0.6,1.8-0.8
		c0.7-0.1,1.4-0.2,2.3-0.2c0.6,0,1.4,0.1,2.1,0.2v1.8c-1-0.1-1.8-0.2-2.5-0.2c-1.2,0-2,0.2-2.6,0.6c-0.4,0.3-0.6,0.6-0.8,1
		c-0.2,0.4-0.3,0.9-0.3,1.5c0.4-0.4,0.8-0.6,1.3-0.8s1-0.3,1.5-0.3C271,547.3,271.6,547.4,272.2,547.7z M269.1,549.3
		c-0.3,0.1-0.6,0.3-0.8,0.6c-0.4,0.4-0.6,1.1-0.6,2s0.2,1.5,0.6,2c0.2,0.3,0.5,0.5,0.8,0.6s0.7,0.2,1.1,0.2s0.7-0.1,1.1-0.2
		c0.3-0.1,0.6-0.3,0.8-0.6c0.4-0.4,0.6-1.1,0.6-2s-0.2-1.5-0.6-2c-0.2-0.3-0.5-0.5-0.8-0.6s-0.7-0.2-1.1-0.2
		S269.4,549.1,269.1,549.3z"/>
	<path class="st11" d="M281.7,550.4v1.6h-5.3v-1.6H281.7z"/>
	<path class="st11" d="M290.5,549.6c-0.1-0.1-0.2-0.3-0.2-0.4c-0.2-0.3-0.5-0.5-0.9-0.7s-0.7-0.2-1.1-0.2s-0.8,0.1-1.1,0.2
		c-0.4,0.2-0.6,0.4-0.8,0.7c-0.4,0.5-0.6,1.3-0.6,2.2c0,1,0.2,1.7,0.6,2.2c0.2,0.3,0.5,0.5,0.8,0.7s0.7,0.2,1.1,0.2s0.8-0.1,1.1-0.2
		c0.3-0.2,0.6-0.4,0.9-0.7c0.1-0.1,0.2-0.2,0.2-0.4l1.9,0.8c-0.2,0.4-0.4,0.6-0.5,0.8c-0.4,0.5-1,0.9-1.6,1.2s-1.3,0.4-2,0.4
		s-1.4-0.1-2-0.4c-0.6-0.3-1.2-0.7-1.6-1.2c-0.8-0.9-1.1-2.1-1.1-3.5s0.4-2.5,1.1-3.5c0.4-0.5,1-0.9,1.6-1.2s1.3-0.4,2-0.4
		s1.4,0.1,2,0.4c0.6,0.3,1.2,0.7,1.6,1.2c0.2,0.3,0.4,0.5,0.5,0.8L290.5,549.6z"/>
	<path class="st11" d="M301.9,548.5h-3.2v7.8h-2v-7.8h-3.2v-1.8h8.5L301.9,548.5L301.9,548.5z"/>
	<path class="st11" d="M312.4,549.6c0.2,0.6,0.3,1.2,0.3,1.9c0,1.4-0.4,2.6-1.1,3.5c-0.4,0.5-0.9,0.9-1.5,1.1
		c-0.6,0.3-1.2,0.4-1.9,0.4c-1.1,0-2-0.3-2.7-0.9v4.9h-2v-13.8h1.8v0.8c0.4-0.3,0.8-0.6,1.3-0.8s1-0.3,1.6-0.3
		c0.7,0,1.3,0.1,1.9,0.4c0.6,0.3,1.1,0.6,1.5,1.1C311.9,548.4,312.2,549,312.4,549.6z M310.6,551.5c0-1-0.2-1.8-0.6-2.3
		c-0.4-0.6-1.1-1-2.1-1c-0.4,0-0.8,0.1-1.1,0.2s-0.6,0.3-0.8,0.6c-0.5,0.6-0.7,1.4-0.7,2.4c0,0.5,0.1,0.9,0.2,1.4
		c0.1,0.4,0.3,0.8,0.5,1.1c0.5,0.6,1.1,0.8,2,0.8c0.4,0,0.8-0.1,1.1-0.2c0.4-0.2,0.6-0.4,0.9-0.7
		C310.4,553.2,310.6,552.5,310.6,551.5z"/>
	<path class="st11" d="M314.4,548.5c0,0,0.1-0.1,0.1-0.2c0-0.1,0.1-0.1,0.1-0.2c0.8-1.1,2-1.7,3.6-1.7c0.9,0,1.7,0.2,2.4,0.5
		s1.2,0.8,1.6,1.5c0.3,0.6,0.4,1.2,0.4,1.8v6h-1.8v-1.8c-0.1,0.3-0.3,0.6-0.6,0.8s-0.5,0.5-0.8,0.6c-0.6,0.4-1.4,0.6-2.2,0.6
		c-0.5,0-1-0.1-1.4-0.3c-0.5-0.2-0.8-0.5-1.1-0.8c-0.2-0.3-0.4-0.7-0.5-0.9c-0.1-0.3-0.2-0.6-0.2-1c0-0.5,0.1-1,0.4-1.4
		s0.6-0.8,1.1-1.1c0.4-0.2,0.8-0.4,1.2-0.5c0.4-0.1,0.9-0.2,1.6-0.3l0.6-0.1l1.7-0.2c-0.1-0.5-0.3-0.9-0.7-1.1
		c-0.4-0.3-0.9-0.4-1.5-0.4c-0.9,0-1.5,0.2-1.9,0.7c-0.1,0.1-0.2,0.2-0.2,0.3L314.4,548.5z M318.7,551.9c-0.6,0.1-1,0.2-1.4,0.3
		c-0.3,0.1-0.6,0.2-0.9,0.4s-0.4,0.5-0.4,0.8c0,0.4,0.1,0.7,0.4,0.9c0.3,0.3,0.7,0.4,1.1,0.4c0.6,0,1.2-0.2,1.7-0.5
		c0.6-0.3,0.9-0.7,1.1-1.3c0.1-0.2,0.2-0.5,0.2-0.7s0-0.5,0-0.7C320.3,551.6,319.7,551.7,318.7,551.9z"/>
	<path class="st11" d="M333.4,546.7v9.6h-2v-4H327v4h-2v-9.6h2v3.6h4.5v-3.6H333.4z"/>
	<path class="st11" d="M344.3,556.3h-2v-6.4l-4.6,6.4h-1.8v-9.6h2v6.2l4.6-6.2h1.8V556.3z"/>
	<path class="st11" d="M356.8,554.3v3.6h-2v-1.6h-8.1v-9.6h2v7.6h4.5v-7.6h2v7.6H356.8z"/>
	<path class="st11" d="M360.8,546.7v3.3h2.2c0.4,0,0.8,0.1,1.2,0.2c0.4,0.1,0.7,0.4,1,0.6c0.3,0.3,0.5,0.6,0.7,1s0.2,0.8,0.2,1.2
		s-0.1,0.8-0.2,1.2c-0.2,0.4-0.4,0.8-0.7,1s-0.6,0.5-1,0.6s-0.8,0.2-1.2,0.2h-4.2v-9.6h2V546.7z M360.8,554.4h2.1
		c0.4,0,0.7-0.2,0.9-0.4c0.2-0.2,0.4-0.5,0.4-0.9c0-0.3-0.1-0.6-0.3-0.9c-0.2-0.3-0.5-0.4-0.9-0.4h-2.1v2.6H360.8z M369.2,546.7v9.6
		h-2v-9.6H369.2z"/>
	<path class="st10" d="M372.9,551.5l4.2-4.2l1,1l-3.3,3.3l3.3,3.3l-1,1L372.9,551.5z"/>
	<path class="st10" d="M388.1,543.5l-3.4,12.8h-2l3.4-12.8H388.1z"/>
	<path class="st10" d="M403.2,548.7c0.1,0.5,0.2,1.1,0.2,1.8v5.8h-2v-5.8c0-0.4,0-0.7-0.1-1c-0.1-0.2-0.2-0.5-0.5-0.7
		c-0.2-0.2-0.3-0.3-0.6-0.4c-0.2-0.1-0.5-0.1-0.7-0.1c-0.3,0-0.5,0.1-0.8,0.2c-0.3,0.1-0.5,0.3-0.6,0.5c-0.2,0.2-0.3,0.5-0.4,0.7
		s-0.1,0.5-0.1,0.8v0.1v5.8h-2v-5.8c0-0.4,0-0.7-0.1-1c-0.1-0.2-0.2-0.5-0.5-0.7c-0.2-0.2-0.3-0.3-0.6-0.4c-0.2-0.1-0.5-0.1-0.7-0.1
		c-0.3,0-0.5,0.1-0.8,0.2c-0.3,0.1-0.5,0.3-0.6,0.5c-0.2,0.2-0.3,0.5-0.4,0.7s-0.1,0.5-0.1,0.8v5.8h-2v-9.6h1.8v1.1
		c0.3-0.4,0.7-0.7,1.2-0.9s1-0.3,1.5-0.3c0.4,0,0.8,0.1,1.2,0.2c0.4,0.1,0.7,0.4,1,0.6c0.2,0.2,0.4,0.5,0.6,0.7
		c0.3-0.5,0.7-0.9,1.2-1.2s1.1-0.4,1.7-0.4c0.4,0,0.8,0.1,1.2,0.2c0.4,0.1,0.7,0.4,1,0.6C402.8,547.8,403,548.2,403.2,548.7z"/>
	<path class="st10" d="M405.3,548.5c0,0,0.1-0.1,0.1-0.2c0-0.1,0.1-0.1,0.1-0.2c0.8-1.1,2-1.7,3.6-1.7c0.9,0,1.7,0.2,2.4,0.5
		s1.2,0.8,1.6,1.5c0.3,0.6,0.4,1.2,0.4,1.8v6h-1.8v-1.8c-0.1,0.3-0.3,0.6-0.6,0.8s-0.5,0.5-0.8,0.6c-0.6,0.4-1.4,0.6-2.2,0.6
		c-0.5,0-1-0.1-1.4-0.3c-0.5-0.2-0.8-0.5-1.1-0.8c-0.2-0.3-0.4-0.7-0.5-0.9c-0.1-0.3-0.2-0.6-0.2-1c0-0.5,0.1-1,0.4-1.4
		s0.6-0.8,1.1-1.1c0.4-0.2,0.8-0.4,1.2-0.5c0.4-0.1,0.9-0.2,1.6-0.3l0.6-0.1l1.7-0.2c-0.1-0.5-0.3-0.9-0.7-1.1
		c-0.4-0.3-0.9-0.4-1.5-0.4c-0.9,0-1.5,0.2-1.9,0.7c-0.1,0.1-0.2,0.2-0.2,0.3L405.3,548.5z M409.6,551.9c-0.6,0.1-1,0.2-1.4,0.3
		c-0.3,0.1-0.6,0.2-0.9,0.4s-0.4,0.5-0.4,0.8c0,0.4,0.1,0.7,0.4,0.9c0.3,0.3,0.7,0.4,1.1,0.4c0.6,0,1.2-0.2,1.7-0.5
		c0.6-0.3,0.9-0.7,1.1-1.3c0.1-0.2,0.2-0.5,0.2-0.7s0-0.5,0-0.7C411.3,551.6,410.6,551.7,409.6,551.9z"/>
	<path class="st10" d="M418.1,543.4v1.9h-2v-1.9H418.1z M418.1,546.7v9.6h-2v-9.6H418.1z"/>
	<path class="st10" d="M429.1,549.1c0.2,0.6,0.3,1.5,0.3,2.4v4.7h-2v-4.7c0-0.6-0.1-1.1-0.2-1.6c-0.1-0.4-0.3-0.8-0.6-1.1
		c-0.4-0.3-0.9-0.5-1.5-0.5c-0.5,0-1,0.2-1.4,0.5s-0.7,0.8-0.8,1.4c-0.1,0.4-0.1,1-0.1,1.9v4.2h-2v-9.6h1.8v0.8l0.1-0.1
		c0.4-0.3,0.8-0.6,1.3-0.8s1-0.2,1.5-0.2s0.9,0.1,1.4,0.2c0.5,0.2,0.9,0.4,1.2,0.7C428.6,547.9,428.9,548.4,429.1,549.1z"/>
	<path class="st10" d="M433.8,554.7l3.3-3.3l-3.3-3.3l1-1l4.3,4.2l-4.3,4.2L433.8,554.7z"/>
	<path class="st10" d="M62.1,571.9l4.2-4.2l1,1L64,572l3.3,3.3l-1,1L62.1,571.9z"/>
	<path class="st10" d="M75.4,565.9c-0.2,0.2-0.3,0.6-0.3,1v0.2h2.6v1.6h-2.6v8h-2v-8H71v-1.6h2.1V567c0-1.1,0.3-1.9,0.9-2.5
		s1.5-0.9,2.7-0.9c0.4,0,0.7,0,1,0.1v1.7c-0.2,0-0.5-0.1-0.8-0.1c-0.2,0-0.5,0-0.7,0.1C75.9,565.5,75.6,565.6,75.4,565.9z"/>
	<path class="st10" d="M81.3,576.5c-0.6-0.3-1.2-0.7-1.6-1.2c-0.8-0.9-1.1-2.1-1.1-3.5c0-0.7,0.1-1.3,0.3-1.9
		c0.2-0.6,0.5-1.1,0.9-1.6s0.9-0.9,1.6-1.2c0.6-0.3,1.3-0.4,2-0.4s1.4,0.1,2,0.4c0.6,0.3,1.2,0.7,1.6,1.2c0.8,0.9,1.2,2.1,1.2,3.5
		c0,0.7-0.1,1.3-0.3,1.9c-0.2,0.6-0.5,1.1-0.9,1.6s-0.9,0.9-1.6,1.2s-1.3,0.4-2,0.4C82.6,576.9,82,576.8,81.3,576.5z M86,571.9
		c0-1-0.2-1.7-0.6-2.3c-0.2-0.3-0.5-0.5-0.9-0.7c-0.3-0.2-0.7-0.2-1.1-0.2s-0.8,0.1-1.2,0.2c-0.4,0.2-0.6,0.4-0.9,0.7
		c-0.4,0.5-0.6,1.3-0.6,2.3s0.2,1.7,0.6,2.3c0.2,0.3,0.5,0.5,0.9,0.7s0.7,0.2,1.2,0.2c0.4,0,0.8-0.1,1.1-0.2
		c0.4-0.2,0.6-0.4,0.9-0.7C85.8,573.6,86,572.8,86,571.9z"/>
	<path class="st10" d="M92.2,576.5c-0.6-0.3-1.2-0.7-1.6-1.2c-0.8-0.9-1.1-2.1-1.1-3.5c0-0.7,0.1-1.3,0.3-1.9
		c0.2-0.6,0.5-1.1,0.9-1.6s0.9-0.9,1.6-1.2c0.6-0.3,1.3-0.4,2-0.4s1.4,0.1,2,0.4c0.6,0.3,1.2,0.7,1.6,1.2c0.8,0.9,1.2,2.1,1.2,3.5
		c0,0.7-0.1,1.3-0.3,1.9c-0.2,0.6-0.5,1.1-0.9,1.6s-0.9,0.9-1.6,1.2s-1.3,0.4-2,0.4C93.5,576.9,92.8,576.8,92.2,576.5z M96.8,571.9
		c0-1-0.2-1.7-0.6-2.3c-0.2-0.3-0.5-0.5-0.9-0.7c-0.3-0.2-0.7-0.2-1.1-0.2s-0.8,0.1-1.2,0.2c-0.4,0.2-0.6,0.4-0.9,0.7
		c-0.4,0.5-0.6,1.3-0.6,2.3s0.2,1.7,0.6,2.3c0.2,0.3,0.5,0.5,0.9,0.7s0.7,0.2,1.2,0.2c0.4,0,0.8-0.1,1.1-0.2
		c0.4-0.2,0.6-0.4,0.9-0.7C96.6,573.6,96.8,572.8,96.8,571.9z"/>
	<path class="st10" d="M103.9,568.7v4c0,0.5,0,0.8,0,1.1c0,0.2,0.1,0.4,0.2,0.6c0.1,0.2,0.3,0.3,0.4,0.4c0.2,0.1,0.4,0.2,0.6,0.2
		s0.4,0,0.6,0c0.3,0,0.7,0,1-0.1v1.7c-0.4,0.1-0.9,0.2-1.5,0.2c-0.4,0-0.8,0-1-0.1c-0.9-0.2-1.6-0.7-1.9-1.3
		c-0.2-0.3-0.3-0.7-0.3-1.1s-0.1-0.9-0.1-1.5v-4.1h-2.1v-1.6h2.1v-2.7h2v2.7h2.8v1.6L103.9,568.7L103.9,568.7z"/>
	<path class="st10" d="M111,574.1c0.2,0.3,0.5,0.5,0.9,0.7s0.7,0.2,1.1,0.2s0.8-0.1,1.1-0.2c0.3-0.2,0.6-0.4,0.9-0.7
		c0,0,0.1-0.2,0.2-0.4l2,0.9c-0.2,0.3-0.3,0.6-0.5,0.8c-0.4,0.5-1,0.9-1.6,1.1s-1.2,0.4-1.9,0.4c-0.8,0-1.5-0.1-2.1-0.4
		c-0.7-0.3-1.2-0.7-1.6-1.2c-0.8-0.9-1.1-2.1-1.1-3.4c0-1.5,0.4-2.6,1.1-3.6c0.4-0.5,1-0.9,1.6-1.2s1.3-0.4,2-0.4s1.4,0.1,2,0.4
		s1.1,0.7,1.6,1.2c0.8,0.9,1.1,2.1,1.1,3.5c0,0.1,0,0.3,0,0.5h-7.3C110.5,573.2,110.7,573.7,111,574.1z M111.9,568.9
		c-0.4,0.2-0.6,0.4-0.9,0.7c-0.2,0.3-0.4,0.7-0.5,1.2h5c-0.1-0.5-0.3-0.9-0.5-1.2s-0.5-0.5-0.9-0.7c-0.3-0.2-0.7-0.2-1.1-0.2
		S112.2,568.8,111.9,568.9z"/>
	<path class="st10" d="M125.8,567.1v1.9c-0.4-0.2-0.8-0.2-1.4-0.2c-0.9,0-1.5,0.2-1.9,0.7c-0.3,0.3-0.5,0.6-0.6,1s-0.2,0.8-0.2,1.4
		v4.9h-2v-9.6h1.8v1.4c0.2-0.4,0.5-0.7,0.9-1c0.5-0.4,1.1-0.6,1.9-0.6C124.7,566.8,125.2,566.9,125.8,567.1z"/>
	<path class="st10" d="M129.7,575.1l3.3-3.3l-3.3-3.3l1-1l4.3,4.2l-4.3,4.2L129.7,575.1z"/>
	<path class="st11" d="M149.5,576.7h-2v-10.8h-6.7v10.8h-2v-12.8h10.7V576.7z"/>
	<path class="st11" d="M154.4,576.5c-0.6-0.3-1.2-0.7-1.6-1.2c-0.8-0.9-1.1-2.1-1.1-3.5c0-0.7,0.1-1.3,0.3-1.9
		c0.2-0.6,0.5-1.1,0.9-1.6s0.9-0.9,1.6-1.2c0.6-0.3,1.3-0.4,2-0.4s1.4,0.1,2,0.4c0.6,0.3,1.2,0.7,1.6,1.2c0.8,0.9,1.2,2.1,1.2,3.5
		c0,0.7-0.1,1.3-0.3,1.9c-0.2,0.6-0.5,1.1-0.9,1.6s-0.9,0.9-1.6,1.2s-1.3,0.4-2,0.4C155.7,576.9,155,576.8,154.4,576.5z M159,571.9
		c0-1-0.2-1.7-0.6-2.3c-0.2-0.3-0.5-0.5-0.9-0.7c-0.3-0.2-0.7-0.2-1.1-0.2c-0.4,0-0.8,0.1-1.2,0.2c-0.4,0.2-0.6,0.4-0.9,0.7
		c-0.4,0.5-0.6,1.3-0.6,2.3s0.2,1.7,0.6,2.3c0.2,0.3,0.5,0.5,0.9,0.7s0.7,0.2,1.2,0.2c0.4,0,0.8-0.1,1.1-0.2
		c0.4-0.2,0.6-0.4,0.9-0.7C158.8,573.6,159,572.8,159,571.9z"/>
	<path class="st11" d="M171.3,574.8h0.8v3.1h-1.9v-1.2h-6.1v1.2h-1.9v-3.1c0.5,0,0.9-0.3,1.2-0.8s0.6-1.3,0.7-2.5l0.5-4.4h6.7V574.8
		z M169.4,568.9h-3.1l-0.3,2.9c-0.2,1.5-0.5,2.4-0.9,3h4.4L169.4,568.9L169.4,568.9z"/>
	<path class="st11" d="M179,567.1c0.9,0,1.6,0.2,2.1,0.7c0.7,0.6,1,1.3,1,2.1c0,0.5-0.1,1-0.4,1.4c0,0-0.1,0.1-0.1,0.2
		c-0.1,0.1-0.1,0.1-0.2,0.2c0.3,0.3,0.6,0.5,0.7,0.8c0.3,0.4,0.4,0.9,0.4,1.4c0,0.4-0.1,0.8-0.3,1.2s-0.4,0.7-0.8,1
		c-0.2,0.2-0.5,0.3-0.9,0.5s-0.6,0.2-0.9,0.2H174v-9.5L179,567.1z M176.3,571.1h2.7c0.4,0,0.7-0.1,0.9-0.4c0.2-0.2,0.2-0.5,0.2-0.8
		s-0.1-0.5-0.2-0.8c-0.1-0.2-0.2-0.3-0.4-0.3c-0.1-0.1-0.3-0.1-0.5-0.1h-2.7V571.1z M176.3,575.1h3.2c0.4,0,0.7-0.1,0.9-0.4
		c0.2-0.2,0.2-0.5,0.2-0.8s-0.1-0.6-0.2-0.8c-0.1-0.2-0.3-0.3-0.4-0.3c-0.1-0.1-0.3-0.1-0.6-0.1h-3.1L176.3,575.1L176.3,575.1z"/>
	<path class="st11" d="M184.4,568.9c0,0,0.1-0.1,0.1-0.2c0-0.1,0.1-0.1,0.1-0.2c0.8-1.1,2-1.7,3.6-1.7c0.9,0,1.7,0.2,2.4,0.5
		s1.2,0.8,1.6,1.5c0.3,0.6,0.4,1.2,0.4,1.8v6h-1.8v-1.8c-0.1,0.3-0.3,0.6-0.6,0.8s-0.5,0.5-0.8,0.6c-0.6,0.4-1.4,0.6-2.2,0.6
		c-0.5,0-1-0.1-1.4-0.3s-0.8-0.5-1.1-0.8c-0.2-0.3-0.4-0.7-0.5-0.9s-0.2-0.6-0.2-1c0-0.5,0.1-1,0.4-1.4c0.3-0.4,0.6-0.8,1.1-1.1
		c0.4-0.2,0.8-0.4,1.2-0.5s0.9-0.2,1.6-0.3l0.6-0.1l1.7-0.2c-0.1-0.5-0.3-0.9-0.7-1.1c-0.4-0.3-0.9-0.4-1.5-0.4
		c-0.9,0-1.5,0.2-1.9,0.7c-0.1,0.1-0.2,0.2-0.2,0.3L184.4,568.9z M188.6,572.3c-0.6,0.1-1,0.2-1.4,0.3c-0.3,0.1-0.6,0.2-0.9,0.4
		c-0.2,0.2-0.4,0.5-0.4,0.8c0,0.4,0.1,0.7,0.4,0.9s0.7,0.4,1.1,0.4c0.6,0,1.2-0.2,1.7-0.5c0.6-0.3,0.9-0.7,1.1-1.3
		c0.1-0.2,0.2-0.5,0.2-0.7s0-0.5,0-0.7C190.3,572,189.6,572.1,188.6,572.3z"/>
	<path class="st11" d="M203,567.1v9.6h-1.9v-7.8h-3.2l-0.6,4.6c-0.1,1.1-0.4,1.9-0.8,2.5s-1.1,0.8-1.9,0.8c-0.3,0-0.5,0-0.6,0V575
		c0.4,0,0.7-0.1,0.9-0.2c0.2-0.1,0.3-0.3,0.4-0.6s0.1-0.6,0.2-1.1l0.7-5.9L203,567.1L203,567.1z"/>
	<path class="st11" d="M215.6,570c-0.1-0.1-0.2-0.3-0.2-0.4c-0.2-0.3-0.5-0.5-0.9-0.7s-0.7-0.2-1.1-0.2c-0.4,0-0.8,0.1-1.1,0.2
		c-0.4,0.2-0.6,0.4-0.9,0.7c-0.4,0.5-0.6,1.3-0.6,2.2c0,1,0.2,1.7,0.6,2.3c0.2,0.3,0.5,0.5,0.8,0.7s0.7,0.2,1.1,0.2
		c0.4,0,0.8-0.1,1.1-0.2c0.3-0.2,0.6-0.4,0.9-0.7c0.1-0.1,0.2-0.2,0.2-0.4l1.9,0.8c-0.2,0.4-0.4,0.6-0.5,0.8c-0.4,0.5-1,0.9-1.6,1.2
		s-1.3,0.4-2,0.4s-1.4-0.1-2-0.4c-0.6-0.3-1.2-0.7-1.6-1.2c-0.8-0.9-1.1-2.1-1.1-3.5s0.4-2.5,1.1-3.5c0.4-0.5,1-0.9,1.6-1.2
		s1.3-0.4,2-0.4s1.4,0.1,2,0.4c0.6,0.3,1.2,0.7,1.6,1.2c0.2,0.3,0.4,0.5,0.5,0.8L215.6,570z"/>
	<path class="st11" d="M219.2,568.9c0,0,0.1-0.1,0.1-0.2c0-0.1,0.1-0.1,0.1-0.2c0.8-1.1,2-1.7,3.6-1.7c0.9,0,1.7,0.2,2.4,0.5
		s1.2,0.8,1.6,1.5c0.3,0.6,0.4,1.2,0.4,1.8v6h-1.8v-1.8c-0.1,0.3-0.3,0.6-0.6,0.8s-0.5,0.5-0.8,0.6c-0.6,0.4-1.4,0.6-2.2,0.6
		c-0.5,0-1-0.1-1.4-0.3s-0.8-0.5-1.1-0.8c-0.2-0.3-0.4-0.7-0.5-0.9s-0.2-0.6-0.2-1c0-0.5,0.1-1,0.4-1.4c0.3-0.4,0.6-0.8,1.1-1.1
		c0.4-0.2,0.8-0.4,1.2-0.5s0.9-0.2,1.6-0.3l0.6-0.1l1.7-0.2c-0.1-0.5-0.3-0.9-0.7-1.1c-0.4-0.3-0.9-0.4-1.5-0.4
		c-0.9,0-1.5,0.2-1.9,0.7c-0.1,0.1-0.2,0.2-0.2,0.3L219.2,568.9z M223.4,572.3c-0.6,0.1-1,0.2-1.4,0.3c-0.3,0.1-0.6,0.2-0.9,0.4
		c-0.2,0.2-0.4,0.5-0.4,0.8c0,0.4,0.1,0.7,0.4,0.9s0.7,0.4,1.1,0.4c0.6,0,1.2-0.2,1.7-0.5c0.6-0.3,0.9-0.7,1.1-1.3
		c0.1-0.2,0.2-0.5,0.2-0.7s0-0.5,0-0.7C225.1,572,224.4,572.1,223.4,572.3z"/>
	<path class="st11" d="M238.1,576.7h-2v-6.4l-4.6,6.4h-1.8v-9.6h2v6.2l4.6-6.2h1.8V576.7z M236.7,563.4c0,0.5-0.1,0.9-0.4,1.3
		c-0.2,0.4-0.6,0.7-1,1c-0.4,0.2-0.8,0.4-1.3,0.4s-0.9-0.1-1.3-0.4s-0.7-0.6-0.9-1s-0.4-0.8-0.4-1.3h1.6c0,0.3,0.1,0.5,0.3,0.7
		s0.5,0.3,0.7,0.3c0.3,0,0.5-0.1,0.8-0.3c0.2-0.2,0.3-0.4,0.3-0.7H236.7z"/>
	<path class="st11" d="M248.3,568.9H245v7.8h-2v-7.8h-3.2v-1.8h8.5V568.9z"/>
	<path class="st11" d="M249.4,568.9c0,0,0.1-0.1,0.1-0.2c0-0.1,0.1-0.1,0.1-0.2c0.8-1.1,2-1.7,3.6-1.7c0.9,0,1.7,0.2,2.4,0.5
		c0.7,0.3,1.2,0.8,1.6,1.5c0.3,0.6,0.4,1.2,0.4,1.8v6h-1.8v-1.8c-0.1,0.3-0.3,0.6-0.6,0.8s-0.5,0.5-0.8,0.6
		c-0.6,0.4-1.4,0.6-2.2,0.6c-0.5,0-1-0.1-1.4-0.3s-0.8-0.5-1.1-0.8c-0.2-0.3-0.4-0.7-0.5-0.9s-0.2-0.6-0.2-1c0-0.5,0.1-1,0.4-1.4
		c0.3-0.4,0.6-0.8,1.1-1.1c0.4-0.2,0.8-0.4,1.2-0.5s0.9-0.2,1.6-0.3l0.6-0.1l1.7-0.2c-0.1-0.5-0.3-0.9-0.7-1.1
		c-0.4-0.3-0.9-0.4-1.5-0.4c-0.9,0-1.5,0.2-1.9,0.7c-0.1,0.1-0.2,0.2-0.2,0.3L249.4,568.9z M253.7,572.3c-0.6,0.1-1,0.2-1.4,0.3
		c-0.3,0.1-0.6,0.2-0.9,0.4c-0.2,0.2-0.4,0.5-0.4,0.8c0,0.4,0.1,0.7,0.4,0.9s0.7,0.4,1.1,0.4c0.6,0,1.2-0.2,1.7-0.5
		c0.6-0.3,0.9-0.7,1.1-1.3c0.1-0.2,0.2-0.5,0.2-0.7s0-0.5,0-0.7C255.3,572,254.7,572.1,253.7,572.3z"/>
	<path class="st10" d="M261.2,571.9l4.2-4.2l1,1l-3.3,3.3l3.3,3.3l-1,1L261.2,571.9z"/>
	<path class="st10" d="M276.4,563.9l-3.4,12.8h-2l3.4-12.8H276.4z"/>
	<path class="st10" d="M281.9,565.9c-0.2,0.2-0.3,0.6-0.3,1v0.2h2.6v1.6h-2.6v8h-2v-8h-2.1v-1.6h2.1V567c0-1.1,0.3-1.9,0.9-2.5
		s1.5-0.9,2.7-0.9c0.4,0,0.7,0,1,0.1v1.7c-0.2,0-0.5-0.1-0.8-0.1c-0.2,0-0.5,0-0.7,0.1C282.4,565.5,282.1,565.6,281.9,565.9z"/>
	<path class="st10" d="M287.9,576.5c-0.6-0.3-1.2-0.7-1.6-1.2c-0.8-0.9-1.1-2.1-1.1-3.5c0-0.7,0.1-1.3,0.3-1.9
		c0.2-0.6,0.5-1.1,0.9-1.6s0.9-0.9,1.6-1.2s1.3-0.4,2-0.4s1.4,0.1,2,0.4s1.2,0.7,1.6,1.2c0.8,0.9,1.2,2.1,1.2,3.5
		c0,0.7-0.1,1.3-0.3,1.9c-0.2,0.6-0.5,1.1-0.9,1.6s-0.9,0.9-1.6,1.2s-1.3,0.4-2,0.4C289.2,576.9,288.5,576.8,287.9,576.5z
		 M292.5,571.9c0-1-0.2-1.7-0.6-2.3c-0.2-0.3-0.5-0.5-0.9-0.7c-0.3-0.2-0.7-0.2-1.1-0.2s-0.8,0.1-1.2,0.2c-0.4,0.2-0.6,0.4-0.8,0.7
		c-0.4,0.5-0.6,1.3-0.6,2.3s0.2,1.7,0.6,2.3c0.2,0.3,0.5,0.5,0.8,0.7c0.4,0.2,0.7,0.2,1.2,0.2c0.4,0,0.8-0.1,1.1-0.2
		c0.4-0.2,0.6-0.4,0.9-0.7C292.3,573.6,292.5,572.8,292.5,571.9z"/>
	<path class="st10" d="M298.8,576.5c-0.6-0.3-1.2-0.7-1.6-1.2c-0.8-0.9-1.1-2.1-1.1-3.5c0-0.7,0.1-1.3,0.3-1.9
		c0.2-0.6,0.5-1.1,0.9-1.6s0.9-0.9,1.6-1.2s1.3-0.4,2-0.4s1.4,0.1,2,0.4s1.2,0.7,1.6,1.2c0.8,0.9,1.2,2.1,1.2,3.5
		c0,0.7-0.1,1.3-0.3,1.9c-0.2,0.6-0.5,1.1-0.9,1.6s-0.9,0.9-1.6,1.2s-1.3,0.4-2,0.4C300.1,576.9,299.4,576.8,298.8,576.5z
		 M303.4,571.9c0-1-0.2-1.7-0.6-2.3c-0.2-0.3-0.5-0.5-0.9-0.7c-0.3-0.2-0.7-0.2-1.1-0.2s-0.8,0.1-1.2,0.2c-0.4,0.2-0.6,0.4-0.8,0.7
		c-0.4,0.5-0.6,1.3-0.6,2.3s0.2,1.7,0.6,2.3c0.2,0.3,0.5,0.5,0.8,0.7c0.4,0.2,0.7,0.2,1.2,0.2c0.4,0,0.8-0.1,1.1-0.2
		c0.4-0.2,0.6-0.4,0.9-0.7C303.2,573.6,303.4,572.8,303.4,571.9z"/>
	<path class="st10" d="M310.4,568.7v4c0,0.5,0,0.8,0,1.1s0.1,0.4,0.2,0.6c0.1,0.2,0.3,0.3,0.4,0.4c0.2,0.1,0.4,0.2,0.6,0.2
		s0.4,0,0.6,0c0.3,0,0.7,0,1-0.1v1.7c-0.4,0.1-0.9,0.2-1.5,0.2c-0.4,0-0.8,0-1-0.1c-0.9-0.2-1.6-0.7-1.9-1.3
		c-0.2-0.3-0.3-0.7-0.3-1.1c-0.1-0.4-0.1-0.9-0.1-1.5v-4.1h-2.1v-1.6h2.1v-2.7h2v2.7h2.8v1.6L310.4,568.7L310.4,568.7z"/>
	<path class="st10" d="M317.6,574.1c0.2,0.3,0.5,0.5,0.9,0.7s0.7,0.2,1.1,0.2s0.8-0.1,1.1-0.2c0.3-0.2,0.6-0.4,0.9-0.7
		c0,0,0.1-0.2,0.2-0.4l2,0.9c-0.2,0.3-0.3,0.6-0.5,0.8c-0.4,0.5-1,0.9-1.6,1.1c-0.6,0.3-1.2,0.4-1.9,0.4c-0.8,0-1.5-0.1-2.1-0.4
		s-1.2-0.7-1.6-1.2c-0.8-0.9-1.1-2.1-1.1-3.4c0-1.5,0.4-2.6,1.1-3.6c0.4-0.5,1-0.9,1.6-1.2s1.3-0.4,2-0.4s1.4,0.1,2,0.4
		s1.1,0.7,1.6,1.2c0.8,0.9,1.1,2.1,1.1,3.5c0,0.1,0,0.3,0,0.5H317C317.1,573.2,317.3,573.7,317.6,574.1z M318.5,568.9
		c-0.4,0.2-0.6,0.4-0.9,0.7c-0.2,0.3-0.4,0.7-0.5,1.2h5c-0.1-0.5-0.3-0.9-0.5-1.2s-0.5-0.5-0.9-0.7c-0.3-0.2-0.7-0.2-1.1-0.2
		S318.8,568.8,318.5,568.9z"/>
	<path class="st10" d="M332.3,567.1v1.9c-0.4-0.2-0.8-0.2-1.4-0.2c-0.9,0-1.5,0.2-1.9,0.7c-0.3,0.3-0.5,0.6-0.6,1s-0.2,0.8-0.2,1.4
		v4.9h-2v-9.6h1.8v1.4c0.2-0.4,0.5-0.7,0.9-1c0.5-0.4,1.1-0.6,1.9-0.6C331.3,566.8,331.8,566.9,332.3,567.1z"/>
	<path class="st10" d="M336.3,575.1l3.3-3.3l-3.3-3.3l1-1l4.3,4.2l-4.3,4.2L336.3,575.1z"/>
</g>
<g class="st12">
	<path class="st6" d="M230.8,68.7c-0.9,0.3-3.4,1.4-4.6,2c1.3,0.7,4.3,2.1,5.9,2.7v0.5c0,0.7-0.7,0.9-1.3,0.9c-0.2,0-0.7-0.2-1-0.3
		c-1.6-0.6-4.7-2.2-6.4-3.4v-0.3c0-0.6,0.4-1,1-1.4c1.4-0.8,5.5-2.7,7.7-3.3V67C232.2,67.7,231.8,68.3,230.8,68.7z"/>
	<path class="st6" d="M242.4,75.9c-1,0-1.6-0.6-1.6-1.6v-4c0-1.6-0.9-2.2-1.9-2.2c-0.8,0-1.7,0.6-1.7,2.3v5.5h-0.8
		c-1.1,0-1.7-0.6-1.7-1.6V62.9h0.8c1.2,0,1.7,0.6,1.7,1.5v2.8c0.4-0.6,1.2-1.3,2.1-1.3c2.5,0,4,1.5,4,4.3v5.7H242.4z"/>
	<path class="st6" d="M249.2,72.1h-1.6c0.2,1.2,1.3,2,2.7,2c1,0,2.2-0.2,3-0.9h0.1V74c0,1.2-0.8,2.2-3.5,2.2c-2.4,0-4.8-1.9-4.8-4.9
		c0-3.2,2-5.3,4.8-5.3c2,0,3.9,1.4,3.9,3.8C253.8,71.5,252.4,72.1,249.2,72.1z M249.6,68c-1.2,0-2,1-2,2.1v0.3h1.1
		c2.3,0,2.8-0.3,2.8-0.9C251.5,68.4,250.8,68,249.6,68z"/>
	<path class="st6" d="M259.5,76H259c-2.3,0-3.9-1.3-3.9-3.1c0-1.7,1.3-3,4.8-3h0.8v-0.1c0-1.4-0.6-1.8-2.1-1.8
		c-1.7,0-2.7,0.7-3.1,1.1h-0.1v-0.8c0-1.1,1-2.4,3.5-2.4c2.2,0,4.1,1,4.1,4.4v2.2C263.2,74.6,261.7,76,259.5,76z M260.9,71.6H260
		c-1.8,0-2.4,0.4-2.4,1.2c0,0.8,0.6,1.2,1.7,1.2c1,0,1.5-0.5,1.5-1.5L260.9,71.6L260.9,71.6z"/>
	<path class="st6" d="M269.2,76.1c-2.6,0-4.5-2.2-4.5-4.9c0-3.2,1.5-5.3,4.4-5.3c1,0,2,0.7,2.4,1.5v-4.6h0.7c1.2,0,1.7,0.7,1.7,1.6
		v6.8C273.9,74.2,272.5,76.1,269.2,76.1z M269.1,68c-1.2,0-2,1.2-2,2.8c0,2,1,3.3,2.4,3.3s1.9-1,1.9-2.8
		C271.4,68.9,270.4,68,269.1,68z"/>
	<path class="st6" d="M279.8,72.1h-1.6c0.2,1.2,1.3,2,2.7,2c1,0,2.2-0.2,3-0.9h0.1V74c0,1.2-0.8,2.2-3.5,2.2c-2.4,0-4.8-1.9-4.8-4.9
		c0-3.2,2-5.3,4.8-5.3c2,0,3.9,1.4,3.9,3.8C284.4,71.5,283,72.1,279.8,72.1z M280.3,68c-1.2,0-2,1-2,2.1v0.3h1.1
		c2.3,0,2.8-0.3,2.8-0.9C282.1,68.4,281.4,68,280.3,68z"/>
	<path class="st6" d="M291.8,68.5c-0.4-0.1-0.8-0.3-1.4-0.3c-1.1,0-1.7,0.6-1.7,2.1v5.6H288c-1.1,0-1.8-0.5-1.8-1.5v-4.5
		c0-1.9,1-3.8,3.6-3.8c1.5,0,2,0.8,2,1.6L291.8,68.5L291.8,68.5z"/>
	<path class="st6" d="M294.5,72.4c0.9-0.3,3.4-1.4,4.6-2c-1.3-0.7-4.3-2.1-5.9-2.7v-0.5c0-0.7,0.7-0.9,1.3-0.9c0.3,0,0.8,0.2,1,0.3
		c1.7,0.6,4.7,2.2,6.4,3.4v0.3c0,0.6-0.4,1-1,1.4c-1.4,0.8-5.5,2.7-7.7,3.3v-0.8C293.1,73.3,293.5,72.7,294.5,72.4z"/>
</g>
<g class="st12">
	<path class="st6" d="M239.8,368.7c-0.9,0.3-3.4,1.4-4.6,2c1.3,0.7,4.3,2.1,5.9,2.7v0.5c0,0.7-0.7,0.9-1.3,0.9c-0.2,0-0.7-0.2-1-0.3
		c-1.6-0.6-4.7-2.2-6.4-3.4v-0.3c0-0.6,0.4-1,1-1.4c1.4-0.8,5.5-2.7,7.7-3.3v0.8C241.2,367.7,240.8,368.3,239.8,368.7z"/>
	<path class="st6" d="M249.1,365.1c-0.4-0.1-0.8-0.2-1.4-0.2c-1,0-1.7,0.3-1.7,1.6v0.9h2.8v0.7c0,0.9-0.9,1.4-1.7,1.4h-1v6.5h-1
		c-0.8,0-1.5-0.6-1.5-1.4v-8.1c0-1.4,1-3.6,3.8-3.6c1,0,1.9,0.6,1.9,1.5L249.1,365.1L249.1,365.1z"/>
	<path class="st6" d="M254.6,365.9c2.9,0,4.6,2.3,4.6,4.9c0,2.9-1.7,5.2-4.8,5.2c-2.9,0-4.6-2.3-4.6-4.9
		C249.8,368.3,251.4,365.9,254.6,365.9z M254.3,368.1c-1.4,0-2.1,1.2-2.1,2.8c0,1.9,0.7,3.1,2.3,3.1c1.4,0,2.1-1.2,2.1-2.7
		C256.6,369.3,255.9,368.1,254.3,368.1z"/>
	<path class="st6" d="M265.4,365.9c2.9,0,4.6,2.3,4.6,4.9c0,2.9-1.7,5.2-4.8,5.2c-2.9,0-4.6-2.3-4.6-4.9
		C260.6,368.3,262.3,365.9,265.4,365.9z M265.2,368.1c-1.4,0-2.1,1.2-2.1,2.8c0,1.9,0.7,3.1,2.3,3.1c1.4,0,2.1-1.2,2.1-2.7
		C267.5,369.3,266.8,368.1,265.2,368.1z"/>
	<path class="st6" d="M272.7,364.6c0.3-0.4,0.8-0.7,1.1-0.7h0.6v2.2h3.4v1c0,0.5-0.5,1.2-1.4,1.2h-1.9v3.8c0,1.3,0.6,1.7,1.5,1.7
		c0.8,0,1.4-0.1,1.7-0.3h0.1v0.9c0,1-0.7,1.6-2.1,1.6c-2.4,0-3.6-1.3-3.6-3.6v-5.8C272,365.6,272.1,365.2,272.7,364.6z"/>
	<path class="st6" d="M282.8,372.1h-1.6c0.2,1.2,1.3,2,2.7,2c1,0,2.2-0.2,3-0.9h0.1v0.8c0,1.2-0.8,2.2-3.5,2.2
		c-2.4,0-4.8-1.9-4.8-4.9c0-3.2,2-5.3,4.8-5.3c2,0,3.9,1.4,3.9,3.8C287.4,371.5,286,372.1,282.8,372.1z M283.3,368c-1.2,0-2,1-2,2.1
		v0.3h1.1c2.3,0,2.8-0.3,2.8-0.9C285.1,368.4,284.4,368,283.3,368z"/>
	<path class="st6" d="M294.7,368.5c-0.4-0.1-0.8-0.3-1.4-0.3c-1.1,0-1.7,0.6-1.7,2.1v5.6H291c-1.1,0-1.8-0.5-1.8-1.5v-4.5
		c0-1.9,1-3.8,3.6-3.8c1.5,0,2,0.8,2,1.6L294.7,368.5L294.7,368.5z"/>
	<path class="st6" d="M297.5,372.4c0.9-0.3,3.4-1.4,4.6-2c-1.3-0.7-4.3-2.1-5.9-2.7v-0.5c0-0.7,0.7-0.9,1.3-0.9c0.3,0,0.8,0.2,1,0.3
		c1.7,0.6,4.7,2.2,6.4,3.4v0.3c0,0.6-0.4,1-1,1.4c-1.4,0.8-5.5,2.7-7.7,3.3v-0.8C296.1,373.3,296.5,372.7,297.5,372.4z"/>
</g>
<path class="st13" d="M186,336H77c-4.9,0-9-4-9-9V114c0-4.9,4.1-9,9-9h109c4.9,0,9,4.1,9,9v213C195,332,190.9,336,186,336z"/>
<g class="st12">
	<path class="st6" d="M113.8,217.7c-0.9,0.3-3.4,1.4-4.6,2c1.3,0.7,4.3,2.1,5.9,2.7v0.5c0,0.7-0.7,0.9-1.3,0.9c-0.2,0-0.7-0.2-1-0.3
		c-1.6-0.6-4.7-2.2-6.4-3.4v-0.3c0-0.6,0.4-1,1-1.4c1.4-0.8,5.5-2.7,7.7-3.3v0.8C115.2,216.7,114.8,217.3,113.8,217.7z"/>
	<path class="st6" d="M125.5,224.9c-1.1,0-1.8-0.7-1.8-1.6v-3.9c0-1.6-0.7-2.4-2-2.4c-1,0-1.8,0.8-1.8,2.2v5.6h-0.7
		c-1,0-1.7-0.7-1.7-1.6V219c0-2.1,1.4-4.2,4.4-4.2c2.3,0,4.2,1.5,4.2,4.3v5.7L125.5,224.9L125.5,224.9z"/>
	<path class="st6" d="M132.4,225h-0.5c-2.3,0-3.9-1.3-3.9-3.1c0-1.7,1.3-3,4.8-3h0.8v-0.1c0-1.4-0.6-1.8-2.1-1.8
		c-1.7,0-2.7,0.7-3.1,1.1h-0.1v-0.8c0-1.1,1-2.4,3.5-2.4c2.2,0,4.1,1,4.1,4.4v2.2C136.1,223.6,134.6,225,132.4,225z M133.7,220.6
		h-0.9c-1.8,0-2.4,0.4-2.4,1.2s0.6,1.2,1.7,1.2c1,0,1.5-0.5,1.5-1.5L133.7,220.6L133.7,220.6z"/>
	<path class="st6" d="M145,219.4c-0.6,1.8-1.7,4.1-2.8,5.6h-0.5c-0.7,0-1.1-0.3-1.6-1c-1.3-2-3-6.2-3.2-8.9h1.3
		c0.8,0,1.4,0.6,1.4,1.2c0.3,1.8,0.8,3.7,1.9,5.7c0.9-1.8,1.8-4.4,2.1-6.8h1c0.8,0,1.1,0.4,1.1,1.2
		C145.9,216.6,145.6,217.8,145,219.4z"/>
	<path class="st6" d="M148.6,221.4c0.9-0.3,3.4-1.4,4.6-2c-1.3-0.7-4.3-2.1-5.9-2.7v-0.5c0-0.7,0.7-0.9,1.3-0.9c0.3,0,0.8,0.2,1,0.3
		c1.7,0.6,4.7,2.2,6.4,3.4v0.3c0,0.6-0.4,1-1,1.4c-1.4,0.8-5.5,2.7-7.7,3.3v-0.8C147.2,222.3,147.6,221.7,148.6,221.4z"/>
</g>
<g class="st12">
	<path class="st6" d="M303.8,217.7c-0.9,0.3-3.4,1.4-4.6,2c1.3,0.7,4.3,2.1,5.9,2.7v0.5c0,0.7-0.7,0.9-1.3,0.9c-0.2,0-0.7-0.2-1-0.3
		c-1.6-0.6-4.7-2.2-6.4-3.4v-0.3c0-0.6,0.4-1,1-1.4c1.4-0.8,5.5-2.7,7.7-3.3v0.8C305.2,216.7,304.8,217.3,303.8,217.7z"/>
	<path class="st6" d="M321.1,224.9c-1.3,0-1.8-0.6-1.8-1.8v-3.7c0-1.6-0.7-2.3-1.8-2.3c-1,0-1.6,0.7-1.6,2v5.8h-0.6
		c-1.1,0-1.8-0.6-1.8-1.8v-3.7c0-1.6-0.7-2.3-1.8-2.3c-0.9,0-1.6,0.7-1.6,2.1v5.7h-0.6c-1,0-1.7-0.6-1.7-1.8v-3.8
		c0-2.6,1.4-4.4,4.3-4.4c1.3,0,2.3,0.6,3,1.5c0.6-0.9,1.6-1.5,2.8-1.5c2.2,0,4,1.4,4,4.1v5.8L321.1,224.9L321.1,224.9z"/>
	<path class="st6" d="M328,225h-0.5c-2.3,0-3.9-1.3-3.9-3.1c0-1.7,1.3-3,4.8-3h0.8v-0.1c0-1.4-0.6-1.8-2.1-1.8
		c-1.7,0-2.7,0.7-3.1,1.1h0v-0.8c0-1.1,1-2.4,3.5-2.4c2.2,0,4.1,1,4.1,4.4v2.2C331.6,223.6,330.1,225,328,225z M329.3,220.6h-0.9
		c-1.8,0-2.4,0.4-2.4,1.2s0.6,1.2,1.7,1.2c1,0,1.5-0.5,1.5-1.5L329.3,220.6L329.3,220.6z"/>
	<path class="st6" d="M335,214.5c-0.8,0-1.4-0.6-1.4-1.4c0-0.8,0.6-1.4,1.4-1.4s1.4,0.6,1.4,1.4C336.5,213.8,335.8,214.5,335,214.5z
		 M336.8,225c-1.9,0-2.9-1.1-2.9-3v-6.6h0.7c1.1,0,1.7,0.6,1.7,1.8v4.5c0,1,0.4,1.3,1.5,1.3h0.5v0.5
		C338.2,224.6,337.8,225,336.8,225z"/>
	<path class="st6" d="M347.5,224.9c-1.1,0-1.8-0.7-1.8-1.6v-3.9c0-1.6-0.7-2.4-2-2.4c-1,0-1.8,0.8-1.8,2.2v5.6h-0.7
		c-1,0-1.7-0.7-1.7-1.6V219c0-2.1,1.4-4.2,4.4-4.2c2.3,0,4.2,1.5,4.2,4.3v5.7L347.5,224.9L347.5,224.9z"/>
	<path class="st6" d="M351.8,221.4c0.9-0.3,3.4-1.4,4.6-2c-1.3-0.7-4.3-2.1-5.9-2.7v-0.5c0-0.7,0.7-0.9,1.3-0.9c0.3,0,0.8,0.2,1,0.3
		c1.7,0.6,4.7,2.2,6.4,3.4v0.3c0,0.6-0.4,1-1,1.4c-1.4,0.8-5.5,2.7-7.7,3.3v-0.8C350.4,222.3,350.8,221.7,351.8,221.4z"/>
</g>
</svg>
