<?xml version="1.0" encoding="utf-8"?>
<!-- Generator: Adobe Illustrator 21.0.2, SVG Export Plug-In . SVG Version: 6.00 Build 0)  -->
<svg version="1.1" id="Слой_1" xmlns="http://www.w3.org/2000/svg" xmlns:xlink="http://www.w3.org/1999/xlink" x="0px" y="0px"
	 viewBox="0 0 50 80" style="enable-background:new 0 0 50 80;" xml:space="preserve">
<style type="text/css">
	.st0{fill:#E6E6E6;}
	.st1{fill:#27DEBF;}
	.st2{opacity:0.5;}
	.st3{fill:#FFFFFF;}
	.st4{opacity:0.7;}
	.st5{opacity:0.3;}
	.st6{fill:#F5F5F5;}
	.st7{opacity:0.25;}
	.st8{opacity:0.1;enable-background:new    ;}
</style>
<path id="Shadow-4" class="st0" d="M40.7,75.6c8.2-4.7,8.2-12.4,0-17.1s-21.4-4.7-29.6,0s-8.2,12.4,0,17.1
	C19.3,80.3,32.5,80.3,40.7,75.6z"/>
<g id="Plant">
	<g id="Pot">
		<g id="_Группа_48">
			<g id="_Группа_49">
				<g id="_Группа_50">
					<g id="_Группа_51">
						<path id="_Контур_116" class="st1" d="M13.4,69.4c-5.8-6-9.3-30.6-3.6-35.4h29c5.7,4.8,2.3,29.3-3.6,35.4l-0.2,0.2
							l-0.2,0.2c-0.2,0.2-0.3,0.3-0.5,0.5l-0.1,0.1c-0.1,0.1-0.3,0.2-0.4,0.3c-0.2,0.2-0.5,0.3-0.8,0.5c-4.8,2.8-12.6,2.8-17.4,0
							l0,0c-0.3-0.1-0.5-0.3-0.8-0.5c-0.1-0.1-0.3-0.2-0.4-0.3l-0.2-0.1c-0.2-0.2-0.3-0.3-0.5-0.5l-0.2-0.2L13.4,69.4z"/>
					</g>
					<g id="_Группа_52" class="st2">
						<path id="_Контур_117" class="st3" d="M13.4,69.4c-5.8-6-9.3-30.6-3.6-35.4h29c5.7,4.8,2.3,29.3-3.6,35.4l-0.2,0.2
							l-0.2,0.2c-0.2,0.2-0.3,0.3-0.5,0.5l-0.1,0.1c-0.1,0.1-0.3,0.2-0.4,0.3c-0.2,0.2-0.5,0.3-0.8,0.5c-4.8,2.8-12.6,2.8-17.4,0
							l0,0c-0.3-0.1-0.5-0.3-0.8-0.5c-0.1-0.1-0.3-0.2-0.4-0.3l-0.2-0.1c-0.2-0.2-0.3-0.3-0.5-0.5l-0.2-0.2L13.4,69.4z"/>
					</g>
					<g id="_Группа_53">
						<path id="_Контур_118" class="st1" d="M36.3,32.1c6.6,3.9,6.6,10.1,0,14s-17.4,3.9-24,0s-6.6-10.1,0-14
							S29.7,28.2,36.3,32.1z"/>
					</g>
					<g id="_Группа_54" class="st4">
						<path id="_Контур_119" class="st3" d="M36.3,32.1c6.6,3.9,6.6,10.1,0,14s-17.4,3.9-24,0s-6.6-10.1,0-14
							S29.7,28.2,36.3,32.1z"/>
					</g>
					<g id="_Группа_55">
						<path id="_Контур_120" class="st1" d="M33.2,33.9c4.9,2.8,4.9,7.4,0,10.3s-12.7,2.8-17.6,0s-4.9-7.4,0-10.3
							S28.3,31.1,33.2,33.9z"/>
					</g>
					<g id="_Группа_56" class="st5">
						<path id="_Контур_121" d="M33.2,33.9c4.9,2.8,4.9,7.4,0,10.3s-12.7,2.8-17.6,0s-4.9-7.4,0-10.3S28.3,31.1,33.2,33.9z"/>
					</g>
					<g id="_Группа_57">
						<path id="_Контур_122" class="st6" d="M15.6,38.8c4.9-2.8,12.7-2.8,17.6,0c1.2,0.6,2.2,1.6,2.9,2.7
							c-0.7,1.1-1.7,2.1-2.9,2.7c-4.9,2.8-12.7,2.8-17.6,0c-1.2-0.6-2.2-1.6-2.9-2.7C13.4,40.4,14.4,39.5,15.6,38.8z"/>
					</g>
				</g>
			</g>
		</g>
		<g id="Plants">
			<g id="_Группа_58">
				<g id="_Группа_59">
					<path id="_Контур_123" class="st1" d="M22,26.4c-0.3-0.7-0.6-1.4-0.7-2.1c-0.3-1.8,0.1-3.8,1.5-4.9
						c0.6-0.4,1.3-0.8,1.5-1.4c0.1-0.4,0.1-0.8,0-1.2c-0.3-1.5-0.8-3.1-0.4-4.5c0.5-1.4,1.5-2.5,2.8-3c1.3-0.5,2.7-0.9,4.1-1.1
						c0.8-0.1,1.5-0.3,2.2-0.6c0.8-0.5,1.1-1.3,1.6-2c0.6-0.8,1.3-1.5,2-2.1C38.1,2.2,40,1.1,42,1.2c4.3,0.2,4.1,3.9,2.9,6.6
						c-1.2,2.8-1.6,3.7,1.1,6.6s2.7,6.5-0.5,8.5s-5.3,2.3-4,6.1c1.1,3.4,1.8,6.4-1.4,10.1c-2.1,2.4-4.9,4.1-8.4,3.9
						c-1.4-0.1-2.8-0.4-4.1-1c-1-0.5-0.3-1.2-0.6-2.2l-2.1-6.2c-0.5-1.6-1-3.3-1.7-4.9C22.9,28,22.4,27.2,22,26.4z"/>
				</g>
				<g id="_Группа_60" class="st7">
					<path id="_Контур_124" d="M22,26.4c-0.3-0.7-0.6-1.4-0.7-2.1c-0.3-1.8,0.1-3.8,1.5-4.9c0.6-0.4,1.3-0.8,1.5-1.4
						c0.1-0.4,0.1-0.8,0-1.2c-0.3-1.5-0.8-3.1-0.4-4.5c0.5-1.4,1.5-2.5,2.8-3c1.3-0.5,2.7-0.9,4.1-1.1c0.8-0.1,1.5-0.3,2.2-0.6
						c0.8-0.5,1.1-1.3,1.6-2c0.6-0.8,1.3-1.5,2-2.1C38.1,2.2,40,1.1,42,1.2c4.3,0.2,4.1,3.9,2.9,6.6c-1.2,2.8-1.6,3.7,1.1,6.6
						s2.7,6.5-0.5,8.5s-5.3,2.3-4,6.1c1.1,3.4,1.8,6.4-1.4,10.1c-2.1,2.4-4.9,4.1-8.4,3.9c-1.4-0.1-2.8-0.4-4.1-1
						c-1-0.5-0.3-1.2-0.6-2.2l-2.1-6.2c-0.5-1.6-1-3.3-1.7-4.9C22.9,28,22.4,27.2,22,26.4z"/>
				</g>
				<g id="_Группа_61">
					<path id="_Контур_125" class="st3" d="M27.8,42c0.1,0,0.2-0.2,0.2-0.3C27.8,20.7,39.4,8.1,39.5,7.9
						c0.1-0.1,0.1-0.3,0-0.5c-0.1-0.1-0.3-0.1-0.4,0c0,0,0,0,0,0C39,7.6,27.2,20.4,27.4,41.7C27.4,41.9,27.5,42,27.8,42L27.8,42z"/>
				</g>
				<g id="_Группа_62">
					<path id="_Контур_126" class="st3" d="M31.2,22.4L31.2,22.4c3.8-2.4,10.6-4.2,10.7-4.2c0.2,0,0.3-0.2,0.2-0.4
						c0-0.2-0.2-0.3-0.4-0.2l0,0c-0.3,0.1-6.9,1.8-10.8,4.2c-0.1,0.1-0.2,0.3-0.1,0.4C30.9,22.4,31,22.5,31.2,22.4z"/>
				</g>
				<g id="_Группа_63">
					<path id="_Контур_127" class="st3" d="M32.3,19.5L32.3,19.5c0.2-0.1,0.2-0.3,0.2-0.4C31.6,17,30.4,15,29,13.2
						c-0.1-0.1-0.3-0.2-0.4,0c0,0,0,0,0,0c-0.1,0.1-0.1,0.3,0,0.4c1.4,1.7,2.5,3.7,3.4,5.7C32,19.5,32.2,19.6,32.3,19.5
						C32.3,19.5,32.3,19.5,32.3,19.5z"/>
				</g>
			</g>
			<g id="_Группа_64">
				<path id="_Контур_128" class="st1" d="M24.8,44.3c-3,0.9-6.2,1.1-9.3,0.3C10.2,43.5,7,38.5,7,38.5s5.7-2.3,9.1-2.5
					c-3.3-0.5-6.7-0.4-10.1,0.2c0,0-3.1-1.1-2.5-6.3c0,0,2.9-2.1,9.6-1.3c0,0-3.3-2.4-9.2-3.1c-0.5,0,0.2-6.8,0.7-9.8
					s1.7-2.5,4.1-2.3c2.4,0.3,9.5,1.9,10.4,3.6c0.9,1.7,0,6.2,0,6.2c1.2-1.7,1.9-3.7,2-5.8c0,0,2.7,1,4.1,2.3c1.1,0.9,1.9,2,2.5,3.2
					c-0.3,2.4-1.4,6-3,8c0,0,3.5-2.3,4.3-6.5c1.8,2.4,2.7,5.3,2.8,8.3C31.7,38,29.4,41.9,24.8,44.3z"/>
				<path id="_Контур_129" class="st8" d="M24.8,44.3c-3,0.9-6.2,1.1-9.3,0.3C10.2,43.5,7,38.5,7,38.5s5.7-2.3,9.1-2.5
					c-3.3-0.5-6.7-0.4-10.1,0.2c0,0-3.1-1.1-2.5-6.3c0,0,2.9-2.1,9.6-1.3c0,0-3.3-2.4-9.2-3.1c-0.5,0,0.2-6.8,0.7-9.8
					s1.7-2.5,4.1-2.3c2.4,0.3,9.5,1.9,10.4,3.6c0.9,1.7,0,6.2,0,6.2c1.2-1.7,1.9-3.7,2-5.8c0,0,2.7,1,4.1,2.3c1.1,0.9,1.9,2,2.5,3.2
					c-0.3,2.4-1.4,6-3,8c0,0,3.5-2.3,4.3-6.5c1.8,2.4,2.7,5.3,2.8,8.3C31.7,38,29.4,41.9,24.8,44.3z"/>
				<g id="_Группа_65">
					<path id="_Контур_130" class="st3" d="M25.5,43.8c-0.1,0-0.2-0.1-0.2-0.3c-0.8-10.1-12.1-25.8-17-28.9
						c-0.1-0.1-0.2-0.3-0.1-0.4c0.1-0.1,0.3-0.2,0.4-0.1c5.1,3.2,16.5,19.2,17.3,29.4c0,0.2-0.1,0.3-0.3,0.3
						C25.6,43.9,25.6,43.9,25.5,43.8z"/>
				</g>
			</g>
		</g>
	</g>
</g>
</svg>
