<svg id="Слой_1" data-name="Слой 1" xmlns="http://www.w3.org/2000/svg" viewBox="0 0 100 100"><defs><style>.cls-1{fill:#455a64;}.cls-2,.cls-9{opacity:0.1;}.cls-3{fill:#fff;}.cls-4{fill:#263238;}.cls-5{fill:#f5f5f5;}.cls-6{fill:#27debf;}.cls-7{fill:#fafafa;}.cls-8{opacity:0.15;}.cls-10,.cls-8,.cls-9{isolation:isolate;}.cls-10{opacity:0.05;}</style></defs><title>Монтажная область 1</title><g id="Plant"><g id="Pot"><g id="Pot-2"><g id="_Группа_28" data-name=" Группа 28"><path id="_Контур_82" data-name=" Контур 82" class="cls-1" d="M40.3,86.54c-4.87-5-7.73-25.47-3-29.45H61.49c4.74,4,1.89,24.42-3,29.45l-.14.14-.17.17c-.14.14-.28.27-.44.4l-.12.09c-.12.09-.23.19-.36.28a6.8,6.8,0,0,1-.62.41,15.89,15.89,0,0,1-14.5,0h0a6.8,6.8,0,0,1-.62-.41l-.34-.26-.14-.11-.43-.38-.19-.19Z"/></g><g id="_Группа_29" data-name=" Группа 29"><path id="_Контур_83" data-name=" Контур 83" class="cls-1" d="M59.36,55.49c5.51,3.22,5.51,8.44,0,11.66s-14.45,3.22-20,0-5.51-8.44,0-11.66S53.88,52.27,59.36,55.49Z"/></g><g id="_Группа_30" data-name=" Группа 30" class="cls-2"><path id="_Контур_84" data-name=" Контур 84" class="cls-3" d="M59.36,55.49c5.51,3.22,5.51,8.44,0,11.66s-14.45,3.22-20,0-5.51-8.44,0-11.66S53.88,52.27,59.36,55.49Z"/></g><g id="_Группа_31" data-name=" Группа 31"><path id="_Контур_85" data-name=" Контур 85" class="cls-4" d="M56.74,57c4,2.37,4,6.18,0,8.56a16,16,0,0,1-14.66,0c-4-2.37-4-6.18,0-8.56S52.69,54.7,56.74,57Z"/></g><g id="_Группа_32" data-name=" Группа 32"><path id="_Контур_86" data-name=" Контур 86" class="cls-5" d="M42.07,61.1a16,16,0,0,1,14.66,0,6.76,6.76,0,0,1,2.43,2.25,6.76,6.76,0,0,1-2.43,2.25,16,16,0,0,1-14.66,0,6.75,6.75,0,0,1-2.43-2.25A6.75,6.75,0,0,1,42.07,61.1Z"/></g></g><path class="cls-6" d="M62.8,17.43l-5.32,4.73,4.8-1.58a21.16,21.16,0,0,1-1.92,8.07l-5.93,3.19,4.75-.73a8.91,8.91,0,0,1-.25,4.19c0,.19-.11.38-.17.57-.43,1.28-1,3.71-2.06,6.59h0a42.27,42.27,0,0,1-3.32,7.26A29.32,29.32,0,0,1,51.16,53l-.15.2q-2.24-1.49-4.65-2.92a50.08,50.08,0,0,1-2.14-12.81C43.52,19.55,57.66,10.34,68.7,7.69A32.75,32.75,0,0,0,62.8,17.43Z"/><path class="cls-7" d="M55.09,17.64a13.33,13.33,0,0,0-2.51,3,27.07,27.07,0,0,0-1.77,3.53,36.11,36.11,0,0,0-2.17,7.57,33.36,33.36,0,0,0,.83,15.53h0a.26.26,0,0,1-.49.15h0a33.75,33.75,0,0,1-.62-15.75,36.3,36.3,0,0,1,2.35-7.55,27.18,27.18,0,0,1,1.85-3.51A13.36,13.36,0,0,1,55.09,17.64Z"/><path class="cls-6" d="M20,26.74h0a137.16,137.16,0,0,1,9.18,13.76l5.62,1.69-3.24,1.09,3.5,5.95,6.25,1.92L37,52.34s1.77,7,6.79,10.11c2.77,1.69,4.15,2,5,1.2.62-.54.85-3.89,1.44-6.86A22.9,22.9,0,0,0,48.39,43a18.33,18.33,0,0,0-2.8-4.4C39,30.86,26.33,26.83,20,26.74Z"/><path class="cls-8" d="M20,26.74h0a137.16,137.16,0,0,1,9.18,13.76l5.62,1.69-3.24,1.09,3.5,5.95,6.25,1.92L37,52.34s1.77,7,6.79,10.11c2.77,1.69,4.15,2,5,1.2.62-.54.85-3.89,1.44-6.86A22.9,22.9,0,0,0,48.39,43a18.33,18.33,0,0,0-2.8-4.4C39,30.86,26.33,26.83,20,26.74Z"/><path class="cls-9" d="M46.39,46.05h0a28,28,0,0,1,1.9,7.76h0a83.64,83.64,0,0,1,0,10.16,1.57,1.57,0,0,0,.53-.3c.62-.54.85-3.89,1.44-6.86A22.9,22.9,0,0,0,48.35,43a18.32,18.32,0,0,0-2.8-4.4C39,30.89,26.33,26.86,20,26.76c9.66,1.88,19.91,8.65,24.83,16.34A19.86,19.86,0,0,1,46.39,46.05Z"/><path class="cls-7" d="M29.64,30.08A37.92,37.92,0,0,1,42.3,39.41a25.19,25.19,0,0,1,4.23,6.71,24.12,24.12,0,0,1,1.79,7.71h0a31,31,0,0,0-2.21-7.51A29,29,0,0,0,42,39.68a33.36,33.36,0,0,0-5.69-5.4,44.17,44.17,0,0,0-6.68-4.16Z"/><path class="cls-6" d="M77.7,33.33h0a19.31,19.31,0,0,0-2.34,0A37.42,37.42,0,0,0,66.3,35c-1.09.34-2.19.73-3.27,1.17q-.81.33-1.61.71a25.94,25.94,0,0,0-7.14,4.8,16.44,16.44,0,0,0-2.55,3.18c-.09.15-.19.3-.28.45h0c-.22.4-.43.79-.62,1.17a22.39,22.39,0,0,0-2.6,10.88c0,2.67.69,5.77,1.18,6.3a1.23,1.23,0,0,0,.22.19c.74.53,2,.31,4.29-.83,4.67-2.28,6.79-8.6,6.79-8.6l-3-1.09,4.89-1.49,3.56-4.94-3.15-.75,5.45-1.49A121,121,0,0,1,77.7,33.35h0Z"/><path class="cls-10" d="M75.35,33.31A37.42,37.42,0,0,0,66.29,35c-1.09.34-2.19.73-3.27,1.17q-.81.33-1.61.71a25.94,25.94,0,0,0-7.14,4.8,16.44,16.44,0,0,0-2.55,3.18c-.09.15-.19.3-.28.45h0c-.22.4-.43.79-.62,1.17a22.39,22.39,0,0,0-2.59,10.9c0,2.67.69,5.77,1.18,6.3a1.23,1.23,0,0,0,.22.19,1.41,1.41,0,0,0,.49.21c-.33-4.16,2.29-14.54,5.6-18.68,3.45-4.32,11.41-10.4,22-12.06h0A19.33,19.33,0,0,0,75.35,33.31Z"/><path class="cls-7" d="M50.1,64.08A35.53,35.53,0,0,1,51.19,55a29.58,29.58,0,0,1,3.51-8.51,20.6,20.6,0,0,1,3-3.55,29.84,29.84,0,0,1,3.55-3,34.36,34.36,0,0,1,8.14-4.29,45.09,45.09,0,0,0-7.86,4.65A37.63,37.63,0,0,0,58,43.23a20.15,20.15,0,0,0-3,3.44A29.26,29.26,0,0,0,51.43,55a35.38,35.38,0,0,0-1.3,9h0Z"/></g></g><g id="_" data-name="&lt;/&gt;"><path class="cls-3" d="M58,56.46a1.1,1.1,0,0,1,.08-.44,2.9,2.9,0,0,1,.22-.41l4.15-6.71.07-.08,0,0a.12.12,0,0,1,.15,0,.27.27,0,0,1,.06.2v2.59a1.12,1.12,0,0,1-.12.54,3.76,3.76,0,0,1-.21.35l-1.82,2.79,1.82.71a.86.86,0,0,1,.21.1q.12.07.12.39v2.59a.63.63,0,0,1-.06.28.4.4,0,0,1-.15.19l0,0h-.07L58.3,57.63a.57.57,0,0,1-.22-.15.55.55,0,0,1-.08-.35Z"/><path class="cls-3" d="M67,45.08a2.17,2.17,0,0,1,.16-.42.74.74,0,0,1,.3-.33l1.39-.8a.12.12,0,0,1,.16,0,.28.28,0,0,1,.07.21.73.73,0,0,1,0,.16l-3.51,15a1.93,1.93,0,0,1-.15.4.76.76,0,0,1-.31.34l-1.36.78a.12.12,0,0,1-.16,0,.28.28,0,0,1-.07-.21.69.69,0,0,1,0-.16Z"/><path class="cls-3" d="M74.68,47.5a1.1,1.1,0,0,1-.08.44,3,3,0,0,1-.22.41l-4.15,6.71-.07.08,0,0a.12.12,0,0,1-.16,0,.27.27,0,0,1-.06-.2V52.37a1.08,1.08,0,0,1,.12-.53c.08-.14.15-.26.21-.35L72,48.69,70.23,48a.75.75,0,0,1-.21-.11c-.08-.06-.12-.19-.12-.4V44.9a.64.64,0,0,1,.06-.28.4.4,0,0,1,.16-.19l0,0h.07l4.15,1.92a.58.58,0,0,1,.22.15.56.56,0,0,1,.08.35Z"/></g><path class="cls-3" d="M29.18,68.53l1.9.27L31,73.86l1.6.23L32.67,69l1.9.27-.13,11L32.54,80l.05-4.5L31,75.27l-.05,4.5L29,79.49Z"/><path class="cls-3" d="M37.29,71.1l-1.69-.24,0-1.41,5.27.75,0,1.42-1.69-.24L39.07,81l-1.9-.28Z"/><path class="cls-3" d="M48.3,82.35l.07-6-1.6,3.38-1.54-.23L43.84,75.7l-.07,6-2-.29.13-11,1.9.27L46,76.46l2.41-5.21,1.9.27L50.2,82.63Z"/><path class="cls-3" d="M52,71.77l1.9.27-.12,9.7,2.23.33,0,1.43-4.13-.61Z"/></svg>