<svg xmlns="http://www.w3.org/2000/svg" viewBox="0 0 500 500"><defs><style>.cls-1{fill:#ebebeb;}.cls-2{fill:#27debf;}.cls-3{opacity:0.1;}.cls-10,.cls-4,.cls-9{fill:#fff;}.cls-5{fill:#37474f;}.cls-6{fill:#263238;}.cls-7{fill:#455a64;}.cls-8{fill:#f5f5f5;}.cls-9{opacity:0.4;}.cls-10{opacity:0.7;}.cls-11{fill:#e6e6e6;}</style></defs><title>Mesa de trabajo 1</title><g id="Floor"><g id="Floor-2" data-name="Floor"><path id="_Контур_" data-name="&lt;Контур&gt;" class="cls-1" d="M128.22,403.87c70.75,37.76,185.46,37.77,256.21,0s70.75-99,0-136.76-185.46-37.77-256.21,0S57.47,366.1,128.22,403.87Z"/></g></g><g id="Plants"><g id="Plants-2" data-name="Plants"><g id="_Группа_" data-name="&lt;Группа&gt;"><path id="_Контур_2" data-name="&lt;Контур&gt;" class="cls-2" d="M405.24,310.18l-10.32-6s-2.53-22.11-.85-39.23c2.36-24.06,17.9-53,36.44-46.21S422,250.08,416,270.48,405.24,310.18,405.24,310.18Z"/><path id="_Контур_3" data-name="&lt;Контур&gt;" class="cls-3" d="M405.24,310.18l-10.32-6s-2.53-22.11-.85-39.23c2.36-24.06,17.9-53,36.44-46.21S422,250.08,416,270.48,405.24,310.18,405.24,310.18Z"/><g id="_Группа_2" data-name="&lt;Группа&gt;"><path id="_Контур_4" data-name="&lt;Контур&gt;" class="cls-4" d="M399.87,307.47a.4.4,0,0,1-.39-.35c-3.51-27,6.1-67.8,25.49-83.29a.4.4,0,1,1,.5.62c-19.19,15.32-28.68,55.81-25.2,82.56a.4.4,0,0,1-.34.45Z"/></g></g><g id="_Группа_3" data-name="&lt;Группа&gt;"><path id="_Контур_5" data-name="&lt;Контур&gt;" class="cls-2" d="M410.75,314.45l-7.35-4.24s-1.25-15.17,6.19-33.6c6.48-16,22.54-29.36,30.63-26.56s7.88,8.53,3.94,14.54S416.25,284.92,410.75,314.45Z"/><g id="_Группа_4" data-name="&lt;Группа&gt;"><path id="_Контур_6" data-name="&lt;Контур&gt;" class="cls-4" d="M406.2,314.84h0a.4.4,0,0,1-.37-.42c2.42-37.76,21.52-56.33,33-59.16a.4.4,0,1,1,.19.77c-12.08,3-30.12,23.09-32.39,58.44A.4.4,0,0,1,406.2,314.84Z"/></g></g><g id="_Группа_5" data-name="&lt;Группа&gt;"><path id="_Контур_7" data-name="&lt;Контур&gt;" class="cls-2" d="M108,313.12s1.37-22.17-11.51-37.37-29.64-15.14-35.2-12.31-9.27,10.92.28,16.71,29.86,17.37,33.23,27.71Z"/><path id="_Контур_8" data-name="&lt;Контур&gt;" class="cls-3" d="M108,313.12s1.37-22.17-11.51-37.37-29.64-15.14-35.2-12.31-9.27,10.92.28,16.71,29.86,17.37,33.23,27.71Z"/><g id="_Группа_6" data-name="&lt;Группа&gt;"><path id="_Контур_9" data-name="&lt;Контур&gt;" class="cls-4" d="M101.94,307.57a.5.5,0,0,1-.5-.45C98.79,282.59,74.27,269,64.5,267.46a.5.5,0,0,1-.42-.57.51.51,0,0,1,.57-.42c10,1.57,35.07,15.47,37.78,40.55a.5.5,0,0,1-.44.55Z"/></g></g><g id="_Группа_7" data-name="&lt;Группа&gt;"><path id="_Контур_10" data-name="&lt;Контур&gt;" class="cls-2" d="M97.17,301.94c-3.23-7.36-6.88-10.66-17.38-8.9s-9,1.49-21.85-1.8c-5.42-1.38-11.51-1.6-16.7.74-4.39,2-7.67,6-3.42,10.26C42.59,307,49.72,308.63,55,312.82a8.33,8.33,0,0,1,2.76,3.33c1.39,3.54-1.39,7.53-.58,11.24s4.71,5.69,8.37,5.93,7.27-.86,10.92-1.28,7.75,0,10.26,2.71c2.7,2.88,2.77,7.46,5.28,10.51,3.77,4.58,13,5.84,18,3l13.09-7.54c8.65-11.66-5-20.9-12.15-30C107.49,306.35,99.11,306.37,97.17,301.94Z"/><g id="_Группа_8" data-name="&lt;Группа&gt;"><path id="_Контур_11" data-name="&lt;Контур&gt;" class="cls-4" d="M115,333.67a.5.5,0,0,1-.43-.24C99.65,309.24,59,297,44.62,296a.5.5,0,0,1-.46-.53.51.51,0,0,1,.53-.46c14.57,1,55.61,13.42,70.74,37.92a.5.5,0,0,1-.16.69A.51.51,0,0,1,115,333.67Z"/></g><g id="_Группа_9" data-name="&lt;Группа&gt;"><path id="_Контур_12" data-name="&lt;Контур&gt;" class="cls-4" d="M67.71,322.27a.5.5,0,0,1-.3-.9c.52-.39,12.92-9.49,25-9.67h0a.5.5,0,0,1,0,1c-11.73.18-24.26,9.38-24.39,9.47A.5.5,0,0,1,67.71,322.27Z"/></g></g></g></g><g id="Device"><g id="Laptop"><path id="_Контур_13" data-name="&lt;Контур&gt;" class="cls-5" d="M114.07,342.17a9.29,9.29,0,0,0,4.33,7.19l121.33,70a9.57,9.57,0,0,0,8.66,0l166-95.84a8.14,8.14,0,0,0,0-14.38l-121.33-70a9.57,9.57,0,0,0-8.66,0L118.4,335A9.28,9.28,0,0,0,114.07,342.17Z"/><path id="_Контур_14" data-name="&lt;Контур&gt;" class="cls-6" d="M164.13,308.58,118.4,335a8.14,8.14,0,0,0,0,14.38l121.33,70a8.85,8.85,0,0,0,4.33,1V308.58Z"/><path id="_Контур_15" data-name="&lt;Контур&gt;" class="cls-7" d="M110,335.14a9.29,9.29,0,0,1-4.06-7.35V183a9.57,9.57,0,0,1,4.33-7.5l166-95.84a8.14,8.14,0,0,1,12.45,7.19V231.64a9.57,9.57,0,0,1-4.33,7.5L118.4,335A9.28,9.28,0,0,1,110,335.14Z"/><path id="_Контур_16" data-name="&lt;Контур&gt;" class="cls-6" d="M126.26,189.73l-19-11a8.85,8.85,0,0,0-1.27,4.27V327.79a9.29,9.29,0,0,0,4.06,7.35,9.28,9.28,0,0,0,8.39-.15L137.34,324Z"/><path id="_Контур_17" data-name="&lt;Контур&gt;" class="cls-5" d="M114.07,187.7V332.48c0,2.76,1.94,3.88,4.33,2.5l166-95.84a9.57,9.57,0,0,0,4.33-7.5V86.85c0-2.76-1.94-3.88-4.33-2.5l-166,95.84A9.57,9.57,0,0,0,114.07,187.7Z"/><path id="_Контур_18" data-name="&lt;Контур&gt;" class="cls-7" d="M118.4,340l121.33,70a9.57,9.57,0,0,0,8.66,0l166-95.84c2.39-1.38,2.39-3.62,0-5l-121.33-70a9.57,9.57,0,0,0-8.66,0L118.4,335C116,336.36,116,338.6,118.4,340Z"/><path id="_Контур_19" data-name="&lt;Контур&gt;" class="cls-4" d="M120.73,188.23,282.08,95.08c1.43-.83,2.6-.16,2.6,1.5V221.91a5.74,5.74,0,0,1-2.6,4.5L120.73,319.56c-1.43.83-2.6.16-2.6-1.5V192.73A5.74,5.74,0,0,1,120.73,188.23Z"/><path id="_Контур_20" data-name="&lt;Контур&gt;" class="cls-6" d="M132.48,336.23l154.09-89a4.79,4.79,0,0,1,4.33,0l7.88,4.55a1.32,1.32,0,0,1,0,2.5L144.67,343.27a4.79,4.79,0,0,1-4.33,0l-7.86-4.54A1.32,1.32,0,0,1,132.48,336.23Z"/><path id="_Контур_21" data-name="&lt;Контур&gt;" class="cls-6" d="M152.8,348l154.09-89a4.79,4.79,0,0,1,4.33,0l48.48,28a1.32,1.32,0,0,1,0,2.5L205.78,378.32a4.81,4.81,0,0,1-4.33,0L152.8,350.45A1.31,1.31,0,0,1,152.8,348Z"/><path id="_Составной_контур_" data-name="&lt;Составной контур&gt;" class="cls-7" d="M290.92,299l4.82-2.79c.21-.12.19-.32,0-.44l-5.58-3.22a.85.85,0,0,0-.77,0l-4.82,2.79c-.21.12-.19.32,0,.44l5.58,3.22A.85.85,0,0,0,290.92,299ZM281.4,288l-4.82,2.79c-.2.12-.19.32,0,.44l5.58,3.22a.85.85,0,0,0,.77,0l4.82-2.79c.21-.12.19-.32,0-.44L282.17,288A.85.85,0,0,0,281.4,288Zm-15.59,9-8.16,4.71c-.2.12-.19.32,0,.44l5.58,3.22a.85.85,0,0,0,.77,0l8.16-4.71c.21-.12.19-.32,0-.44L266.58,297A.85.85,0,0,0,265.82,297Zm8.54-4.93-4.82,2.79c-.2.12-.19.32,0,.44l5.58,3.22a.85.85,0,0,0,.77,0l4.82-2.79c.21-.12.19-.32,0-.44L275.12,292A.85.85,0,0,0,274.35,292Zm-18.93,10.93-4.82,2.79c-.21.12-.19.32,0,.44l5.58,3.22a.85.85,0,0,0,.77,0l4.82-2.79c.2-.12.19-.32,0-.44L256.19,303A.85.85,0,0,0,255.42,302.95ZM248.37,307l-4.82,2.79c-.21.12-.19.32,0,.44l5.58,3.22a.85.85,0,0,0,.77,0l4.82-2.79c.21-.12.19-.32,0-.44L249.14,307A.85.85,0,0,0,248.37,307Zm21.94,13.1,4.82-2.79c.2-.12.19-.32,0-.44l-5.58-3.22a.85.85,0,0,0-.77,0l-4.82,2.79c-.21.12-.19.32,0,.44l5.58,3.22A.85.85,0,0,0,270.32,320.12Zm-7.05,4.07,4.82-2.79c.21-.12.19-.32,0-.44l-5.58-3.22a.85.85,0,0,0-.77,0l-4.82,2.79c-.21.12-.19.32,0,.44l5.58,3.22A.85.85,0,0,0,263.27,324.19Zm-7.05,4.07,4.82-2.79c.21-.12.19-.32,0-.44l-5.58-3.22a.85.85,0,0,0-.77,0l-4.82,2.79c-.21.12-.19.32,0,.44l5.58,3.22A.85.85,0,0,0,256.21,328.26Zm-7.05,4.07,4.82-2.79c.21-.12.19-.32,0-.44l-5.58-3.22a.85.85,0,0,0-.77,0l-4.82,2.79c-.21.12-.19.32,0,.44l5.58,3.22A.85.85,0,0,0,249.16,332.33Zm34.71-29.24,4.82-2.79c.2-.12.19-.32,0-.44l-5.58-3.22a.85.85,0,0,0-.77,0l-4.82,2.79c-.21.12-.19.32,0,.44l5.58,3.22A.85.85,0,0,0,283.87,303.09Zm-6.5,13,10.76-6.21c.2-.12.19-.32,0-.44l-13.55-7.82a.85.85,0,0,0-.77,0l-5.57,3.21c-.21.12-.19.32,0,.44l7.17,4.14c.22.13.23.33,0,.44L271,312.37c-.21.12-.19.32,0,.44L276.6,316A.85.85,0,0,0,277.37,316Zm-36-5-4.82,2.79c-.2.12-.19.32,0,.44l5.58,3.22a.85.85,0,0,0,.77,0l4.82-2.79c.2-.12.19-.32,0-.44l-5.58-3.22A.85.85,0,0,0,241.32,311.09Zm-7.05,4.07-4.82,2.79c-.21.12-.19.32,0,.44l5.58,3.22a.85.85,0,0,0,.77,0l4.82-2.79c.21-.12.19-.32,0-.44L235,315.18A.85.85,0,0,0,234.27,315.16ZM199,360.81a.85.85,0,0,0,.77,0l4.82-2.79c.2-.12.19-.32,0-.44L199,354.38a.85.85,0,0,0-.77,0l-4.82,2.79c-.21.12-.19.32,0,.44Zm-21.17-13.08L173,350.52c-.21.12-.19.32,0,.44l5.58,3.22a.85.85,0,0,0,.77,0l4.82-2.79c.2-.12.19-.32,0-.44l-5.58-3.22A.85.85,0,0,0,177.86,347.73Zm11.35,9.55a.85.85,0,0,0,.77,0l4.82-2.79c.2-.12.19-.32,0-.44l-5.58-3.22a.85.85,0,0,0-.77,0l-4.82,2.79c-.21.12-.19.32,0,.44Zm22.28,6,4.82-2.79c.21-.12.19-.32,0-.44l-5.58-3.22a.85.85,0,0,0-.77,0l-4.82,2.79c-.2.12-.19.32,0,.44l5.58,3.22A.85.85,0,0,0,211.48,363.29Zm-7.82,4.06a.85.85,0,0,0,.77,0l4.82-2.79c.2-.12.19-.32,0-.44l-5.58-3.22a.85.85,0,0,0-.77,0l-4.82,2.79c-.2.12-.19.32,0,.44Zm-18.75-23.68-4.82,2.79c-.21.12-.19.32,0,.44l5.58,3.22a.85.85,0,0,0,.77,0l4.82-2.79c.21-.12.19-.32,0-.44l-5.58-3.22A.85.85,0,0,0,184.91,343.66Zm35.26-20.36-4.82,2.79c-.2.12-.19.32,0,.44l5.58,3.22a.85.85,0,0,0,.77,0l4.82-2.79c.2-.12.19-.32,0-.44l-5.58-3.22A.85.85,0,0,0,220.17,323.31ZM192,339.59l-4.82,2.79c-.21.12-.19.32,0,.44l5.58,3.22a.85.85,0,0,0,.77,0l4.82-2.79c.21-.12.19-.32,0-.44l-5.58-3.22A.85.85,0,0,0,192,339.59Zm35.26-20.36L222.39,322c-.21.12-.19.32,0,.44l5.58,3.22a.85.85,0,0,0,.77,0l4.82-2.79c.21-.12.19-.32,0-.44L228,319.25A.85.85,0,0,0,227.22,319.23Zm-14.1,8.14-4.82,2.79c-.21.12-.19.32,0,.44l5.58,3.22a.85.85,0,0,0,.77,0l4.82-2.79c.21-.12.19-.32,0-.44l-5.58-3.22A.85.85,0,0,0,213.12,327.38Zm-7.05,4.07-4.82,2.79c-.21.12-.19.32,0,.44l5.58,3.22a.85.85,0,0,0,.77,0l4.82-2.79c.2-.12.19-.32,0-.44l-5.58-3.22A.85.85,0,0,0,206.06,331.45ZM199,335.52l-4.82,2.79c-.21.12-.19.32,0,.44l5.58,3.22a.85.85,0,0,0,.77,0l4.82-2.79c.2-.12.19-.32,0-.44l-5.58-3.22A.85.85,0,0,0,199,335.52Zm36,5,4.82-2.79c.21-.12.19-.32,0-.44L234.28,334a.85.85,0,0,0-.77,0l-4.82,2.79c-.21.12-.19.32,0,.44l5.58,3.22A.85.85,0,0,0,235.06,340.47ZM297,279l-4.82,2.79c-.21.12-.19.32,0,.44l5.58,3.22a.85.85,0,0,0,.77,0l4.82-2.79c.21-.12.19-.32,0-.44L297.76,279A.85.85,0,0,0,297,279Zm-8.54,4.93-4.82,2.79c-.21.12-.19.32,0,.44l5.58,3.22a.85.85,0,0,0,.77,0l4.82-2.79c.2-.12.19-.32,0-.44l-5.58-3.22A.85.85,0,0,0,288.45,283.88Zm15.59-9-4.82,2.79c-.2.12-.19.32,0,.44l5.58,3.22a.85.85,0,0,0,.77,0l4.82-2.79c.2-.12.19-.32,0-.44l-5.58-3.22A.85.85,0,0,0,304,274.88Zm-36.5,37.64,4.82-2.79c.21-.12.19-.32,0-.44l-5.58-3.22a.85.85,0,0,0-.77,0l-4.82,2.79c-.21.12-.19.32,0,.44l5.58,3.22A.85.85,0,0,0,267.54,312.52Zm44.32-41.69a.85.85,0,0,0-.77,0l-4.82,2.79c-.2.12-.19.32,0,.44l5.58,3.22a.85.85,0,0,0,.77,0l4.82-2.79c.21-.12.19-.32,0-.44ZM242.11,336.4l4.82-2.79c.21-.12.19-.32,0-.44L241.33,330a.85.85,0,0,0-.77,0l-4.82,2.79c-.21.12-.19.32,0,.44l5.58,3.22A.85.85,0,0,0,242.11,336.4Zm86.47-49.92,4.82-2.79c.21-.12.19-.32,0-.44L327.8,280a.85.85,0,0,0-.77,0l-4.82,2.79c-.2.12-.19.32,0,.44l5.58,3.22A.85.85,0,0,0,328.58,286.48Zm-15-.53,4.82-2.79c.2-.12.19-.32,0-.44l-5.58-3.22a.85.85,0,0,0-.77,0l-4.82,2.79c-.21.12-.19.32,0,.44l5.58,3.22A.85.85,0,0,0,313.56,285.95Zm6.27-10.52a.85.85,0,0,0-.77,0l-4.82,2.79c-.2.12-.19.32,0,.44l5.58,3.22a.85.85,0,0,0,.77,0l4.82-2.79c.2-.12.19-.32,0-.44Zm1.48-.86,13.55,7.82a.85.85,0,0,0,.77,0l4.82-2.79c.21-.12.19-.32,0-.44l-13.55-7.82a.85.85,0,0,0-.77,0l-4.82,2.79C321.08,274.24,321.1,274.44,321.32,274.57Zm-16.36,9-4.82,2.79c-.21.12-.19.32,0,.44l5.58,3.22a.85.85,0,0,0,.77,0l4.82-2.79c.2-.12.19-.32,0-.44l-5.58-3.22A.85.85,0,0,0,305,283.55Zm-53.07,30.64L247.06,317c-.21.12-.19.32,0,.44l5.58,3.22a.85.85,0,0,0,.77,0l4.82-2.79c.21-.12.19-.32,0-.44l-5.58-3.22A.85.85,0,0,0,251.89,314.19Zm68.87-23.66a.85.85,0,0,0,.77,0l4.82-2.79c.2-.12.19-.32,0-.44l-5.58-3.22a.85.85,0,0,0-.77,0l-4.82,2.79c-.21.12-.19.32,0,.44Zm-61.82,19.59-4.82,2.79c-.21.12-.19.32,0,.44l5.58,3.22a.85.85,0,0,0,.77,0l4.82-2.79c.21-.12.19-.32,0-.44l-5.58-3.22A.85.85,0,0,0,258.94,310.12Zm-52.85,46.62a.85.85,0,0,0,.77,0l4.82-2.79c.2-.12.19-.32,0-.44l-5.58-3.22a.85.85,0,0,0-.77,0l-4.82,2.79c-.21.12-.19.32,0,.44Zm-10.61-10-4.82,2.79c-.2.12-.19.32,0,.44l5.58,3.22a.85.85,0,0,0,.77,0l4.82-2.79c.21-.12.19-.32,0-.44l-5.58-3.22A.85.85,0,0,0,195.48,346.76Zm18.43,5.93,4.82-2.79c.21-.12.19-.32,0-.44l-5.58-3.22a.85.85,0,0,0-.77,0L207.53,349c-.2.12-.19.32,0,.44l5.58,3.22A.85.85,0,0,0,213.91,352.69Zm7.05-4.07,4.82-2.79c.21-.12.19-.32,0-.44l-5.58-3.22a.85.85,0,0,0-.77,0l-4.82,2.79c-.2.12-.19.32,0,.44l5.58,3.22A.85.85,0,0,0,221,348.62Zm7.05-4.07,4.82-2.79c.2-.12.19-.32,0-.44l-5.58-3.22a.85.85,0,0,0-.77,0l-4.82,2.79c-.21.12-.19.32,0,.44l5.58,3.22A.85.85,0,0,0,228,344.54Zm-25.48-1.85-4.82,2.79c-.21.12-.19.32,0,.44l5.58,3.22a.85.85,0,0,0,.77,0l4.82-2.79c.21-.12.19-.32,0-.44l-5.58-3.22A.85.85,0,0,0,202.53,342.69Zm7.05-4.07-4.82,2.79c-.21.12-.19.32,0,.44l5.58,3.22a.85.85,0,0,0,.77,0L216,342.3c.2-.12.19-.32,0-.44l-5.58-3.22A.85.85,0,0,0,209.58,338.62Zm28.2-16.28L233,325.12c-.21.12-.19.32,0,.44l5.58,3.22a.85.85,0,0,0,.77,0l4.82-2.79c.21-.12.19-.32,0-.44l-5.58-3.22A.85.85,0,0,0,237.79,322.34Zm-7.05,4.07-4.82,2.79c-.2.12-.19.32,0,.44l5.58,3.22a.85.85,0,0,0,.77,0l4.82-2.79c.2-.12.19-.32,0-.44l-5.58-3.22A.85.85,0,0,0,230.73,326.41Zm14.1-8.14L240,321c-.21.12-.19.32,0,.44l5.58,3.22a.85.85,0,0,0,.77,0l4.82-2.79c.21-.12.19-.32,0-.44l-5.58-3.22A.85.85,0,0,0,244.84,318.26Zm-28.2,16.28-4.82,2.79c-.21.12-.19.32,0,.44l5.58,3.22a.85.85,0,0,0,.77,0l4.82-2.79c.2-.12.19-.32,0-.44l-5.58-3.22A.85.85,0,0,0,216.63,334.55Zm7.05-4.07-4.82,2.79c-.2.12-.19.32,0,.44l5.58,3.22a.85.85,0,0,0,.77,0l4.82-2.79c.21-.12.19-.32,0-.44l-5.58-3.22A.85.85,0,0,0,223.68,330.48Zm-5.15,28.74,4.82-2.79c.21-.12.19-.32,0-.44l-5.58-3.22a.85.85,0,0,0-.77,0l-4.82,2.79c-.21.12-.19.32,0,.44l5.58,3.22A.85.85,0,0,0,218.54,359.22ZM177.16,355l-5.58-3.22a.85.85,0,0,0-.77,0L166,354.59c-.21.12-.19.32,0,.44l5.58,3.22a.85.85,0,0,0,.77,0l4.82-2.79C177.39,355.37,177.38,355.17,177.16,355Zm10.57,3.1-5.58-3.22a.85.85,0,0,0-.77,0L174,359.19c-.21.12-.19.32,0,.44l5.58,3.22a.85.85,0,0,0,.77,0l7.42-4.29C188,358.47,187.94,358.27,187.72,358.14Zm-19.13-9.33L163,345.59a.85.85,0,0,0-.77,0L156.31,349c-.2.12-.19.32,0,.44l5.58,3.22a.85.85,0,0,0,.77,0l5.94-3.43C168.83,349.14,168.82,348.94,168.6,348.81Zm4.55-2.63a.85.85,0,0,0,.77,0l4.82-2.79c.21-.12.19-.32,0-.44l-5.58-3.22a.85.85,0,0,0-.77,0l-4.82,2.79c-.21.12-.19.32,0,.44Zm24.4,15.49L192,358.45a.85.85,0,0,0-.77,0l-9.28,5.36c-.2.12-.19.32,0,.44l5.58,3.22a.85.85,0,0,0,.77,0l9.28-5.36C197.78,362,197.77,361.8,197.55,361.67Zm4.63,6.53L196.6,365a.85.85,0,0,0-.77,0l-5.94,3.43c-.21.12-.19.32,0,.44l5.58,3.22a.85.85,0,0,0,.77,0l5.94-3.43C202.41,368.53,202.4,368.33,202.18,368.2Zm23.4-52.28a.85.85,0,0,0,.77,0l4.82-2.79c.21-.12.19-.32,0-.44l-5.58-3.22a.85.85,0,0,0-.77,0L220,312.25c-.21.12-.19.32,0,.44Zm-14.1,8.14a.85.85,0,0,0,.77,0l4.82-2.79c.21-.12.19-.32,0-.44l-5.58-3.22a.85.85,0,0,0-.77,0l-4.82,2.79c-.21.12-.19.32,0,.44ZM180.2,342.11a.85.85,0,0,0,.77,0l4.82-2.79c.2-.12.19-.32,0-.44l-5.58-3.22a.85.85,0,0,0-.77,0l-4.82,2.79c-.2.12-.19.32,0,.44ZM218.53,320a.85.85,0,0,0,.77,0l4.82-2.79c.2-.12.19-.32,0-.44l-5.58-3.22a.85.85,0,0,0-.77,0l-4.82,2.79c-.21.12-.19.32,0,.44Zm-14.1,8.14a.85.85,0,0,0,.77,0l4.82-2.79c.21-.12.19-.32,0-.44l-5.58-3.22a.85.85,0,0,0-.77,0l-4.82,2.79c-.21.12-.19.32,0,.44Zm1.63,40.6a.85.85,0,0,0-.77,0L197.86,373c-.21.12-.19.32,0,.44l5.58,3.22a.85.85,0,0,0,.77,0l7.42-4.29c.21-.12.19-.32,0-.44ZM194.3,334a.85.85,0,0,0,.77,0l4.82-2.79c.21-.12.19-.32,0-.44l-5.58-3.22a.85.85,0,0,0-.77,0l-4.82,2.79c-.21.12-.19.32,0,.44ZM187.25,338a.85.85,0,0,0,.77,0l4.82-2.79c.21-.12.19-.32,0-.44l-5.58-3.22a.85.85,0,0,0-.77,0l-4.82,2.79c-.2.12-.19.32,0,.44ZM336.69,293.3a.85.85,0,0,0-.77,0L324,300.14c-.21.12-.19.32,0,.44l5.58,3.22a.85.85,0,0,0,.77,0L342.29,297c.2-.12.19-.32,0-.44Zm-15.59,9a.85.85,0,0,0-.77,0l-4.82,2.79c-.21.12-.19.32,0,.44l5.58,3.22a.85.85,0,0,0,.77,0l4.82-2.79c.21-.12.19-.32,0-.44Zm-95.51,52.84,4.82-2.79c.2-.12.19-.32,0-.44l-5.58-3.22a.85.85,0,0,0-.77,0l-4.82,2.79c-.21.12-.19.32,0,.44l5.58,3.22A.85.85,0,0,0,225.59,355.15ZM307,310.44a.85.85,0,0,0-.77,0l-4.82,2.79c-.2.12-.19.32,0,.44l5.58,3.22a.85.85,0,0,0,.77,0l4.82-2.79c.21-.12.19-.32,0-.44Zm36.74-21.21a.85.85,0,0,0-.77,0L338.15,292c-.2.12-.19.32,0,.44l5.58,3.22a.85.85,0,0,0,.77,0l4.82-2.79c.21-.12.19-.32,0-.44Zm12.63-.85-13.55-7.82a.85.85,0,0,0-.77,0l-4.82,2.79c-.21.12-.19.32,0,.44l13.55,7.82a.85.85,0,0,0,.77,0l4.82-2.79C356.6,288.71,356.59,288.51,356.37,288.38Zm-75.72,37.28a.85.85,0,0,0-.77,0l-5.94,3.43c-.21.12-.19.32,0,.44l5.58,3.22a.85.85,0,0,0,.77,0l5.94-3.43c.21-.12.19-.32,0-.44Zm17.81-10.28a.85.85,0,0,0-.77,0l-7.42,4.29c-.2.12-.19.32,0,.44l5.58,3.22a.85.85,0,0,0,.77,0l7.42-4.29c.21-.12.19-.32,0-.44Zm-34.14,19.71a.85.85,0,0,0-.77,0L223.84,358c-.21.12-.19.32,0,.44l5.58,3.22a.85.85,0,0,0,.77,0l39.71-22.93c.21-.12.19-.32,0-.44ZM222.38,359.3a.85.85,0,0,0-.77,0l-5.94,3.43c-.21.12-.19.32,0,.44l5.58,3.22a.85.85,0,0,0,.77,0L228,363c.2-.12.19-.32,0-.44Zm50.1-28.93a.85.85,0,0,0-.77,0l-5.94,3.43c-.21.12-.19.32,0,.44l5.58,3.22a.85.85,0,0,0,.77,0l5.94-3.43c.21-.12.19-.32,0-.44ZM214.22,364a.85.85,0,0,0-.77,0l-5.94,3.43c-.2.12-.19.32,0,.44l5.58,3.22a.85.85,0,0,0,.77,0l5.94-3.43c.2-.12.19-.32,0-.44Zm74.6-43.07a.85.85,0,0,0-.77,0l-5.94,3.43c-.2.12-.19.32,0,.44l5.58,3.22a.85.85,0,0,0,.77,0l5.94-3.43c.21-.12.19-.32,0-.44Zm25.24-14.57a.85.85,0,0,0-.77,0l-4.82,2.79c-.21.12-.19.32,0,.44l5.58,3.22a.85.85,0,0,0,.77,0l4.82-2.79c.21-.12.19-.32,0-.44Zm15.45-11.22,4.82-2.79c.21-.12.19-.32,0-.44l-5.58-3.22a.85.85,0,0,0-.77,0l-4.82,2.79c-.2.12-.19.32,0,.44l5.58,3.22A.85.85,0,0,0,329.5,295.15Zm-31.53-.2,4.82-2.79c.21-.12.19-.32,0-.44l-5.58-3.22a.85.85,0,0,0-.77,0l-4.82,2.79c-.21.12-.19.32,0,.44l5.58,3.22A.85.85,0,0,0,298,294.95Zm-16,27.63,14.1-8.14c.21-.12.19-.32,0-.44l-5.58-3.22a.85.85,0,0,0-.77,0l-14.1,8.14c-.21.12-.19.32,0,.44l5.58,3.22A.85.85,0,0,0,282,322.58Zm39.68-23.37a.85.85,0,0,0,.77,0l4.82-2.79c.21-.12.19-.32,0-.44l-5.58-3.22a.85.85,0,0,0-.77,0l-4.82,2.79c-.2.12-.19.32,0,.44Zm-7.2-4.59,4.82-2.79c.2-.12.19-.32,0-.44l-5.58-3.22a.85.85,0,0,0-.77,0l-4.82,2.79c-.21.12-.19.32,0,.44l5.58,3.22A.85.85,0,0,0,314.48,294.62Zm-39.53,32,4.82-2.79c.21-.12.19-.32,0-.44l-5.58-3.22a.85.85,0,0,0-.77,0L268.57,323c-.2.12-.19.32,0,.44l5.58,3.22A.85.85,0,0,0,274.95,326.65Zm31.15-18.44a.85.85,0,0,0,.77,0l4.82-2.79c.21-.12.19-.32,0-.44l-5.58-3.22a.85.85,0,0,0-.77,0l-4.82,2.79c-.21.12-.19.32,0,.44ZM239.69,347l4.82-2.79c.2-.12.19-.32,0-.44l-5.58-3.22a.85.85,0,0,0-.77,0l-4.82,2.79c-.21.12-.19.32,0,.44l5.58,3.22A.85.85,0,0,0,239.69,347Zm7.05-4.07,4.82-2.79c.2-.12.19-.32,0-.44L246,336.48a.85.85,0,0,0-.77,0l-4.82,2.79c-.21.12-.19.32,0,.44l5.58,3.22A.85.85,0,0,0,246.74,342.93Zm-14.1,8.14,4.82-2.79c.21-.12.19-.32,0-.44l-5.58-3.22a.85.85,0,0,0-.77,0l-4.82,2.79c-.21.12-.19.32,0,.44l5.58,3.22A.85.85,0,0,0,232.64,351.07Zm28.2-16.28,4.82-2.79c.21-.12.19-.32,0-.44l-5.58-3.22a.85.85,0,0,0-.77,0l-4.82,2.79c-.2.12-.19.32,0,.44l5.58,3.22A.85.85,0,0,0,260.84,334.79Zm-7.05,4.07,4.82-2.79c.21-.12.19-.32,0-.44L253,332.41a.85.85,0,0,0-.77,0l-4.82,2.79c-.2.12-.19.32,0,.44l5.58,3.22A.85.85,0,0,0,253.79,338.86Zm14.1-8.14,4.82-2.79c.2-.12.19-.32,0-.44l-5.58-3.22a.85.85,0,0,0-.77,0L261.52,327c-.2.12-.19.32,0,.44l5.58,3.22A.85.85,0,0,0,267.89,330.72Zm32.26-60.22a.85.85,0,0,0,.77,0l4.82-2.79c.21-.12.19-.32,0-.44l-1.48-.86a.85.85,0,0,0-.77,0l-4.82,2.79c-.2.12-.19.32,0,.44Zm-34.69,22.39a.85.85,0,0,0,.77,0l4.82-2.79c.2-.12.19-.32,0-.44l-5.58-3.22a.85.85,0,0,0-.77,0l-4.82,2.79c-.21.12-.19.32,0,.44Zm14.1-8.14a.85.85,0,0,0,.77,0l4.82-2.79c.21-.12.19-.32,0-.44l-5.58-3.22a.85.85,0,0,0-.77,0L274,281.08c-.2.12-.19.32,0,.44Zm-22.71,13.11a.85.85,0,0,0,.77,0l4.82-2.79c.2-.12.19-.32,0-.44l-5.58-3.22a.85.85,0,0,0-.77,0l-4.82,2.79c-.21.12-.19.32,0,.44Zm15.66-9a.85.85,0,0,0,.77,0l4.82-2.79c.2-.12.19-.32,0-.44l-5.58-3.22a.85.85,0,0,0-.77,0l-4.82,2.79c-.21.12-.19.32,0,.44ZM242.75,306a.85.85,0,0,0,.77,0l4.82-2.79c.21-.12.19-.32,0-.44l-5.58-3.22a.85.85,0,0,0-.77,0l-4.82,2.79c-.21.12-.19.32,0,.44Zm7.05-4.07a.85.85,0,0,0,.77,0l4.82-2.79c.21-.12.19-.32,0-.44l-5.58-3.22a.85.85,0,0,0-.77,0l-4.82,2.79c-.21.12-.19.32,0,.44Zm36.25-23.29a.85.85,0,0,0,.77,0l4.82-2.79c.2-.12.19-.32,0-.44l-1.49-.86a.85.85,0,0,0-.77,0l-4.82,2.79c-.21.12-.19.32,0,.44Zm21.15-12.21a.85.85,0,0,0,.77,0l4.82-2.79c.2-.12.19-.32,0-.44l-1.49-.86a.85.85,0,0,0-.77,0l-4.82,2.79c-.2.12-.19.32,0,.44Zm11.72,6.77a.85.85,0,0,0,.77,0l4.82-2.79c.21-.12.19-.32,0-.44l-5.58-3.22a.85.85,0,0,0-.77,0l-4.82,2.79c-.21.12-.19.32,0,.44Zm17.63,17.89,4.82-2.79c.21-.12.19-.32,0-.44l-5.58-3.22a.85.85,0,0,0-.77,0l-4.82,2.79c-.2.12-.19.32,0,.44l5.58,3.22A.85.85,0,0,0,336.55,291.08ZM293.1,274.57a.85.85,0,0,0,.77,0l4.82-2.79c.21-.12.19-.32,0-.44l-1.49-.86a.85.85,0,0,0-.77,0l-4.82,2.79c-.2.12-.19.32,0,.44ZM235.7,310.07a.85.85,0,0,0,.77,0l4.82-2.79c.21-.12.19-.32,0-.44l-5.58-3.22a.85.85,0,0,0-.77,0l-4.82,2.79c-.2.12-.19.32,0,.44Z"/><polygon id="_Контур_22" data-name="&lt;Контур&gt;" class="cls-6" points="264.37 353.9 317.17 323.41 349.67 342.17 296.86 372.66 264.37 353.9"/></g></g><g id="Window"><g id="Tab"><path id="_Контур_23" data-name="&lt;Контур&gt;" class="cls-8" d="M147,200.26l157.35-90.85c3.08-1.78,5.6-.32,5.6,3.23V234.51a5.76,5.76,0,0,1-2.6,4.5L146,332.17c-1.43.82-2.6.15-2.6-1.5V206.49A8,8,0,0,1,147,200.26Z"/><path id="_Контур_24" data-name="&lt;Контур&gt;" class="cls-2" d="M310,115.56v-2.92c0-3.55-2.52-5-5.59-3.23L147,200.26a8,8,0,0,0-3.6,6.24v5.22Z"/><path id="_Контур_25" data-name="&lt;Контур&gt;" class="cls-4" d="M286.52,122.21a4.26,4.26,0,0,0-1.93,3.34c0,1.23.86,1.73,1.93,1.11a4.26,4.26,0,0,0,1.93-3.34C288.44,122.1,287.58,121.6,286.52,122.21Z"/><path id="_Контур_26" data-name="&lt;Контур&gt;" class="cls-4" d="M294.16,117.8a4.26,4.26,0,0,0-1.93,3.34c0,1.23.86,1.73,1.93,1.11a4.26,4.26,0,0,0,1.93-3.34C296.09,117.68,295.23,117.18,294.16,117.8Z"/><path id="_Контур_27" data-name="&lt;Контур&gt;" class="cls-4" d="M301.81,113.38a4.26,4.26,0,0,0-1.93,3.34c0,1.23.86,1.73,1.93,1.11a4.26,4.26,0,0,0,1.93-3.34C303.74,113.27,302.87,112.77,301.81,113.38Z"/></g></g><g id="Magnifying_Glass" data-name="Magnifying Glass"><g id="Lens"><g id="_Группа_10" data-name="&lt;Группа&gt;"><g id="_Группа_11" data-name="&lt;Группа&gt;"><rect id="_Прямоугольник_" data-name="&lt;Прямоугольник&gt;" class="cls-5" x="168.17" y="267.61" width="7.07" height="29.99" transform="translate(164.3 -47.99) rotate(30)"/><rect id="_Прямоугольник_2" data-name="&lt;Прямоугольник&gt;" class="cls-6" x="171.47" y="268.49" width="3.53" height="29.99" transform="translate(164.96 -48.64) rotate(30)"/></g><g id="_Группа_12" data-name="&lt;Группа&gt;"><g id="_Группа_13" data-name="&lt;Группа&gt;"><path id="_Контур_28" data-name="&lt;Контур&gt;" class="cls-2" d="M144.7,344.54c-2.79,4.84-16-2.85-13.23-7.64l34.45-53.73a.67.67,0,0,1,.9-.22l6.92,4a.67.67,0,0,1,.26.89Z"/><path id="_Контур_29" data-name="&lt;Контур&gt;" class="cls-3" d="M144.7,344.54l29.3-56.7a.67.67,0,0,0-.26-.89l-3.15-1.82L137,344.85C140.06,346.36,143.44,346.73,144.7,344.54Z"/></g></g></g><g id="_Группа_14" data-name="&lt;Группа&gt;"><path id="_Составной_контур_2" data-name="&lt;Составной контур&gt;" class="cls-2" d="M246,218c0-.41,0-.81-.06-1.21s-.05-.79-.09-1.18,0-.52-.08-.78c-.07-.68-.17-1.35-.28-2-.05-.29-.1-.59-.16-.88s-.11-.55-.17-.82c-.17-.74-.35-1.46-.56-2.15-.11-.33-.21-.66-.32-1a.88.88,0,0,1-.05-.15c-.12-.32-.23-.63-.35-.93s-.28-.7-.44-1-.22-.49-.35-.73a3.59,3.59,0,0,0-.26-.52c-.1-.21-.21-.42-.33-.62s0-.1-.08-.14-.21-.36-.32-.54-.15-.23-.22-.34a18.22,18.22,0,0,0-1.72-2.29l-.32-.36-.27-.28-.35-.35a11.18,11.18,0,0,0-1-.93c-.17-.15-.35-.29-.53-.42l-.55-.4a9.65,9.65,0,0,0-.89-.58l-.24-.15,0,0h0l-14.17-8.18h0l-.08-.05a17.78,17.78,0,0,0-8.9-2.25c-4.64,0-9.88,1.52-15.43,4.72-19.06,11-34.52,37.78-34.52,59.8,0,11,3.84,18.7,10,22.32l.06,0h0L187,281.83h0l.06,0h0l.17.09a9.13,9.13,0,0,0,.82.43c.34.17.69.32,1,.46s.63.25.95.35l.51.15a3.47,3.47,0,0,0,.55.16,5.73,5.73,0,0,0,.56.14,3,3,0,0,0,.41.09c.24.05.5.1.75.13a.51.51,0,0,0,.17,0q.45.07.9.12c5.14.54,11.12-.91,17.52-4.6,19.07-11,34.53-37.79,34.53-59.8C246,219.09,246,218.57,246,218Zm-23.13-15.57a30.76,30.76,0,0,1,1.09,8.4c0,19.42-14.21,44-31,53.74a30,30,0,0,1-7.87,3.27,31.17,31.17,0,0,1-1.09-8.41c0-19.42,14.21-44,31-53.74A29.94,29.94,0,0,1,222.84,202.48Z"/><path id="_Контур_30" data-name="&lt;Контур&gt;" class="cls-3" d="M186.57,281.55l-13.76-7.94c-6.21-3.63-10.05-11.35-10.05-22.31,0-9.82,3.08-20.58,8.17-30.46L185.1,229c-5.1,9.88-8.17,20.64-8.17,30.46C176.93,270.22,180.59,277.83,186.57,281.55Z"/><path id="_Составной_контур_3" data-name="&lt;Составной контур&gt;" class="cls-9" d="M246,218c0-.41,0-.81-.06-1.21s-.05-.79-.09-1.18,0-.52-.08-.78c-.07-.68-.17-1.35-.28-2-.05-.29-.1-.59-.16-.88s-.11-.55-.17-.82c-.17-.74-.35-1.46-.56-2.15-.11-.33-.21-.66-.32-1a.88.88,0,0,1-.05-.15c-.12-.32-.23-.63-.35-.93s-.28-.7-.44-1-.22-.49-.35-.73a3.59,3.59,0,0,0-.26-.52c-.1-.21-.21-.42-.33-.62s0-.1-.08-.14-.21-.36-.32-.54-.15-.23-.22-.34a18.22,18.22,0,0,0-1.72-2.29l-.32-.36-.27-.28-.35-.35a11.18,11.18,0,0,0-1-.93c-.17-.15-.35-.29-.53-.42l-.55-.4a9.65,9.65,0,0,0-.89-.58c-6.27-3.81-15-3.36-24.71,2.23-19.07,11-34.53,37.78-34.53,59.8,0,11.15,4,18.94,10.35,22.48a9.13,9.13,0,0,0,.82.43c.34.17.69.32,1,.46s.63.25.95.35l.51.15a3.47,3.47,0,0,0,.55.16,5.73,5.73,0,0,0,.56.14,3,3,0,0,0,.41.09c.24.05.5.1.75.13a.51.51,0,0,0,.17,0q.45.07.9.12c5.14.54,11.12-.91,17.52-4.6,19.07-11,34.53-37.79,34.53-59.8C246,219.09,246,218.57,246,218Zm-38,55.31c-4.28,2.47-8.4,3.77-11.92,3.77-6.61,0-9.65-4.51-11-9.24a31.17,31.17,0,0,1-1.09-8.41c0-19.42,14.21-44,31-53.74a29.94,29.94,0,0,1,7.87-3.26,17.4,17.4,0,0,1,4-.51c10.93,0,12.1,12.34,12.1,17.65C239,239,224.79,263.65,208,273.36Z"/><path id="_Контур_31" data-name="&lt;Контур&gt;" class="cls-3" d="M239,219.62c0,19.42-14.2,44-31,53.74-4.28,2.47-8.4,3.77-11.92,3.77-6.61,0-9.65-4.51-11-9.24a30,30,0,0,0,7.87-3.27c16.82-9.71,31-34.32,31-53.74a30.76,30.76,0,0,0-1.09-8.4,17.4,17.4,0,0,1,4-.51C237.82,202,239,214.31,239,219.62Z"/><path id="_Контур_32" data-name="&lt;Контур&gt;" class="cls-10" d="M232.95,216.23c0,19.42-14.2,44-31,53.74-4.28,2.47-8.4,3.77-11.92,3.77a12.55,12.55,0,0,1-2.09-.17,15.3,15.3,0,0,1-2.89-5.68,31.17,31.17,0,0,1-1.09-8.41c0-19.42,14.21-44,31-53.74a29.94,29.94,0,0,1,7.87-3.26,17.4,17.4,0,0,1,4-.51,12.67,12.67,0,0,1,2.1.17C232.44,206.21,232.95,212.74,232.95,216.23Z"/></g></g></g><g id="Search_Tab" data-name="Search Tab"><g id="Search_Taba" data-name="Search Taba"><path id="_Контур_33" data-name="&lt;Контур&gt;" class="cls-11" d="M257.17,196v22.14c0,1.66,1.16,2.33,2.6,1.5l145.1-83.77a5.74,5.74,0,0,0,2.6-4.5V109.2c0-1.66-1.16-2.33-2.6-1.5l-145.1,83.77A5.74,5.74,0,0,0,257.17,196Z"/><g id="_Группа_15" data-name="&lt;Группа&gt;"><path id="_Контур_34" data-name="&lt;Контур&gt;" class="cls-2" d="M259.77,191.47l25.84-14.92V204.7l-25.84,14.92c-1.43.83-2.6.16-2.6-1.5V196A5.74,5.74,0,0,1,259.77,191.47Z"/><path id="_Составной_контур_4" data-name="&lt;Составной контур&gt;" class="cls-4" d="M277.06,188.84c-1.63-.94-3.7-.79-5.81.43a14.92,14.92,0,0,0-6.84,11.85,6.42,6.42,0,0,0,1.37,4.27L263,210.15a1.5,1.5,0,1,0,2.6,1.5l2.75-4.76a4.85,4.85,0,0,0,.9.09,7,7,0,0,0,3.47-1,14.92,14.92,0,0,0,6.84-11.85C279.6,191.65,278.7,189.79,277.06,188.84Zm-5.81,14.5a2.28,2.28,0,0,1-3.84-2.22,12,12,0,0,1,5.34-9.25,4.1,4.1,0,0,1,2-.63,1.66,1.66,0,0,1,.84.2,3,3,0,0,1,1,2.65A12,12,0,0,1,271.26,203.34Z"/></g></g></g></svg>