<?xml version="1.0" encoding="utf-8"?>
<!-- Generator: Adobe Illustrator 21.0.2, SVG Export Plug-In . SVG Version: 6.00 Build 0)  -->
<svg version="1.1" id="Слой_1" xmlns="http://www.w3.org/2000/svg" xmlns:xlink="http://www.w3.org/1999/xlink" x="0px" y="0px"
	 viewBox="0 0 500 500" style="enable-background:new 0 0 500 500;" xml:space="preserve">
<style type="text/css">
	.st0{fill:#F5F5F5;}
	.st1{fill:#E0E0E0;}
	.st2{fill:#37474F;}
	.st3{fill:#FFFFFF;}
	.st4{fill:#455A64;}
	.st5{fill:#B16668;}
	.st6{fill:#178573;}
	.st7{fill:#263238;}
	.st8{fill:#21BDA3;}
	.st9{opacity:0.4;enable-background:new    ;}
	.st10{fill:#9A4A4D;}
	.st11{fill:#BA68C8;}
	.st12{fill:#22C6A6;}
	.st13{fill:#1DA88D;}
	.st14{opacity:0.1;enable-background:new    ;}
	.st15{opacity:0.15;enable-background:new    ;}
	.st16{opacity:0.2;enable-background:new    ;}
	.st17{fill:#EBEBEB;}
	.st18{fill:#FFA8A7;}
	.st19{fill:#F28F8F;}
	.st20{opacity:0.6;fill:#37474F;enable-background:new    ;}
	.st21{fill:#27DEBF;}
	.st22{fill:#157A66;}
</style>
<g id="Floor--inject-1">
	<ellipse id="floor--inject-1" class="st0" cx="250" cy="376.7" rx="189.5" ry="99.1"/>
</g>
<g id="Shadow--inject-1">
	<ellipse id="shadow--inject-1" class="st1" cx="320.6" cy="400" rx="55.4" ry="26.4"/>
	<path id="shadow--inject-1_1_" class="st1" d="M132.7,420.6c21.6,10.3,56.5,10.3,78,0s21.5-26.9,0-37.2s-56.5-10.3-78,0
		S111.2,410.3,132.7,420.6z"/>
</g>
<g id="Plants--inject-1">
	<g id="plants--inject-1">
		<path class="st2" d="M104.2,349.5l6.7-3.8c0,0,3.2-17.7,0.8-33c-3.4-21.4-18-28.8-23.3-26.7s-6.6,8.5,3,20.9
			C97.2,314.1,104.4,329.6,104.2,349.5z"/>
		<path class="st3" d="M106.7,341L106.7,341c-0.3,0-0.5-0.2-0.5-0.5c0,0,0,0,0,0c2.8-20.1-5.3-42.1-14.4-50.9
			c-0.2-0.2-0.2-0.5,0-0.7c0.2-0.2,0.5-0.2,0.7,0c9.2,9,17.5,31.4,14.7,51.7C107.1,340.8,106.9,341,106.7,341z"/>
		<path class="st4" d="M85.6,360.2c-1.1,0.6-3.2-0.7-4.1-1.3c-1.4-1-2.6-2.3-3.4-3.9c-0.9-1.8-1.2-3.8-0.8-5.7c0.2-1,0.4-2,0.7-3
			c0.3-1,0.6-2,0.8-2.9c0.3-1,0.5-2,0.4-3c-0.3-2-2-3.4-3.7-4.6c-1.8-1.3-3.7-3.1-3.7-5.5c0.1-1.9,0.9-3.7,2.1-5.1
			c1.2-1.5,2.5-2.8,3.6-4.3c0.8-1.1,1.2-2.4,1.2-3.8c-0.1-0.8-0.4-1.6-0.8-2.4c-1-1.5-1.8-3.1-2.6-4.7c-0.6-1.7-0.5-3.8,0.8-5
			c1.2-0.9,2.7-1.2,4.2-1c1.4,0.2,2.7,0.6,3.9,1.4c3.8,2.1,6,6.7,10.1,8.3c1.6,0.5,3.3,0.9,4.9,1.2c1.7,0.3,3.2,1.3,4.1,2.8
			c1.5,3-1.3,6.7-0.2,9.8c0.9,2.8,3.7,3.9,5.2,6.4c0.6,1.1,0.9,2.4,0.7,3.7c-0.1,2.2-0.7,4.3-1.6,6.2c-1,1.9-2.1,3.8-3.4,5.6
			C104.2,349.5,85.8,360.1,85.6,360.2z"/>
		<path class="st3" d="M96.5,354.4L96.5,354.4c-0.3,0-0.5-0.2-0.5-0.5c0.8-19-8.2-40-14.7-46.1c-0.2-0.2-0.2-0.5,0-0.7
			c0.2-0.2,0.5-0.2,0.7,0c0,0,0,0,0,0c6.6,6.2,15.8,27.5,15,46.8C97,354.3,96.8,354.5,96.5,354.4C96.5,354.4,96.5,354.4,96.5,354.4z
			"/>
		<path class="st3" d="M93.7,332c0,0-0.1,0-0.1,0c-4.5-1.2-9.1-2-13.8-2.2c-0.3,0-0.5-0.2-0.5-0.5c0-0.3,0.2-0.5,0.5-0.5
			c0,0,0,0,0,0c4.7,0.2,9.4,1,14,2.3c0.3,0,0.4,0.3,0.4,0.5S93.9,332.1,93.7,332L93.7,332L93.7,332z"/>
	</g>
	<g id="plants--inject-1_1_">
		<path class="st2" d="M414.5,358.9l-7.1-4.1c0,0-1.7-15.2-0.6-26.9c1.6-16.5,12.3-36.4,25-31.7s-5.8,21.5-10,35.5
			S414.5,358.9,414.5,358.9z"/>
		<path class="st3" d="M410.8,357.2L410.8,357.2c0.2,0,0.4-0.2,0.4-0.4c-1.2-36.7,17-55.2,17.2-55.4c0.2-0.2,0.2-0.4,0-0.6
			c0,0,0,0,0,0c-0.2-0.2-0.4-0.2-0.6,0c0,0,0,0,0,0c-0.2,0.2-18.7,18.9-17.5,56C410.3,357.1,410.5,357.2,410.8,357.2z"/>
		<path class="st4" d="M418.3,361.9l-5-2.9c-0.2-7.9,1.2-15.8,4.3-23.1c4.4-11,15.5-20.1,21-18.2s5.4,5.9,2.7,10
			S422,341.6,418.3,361.9z"/>
		<path class="st3" d="M415.6,360.8L415.6,360.8c0.2,0,0.4-0.2,0.4-0.4c-0.1-23.2,21.7-38.9,21.9-39c0.2-0.1,0.2-0.4,0.1-0.6
			s-0.4-0.2-0.6-0.1l0,0c-0.2,0.2-22.4,16.1-22.3,39.8C415.2,360.6,415.4,360.8,415.6,360.8z"/>
	</g>
</g>
<path class="st5" d="M309.4,156.9c0,0-24.7-12.4-29-26.4c-2.1-6.9-2.9-21.1-1.7-27.6c0.3-1.2,0.9-2.2,1.8-3c2-2,2.5-4.6,4.3-6.8
	c1.4-1.8,2-2.3,1.8-2.8c-0.8-1.1-2.2-1.5-3.4-0.8c-1.3,0.7-2.5,1.5-3.6,2.4c0.7-2.5,1.8-4.9,3.2-7c3.3-5-0.3-7.1-4.4-7.1
	c-4.8,0-9.2,3.4-11.7,14.2c-0.9,4.8-1.3,9.6-1.4,14.5c0,12.1,0.2,22.5,1.4,28.6c2.9,14.4,11.3,21.6,18.9,28.8
	c6.9,6.6,11.5,10,15.3,13.2C313.7,164.7,309.4,156.9,309.4,156.9z"/>
<path class="st6" d="M310.9,156c-1.5-4.2-11.1-6.8-12.8-9.8c-3.4-5.9-6.2-13.7-14.7-9.7c0,0-4.1,9.6-12.7,10
	c-1.4,2.8-1.8,6.1-1.1,9.2c0.5,2.6,6.4,9.1,15.4,12.9c8.1,3.4,5.8,6.6,14.3,9.2C306.3,173.5,318.5,166.3,310.9,156z"/>
<path class="st2" d="M283.5,136.6c0,0-1.2,5.4-5.4,7.8c-5.4,3.1-7.2,2.2-7.2,2.2c-1.3-1.9-2.2-4-2.7-6.3c0,0,10.8-0.7,12.5-9.1
	C281.7,132.9,282.7,134.7,283.5,136.6z"/>
<rect x="340.6" y="379.8" class="st5" width="10.5" height="17.9"/>
<polygon class="st5" points="314.8,387.4 304.3,387.7 303.8,368.7 314.8,368.4 "/>
<path class="st7" d="M351.1,240.3c0,10-1.8,68.2-1.8,68.2c0.3,2.9,3,8,3.2,18.4c0.3,15-1,61.8-1,61.8c-3.7,1.8-7.9,1.9-11.7,0.2
	c0,0-9.3-61.5-11.1-76.4c-1.6-13-4.4-48.3-4.4-48.3l-5.7,42.4c1.2,5.5,1.7,11.1,1.4,16.7c-0.5,6.9-4.5,58.1-4.5,58.1
	s-4.9,3.3-12.1,0.9c0,0-5.3-69.3-5.4-75.6c-0.1-7.2,3.5-80.7,3.5-80.7L351.1,240.3z"/>
<path class="st7" d="M340.6,392.5V391c-1,0.4-3.3,9.3-7.5,13.1c-3.3,3-7.8,6.5-9,9.9s6.3,5.4,9.4,4.9c3.6-0.6,9.8-3.2,11.4-5.5
	s2.3-5.8,3.6-7.5s4.2-3.6,4.9-5.6c0.4-1.1-0.1-3.5-0.6-5.5c-0.5-1.9-1-3.9-1.6-3.7v1.1c-0.8,0.8-2.9,1.7-5.2,1.8
	C344.3,394,340.6,393.7,340.6,392.5z"/>
<path class="st7" d="M304.2,384.5c-0.5,0-1,0.8-2.2,2.1c-1.8,1.8-3.9,3.3-6.2,4.4c-3.9,2-11.5,5-15,6.5c-2.1,1-2,3.6,0.2,5.1
	s7.6,2.5,14.1,1.1c3.5-0.8,8.1-4,11-3.9s8.3,0.1,10.5-1.3s1.3-4.6,0.7-7.3c-0.7-3-1.5-7.6-2.5-7.4v1c-1.3,1.9-7.8,2.7-10.5,1.3
	L304.2,384.5z"/>
<ellipse transform="matrix(0.7071 -0.7071 0.7071 0.7071 6.5997 258.8573)" class="st7" cx="315.8" cy="121.5" rx="14.4" ry="14.4"/>
<path class="st7" d="M334.7,139.1l3-23.1c1.7-0.2,3.3,0.4,4.5,1.6c1.9,2-1.7,14.9-2.1,16.8l0,0c-0.8,3.4-2,8.9-2.7,10.1
	c-0.6,1.1-1.7,1.9-2.9,2.3L334.7,139.1z"/>
<path class="st5" d="M335,132.2c0.9,0.5,2.1-1.2,3.2-2.3s4.6-2.7,6.4,1s-1.6,8.8-4.4,9.7c-4.8,1.5-5.5-1.6-5.5-1.6l-0.4,17.7v0.2
	c-3,3.8-10.5,16.7-14.5,16.5s-4.6-13.5-1.2-17.5v-5.3c-2.1,0.3-4.3,0.5-6.5,0.3c-3.5-0.5-5.8-3.3-6.8-7.2
	c-1.7-6.2-2.4-11.1-0.9-23.2c1.6-13.3,17-13.4,25.4-8.2S335,132.2,335,132.2z"/>
<path class="st8" d="M335.3,155.2c-2,3.3-5.5,5.4-9.3,5.7l-5.8,11.4l-0.9-11.8l-2.6-7c-2.1,0.2-4.1,0.6-6.1,1.2
	c-3.6,1.7-6.5,4.4-8.4,7.9c-2.8,4.8-3.8,15.2-3.8,22.8s-1.5,41.4-2.2,69.5c-0.5,17.8-3,67.1-3.6,91.6c5.6,10.6,19,12.1,33.9,13
	c13.3,0.7,30.4-7.4,33.9-12.7c0.2-14-1.7-44.5-2.7-87.6c-1-46.1-2.8-75.8-2.6-76.6c1.3-6.3,3.3-21-1.9-23.6
	C350.1,157.4,335.3,155.2,335.3,155.2z"/>
<path class="st6" d="M319.3,160.6v-4.1c0-0.5-0.2-0.9-0.6-1.2v-3.9c-0.5,0.1-0.9,0.2-1.4,0.4c-0.5,0.4-0.7,0.9-0.6,1.5v2.1
	C316.7,155.4,316,160.6,319.3,160.6z"/>
<path class="st9" d="M319.4,160.6v-4.1c0-0.5-0.2-0.9-0.6-1.2v-3.9c-0.5,0.1-0.9,0.2-1.4,0.4c-0.5,0.4-0.7,0.9-0.6,1.5v2.1
	C316.9,155.4,316.2,160.6,319.4,160.6z"/>
<path class="st6" d="M326,160.9c0,0,0-3.1,0-3.8s0.3-1.1,2-1.5s6-3.3,6.5-4.8v-1.5c0.7,0,1.2,0.6,1.3,1.2c-0.1,1.6-0.2,3.1-0.4,4.7
	C333.7,158.7,329.2,161.4,326,160.9z"/>
<path class="st9" d="M326,160.9c0,0,0-3.1,0-3.8s0.3-1.1,2-1.5s6-3.3,6.5-4.8v-1.5c0.7,0,1.2,0.6,1.3,1.2c-0.1,1.6-0.2,3.1-0.4,4.7
	C333.7,158.7,329.2,161.4,326,160.9z"/>
<path class="st7" d="M335,133.7c0.5,0,2.1-2.8,3.2-3.8c1.5-1.4-0.4-13.9-0.4-13.9c0.8-2.2,0.2-4.7-1.5-6.3
	c-2.1-2.3-5.6-2.6-11.5-3.5c-1.9-0.3-3.7-0.1-5.6-0.3l-7.7-0.7c-3.2-0.1-6.4-0.7-9.4-1.8c-0.2-0.1-0.4-0.1-0.5-0.1
	c-0.3,0.1-0.4,0.5-0.5,0.8c-0.2,2.1,0.2,4.2,1,6.2c2,5.3,6.4,7.1,11.7,7.8c5.6,0.7,14.4-0.1,15.6-0.3c1.6-0.2,2,1.4,2.9,5.7
	C332.8,127.2,333.5,133.7,335,133.7z"/>
<path class="st7" d="M337.7,117l5.3-2.9c-0.7-1.5-2.5-2.1-3.9-1.4c0,0-0.1,0-0.1,0C337.6,113.6,337,115.5,337.7,117z"/>
<path class="st10" d="M318.7,150.7c0,0,7.9-1.6,10.7-3.1c1.6-0.8,3-2.2,3.8-3.8c-0.4,1.6-1.2,3.1-2.2,4.5c-2,2.6-12.3,4.5-12.3,4.5
	V150.7z"/>
<path class="st7" d="M318,131.3c0,0.9,0.8,1.6,1.6,1.5c0.9,0,1.6-0.8,1.5-1.6c0-0.9-0.7-1.5-1.6-1.5
	C318.7,129.6,318,130.4,318,131.3C318,131.3,318,131.3,318,131.3z"/>
<path class="st7" d="M319.8,124.5l3.7,1.2c0.3-1-0.2-2.2-1.3-2.5C321.2,122.9,320.1,123.5,319.8,124.5
	C319.8,124.5,319.8,124.5,319.8,124.5z"/>
<path class="st10" d="M318,141.9l-3.6,1.4c0.3,1,1.4,1.5,2.4,1.2c0,0,0,0,0.1,0C317.9,144.1,318.4,142.9,318,141.9z"/>
<path class="st7" d="M304.6,125l3.6-1.4c-0.3-1-1.4-1.5-2.4-1.2c0,0-0.1,0-0.1,0C304.8,122.8,304.2,124,304.6,125z"/>
<path class="st7" d="M305.1,130.9c0,0.9,0.8,1.6,1.6,1.5c0.9,0,1.6-0.8,1.5-1.6c0-0.9-0.7-1.5-1.6-1.5
	C305.8,129.3,305.1,130,305.1,130.9C305.1,130.9,305.1,130.9,305.1,130.9z"/>
<polygon class="st10" points="314.1,130.1 313.6,139.6 308.6,137.9 "/>
<path class="st6" d="M285.6,62.8l5-10.5l0,0c0.9-2.1,3.7-3.3,8-3.1c8.5,0.3,19.9,5.8,25.4,12.2c2.8,3.3,3.6,6.1,2.6,8.2l0,0l-5,10.5
	c-0.9,2-3.7,3.2-8,3.1c-8.5-0.3-19.9-5.8-25.4-12.2C285.4,67.7,284.6,64.9,285.6,62.8L285.6,62.8L285.6,62.8z"/>
<polygon class="st8" points="315.7,46 334.5,73.5 301.3,76 282.5,48.6 "/>
<polygon class="st11" points="334.5,73.5 334,74.6 300.8,77.1 301.3,76 "/>
<polygon class="st12" points="334.5,73.5 334,74.6 300.8,77.1 301.3,76 "/>
<polygon class="st11" points="282.5,48.6 282,49.6 300.8,77.1 301.3,76 "/>
<polygon class="st13" points="282.5,48.6 282,49.6 300.8,77.1 301.3,76 "/>
<polygon class="st14" points="321,75.6 300,78.7 289.4,60.5 300.8,77.1 "/>
<path class="st1" d="M308.5,61.7c-0.1,0-0.3,0-0.4-0.1c-0.2-0.1-16.4-12.4-14-34.5c0-0.4,0.4-0.6,0.7-0.6c0.4,0,0.6,0.4,0.6,0.7
	c-1.4,12.7,3.7,25.2,13.5,33.3c0.3,0.2,0.3,0.6,0.1,0.9c0,0,0,0,0,0C308.9,61.6,308.7,61.7,308.5,61.7z"/>
<path class="st8" d="M294.2,25.4c0.6-0.2,1.3-0.1,1.8,0.2l2.5-8.4c0.2-1.6-4.6-2.2-4.8-0.6L294.2,25.4z"/>
<path class="st15" d="M294.7,20.5l0.3-4.7l-0.3,0.1L294.7,20.5z"/>
<path class="st15" d="M297.5,16.1l-1.5,7.5l1.9-7.4L297.5,16.1z"/>
<path class="st15" d="M296.5,15.8h-0.3l-0.6,6.1L296.5,15.8z"/>
<path class="st8" d="M296.3,26.3c-0.1,0.7-0.7,1.1-1.4,1c0,0,0,0,0,0c-0.7,0-1.2-0.6-1.1-1.3c0.2-0.7,0.9-1.1,1.6-0.9
	C295.9,25.3,296.3,25.7,296.3,26.3L296.3,26.3z"/>
<path class="st15" d="M293.8,25.9c0.3-0.5,1-0.6,1.5-0.3c0,0,0,0,0,0c0.4,0.3,0.6,0.8,0.3,1.2c-0.1,0.2-0.3,0.3-0.5,0.4
	c0.6,0,1.1-0.4,1.2-1c0-0.7-0.5-1.2-1.1-1.3C294.6,24.9,293.9,25.3,293.8,25.9z"/>
<path class="st5" d="M378.1,143.1c-1.6,3.6-12,21.9-15.9,28.1c-4.1,6.5-4.2,6.8-7.2,11.5c-11.6-5.6-4.6-24.4-4.6-24.4
	s15.1-22,15.6-22.9c0.5-0.9,0.8-1.8,1-2.8c0.3-1.8,2.3-23.8,1.5-30.6c-0.1-1.2-0.7-2.3-1.6-3.1c-2.4-2.2-3.2-4.1-4.8-6.5
	c-1.3-1.9-2.6-2.6-2.3-3.1c0.8-1.1,2.4-1.4,3.5-0.6c1.3,0.8,2.4,1.7,3.5,2.7c-0.5-2.6-1.4-5.1-2.7-7.4c-3-5.3-2.6-8.1,5-6.9
	c4.8,0.8,9.3,4.7,11,15.8c0.5,3.2,0.4,8,0.5,12.1c0.1,9.4-0.3,24.1-0.7,30.6C379.6,139.1,379.7,139.6,378.1,143.1z"/>
<path class="st8" d="M371.7,91.7c-3.4,2.7-5.3,7-5,11.3c0,0,2.1-4.4,4-4.7c0,0,0.9,4.8,2.3,7.2c0,0-0.3-8.1,2.5-11.6L371.7,91.7z"/>
<path class="st16" d="M371.7,91.7c-3.4,2.7-5.3,7-5,11.3c0,0,2.1-4.4,4-4.7c0,0,0.9,4.8,2.3,7.2c0,0-0.3-8.1,2.5-11.6L371.7,91.7z"
	/>
<path class="st17" d="M354.4,66.2L354.4,66.2c-1.4,0.2-2.8,0.8-3.9,1.8c-4,3.3-6.5,10-5.7,15.1c0.4,2.3,1.4,3.9,2.8,4.6l0,0
	c2.3,1.5,23.1,5.5,23.1,5.5l6.3-16.8C377,76.4,357.2,65.6,354.4,66.2z"/>
<path class="st8" d="M372.5,77.1c-3.5,3.2-5.2,7.8-4.7,12.5c0.4,2.3,1.5,3.2,3,3.6c1.3,0.3,5,1.9,6.9,2.7c3.3-2.7,5.5-13.3,4.8-17.5
	c-1.9-0.5-3.7-1.2-5.4-2.1C375.5,75.6,373.7,75.9,372.5,77.1z"/>
<path class="st17" d="M383.8,78.7c-0.1-0.1-0.3-0.1-0.4-0.1h0l0,0c-1.3-0.5-2.8-0.1-3.7,0.9c-3.5,3.2-5.3,7.9-4.7,12.6
	c0.4,2.2,1.4,3.5,2.7,4l0,0c0,0,14.8,10.9,17.3,11.4s9.4-24.2,9.4-24.2C402.6,81.7,386.4,79.6,383.8,78.7z"/>
<ellipse transform="matrix(0.3533 -0.9355 0.9355 0.3533 169.293 435.4184)" class="st1" cx="399.6" cy="95.3" rx="13" ry="7.5"/>
<path class="st2" d="M362.8,140.3c0,0,2.4,4.6,7.1,5.9s6.5,0.3,6.5,0.3s1.4-2.8,2.6-5.6c0,0-9.5,0.8-12.9-5.7
	C366.1,135.2,364.4,138,362.8,140.3z"/>
<path class="st6" d="M344,157.1c1-1.7,5.5-2.6,6.6-5.8c2.3-6.4,3.1-13.4,12.1-11c0,0,5.1,7.3,13.6,6.2c2.1,2.6,3.2,5.9,3.1,9.3
	c-0.1,2.6-3.9,9.9-12.1,15.2c-7.4,4.8-4.5,7.5-12.4,11.7C347.5,179.6,338.3,168.6,344,157.1z"/>
<path class="st5" d="M367.6,93.1c-0.5-0.2-1.1-1.8-3-3.3s-4.4-1.8-5.1-0.8s0,0.8,1.6,2.6s2.3,4,4.8,6.3"/>
<path class="st7" d="M174.6,382.8c-0.2,1.5-0.5,3-0.9,4.5c-0.6,2-1,5.4-0.7,7.1s4.3,4,6.9,4.4s6.4,2.8,8.5,4.6
	c2.6,2.3,8.1,4.5,11.7,4.1s7.5-1.6,8.7-4.1c0.7-1.5-2.4-3.1-10.4-8s-11-7.5-13.4-12.6L174.6,382.8z"/>
<path class="st7" d="M143.4,385c-0.5,3-0.8,6-0.9,9c-0.1,5.4-1.1,7.4-1.2,11.8c-0.2,5.1,0.7,7,2.8,9.9s7.5,5.5,9.8,0.6s2-8,1.3-13
	c-0.8-5.2-0.9-8-1.3-12c-0.4-3.5-0.9-6.1-0.9-6.1L143.4,385z"/>
<path class="st18" d="M137.4,342.1c0.3,12,6,42.9,6,42.9c2.9,1.9,6.7,2,9.6,0.2c0,0,2.2-27.9,3.9-40.9c0.1-0.6,0.2-1.3,0.3-1.9
	L137.4,342.1z"/>
<path class="st18" d="M173.4,348.9c0.5,13.4,1.1,33.9,1.1,33.9c3.1,2.1,7.2,2.2,10.4,0.1c0,0,2.2-19.5,4.5-34L173.4,348.9z"/>
<path class="st18" d="M143.4,385c0,0,0,12.8,1.1,17s7.8,4,8.3,0.1s0.3-17,0.3-17l-9.6-0.5"/>
<path class="st18" d="M199.6,396.1c-6.2-4.4-12.5-8.9-14.6-13.3l-8.6-0.1h-1.8c0.6,3.1,5.8,5.8,9,8.5
	C185.8,393.3,192.7,399.9,199.6,396.1z"/>
<path class="st2" d="M171.2,103.4c-4.7,0-9.2,1.9-12.6,5.1l-1.2-4.2c-1.5,0.7-2.2,2.5-1.5,4.1c0.1,0.3,0.3,0.5,0.4,0.7l-3.2-0.9
	c-0.4,1.5,0.4,3,1.8,3.5c0.2,0.1,0.5,0.1,0.7,0.1c-2.9,4.2-4.5,9.2-4.5,14.3v1.2l0,0v46.3h40.9v-46.2l0,0v-4.1
	C190.5,112,181.6,103.4,171.2,103.4z"/>
<path class="st18" d="M185.9,115.1c2.5,1.5,5.6,7.8,5.3,21.1c-0.3,11.3-3.9,14-5.7,14.8s-5.4,0.3-8.8-0.3v6.8c0,0,7.3,11.3,7,14.4
	s-6.8,3.8-11.3,0.8S161.7,158,161.7,158l0.1-15.5c0,0-2,2-5.4-1c-2.8-2.5-3.8-6.6-1.6-8.9c2-1.9,5.1-1.7,7,0.2
	c0.4,0.4,0.7,0.8,0.9,1.3c0.9,2,3.1,2.1,3.1-0.3c0-6.4,3.7-7.7,4.3-17.6C177.1,114,180.6,114.9,185.9,115.1z"/>
<path class="st2" d="M181.4,107.1c9.9,1,12.4,13,11.3,21.1l0,0c-9.3,0-18-3-23.9-10.5l-0.6-2.6L181.4,107.1z"/>
<path class="st7" d="M178.9,132.9c0,0.8-0.6,1.4-1.4,1.4c-0.8,0-1.4-0.6-1.4-1.4c0-0.8,0.6-1.4,1.3-1.4
	C178.2,131.5,178.9,132.1,178.9,132.9C178.9,132.9,178.9,132.9,178.9,132.9z"/>
<path class="st19" d="M179,142.9l3.3,1.1c-0.2,0.9-1.2,1.4-2.1,1.2c0,0,0,0-0.1,0C179.2,144.8,178.7,143.8,179,142.9z"/>
<path class="st7" d="M191.9,128.2l-2.9-2c0.5-0.8,1.5-1,2.3-0.5c0,0,0,0,0,0C192.2,126.2,192.4,127.3,191.9,128.2z"/>
<path class="st7" d="M172.6,129.1l3.1-1.7c-0.4-0.8-1.4-1.2-2.2-0.8c0,0-0.1,0-0.1,0C172.5,127.2,172.1,128.3,172.6,129.1z"/>
<path class="st7" d="M189.6,132.3c0,0.8-0.6,1.4-1.4,1.4s-1.4-0.6-1.4-1.4c0-0.8,0.6-1.4,1.3-1.4
	C188.9,130.9,189.6,131.5,189.6,132.3z"/>
<polygon class="st19" points="182.9,131.5 183.1,140 187.6,138.6 "/>
<path class="st7" d="M171.6,133.2c0.2-2.5,2.2-4.5,4.8-4.6h0.2c2.5-0.2,4.7,1.5,5.2,4c0.4,2.6-1.4,5-4,5.4c-0.1,0-0.3,0-0.4,0h-0.7
	c-2.6,0.1-4.9-1.9-5-4.5C171.6,133.4,171.6,133.3,171.6,133.2z M176.1,129.4c-2.2,0.1-3.9,2-3.8,4.2c0,0.3,0.1,0.5,0.1,0.8
	c0.5,1.8,2.3,3.1,4.2,2.9h0.4c1.9,0,3.5-1.5,3.9-3.4c0.3-2.2-1.2-4.2-3.4-4.5c-0.2,0-0.5,0-0.7,0L176.1,129.4z"/>
<path class="st7" d="M185.2,132.4c0.2-2.5,2.2-4.5,4.8-4.6h0.2c2.5-0.2,4.8,1.6,5.2,4.1c0.4,2.6-1.4,5-4,5.4c-0.1,0-0.3,0-0.4,0
	h-0.7c-2.6,0.1-4.9-1.9-5-4.5C185.2,132.7,185.2,132.6,185.2,132.4z M189.8,128.7c-2.2,0.1-3.9,2.1-3.7,4.3c0,0.2,0.1,0.5,0.1,0.7
	c0.5,1.9,2.3,3.1,4.2,2.9h0.4c1.9-0.1,3.5-1.5,3.9-3.4c0.3-2.2-1.2-4.2-3.4-4.5c-0.2,0-0.5,0-0.7,0L189.8,128.7z"/>
<path class="st7" d="M181.3,131.6c0.6-0.5,1.3-0.8,2-0.9c0.8-0.1,1.6,0.1,2.2,0.7l0.6-0.5c-0.7-0.8-1.8-1.2-2.9-1
	c-0.9,0.1-1.8,0.5-2.5,1.1C180.5,131.3,181.1,131.8,181.3,131.6z"/>
<path class="st7" d="M162.4,133.9l9.6-0.5v-0.8l-10,0.5C162.2,133.4,162.3,133.6,162.4,133.9z"/>
<path class="st19" d="M176.7,150.7c-3.6-0.5-11.1-2.6-12.2-5.6c0.5,1.5,1.4,2.8,2.6,3.8c2.2,1.9,9.6,4.1,9.6,4.1V150.7z"/>
<path class="st18" d="M187.2,186.8c0,0,5.9,13.9,10.5,27.8c2.5,7.5,6.1,18.5,6,25.2c-0.1,1.2-0.5,2.3-1.3,3.2
	c-1.6,2.3-1.7,4.9-3.1,7.5c-1.1,2-1.6,2.6-1.3,3c0.9,1,2.5,1.1,3.5,0.3c1.2-0.9,2.2-1.9,3.1-3c-0.3,2.6-0.9,5.1-2,7.5
	c-2.4,5.5,1.4,6.9,5.5,6.3c4.7-0.7,7-4.7,7.6-15.7c0.1-4.3-0.1-8.6-0.8-12.8c-2-11.9-4.5-22.4-6-28.5c-3.3-13.5-7.8-26.7-13.5-39.4
	c-3.4-7.4-7.4-10.7-14.5-10.5C173.3,173.6,187.2,186.8,187.2,186.8z"/>
<path class="st6" d="M181,157.5c2.5-0.7,5.2-0.7,7.7,0c4.1,1.2,8,3.3,10.1,9.1c1.7,4.6,3.2,9.8,6.1,13.4s6.3,11.3,1.3,16.8
	c0,0-8.9,1.3-12.6,6.2c0,0-9-0.8-10.7-9.6C181.5,186.4,181,157.5,181,157.5z"/>
<path class="st2" d="M193.6,203c0,0,1.1-2.6,5.4-4.6c2.2-1.1,4.7-1.7,7.2-1.6c0,0,1.7,4,1.7,6.2c-2.1,0.5-4.1,1.1-6,2
	c-2.2,1.1-4.3,2.5-6.1,4.1C195.8,209.1,193.8,204.7,193.6,203z"/>
<path class="st20" d="M177.1,217.5c0,0,1.1-2.6,5.4-4.6c2.2-1.1,4.7-1.7,7.2-1.6c0,0,1.7,4,1.7,6.2c-2.1,0.5-4.1,1.1-6,2
	c-2.2,1.1-4.3,2.5-6.1,4.1C179.3,223.6,177.3,219.2,177.1,217.5z"/>
<path class="st21" d="M161.7,157.6c1.6,3.3,4.8,5.6,8.5,5.8l5.8,10l0.1-10.6c0,0,3.1-1.5,0.7-5.2h4.3c0,0,7.8,5,11.5,10.8
	s3.3,10.5,2.5,17c-0.5,4.3-3.3,18.4-3.3,18.4s5.6,25.6,4.7,50.9c-0.7,17.2,1,76.9,0.1,98.1c-4.4,15.1-28.1,21.4-43.1,20.9
	c-12.4-0.4-20.4-5.3-25.7-14.5c-0.2-14,4.1-82.9,7.7-103.2s6.3-31.7,8.1-35.8c2.5-5.4,5.5-10.5,9.1-15.3c-0.1-4.3-1.2-9.2-4.6-16
	c-0.8-1.5-1.5-3.1-2.1-4.7c-1.3-6.3-4.2-21.5,1-24.1C150,158.4,161.7,157.6,161.7,157.6z"/>
<path class="st8" d="M161.7,157.6c1.6,3.3,4.8,5.6,8.5,5.8l5.8,10l0.1-10.6c0,0,3.1-1.5,0.7-5.2h4.3c0,0,7.8,5,11.5,10.8
	s3.3,10.5,2.5,17c-0.5,4.3-3.3,18.4-3.3,18.4s5.6,25.6,4.7,50.9c-0.7,17.2,1,76.9,0.1,98.1c-4.4,15.1-28.1,21.4-43.1,20.9
	c-12.4-0.4-20.4-5.3-25.7-14.5c-0.2-14,4.1-82.9,7.7-103.2s6.3-31.7,8.1-35.8c2.5-5.4,5.5-10.5,9.1-15.3c-0.1-4.3-1.2-9.2-4.6-16
	c-0.8-1.5-1.5-3.1-2.1-4.7c-1.3-6.3-4.2-21.5,1-24.1C150,158.4,161.7,157.6,161.7,157.6z"/>
<path class="st6" d="M170.2,163.4c0,0-0.1-3.1,0-3.8s-0.3-1.1-2-1.5s-6.1-3.3-6.5-4.8v-1.5c-0.7,0-1.2,0.5-1.3,1.2
	c0.1,1.6,0.2,3.1,0.4,4.7C162.5,161.1,167,163.8,170.2,163.4z"/>
<path class="st9" d="M170.2,163.4c0,0-0.1-3.1,0-3.8s-0.3-1.1-2-1.5s-6.1-3.3-6.5-4.8v-1.5c-0.7,0-1.2,0.5-1.3,1.2
	c0.1,1.6,0.2,3.1,0.4,4.7C162.5,161.1,167,163.8,170.2,163.4z"/>
<path class="st6" d="M176.1,162.7v-4.1c0-0.5,0.2-0.9,0.6-1.2v-3.9c0.5,0.1,0.9,0.2,1.4,0.4c0.5,0.4,0.7,0.9,0.6,1.5v2
	C178.7,157.5,179.4,162.7,176.1,162.7z"/>
<path class="st9" d="M176.1,162.7v-4.1c0-0.5,0.2-0.9,0.6-1.2v-3.9c0.5,0.1,0.9,0.2,1.4,0.4c0.5,0.4,0.7,0.9,0.6,1.5v2
	C178.7,157.5,179.4,162.7,176.1,162.7z"/>
<path class="st8" d="M147.1,118.1c0.5,0.2,1.1,0.2,1.6,0l1.3,8.4c0,1.6-4.1,1.6-4.1,0L147.1,118.1z"/>
<path class="st15" d="M147,122.9l-0.3,4.6l-0.3-0.1L147,122.9z"/>
<path class="st15" d="M149,127.5l-0.6-7.5l0.8,7.4L149,127.5z"/>
<path class="st15" d="M148,127.7h-0.3l0.1-5.9L148,127.7z"/>
<path class="st1" d="M147.9,118c0.3,0,0.5-0.2,0.5-0.5c0,0,0,0,0,0v-11.9c0-0.5,0.3-1,0.8-1.3l-0.5-0.9c-0.8,0.4-1.3,1.3-1.3,2.2
	v11.9C147.4,117.8,147.6,118,147.9,118z"/>
<path class="st8" d="M149,117.5c0-0.6-0.5-1.1-1.1-1.1c-0.6,0-1.1,0.5-1.1,1.1c0,0.6,0.5,1.1,1.1,1.1c0,0,0,0,0,0
	C148.5,118.6,149,118.1,149,117.5C149,117.5,149,117.5,149,117.5z"/>
<path class="st15" d="M146.8,117.6c0.2,0.4,0.7,0.6,1.1,0.5c0,0,0,0,0.1,0c0.4-0.3,0.6-0.8,0.3-1.3c-0.1-0.1-0.2-0.2-0.3-0.3
	c0.6,0.1,1,0.5,1,1.1c0,0.6-0.5,1.1-1.1,1.1C147.3,118.7,146.8,118.2,146.8,117.6L146.8,117.6L146.8,117.6z"/>
<path class="st6" d="M152.4,116.3v-11.7l0,0c0-2.3,1.9-4.5,5.8-6.3c7.8-3.4,20.4-3.4,28.2,0c3.9,1.7,5.9,4,5.8,6.3l0,0v11.6
	c0,2.3-1.9,4.5-5.8,6.2c-7.8,3.4-20.4,3.4-28.2,0C154.4,120.7,152.5,118.5,152.4,116.3L152.4,116.3L152.4,116.3z"/>
<polygon class="st8" points="172.4,88.1 201.2,104.8 172.4,121.4 143.5,104.8 "/>
<path class="st15" d="M172.9,105.6c0.1-0.3-0.2-0.6-0.5-0.7c0,0,0,0,0,0l-22-4.1l-1.6,0.9l23.4,4.3h0.1
	C172.6,106,172.8,105.8,172.9,105.6z"/>
<polygon class="st11" points="201.2,104.8 201.2,105.9 172.4,122.6 172.4,121.4 "/>
<polygon class="st22" points="201.2,104.8 201.2,105.9 172.4,122.6 172.4,121.4 "/>
<polygon class="st11" points="143.5,104.8 143.5,105.9 172.4,122.6 172.4,121.4 "/>
<polygon class="st22" points="143.5,104.8 143.5,105.9 172.4,122.6 172.4,121.4 "/>
<polygon class="st14" points="189.9,112.5 172.4,124.4 154.9,112.5 172.4,122.6 "/>
<path class="st1" d="M147.4,102.5c0-1.4,1.2-2.6,2.6-2.5c0.1,0,0.3,0,0.4,0l22,4.1c0.3,0.1,0.5,0.4,0.5,0.7c0,0,0,0,0,0
	c0,0.3-0.3,0.5-0.6,0.5h-0.1l-22-4.1c-0.4-0.1-0.8,0-1.1,0.3c-0.1,0.1-0.1,0.1-0.2,0.2L147.4,102.5z"/>
<path class="st18" d="M122,144.2c1.6,3.6,12,21.9,15.9,28.1c4.1,6.5,5.1,7.3,8.1,12c11.6-5.6,3.8-24.9,3.8-24.9s-15.1-22-15.6-22.9
	c-0.4-0.9-0.8-1.8-1-2.8c-0.3-1.8-2.3-23.8-1.5-30.6c0.1-1.2,0.7-2.3,1.6-3.1c2.4-2.2,3.2-4.1,4.8-6.5c1.3-1.9,2.6-2.6,2.3-3.1
	c-0.8-1.1-2.4-1.4-3.6-0.6c-1.3,0.8-2.4,1.7-3.4,2.7c0.5-2.6,1.4-5.1,2.6-7.4c3-5.3,2.6-8.1-5-6.9c-4.8,0.8-9.3,4.7-11,15.8
	c-0.5,3.2-0.4,8-0.5,12.1c-0.1,9.4,0.3,24.1,0.7,30.6C120.5,140.1,120.4,140.6,122,144.2z"/>
<path class="st8" d="M128.4,92.7c3.4,2.7,5.3,7,5,11.3c0,0-2.1-4.4-4-4.7c0,0-0.9,4.8-2.3,7.2c0,0,0.3-8.1-2.5-11.6L128.4,92.7z"/>
<path class="st16" d="M128.4,92.7c3.4,2.7,5.3,7,5,11.3c0,0-2.1-4.4-4-4.7c0,0-0.9,4.8-2.3,7.2c0,0,0.3-8.1-2.5-11.6L128.4,92.7z"/>
<path class="st17" d="M145.7,67.3L145.7,67.3c1.4,0.2,2.8,0.8,3.9,1.7c4,3.3,6.5,10,5.7,15.1c-0.4,2.3-1.4,3.9-2.8,4.6l0,0
	c-2.3,1.5-23.1,5.5-23.1,5.5l-6.3-16.8C123.1,77.4,142.9,66.7,145.7,67.3z"/>
<path class="st8" d="M127.6,78.1c3.5,3.2,5.3,7.8,4.7,12.5c-0.4,2.3-1.5,3.2-3,3.6c-1.3,0.3-5,1.9-6.9,2.7
	c-3.3-2.7-5.5-13.3-4.8-17.5c1.9-0.5,3.7-1.2,5.4-2.1C124.6,76.6,126.4,76.9,127.6,78.1z"/>
<path class="st17" d="M116.3,79.7c0.1-0.1,0.3-0.1,0.4-0.1l0,0l0,0c1.3-0.5,2.8-0.1,3.7,0.9c3.5,3.2,5.3,7.8,4.8,12.5
	c-0.3,2.2-1.4,3.5-2.7,4l0,0c0,0-14.8,10.9-17.3,11.4s-9.4-24.2-9.4-24.2C97.5,82.7,113.7,80.7,116.3,79.7z"/>
<ellipse transform="matrix(0.9355 -0.3533 0.3533 0.9355 -27.5216 41.7315)" class="st1" cx="100.5" cy="96.2" rx="7.5" ry="13"/>
<path class="st2" d="M137.3,141.3c0,0-2.4,4.6-7.1,5.9s-6.6,0.3-6.6,0.3s-1.4-2.8-2.6-5.6c0,0,9.4,0.8,12.9-5.7
	C134,136.3,135.7,139,137.3,141.3z"/>
<path class="st6" d="M156.1,158.1c-1-1.7-5.5-2.6-6.6-5.8c-2.3-6.4-3.1-13.4-12.1-11c0,0-5.1,7.3-13.6,6.2c-2.1,2.6-3.2,5.9-3.1,9.3
	c0.1,2.6,3.9,9.9,12.1,15.2c7.4,4.8,5.3,8,13.3,12.2C153.5,181.1,161.8,169.7,156.1,158.1z"/>
<path class="st18" d="M132.5,94.2c0.5-0.2,1.1-1.8,3-3.3s4.4-1.9,5.2-0.8s0,0.8-1.6,2.6s-2.3,4-4.8,6.3"/>
</svg>
