<svg xmlns="http://www.w3.org/2000/svg" viewBox="0 0 500 500"><defs><style>.cls-1,.cls-2{fill:#e6e6e6;}.cls-2,.cls-21{opacity:0.8;}.cls-14,.cls-3{opacity:0.1;}.cls-4{fill:#27debf;}.cls-12,.cls-13,.cls-21,.cls-26,.cls-31,.cls-5,.cls-7{fill:#fff;}.cls-6{opacity:0.15;}.cls-27,.cls-7{opacity:0.45;}.cls-8{opacity:0.2;}.cls-9{fill:#455a64;}.cls-10{fill:#f5f5f5;}.cls-11,.cls-13{opacity:0.5;}.cls-12{opacity:0.6;}.cls-14,.cls-20{fill:#263238;}.cls-15{fill:#f0f0f0;}.cls-16{fill:#fafafa;}.cls-17{fill:#e0e0e0;}.cls-18{opacity:0.3;}.cls-19{fill:#ebebeb;}.cls-22{fill:#37474f;}.cls-23{opacity:0.23;}.cls-24,.cls-31{opacity:0.4;}.cls-25{opacity:0.38;}.cls-26,.cls-28{opacity:0.7;}.cls-29{fill:#ffa8a7;}.cls-30{fill:#f28f8f;}</style></defs><title>Mesa de trabajo 1</title><g id="Floor"><g id="Floor-2" data-name="Floor"><path id="Floor-3" data-name="Floor" class="cls-1" d="M418.81,241.79c93.59,52.84,93.59,138.52,0,191.37s-245.33,52.84-338.93,0-93.59-138.52,0-191.37S325.22,188.94,418.81,241.79Z"/><path id="Floor-4" data-name="Floor" class="cls-2" d="M418.81,241.79c93.59,52.84,93.59,138.52,0,191.37s-245.33,52.84-338.93,0-93.59-138.52,0-191.37S325.22,188.94,418.81,241.79Z"/></g></g><g id="Shadows"><path id="Shadow" class="cls-3" d="M270.44,324.08l45.29-26.14a2.27,2.27,0,0,1,2.05,0L384,336.25a.63.63,0,0,1,0,1.19l-45.29,26.15a2.27,2.27,0,0,1-2.05,0l-66.24-38.31A.63.63,0,0,1,270.44,324.08Z"/><g id="Shadows-2" data-name="Shadows" class="cls-3"><path id="Shadow-2" data-name="Shadow" d="M63,371.19l-19-11a1.25,1.25,0,0,1,0-2.37L274.83,224.56a4.54,4.54,0,0,1,4.11,0l19,11a1.25,1.25,0,0,1,0,2.37L67.1,371.19A4.54,4.54,0,0,1,63,371.19Z"/><path id="Shadow-3" data-name="Shadow" d="M260.17,222.33l40.92-23.64a3.63,3.63,0,0,1,3.28,0l50.27,29a1,1,0,0,1,0,1.9l-40.92,23.64a3.63,3.63,0,0,1-3.28,0l-50.27-29A1,1,0,0,1,260.17,222.33Z"/></g><path id="Shadow-4" data-name="Shadow" class="cls-3" d="M159.37,419.5l51.58-29.95a4.4,4.4,0,0,1,4,0l60.92,35.18a1.21,1.21,0,0,1,0,2.3L224.27,457a4.4,4.4,0,0,1-4,0L159.37,421.8A1.21,1.21,0,0,1,159.37,419.5Z"/><path id="Shadow-5" data-name="Shadow" class="cls-3" d="M94,404.57,82.65,398a1.25,1.25,0,0,1,0-2.37l69.08-39.88a4.54,4.54,0,0,1,4.11,0l11.3,6.52a1.25,1.25,0,0,1,0,2.37L98.06,404.57A4.54,4.54,0,0,1,94,404.57Z"/><path id="Shadow-6" data-name="Shadow" class="cls-3" d="M182.18,354.09l-11.3-6.52a1.25,1.25,0,0,1,0-2.37l75.19-43.49a4.54,4.54,0,0,1,4.11,0l11.3,6.52a1.25,1.25,0,0,1,0,2.37l-75.19,43.49A4.54,4.54,0,0,1,182.18,354.09Z"/><path id="Shadow-7" data-name="Shadow" class="cls-3" d="M400.4,381.58c-5.62,0-11.37-.65-16.39-3.18-1.59-.81-3.3-2.18-3.09-4,.18-1.59,1.84-2.58,3.39-3,3.13-.87,6.45-.51,9.67-.89,5.1-.61,9.78-3.07,14.72-4.51q1.49-.44,3-.75a54.16,54.16,0,0,1,11.81-1,22.81,22.81,0,0,1,4.86.41c2,.43,4,.84,6,1.21,7.9,1.48,16,2.4,24,1.07,2.08-.35,4.22-.84,6.28-.37,1.46.34,3.67,1.72,3.7,3.44,0,1.34-2,3.09-2.95,3.92-6.17,5.48-14.78,7.37-23,7.59s-16.48-1-24.73-.9c-5.69.09-11.35.84-17,.9Z"/></g><g id="Plant"><g id="Plants"><g id="_Группа_" data-name="&lt;Группа&gt;"><g id="_Группа_2" data-name="&lt;Группа&gt;"><path id="_Контур_" data-name="&lt;Контур&gt;" class="cls-4" d="M67.83,332.93c.73-8.29-3.76-26-11.42-37.53S35.9,274.81,26,277.25c-9.22,2.28-9.28,14.11.9,22.85S52.55,320,56.14,333.92l8.57,17.39Z"/><path id="_Контур_2" data-name="&lt;Контур&gt;" class="cls-3" d="M67.83,332.93c.73-8.29-3.76-26-11.42-37.53S35.9,274.81,26,277.25c-9.22,2.28-9.28,14.11.9,22.85S52.55,320,56.14,333.92l8.57,17.39Z"/></g><g id="_Группа_3" data-name="&lt;Группа&gt;"><path id="_Контур_3" data-name="&lt;Контур&gt;" class="cls-5" d="M67.45,344.33a.61.61,0,0,1-.5-.54C63.88,315,43,290,29.73,283.68a.61.61,0,0,1-.29-.81.6.6,0,0,1,.81-.29C43.76,289,65,314.43,68.15,343.67a.61.61,0,0,1-.54.67Z"/></g></g><g id="_Группа_4" data-name="&lt;Группа&gt;"><g id="_Группа_5" data-name="&lt;Группа&gt;"><path id="_Контур_4" data-name="&lt;Контур&gt;" class="cls-4" d="M61.63,362.08c-.92-4.78-5.94-13-14.6-20.14-9.57-7.93-22.18-12.29-24.68-18-3-6.89,3.09-12.61,13.45-10.39s27.5,18.11,28.56,39.87Z"/></g><g id="_Группа_6" data-name="&lt;Группа&gt;"><path id="_Контур_5" data-name="&lt;Контур&gt;" class="cls-5" d="M64.09,357.37a.61.61,0,0,1-.49-.45c-6.55-25-24.31-35.16-32.79-37a.61.61,0,0,1-.46-.72.6.6,0,0,1,.73-.46c9.37,2.06,27,12.37,33.7,37.91a.61.61,0,0,1-.43.74A.6.6,0,0,1,64.09,357.37Z"/></g></g></g></g><g id="Boxes"><g id="Box"><polygon id="_Контур_6" data-name="&lt;Контур&gt;" class="cls-4" points="312.08 249.12 312.08 220.32 349.49 198.73 349.49 227.52 312.08 249.12"/><polygon id="_Контур_7" data-name="&lt;Контур&gt;" class="cls-4" points="312.08 220.32 265.32 193.33 265.32 222.12 312.08 249.12 312.08 220.32"/><polygon id="_Контур_8" data-name="&lt;Контур&gt;" class="cls-6" points="312.08 220.32 265.32 193.33 265.32 222.12 312.08 249.12 312.08 220.32"/><polygon id="_Контур_9" data-name="&lt;Контур&gt;" class="cls-4" points="312.08 220.32 350.6 198.08 302.73 170.43 264.21 192.68 312.08 220.32"/><polygon id="_Контур_10" data-name="&lt;Контур&gt;" class="cls-7" points="312.08 220.32 350.6 198.08 302.73 170.43 264.21 192.68 312.08 220.32"/><polygon id="_Контур_11" data-name="&lt;Контур&gt;" class="cls-4" points="312.08 220.32 312.08 227.52 350.6 205.29 350.6 198.08 312.08 220.32"/><polygon id="_Контур_12" data-name="&lt;Контур&gt;" class="cls-8" points="312.08 227.52 349.49 205.93 349.49 207.51 312.08 229.11 312.08 227.52"/><polygon id="_Контур_13" data-name="&lt;Контур&gt;" class="cls-4" points="264.21 192.68 312.08 220.32 312.08 227.52 264.21 199.89 264.21 192.68"/><polygon id="_Контур_14" data-name="&lt;Контур&gt;" class="cls-8" points="264.21 192.68 312.08 220.32 312.08 227.52 264.21 199.89 264.21 192.68"/><polygon id="_Контур_15" data-name="&lt;Контур&gt;" class="cls-8" points="312.08 227.52 265.32 200.53 265.32 202.11 312.08 229.11 312.08 227.52"/><path id="_Контур_16" data-name="&lt;Контур&gt;" class="cls-9" d="M324.4,224.7l12.78-7.38c.55-.32,1-.06,1,.58v7.56a2.2,2.2,0,0,1-1,1.73l-12.78,7.38c-.55.32-1,.06-1-.58v-7.56A2.2,2.2,0,0,1,324.4,224.7Z"/><path id="_Контур_17" data-name="&lt;Контур&gt;" class="cls-10" d="M325.22,225.56l11.14-6.43c.37-.21.66,0,.66.38v5.66a1.47,1.47,0,0,1-.66,1.15l-11.14,6.43c-.37.21-.66,0-.66-.38v-5.66A1.47,1.47,0,0,1,325.22,225.56Z"/><g class="cls-11"><path class="cls-9" d="M325.53,227.05a.16.16,0,0,1-.08-.3L336,220.68a.16.16,0,0,1,.16.28L325.61,227Z"/><path class="cls-9" d="M325.53,228.44a.16.16,0,0,1-.08-.3L336,222.07a.16.16,0,0,1,.16.28l-10.52,6.07Z"/><path class="cls-9" d="M325.53,229.84a.16.16,0,0,1-.08-.3L336,223.46a.16.16,0,0,1,.16.28l-10.52,6.07Z"/><path class="cls-9" d="M325.53,231.23a.16.16,0,0,1-.08-.3L336,224.85a.16.16,0,1,1,.16.28l-10.52,6.07Z"/></g></g><g id="Box-2" data-name="Box"><polygon id="_Контур_18" data-name="&lt;Контур&gt;" class="cls-4" points="312.08 216.71 312.08 187.91 349.49 166.31 349.49 195.11 312.08 216.71"/><polygon id="_Контур_19" data-name="&lt;Контур&gt;" class="cls-4" points="312.08 187.91 265.32 160.91 265.32 189.71 312.08 216.71 312.08 187.91"/><polygon id="_Контур_20" data-name="&lt;Контур&gt;" class="cls-6" points="312.08 187.91 265.32 160.91 265.32 189.71 312.08 216.71 312.08 187.91"/><polygon id="_Контур_21" data-name="&lt;Контур&gt;" class="cls-4" points="312.08 187.91 350.6 165.66 302.73 138.02 264.21 160.26 312.08 187.91"/><polygon id="_Контур_22" data-name="&lt;Контур&gt;" class="cls-12" points="312.08 187.91 350.6 165.66 302.73 138.02 264.21 160.26 312.08 187.91"/><polygon id="_Контур_23" data-name="&lt;Контур&gt;" class="cls-4" points="312.08 187.91 312.08 195.11 350.6 172.87 350.6 165.66 312.08 187.91"/><polygon id="_Контур_24" data-name="&lt;Контур&gt;" class="cls-8" points="312.08 195.11 349.49 173.51 349.49 175.09 312.08 196.69 312.08 195.11"/><polygon id="_Контур_25" data-name="&lt;Контур&gt;" class="cls-4" points="264.21 160.26 312.08 187.91 312.08 195.11 264.21 167.47 264.21 160.26"/><polygon id="_Контур_26" data-name="&lt;Контур&gt;" class="cls-8" points="264.21 160.26 312.08 187.91 312.08 195.11 264.21 167.47 264.21 160.26"/><polygon id="_Контур_27" data-name="&lt;Контур&gt;" class="cls-8" points="312.08 195.11 265.32 168.11 265.32 169.69 312.08 196.69 312.08 195.11"/><path id="_Контур_28" data-name="&lt;Контур&gt;" class="cls-9" d="M324.4,192.28l12.78-7.38c.55-.32,1-.06,1,.58V193a2.2,2.2,0,0,1-1,1.73l-12.78,7.38c-.55.32-1,.06-1-.58V194A2.2,2.2,0,0,1,324.4,192.28Z"/><path id="_Контур_29" data-name="&lt;Контур&gt;" class="cls-10" d="M325.22,193.14l11.14-6.43c.37-.21.66,0,.66.38v5.66a1.47,1.47,0,0,1-.66,1.15l-11.14,6.43c-.37.21-.66,0-.66-.38v-5.66A1.47,1.47,0,0,1,325.22,193.14Z"/><g class="cls-11"><path class="cls-9" d="M325.53,194.64a.16.16,0,0,1-.08-.3L336,188.26a.16.16,0,0,1,.16.28l-10.52,6.07Z"/><path class="cls-9" d="M325.53,196a.16.16,0,0,1-.08-.3L336,189.65a.16.16,0,0,1,.16.28L325.61,196Z"/><path class="cls-9" d="M325.53,197.42a.16.16,0,0,1-.08-.3L336,191a.16.16,0,0,1,.16.28l-10.52,6.07Z"/><path class="cls-9" d="M325.53,198.81a.16.16,0,0,1-.08-.3L336,192.43a.16.16,0,0,1,.16.28l-10.52,6.07Z"/></g></g></g><g id="Window"><g id="Window-2" data-name="Window"><path id="_Контур_30" data-name="&lt;Контур&gt;" class="cls-4" d="M64.94,187.87c-1-.6-4.07-3.36-4.07-4.64v-12a4.42,4.42,0,0,1,2-3.46L280.17,42.27c1.1-.64,2.51-1.08,6.07,1.17a4.43,4.43,0,0,1,1.88,3.39v12a4.42,4.42,0,0,1-2,3.46L68.81,187.8A4.29,4.29,0,0,1,64.94,187.87Z"/><path id="_Контур_31" data-name="&lt;Контур&gt;" class="cls-13" d="M288.09,46.51c-.14-1-1-1.41-2-.83L68.81,171.14a4.25,4.25,0,0,0-1.41,1.5l-5.94-3.42a4.14,4.14,0,0,1,1.41-1.49L280.17,42.28c1.1-.64,2.63-1,6.06,1.17A4.45,4.45,0,0,1,288.09,46.51Z"/><path id="_Контур_32" data-name="&lt;Контур&gt;" class="cls-1" d="M68.43,366.18l-.08,0a.84.84,0,0,1-.19.07l-.15,0a1.22,1.22,0,0,1-.28.06.6.6,0,0,1-.18,0l-.3,0a4.65,4.65,0,0,1-2.3-.4c-3.75-1.6-4.07-3.36-4.07-4.64V197.71l6,3.42V364.85c0,.9.45,1.43,1.11,1.43a.89.89,0,0,0,.27,0h0Z"/><path id="_Контур_33" data-name="&lt;Контур&gt;" class="cls-14" d="M67.4,172.63a4.06,4.06,0,0,0-.58,2v26.53l-6-3.42V171.19a2.07,2.07,0,0,1,0-.24,4.65,4.65,0,0,1,.08-.5,4.9,4.9,0,0,1,.5-1.24Z"/><g id="_Группа_7" data-name="&lt;Группа&gt;"><path id="_Контур_34" data-name="&lt;Контур&gt;" class="cls-15" d="M288.12,237.09a4.41,4.41,0,0,1-2,3.46L68.81,366c-1.1.64-2,.12-2-1.15V185.28l5.5-3.18c1.1-.64,2.89-10.33,4-11L124,143.6c1.11-.64,3.71,6.52,4.81,5.88l159.28-92V237.09Z"/></g><g id="_Группа_8" data-name="&lt;Группа&gt;"><path id="_Контур_35" data-name="&lt;Контур&gt;" class="cls-16" d="M76.32,231.77l41-23.68c1.1-.64,2-.12,2,1.15V325.91a4.42,4.42,0,0,1-2,3.46L76.32,353c-1.1.64-2,.12-2-1.15V235.24A4.42,4.42,0,0,1,76.32,231.77Z"/></g><g id="_Группа_9" data-name="&lt;Группа&gt;"><path id="_Контур_36" data-name="&lt;Контур&gt;" class="cls-16" d="M128.83,240.44l70-40.46c1.1-.64,2-.12,2,1.15V278.8a4.42,4.42,0,0,1-2,3.46l-69.95,40.46c-1.1.64-2,.12-2-1.15V243.9A4.42,4.42,0,0,1,128.83,240.44Z"/></g><g id="_Группа_10" data-name="&lt;Группа&gt;"><path id="_Контур_37" data-name="&lt;Контур&gt;" class="cls-16" d="M208.67,194l70-40.46c1.1-.64,2-.12,2,1.15v77.68a4.42,4.42,0,0,1-2,3.46l-69.95,40.46c-1.1.64-2,.12-2-1.15V197.44A4.42,4.42,0,0,1,208.67,194Z"/></g><g id="_Группа_11" data-name="&lt;Группа&gt;"><path id="_Контур_38" data-name="&lt;Контур&gt;" class="cls-9" d="M76.32,201.45l202.3-116.8c1.1-.64,2-.12,2,1.15v21.37a4.42,4.42,0,0,1-2,3.46L76.32,227.44c-1.1.64-2,.12-2-1.15V204.92A4.42,4.42,0,0,1,76.32,201.45Z"/><g id="_Группа_12" data-name="&lt;Группа&gt;"><path id="_Контур_39" data-name="&lt;Контур&gt;" class="cls-16" d="M205.6,137.94v3.73c0,.76.54,1.07,1.2.69l58.82-34v-6.5l-58.82,34A2.66,2.66,0,0,0,205.6,137.94Z"/><path id="_Контур_40" data-name="&lt;Контур&gt;" class="cls-4" d="M271.92,98.27c.66-.38,1.2-.07,1.2.69v3.73a2.65,2.65,0,0,1-1.2,2.08l-6.3,3.64v-6.5Z"/><path id="_Составной_контур_" data-name="&lt;Составной контур&gt;" class="cls-16" d="M271.45,103.38l-.7-.22a3.87,3.87,0,0,0,.11-.91,1.66,1.66,0,0,0-.64-1.5,1,1,0,0,0-1,0,3.59,3.59,0,0,0-1.4,2.92,1.66,1.66,0,0,0,.64,1.5.88.88,0,0,0,.45.12,1.16,1.16,0,0,0,.58-.17,3,3,0,0,0,1.14-1.52l.7.22h.08a.26.26,0,0,0,.08-.51Zm-2.26,1.35a.49.49,0,0,1-.5,0,1.22,1.22,0,0,1-.38-1,3.13,3.13,0,0,1,1.14-2.47.65.65,0,0,1,.32-.1.37.37,0,0,1,.19,0,1.22,1.22,0,0,1,.38,1A3.13,3.13,0,0,1,269.2,104.73Z"/></g></g><g id="_Группа_13" data-name="&lt;Группа&gt;"><path id="_Контур_41" data-name="&lt;Контур&gt;" class="cls-16" d="M126.83,204.92v25.7c0,1.27.9,1.79,2,1.15l149.79-86.48a4.42,4.42,0,0,0,2-3.46v-25.7c0-1.27-.9-1.79-2-1.15L128.83,201.45A4.42,4.42,0,0,0,126.83,204.92Z"/></g><path id="_Контур_42" data-name="&lt;Контур&gt;" class="cls-17" d="M288.11,57.52V73.37L66.82,201.13V185.28l4.11-2.38c1.1-.64,1.47-1.61,2-3.46l1.39-4.84c.44-1.68.9-2.83,2-3.46L124,143.6c1.11-.64,2-.71,2.82.69l1.71,3.1c.63,1.08.94,1.72,2,1.08Z"/><g id="_Группа_14" data-name="&lt;Группа&gt;"><path id="_Контур_43" data-name="&lt;Контур&gt;" class="cls-5" d="M278.73,54c1.18-.68,2.14-.13,2.14,1.23a4.73,4.73,0,0,1-2.14,3.7c-1.18.68-2.14.13-2.14-1.23A4.73,4.73,0,0,1,278.73,54Z"/><path id="_Контур_44" data-name="&lt;Контур&gt;" class="cls-5" d="M269.68,59.2c1.18-.68,2.14-.13,2.14,1.23a4.73,4.73,0,0,1-2.14,3.7c-1.18.68-2.14.13-2.14-1.23A4.73,4.73,0,0,1,269.68,59.2Z"/><path id="_Контур_45" data-name="&lt;Контур&gt;" class="cls-5" d="M260.62,64.42c1.18-.68,2.14-.13,2.14,1.23a4.73,4.73,0,0,1-2.14,3.7c-1.18.68-2.14.13-2.14-1.23A4.73,4.73,0,0,1,260.62,64.42Z"/></g><path id="_Контур_46" data-name="&lt;Контур&gt;" class="cls-16" d="M93.07,180.19v-3.1a4.42,4.42,0,0,1,2-3.46L274.86,69.88c1.1-.64,2-.12,2,1.15v3.1a4.42,4.42,0,0,1-2,3.46L95.07,181.34C94,182,93.07,181.47,93.07,180.19Z"/><g id="_Группа_15" data-name="&lt;Группа&gt;"><path class="cls-9" d="M272.27,78.17a.42.42,0,0,1-.16,0,.49.49,0,0,1-.27-.54l.18-1.48-.69-.5a.49.49,0,0,1-.19-.4.81.81,0,0,1,.3-.63l1.06-.82a.2.2,0,0,0,0-.08l.47-1.55a.66.66,0,0,1,.53-.5.41.41,0,0,1,.41.25l.4.84.89-.34a.42.42,0,0,1,.48.11.65.65,0,0,1,0,.73L275,74.65a.2.2,0,0,0,0,.09l.18,1.3a.81.81,0,0,1-.23.65.49.49,0,0,1-.42.16l-.86-.11-.93,1.19A.54.54,0,0,1,272.27,78.17Zm-.51-3,.69.5a.52.52,0,0,1,.19.5l-.12,1,.63-.8a.53.53,0,0,1,.48-.23l.86.11a.2.2,0,0,0,0-.1l-.18-1.3a.78.78,0,0,1,.09-.47l.67-1.26-.69.26a.43.43,0,0,1-.55-.22l-.31-.66-.42,1.38a.79.79,0,0,1-.26.4l-1.06.82A.2.2,0,0,0,271.76,75.16Zm1.78,1.58h0Zm1-.5h0Zm-2.48-.07h0Zm-.4-1.06h0Zm1.7-3h0Z"/></g><g class="cls-18"><path id="_Контур_47" data-name="&lt;Контур&gt;" d="M76,188.12l-3.14,1.81,1.2-2.3a.57.57,0,0,0,0-.56c-.09-.11-.25,0-.36.17L72,190.51h0a.78.78,0,0,0,0,.12v0a.71.71,0,0,0,0,.17.44.44,0,0,0,0,.14v0a.2.2,0,0,0,0,.07h0l1.7,1.31a.14.14,0,0,0,.17,0,.51.51,0,0,0,.19-.24c.09-.21.08-.45,0-.53l-1.2-.92L76,188.89a.67.67,0,0,0,.25-.53C76.24,188.14,76.13,188,76,188.12Z"/><path id="_Контур_48" data-name="&lt;Контур&gt;" d="M78.61,186.6l3.14-1.81-1.2-.92c-.1-.08-.12-.32,0-.53s.25-.32.36-.24l1.7,1.31h0a.2.2,0,0,1,0,.07v0a.44.44,0,0,1,0,.14.71.71,0,0,1,0,.17v0a.79.79,0,0,1,0,.12h0l-1.7,3.28a.47.47,0,0,1-.17.19.14.14,0,0,1-.19,0,.57.57,0,0,1,0-.56l1.2-2.3-3.14,1.81c-.14.08-.25,0-.25-.24A.67.67,0,0,1,78.61,186.6Z"/><path id="_Контур_49" data-name="&lt;Контур&gt;" d="M88.9,177.56c0-.19-.18-.16-.27,0l-.43,1.05c-.73-.08-1.62.64-2.22,1.91-.78,1.65-.78,3.59,0,4.34a1.11,1.11,0,0,0,1.41.08,3.85,3.85,0,0,0,1.41-1.71.54.54,0,0,0,0-.55c-.1-.09-.26,0-.36.21-.58,1.23-1.52,1.77-2.11,1.22s-.58-2,0-3.24c.41-.87,1-1.39,1.53-1.42l-.32.79c-.08.21,0,.4.12.31l1.28-.84a.41.41,0,0,0,.14-.35Z"/><path id="_Контур_50" data-name="&lt;Контур&gt;" d="M123.64,150l1.14-2.42a.74.74,0,0,0,0-.75c-.14-.13-.35,0-.49.28l-1.14,2.42-1.14-1.1c-.14-.13-.35,0-.49.28a.74.74,0,0,0,0,.75l1.14,1.1L121.52,153a.74.74,0,0,0,0,.75.19.19,0,0,0,.24,0,.67.67,0,0,0,.24-.3l1.14-2.42,1.14,1.1a.19.19,0,0,0,.24,0,.67.67,0,0,0,.24-.3.74.74,0,0,0,0-.75Z"/><g id="_Группа_16" data-name="&lt;Группа&gt;"><g id="_Группа_17" data-name="&lt;Группа&gt;"><path id="_Контур_51" data-name="&lt;Контур&gt;" d="M279.22,68.79a.69.69,0,0,1-.35-1.29l5.63-3.25a.69.69,0,1,1,.69,1.2l-5.63,3.25A.69.69,0,0,1,279.22,68.79Z"/></g><g id="_Группа_18" data-name="&lt;Группа&gt;"><path id="_Контур_52" data-name="&lt;Контур&gt;" d="M279.22,72a.69.69,0,0,1-.35-1.29l5.63-3.25a.69.69,0,1,1,.69,1.2l-5.63,3.25A.69.69,0,0,1,279.22,72Z"/></g><g id="_Группа_19" data-name="&lt;Группа&gt;"><path id="_Контур_53" data-name="&lt;Контур&gt;" d="M279.22,75.29a.69.69,0,0,1-.35-1.29l5.63-3.25a.69.69,0,1,1,.69,1.2l-5.63,3.25A.69.69,0,0,1,279.22,75.29Z"/></g></g></g><polygon id="_Контур_54" data-name="&lt;Контур&gt;" class="cls-17" points="66.82 185.28 66.82 201.13 60.86 197.71 60.86 181.88 66.82 185.28"/><polygon id="_Контур_55" data-name="&lt;Контур&gt;" class="cls-6" points="66.82 185.28 66.82 201.13 60.86 197.71 60.86 181.88 66.82 185.28"/><path class="cls-4" d="M105.25,263.17v25.07L88.39,298V272.9l16.86-9.73m0-.86a.86.86,0,0,0-.43.12L88,272.15a.86.86,0,0,0-.43.75V298a.86.86,0,0,0,1.29.75L105.68,289a.86.86,0,0,0,.43-.75V263.17a.86.86,0,0,0-.86-.86Z"/><path class="cls-4" d="M102.72,268.87v7.26l-.53.29V274.2c0-.89-.43-1.42-1-1.42a1.53,1.53,0,0,0-.76.23l-2.49,1.44v10.8c0,1.13.44,1.83,1,1.83a1,1,0,0,0,.52-.15L101,286v.77l-8.43,4.87v-.77l1.57-.9a4.35,4.35,0,0,0,1.57-3.48V275.7l-2.49,1.44a4.12,4.12,0,0,0-1.8,3.26v2.23l-.53.32v-7.26l11.8-6.81m0-.86a.86.86,0,0,0-.43.12l-11.8,6.81a.86.86,0,0,0-.43.75v7.26a.86.86,0,0,0,1.31.74l.53-.32a.86.86,0,0,0,.42-.74V280.4a3.27,3.27,0,0,1,1.37-2.52l1.2-.69v9.3a3.59,3.59,0,0,1-1.13,2.74l-1.57.9a.86.86,0,0,0-.43.75v.77a.86.86,0,0,0,1.29.75l8.43-4.87a.86.86,0,0,0,.43-.75V286a.86.86,0,0,0-1.29-.75l-1.57.9-.06,0a1.61,1.61,0,0,1-.21-1v-10.3l2.06-1.19a.69.69,0,0,1,.33-.11c.1,0,.18.25.18.56v2.23a.86.86,0,0,0,1.28.75l.53-.29a.86.86,0,0,0,.44-.75v-7.26a.86.86,0,0,0-.86-.86Z"/><g id="_Группа_20" data-name="&lt;Группа&gt;"><path class="cls-4" d="M152.36,273a.42.42,0,0,1-.19,0,.43.43,0,0,1-.2-.58l5-10.15a1,1,0,0,1,.68-.45.93.93,0,0,1,.73.22l4.26,2.8.56.11-.4-.16,5.07-12.34a1,1,0,0,1,.71-.49.92.92,0,0,1,.75.25l6.32,6.51a.43.43,0,1,1-.62.6l-6.31-6.5-5.12,12.29a1,1,0,0,1-1.43.44l-4.41-2.89-5,10.13A.43.43,0,0,1,152.36,273Z"/></g><g id="_Группа_21" data-name="&lt;Группа&gt;"><path class="cls-4" d="M176.07,242.9h0m-.9.52v22.74l-22.74,13.14V256.55h0l22.74-13.14m.64-1.32a.36.36,0,0,0-.18.05l-.86.5L152,255.83a.79.79,0,0,0-.28.3.78.78,0,0,0-.12.39v23.82c0,.18.09.28.22.28a.36.36,0,0,0,.17-.05l23.68-13.68a.87.87,0,0,0,.39-.68V242.38c0-.18-.09-.28-.22-.28Z"/></g><g id="_Группа_22" data-name="&lt;Группа&gt;"><path class="cls-4" d="M159.56,259.56a1.25,1.25,0,0,1-.63-.16,1.52,1.52,0,0,1-.68-1.4,3.94,3.94,0,0,1,1.8-3.13,1.39,1.39,0,0,1,2.24,1.29,3.94,3.94,0,0,1-1.81,3.13A1.87,1.87,0,0,1,159.56,259.56Zm1.42-4.11a1,1,0,0,0-.49.16,3.08,3.08,0,0,0-1.37,2.38.73.73,0,0,0,.25.66.74.74,0,0,0,.69-.11,3.09,3.09,0,0,0,1.37-2.38.73.73,0,0,0-.25-.66A.4.4,0,0,0,161,255.45Z"/></g><path class="cls-4" d="M247.58,202.15h0c2.76,0,4.54,2.72,4.54,6.94a23,23,0,0,1-3.22,11,22.73,22.73,0,0,1-2.48,3.51,14.27,14.27,0,0,1-3.56,3.06,6.35,6.35,0,0,1-3.14,1c-2.76,0-4.54-2.72-4.54-6.94a23,23,0,0,1,3.22-11,17.85,17.85,0,0,1,6-6.57,6.36,6.36,0,0,1,3.14-1m0-.86a7.21,7.21,0,0,0-3.57,1.08,18.71,18.71,0,0,0-6.36,6.88,23.85,23.85,0,0,0-3.34,11.44c0,4.88,2.23,7.8,5.4,7.8a7.21,7.21,0,0,0,3.57-1.08,15.21,15.21,0,0,0,3.79-3.24A24.95,24.95,0,0,0,253,209.09c0-4.88-2.23-7.8-5.4-7.8Z"/><path class="cls-4" d="M241.32,212h0m0,0,6.69.6-.15.2-6.8,8.45v-8.47a1,1,0,0,1,.25-.78m0-.86c-.61,0-1.1.72-1.1,1.64V222c0,.54.16.82.42.82s.46-.17.75-.53l7.16-8.91c.65-.8.65-1.5,0-1.56l-7.16-.64Z"/></g></g><g id="Sheets"><g id="Sheets-2" data-name="Sheets"><g id="Character"><polygon class="cls-19" points="275.73 323.95 336.56 359.13 336.56 321.83 275.73 286.64 275.73 323.95"/><polygon class="cls-10" points="378.72 334.79 336.56 359.13 336.56 321.83 378.72 297.48 378.72 334.79"/><polygon class="cls-16" points="275.73 286.64 317.9 262.3 378.72 297.48 336.56 321.83 275.73 286.64"/></g><polygon class="cls-3" points="307.43 317.49 336.56 334.31 354.03 324.22 336.56 335.35 307.43 317.49"/><polygon class="cls-3" points="289.95 316.8 336.56 343.7 371.51 323.53 336.56 344.72 289.95 316.8"/><path class="cls-3" d="M281.58,300.49s-1,5.44-.48,8.2c0,0,7.63-.19,20.5,3.36Z"/><polygon class="cls-16" points="281.58 300.49 301.6 312.05 279.45 305.65 281.58 300.49"/><path class="cls-3" d="M307.43,332.73l21.95,20.18s.61-2.77,4.82-4.72Z"/><polygon class="cls-16" points="307.43 332.73 328.04 350.09 334.2 348.19 307.43 332.73"/><path class="cls-3" d="M371.7,312.32l-.19-.27-13.87,8,15.61-1.28A9.5,9.5,0,0,0,371.7,312.32Z"/><polygon class="cls-16" points="357.64 320.05 371.51 312.05 376.13 314.48 357.64 320.05"/><g class="cls-18"><path class="cls-9" d="M286.45,289.24a.54.54,0,0,1-.27-1l35-20.18a.54.54,0,1,1,.54.93l-35,20.18A.53.53,0,0,1,286.45,289.24Z"/><path class="cls-9" d="M292.27,292.6a.54.54,0,0,1-.27-1l35-20.18a.54.54,0,1,1,.54.93l-35,20.18A.54.54,0,0,1,292.27,292.6Z"/><path class="cls-9" d="M298.1,296a.54.54,0,0,1-.27-1l35-20.18a.54.54,0,1,1,.54.93l-35,20.18A.53.53,0,0,1,298.1,296Z"/><path class="cls-9" d="M303.93,299.33a.54.54,0,0,1-.27-1l35-20.18a.54.54,0,1,1,.54.93l-35,20.18A.53.53,0,0,1,303.93,299.33Z"/><path class="cls-9" d="M309.75,302.69a.54.54,0,0,1-.27-1l35-20.18a.54.54,0,1,1,.54.93l-35,20.18A.54.54,0,0,1,309.75,302.69Z"/><path class="cls-9" d="M315.58,306.06a.54.54,0,0,1-.27-1l35-20.18a.54.54,0,1,1,.54.93l-35,20.18A.53.53,0,0,1,315.58,306.06Z"/><path class="cls-9" d="M321.4,309.42a.54.54,0,0,1-.27-1l35-20.18a.54.54,0,1,1,.54.93l-35,20.18A.53.53,0,0,1,321.4,309.42Z"/><path class="cls-9" d="M327.23,312.78a.54.54,0,0,1-.27-1l35-20.18a.54.54,0,1,1,.54.93l-35,20.18A.53.53,0,0,1,327.23,312.78Z"/><path class="cls-9" d="M333.05,316.15a.54.54,0,0,1-.27-1l35-20.18a.54.54,0,1,1,.54.93l-35,20.18A.53.53,0,0,1,333.05,316.15Z"/></g></g></g><g id="Video"><g id="Video-2" data-name="Video"><g id="_Группа_23" data-name="&lt;Группа&gt;"><path id="_Контур_56" data-name="&lt;Контур&gt;" class="cls-4" d="M249.81,237.55,180.11,277.8a3.6,3.6,0,0,0-1.63,2.82V347a3.6,3.6,0,0,0,1.63,2.82l2.68,1.55a3.6,3.6,0,0,0,3.26,0l69.7-40.25a3.6,3.6,0,0,0,1.63-2.82V241.92a3.6,3.6,0,0,0-1.63-2.82l-2.68-1.55A3.6,3.6,0,0,0,249.81,237.55Z"/><path id="_Контур_57" data-name="&lt;Контур&gt;" class="cls-18" d="M249.81,237.55,180.11,277.8a3.6,3.6,0,0,0-1.63,2.82V347a3.6,3.6,0,0,0,1.63,2.82l2.68,1.55a3.6,3.6,0,0,0,3.26,0l69.7-40.25a3.6,3.6,0,0,0,1.63-2.82V241.92a3.6,3.6,0,0,0-1.63-2.82l-2.68-1.55A3.6,3.6,0,0,0,249.81,237.55Z"/><path id="_Контур_58" data-name="&lt;Контур&gt;" class="cls-4" d="M257.32,241.43c-.2-.68-.83-.89-1.57-.45l-69.7,40.25a3.27,3.27,0,0,0-1.15,1.22L179,279a3.24,3.24,0,0,1,1.14-1.22l69.71-40.25a3.64,3.64,0,0,1,3.26,0l2.67,1.55A3.58,3.58,0,0,1,257.32,241.43Z"/><path id="_Контур_59" data-name="&lt;Контур&gt;" class="cls-8" d="M257.32,241.43c-.2-.68-.83-.89-1.57-.45l-69.7,40.25a3.27,3.27,0,0,0-1.15,1.22L179,279a3.24,3.24,0,0,1,1.14-1.22l69.71-40.25a3.64,3.64,0,0,1,3.26,0l2.67,1.55A3.58,3.58,0,0,1,257.32,241.43Z"/><path id="_Контур_60" data-name="&lt;Контур&gt;" class="cls-4" d="M255.75,241,186,281.23a3.6,3.6,0,0,0-1.63,2.82v66.41c0,1,.73,1.46,1.63.94l69.7-40.25a3.6,3.6,0,0,0,1.63-2.82V241.92C257.38,240.88,256.65,240.45,255.75,241Z"/><path class="cls-5" d="M214.87,321.17a9.91,9.91,0,0,1-5-1.32c-4.19-2.42-6.59-7.9-6.59-15a41.53,41.53,0,0,1,5.61-20.08,36.56,36.56,0,0,1,4-5.63h0a26.44,26.44,0,0,1,6.68-5.67c4.49-2.59,8.89-2.91,12.4-.89,4.19,2.42,6.59,7.9,6.59,15a41.54,41.54,0,0,1-5.61,20.08A30.76,30.76,0,0,1,222.25,319,14.9,14.9,0,0,1,214.87,321.17Zm-.17-40.49a34.06,34.06,0,0,0-3.72,5.26,39,39,0,0,0-5.28,18.87c0,6.25,2,11,5.37,12.94,2.72,1.57,6.26,1.25,10-.89a28.32,28.32,0,0,0,9.78-10.41,39,39,0,0,0,5.28-18.87c0-6.25-2-11-5.37-12.94-2.72-1.57-6.26-1.26-10,.89a24,24,0,0,0-6.06,5.16Z"/><path class="cls-5" d="M230.23,292.42l-13.68,17c-1.24,1.54-2.24,1.29-2.24-.55V291.35c0-1.84,1-3.25,2.24-3.14l13.68,1.22C231.46,289.54,231.46,290.88,230.23,292.42Z"/></g></g></g><g id="Photo"><g id="Image"><path class="cls-20" d="M159.87,291.86v60.5a2.21,2.21,0,0,1-1,1.73L98.72,388.85c-.55.31-1,.06-1-.58v-3.16l58.94-34.05v-58.5l2.2-1.27C159.42,291,159.87,291.23,159.87,291.86Z"/><path class="cls-4" d="M156.67,292.55v58.5L97.73,385.11V327.77a2,2,0,0,1,.29-1,2,2,0,0,1,.7-.75Z"/><path class="cls-21" d="M156.67,292.55v58.5L97.73,385.11V327.77a2,2,0,0,1,.29-1,2,2,0,0,1,.7-.75Z"/><g id="_Группа_24" data-name="&lt;Группа&gt;"><path id="_Контур_61" data-name="&lt;Контур&gt;" class="cls-4" d="M142.13,317.57a1.27,1.27,0,0,0-.2-.15h0l-3.74-2.16h0l0,0h0a1.26,1.26,0,0,0-1.68.41l-13.28,32.74-8.82-5.8a1.25,1.25,0,0,0-.18-.13h0l0,0h0l-3.69-2.13h0a1.26,1.26,0,0,0-1.71.38L95.85,366.72V384l3.75,2.17,57.87-33.43a2.15,2.15,0,0,0,1.07-1.86V334.49Z"/><path id="_Контур_62" data-name="&lt;Контур&gt;" class="cls-6" d="M142.13,317.57a1.27,1.27,0,0,0-.2-.15h0l-3.74-2.16h0l0,0h0a1.26,1.26,0,0,0-1.68.41l-13.28,32.74-8.82-5.8a1.25,1.25,0,0,0-.18-.13h0l0,0h0l-3.69-2.13h0a1.26,1.26,0,0,0-1.71.38L95.85,366.72V384l3.75,2.17,57.87-33.43a2.15,2.15,0,0,0,1.07-1.86V334.49Z"/><path id="_Контур_63" data-name="&lt;Контур&gt;" class="cls-4" d="M99.6,386.19v-17.3l12.86-26.07a1.27,1.27,0,0,1,1.88-.26l12.34,8.12,13.51-32.89a1.27,1.27,0,0,1,1.94-.22l16.42,16.92V350.9a2.15,2.15,0,0,1-1.07,1.86Z"/><polygon id="_Контур_64" data-name="&lt;Контур&gt;" class="cls-6" points="126.68 350.68 122.79 360.15 125.26 349.75 126.68 350.68"/></g><g id="_Группа_25" data-name="&lt;Группа&gt;"><path id="_Составной_контур_2" data-name="&lt;Составной контур&gt;" class="cls-22" d="M162.29,288.14a1,1,0,0,0,0-.12,2.24,2.24,0,0,0-1-1.45l-1.76-1a2.21,2.21,0,0,0-2,0L93.1,322.78a2.09,2.09,0,0,0-.71.75,2,2,0,0,0-.29,1V400.2a2.21,2.21,0,0,0,1,1.73l1.75,1a2.24,2.24,0,0,0,1.77.11l.07,0,.16-.08,64.45-37.22a2.22,2.22,0,0,0,1-1.73V288.3C162.3,288.25,162.29,288.19,162.29,288.14Zm-2.42,64.22a2.21,2.21,0,0,1-1,1.73L98.72,388.85c-.55.32-1,.06-1-.58v-60.5a2,2,0,0,1,.29-1,2,2,0,0,1,.71-.75l60.14-34.75c.55-.32,1-.06,1,.58Z"/><path id="_Контур_65" data-name="&lt;Контур&gt;" class="cls-20" d="M96.62,403a2.24,2.24,0,0,1-1.77-.11l-1.75-1a2.2,2.2,0,0,1-1-1.73V324.52a2,2,0,0,1,.29-1l3.75,2.16a2,2,0,0,0-.29,1v75.67C95.85,402.91,96.18,403.18,96.62,403Z"/><g id="_Группа_26" data-name="&lt;Группа&gt;"><path class="cls-9" d="M162.29,288.14l0-.12c-.12-.42-.51-.56-1-.29L96.85,325a2.17,2.17,0,0,0-1,1.73v75.68c0,.55.34.81.77.69l.07,0,.16-.08,64.45-37.22a2.22,2.22,0,0,0,1-1.73V288.3A1.19,1.19,0,0,0,162.29,288.14Zm-2.42,64.23a2.21,2.21,0,0,1-1,1.73L98.72,388.85c-.55.31-1,.06-1-.58v-60.5a2,2,0,0,1,.29-1,2,2,0,0,1,.7-.75l57.95-33.48,2.2-1.27c.56-.32,1-.06,1,.58Z"/></g></g><g id="_Группа_27" data-name="&lt;Группа&gt;"><g id="_Группа_28" data-name="&lt;Группа&gt;"><path id="_Контур_66" data-name="&lt;Контур&gt;" class="cls-4" d="M121.26,326.76l1.46-2.47-3-1.73h0a2.84,2.84,0,0,0-2.85.28,8.92,8.92,0,0,0-4,7,2.85,2.85,0,0,0,1.15,2.59h0l2.89,1.68,1.39-2.36A9.43,9.43,0,0,0,121.26,326.76Z"/><path id="_Контур_67" data-name="&lt;Контур&gt;" class="cls-6" d="M121.26,326.76l1.46-2.47-3-1.73h0a2.84,2.84,0,0,0-2.85.28,8.92,8.92,0,0,0-4,7,2.85,2.85,0,0,0,1.15,2.59h0l2.89,1.68,1.39-2.36A9.43,9.43,0,0,0,121.26,326.76Z"/></g><path id="_Контур_68" data-name="&lt;Контур&gt;" class="cls-4" d="M119.82,324.54c2.23-1.29,4-.24,4,2.33a8.92,8.92,0,0,1-4,7c-2.23,1.29-4,.24-4-2.33A8.92,8.92,0,0,1,119.82,324.54Z"/></g></g></g><g id="Box-3" data-name="Box"><g id="Box-4" data-name="Box"><g id="_Группа_29" data-name="&lt;Группа&gt;"><polygon id="_Контур_69" data-name="&lt;Контур&gt;" class="cls-4" points="270.16 425.21 221.56 453.27 166.82 421.6 215.43 393.54 270.16 425.21"/><polygon id="_Контур_70" data-name="&lt;Контур&gt;" class="cls-11" points="270.16 425.21 221.56 453.27 166.82 421.6 215.43 393.54 270.16 425.21"/><polygon id="_Контур_71" data-name="&lt;Контур&gt;" class="cls-4" points="215.43 355.5 215.43 393.54 166.82 421.6 166.82 383.56 215.43 355.5"/><polygon id="_Контур_72" data-name="&lt;Контур&gt;" class="cls-23" points="215.43 355.5 215.43 393.54 166.82 421.6 166.82 383.56 215.43 355.5"/><polygon id="_Контур_73" data-name="&lt;Контур&gt;" class="cls-4" points="270.16 387.17 270.16 425.21 215.43 393.54 215.43 355.5 270.16 387.17"/><polygon id="_Контур_74" data-name="&lt;Контур&gt;" class="cls-24" points="270.16 387.17 270.16 425.21 215.43 393.54 215.43 355.5 270.16 387.17"/><polygon id="_Контур_75" data-name="&lt;Контур&gt;" class="cls-4" points="215.43 355.5 215.5 334.44 270.1 366.15 270.16 387.17 215.43 355.5"/><polygon id="_Контур_76" data-name="&lt;Контур&gt;" class="cls-8" points="215.43 355.5 215.5 334.44 270.1 366.15 270.16 387.17 215.43 355.5"/><polygon id="_Контур_77" data-name="&lt;Контур&gt;" class="cls-4" points="166.82 383.56 161.03 364.45 209.63 336.39 215.43 355.5 166.82 383.56"/><polygon id="_Контур_78" data-name="&lt;Контур&gt;" class="cls-3" points="166.82 383.56 161.03 364.45 209.63 336.39 215.43 355.5 166.82 383.56"/></g><g id="Document"><path id="_Контур_79" data-name="&lt;Контур&gt;" class="cls-15" d="M178.41,420.13a2.33,2.33,0,0,1-1-1.68l-4.08-67a2,2,0,0,1,.87-1.67l41.67-23.92a2.08,2.08,0,0,1,1.89,0,2.33,2.33,0,0,1,1,1.68l4.08,67a2,2,0,0,1-.87,1.67L180.3,420.14A2.08,2.08,0,0,1,178.41,420.13Z"/><g id="_Группа_30" data-name="&lt;Группа&gt;"><path class="cls-16" d="M179.88,420c-.3,0-.34-.37-.35-.48l-4.08-67a1.71,1.71,0,0,1,.75-1.44l41.67-23.92a.6.6,0,0,1,.29-.09c.3,0,.34.37.35.48l4.08,67a1.71,1.71,0,0,1-.75,1.44l-41.67,23.92a.6.6,0,0,1-.29.09Z"/><path class="cls-19" d="M218.16,327.38c.06,0,.1.15.1.25l4.08,67a1.45,1.45,0,0,1-.62,1.21L180,419.71a.35.35,0,0,1-.16.06c-.06,0-.1-.15-.1-.25l-4.08-67a1.45,1.45,0,0,1,.62-1.21L218,327.44a.35.35,0,0,1,.16-.06m0-.5a.84.84,0,0,0-.41.12l-41.67,23.92a2,2,0,0,0-.87,1.67l4.08,67c0,.45.27.71.6.71a.84.84,0,0,0,.41-.12L222,396.22a2,2,0,0,0,.87-1.67l-4.08-67c0-.45-.27-.71-.6-.71Z"/></g><path id="_Контур_80" data-name="&lt;Контур&gt;" class="cls-17" d="M180.17,420.2a2.09,2.09,0,0,1-1.76-.08,2.33,2.33,0,0,1-1-1.68l-4.08-67a1.91,1.91,0,0,1,.22-1l1.9,1.11a1.85,1.85,0,0,0-.23,1l4.08,67C179.32,420.13,179.71,420.39,180.17,420.2Z"/><path id="_Контур_81" data-name="&lt;Контур&gt;" class="cls-17" d="M197.12,345.48l14.69-8.54c.46-.26.86,0,.89.52l0,.34a1.72,1.72,0,0,1-.77,1.47l-14.69,8.54c-.46.26-.86,0-.89-.52l0-.34A1.72,1.72,0,0,1,197.12,345.48Z"/><path id="_Контур_82" data-name="&lt;Контур&gt;" class="cls-17" d="M197.47,351.31l14.69-8.54c.46-.26.86,0,.89.52l0,.34a1.72,1.72,0,0,1-.77,1.47l-14.69,8.54c-.46.26-.86,0-.89-.52l0-.34A1.72,1.72,0,0,1,197.47,351.31Z"/><path id="_Контур_83" data-name="&lt;Контур&gt;" class="cls-17" d="M197.83,357.14l14.69-8.54c.46-.26.86,0,.89.52l0,.34a1.72,1.72,0,0,1-.77,1.47L198,359.48c-.46.26-.86,0-.89-.52l0-.34A1.72,1.72,0,0,1,197.83,357.14Z"/><path id="_Контур_84" data-name="&lt;Контур&gt;" class="cls-17" d="M183,377.66l30.21-17.39c.46-.26.86,0,.89.52l0,.34a1.72,1.72,0,0,1-.77,1.47L183.15,380c-.46.26-.86,0-.89-.52l0-.34A1.72,1.72,0,0,1,183,377.66Z"/><path id="_Контур_85" data-name="&lt;Контур&gt;" class="cls-17" d="M182.66,371.83l30.21-17.39c.46-.26.86,0,.89.52l0,.34a1.72,1.72,0,0,1-.77,1.47L182.8,374.16c-.46.26-.86,0-.89-.52l0-.34A1.72,1.72,0,0,1,182.66,371.83Z"/><path id="_Контур_86" data-name="&lt;Контур&gt;" class="cls-17" d="M183.37,383.53l30.21-17.39c.46-.26.86,0,.89.52l0,.34a1.72,1.72,0,0,1-.77,1.47l-30.21,17.39c-.46.26-.86,0-.89-.52l0-.34A1.72,1.72,0,0,1,183.37,383.53Z"/><path id="_Контур_87" data-name="&lt;Контур&gt;" class="cls-17" d="M183.73,389.36,213.94,372c.46-.26.86,0,.89.52l0,.34a1.72,1.72,0,0,1-.77,1.47l-30.21,17.39c-.46.26-.86,0-.89-.52l0-.34A1.72,1.72,0,0,1,183.73,389.36Z"/><path id="_Контур_88" data-name="&lt;Контур&gt;" class="cls-17" d="M184.08,395.19l30.21-17.39c.46-.26.86,0,.89.52l0,.34a1.72,1.72,0,0,1-.77,1.47l-30.21,17.39c-.46.26-.86,0-.89-.52l0-.34A1.72,1.72,0,0,1,184.08,395.19Z"/><path id="_Контур_89" data-name="&lt;Контур&gt;" class="cls-17" d="M184.44,401l30.21-17.39c.46-.26.86,0,.89.52l0,.34a1.72,1.72,0,0,1-.77,1.47l-30.21,17.39c-.46.26-.86,0-.89-.52l0-.34A1.72,1.72,0,0,1,184.44,401Z"/><path id="_Контур_90" data-name="&lt;Контур&gt;" class="cls-17" d="M184.79,406.85,215,389.46c.46-.26.86,0,.89.52l0,.34a1.72,1.72,0,0,1-.77,1.47l-30.21,17.39c-.46.26-.86,0-.89-.52l0-.34A1.72,1.72,0,0,1,184.79,406.85Z"/><g id="_Группа_31" data-name="&lt;Группа&gt;"><g id="_Группа_32" data-name="&lt;Группа&gt;"><polygon id="_Контур_91" data-name="&lt;Контур&gt;" class="cls-4" points="180.93 353.82 193.13 346.83 194.02 361.47 181.82 368.45 180.93 353.82"/></g><path class="cls-16" d="M182.91,355.33l.27,4.39.38-.23-.08-1.35a2.51,2.51,0,0,1,1.22-2.09l1.8-1,.4,6.53a2.55,2.55,0,0,1-1,2.21l-1.13.65,0,.47,6.1-3.49,0-.47-1.13.65c-.63.36-1.18,0-1.23-.91l-.4-6.53,1.8-1c.72-.41,1.34-.14,1.38.6l.08,1.35.38-.21-.27-4.39Z"/></g></g><g id="Document-2" data-name="Document"><path id="_Контур_92" data-name="&lt;Контур&gt;" class="cls-15" d="M195.77,430.15a2.33,2.33,0,0,1-1-1.68l-4.08-67a2,2,0,0,1,.87-1.67l41.67-23.92a2.08,2.08,0,0,1,1.89,0,2.33,2.33,0,0,1,1,1.68l4.08,67a2,2,0,0,1-.87,1.67l-41.67,23.92A2.08,2.08,0,0,1,195.77,430.15Z"/><g id="_Группа_33" data-name="&lt;Группа&gt;"><path class="cls-16" d="M197.24,430c-.3,0-.34-.37-.35-.48l-4.08-67a1.71,1.71,0,0,1,.75-1.44l41.67-23.92a.6.6,0,0,1,.29-.09c.3,0,.34.37.35.48l4.08,67a1.7,1.7,0,0,1-.75,1.44l-41.67,23.92A.6.6,0,0,1,197.24,430Z"/><path class="cls-19" d="M235.52,337.4c.06,0,.1.15.1.25l4.08,67a1.45,1.45,0,0,1-.62,1.21l-41.67,23.92a.35.35,0,0,1-.16.06c-.06,0-.1-.15-.1-.25l-4.08-67a1.45,1.45,0,0,1,.62-1.21l41.67-23.92a.35.35,0,0,1,.16-.06m0-.5a.84.84,0,0,0-.41.12l-41.67,23.92a2,2,0,0,0-.87,1.67l4.08,67c0,.45.27.71.6.71a.84.84,0,0,0,.41-.12l41.67-23.92a2,2,0,0,0,.87-1.67l-4.08-67c0-.45-.27-.71-.6-.71Z"/></g><path id="_Контур_93" data-name="&lt;Контур&gt;" class="cls-17" d="M197.53,430.22a2.09,2.09,0,0,1-1.76-.08,2.33,2.33,0,0,1-1-1.68l-4.08-67a1.91,1.91,0,0,1,.22-1l1.9,1.11a1.85,1.85,0,0,0-.23,1l4.08,67C196.68,430.14,197.07,430.41,197.53,430.22Z"/><path id="_Контур_94" data-name="&lt;Контур&gt;" class="cls-17" d="M214.47,355.5,229.16,347c.46-.26.86,0,.89.52l0,.34a1.72,1.72,0,0,1-.77,1.47l-14.69,8.54c-.46.26-.86,0-.89-.52l0-.34A1.72,1.72,0,0,1,214.47,355.5Z"/><path id="_Контур_95" data-name="&lt;Контур&gt;" class="cls-17" d="M214.83,361.33l14.69-8.54c.46-.26.86,0,.89.52l0,.34a1.72,1.72,0,0,1-.77,1.47L215,363.67c-.46.26-.86,0-.89-.52l0-.34A1.72,1.72,0,0,1,214.83,361.33Z"/><path id="_Контур_96" data-name="&lt;Контур&gt;" class="cls-17" d="M215.19,367.16l14.69-8.54c.46-.26.86,0,.89.52l0,.34A1.72,1.72,0,0,1,230,361l-14.69,8.54c-.46.26-.86,0-.89-.52l0-.34A1.72,1.72,0,0,1,215.19,367.16Z"/><path id="_Контур_97" data-name="&lt;Контур&gt;" class="cls-17" d="M200.37,387.68l30.21-17.39c.46-.26.86,0,.89.52l0,.34a1.72,1.72,0,0,1-.77,1.47L200.51,390c-.46.26-.86,0-.89-.52l0-.34A1.72,1.72,0,0,1,200.37,387.68Z"/><path id="_Контур_98" data-name="&lt;Контур&gt;" class="cls-17" d="M200,381.84l30.21-17.39c.46-.26.86,0,.89.52l0,.34a1.72,1.72,0,0,1-.77,1.47l-30.21,17.39c-.46.26-.86,0-.89-.52l0-.34A1.72,1.72,0,0,1,200,381.84Z"/><path id="_Контур_99" data-name="&lt;Контур&gt;" class="cls-17" d="M200.73,393.55l30.21-17.39c.46-.26.86,0,.89.52l0,.34a1.72,1.72,0,0,1-.77,1.47l-30.21,17.39c-.46.26-.86,0-.89-.52l0-.34A1.72,1.72,0,0,1,200.73,393.55Z"/><path id="_Контур_100" data-name="&lt;Контур&gt;" class="cls-17" d="M201.08,399.38,231.29,382c.46-.26.86,0,.89.52l0,.34a1.72,1.72,0,0,1-.77,1.47l-30.21,17.39c-.46.26-.86,0-.89-.52l0-.34A1.72,1.72,0,0,1,201.08,399.38Z"/><path id="_Контур_101" data-name="&lt;Контур&gt;" class="cls-17" d="M201.44,405.21l30.21-17.39c.46-.26.86,0,.89.52l0,.34a1.72,1.72,0,0,1-.77,1.47l-30.21,17.39c-.46.26-.86,0-.89-.52l0-.34A1.72,1.72,0,0,1,201.44,405.21Z"/><path id="_Контур_102" data-name="&lt;Контур&gt;" class="cls-17" d="M201.79,411,232,393.65c.46-.26.86,0,.89.52l0,.34a1.72,1.72,0,0,1-.77,1.47l-30.21,17.39c-.46.26-.86,0-.89-.52l0-.34A1.72,1.72,0,0,1,201.79,411Z"/><path id="_Контур_103" data-name="&lt;Контур&gt;" class="cls-17" d="M202.15,416.87l30.21-17.39c.46-.26.86,0,.89.52l0,.34a1.72,1.72,0,0,1-.77,1.47L202.29,419.2c-.46.26-.86,0-.89-.52l0-.34A1.72,1.72,0,0,1,202.15,416.87Z"/><g id="_Группа_34" data-name="&lt;Группа&gt;"><g id="_Группа_35" data-name="&lt;Группа&gt;"><polygon id="_Контур_104" data-name="&lt;Контур&gt;" class="cls-4" points="198.29 363.84 210.49 356.85 211.38 371.49 199.18 378.47 198.29 363.84"/></g><path class="cls-16" d="M200.27,365.35l.27,4.39.38-.23-.08-1.35a2.51,2.51,0,0,1,1.22-2.09l1.8-1,.4,6.53a2.55,2.55,0,0,1-1,2.21l-1.13.65,0,.47,6.1-3.49,0-.47-1.13.65c-.63.36-1.18,0-1.23-.91l-.4-6.53,1.8-1c.72-.41,1.34-.14,1.38.6l.08,1.35.38-.21-.27-4.39Z"/></g></g><g id="Document-3" data-name="Document"><path id="_Контур_105" data-name="&lt;Контур&gt;" class="cls-15" d="M213.08,440.16a2.33,2.33,0,0,1-1-1.68l-4.08-67a2,2,0,0,1,.87-1.67l41.67-23.92a2.08,2.08,0,0,1,1.89,0,2.33,2.33,0,0,1,1,1.68l4.08,67a2,2,0,0,1-.87,1.67L215,440.17A2.08,2.08,0,0,1,213.08,440.16Z"/><g id="_Группа_36" data-name="&lt;Группа&gt;"><path class="cls-16" d="M214.56,440c-.3,0-.34-.37-.35-.48l-4.08-67a1.7,1.7,0,0,1,.75-1.44l41.67-23.92a.6.6,0,0,1,.29-.09c.3,0,.34.37.35.48l4.08,67a1.71,1.71,0,0,1-.75,1.44L214.85,440a.6.6,0,0,1-.29.09Z"/><path class="cls-19" d="M252.84,347.41c.06,0,.1.15.1.25l4.08,67a1.45,1.45,0,0,1-.62,1.21l-41.67,23.92a.35.35,0,0,1-.16.06c-.06,0-.1-.15-.1-.25l-4.08-67a1.45,1.45,0,0,1,.62-1.21l41.67-23.92a.35.35,0,0,1,.16-.06m0-.5a.84.84,0,0,0-.41.12L210.76,371a2,2,0,0,0-.87,1.67l4.08,67c0,.45.27.71.6.71a.84.84,0,0,0,.41-.12l41.67-23.92a2,2,0,0,0,.87-1.67l-4.08-67c0-.45-.27-.71-.6-.71Z"/></g><path id="_Контур_106" data-name="&lt;Контур&gt;" class="cls-17" d="M214.85,440.23a2.09,2.09,0,0,1-1.76-.08,2.33,2.33,0,0,1-1-1.68l-4.08-67a1.91,1.91,0,0,1,.22-1l1.9,1.11a1.85,1.85,0,0,0-.23,1l4.08,67C214,440.15,214.39,440.42,214.85,440.23Z"/><path id="_Контур_107" data-name="&lt;Контур&gt;" class="cls-17" d="M231.79,365.51,246.48,357c.46-.26.86,0,.89.52l0,.34a1.72,1.72,0,0,1-.77,1.47l-14.69,8.54c-.46.26-.86,0-.89-.52l0-.34A1.72,1.72,0,0,1,231.79,365.51Z"/><path id="_Контур_108" data-name="&lt;Контур&gt;" class="cls-17" d="M232.15,371.34l14.69-8.54c.46-.26.86,0,.89.52l0,.34a1.72,1.72,0,0,1-.77,1.47l-14.69,8.54c-.46.26-.86,0-.89-.52l0-.34A1.72,1.72,0,0,1,232.15,371.34Z"/><path id="_Контур_109" data-name="&lt;Контур&gt;" class="cls-17" d="M232.5,377.17l14.69-8.54c.46-.26.86,0,.89.52l0,.34a1.72,1.72,0,0,1-.77,1.47l-14.69,8.54c-.46.26-.86,0-.89-.52l0-.34A1.72,1.72,0,0,1,232.5,377.17Z"/><path id="_Контур_110" data-name="&lt;Контур&gt;" class="cls-17" d="M217.69,397.68l30.21-17.39c.46-.26.86,0,.89.52l0,.34a1.72,1.72,0,0,1-.77,1.47L217.83,400c-.46.26-.86,0-.89-.52l0-.34A1.72,1.72,0,0,1,217.69,397.68Z"/><path id="_Контур_111" data-name="&lt;Контур&gt;" class="cls-17" d="M217.33,391.85l30.21-17.39c.46-.26.86,0,.89.52l0,.34a1.72,1.72,0,0,1-.77,1.47l-30.21,17.39c-.46.26-.86,0-.89-.52l0-.34A1.72,1.72,0,0,1,217.33,391.85Z"/><path id="_Контур_112" data-name="&lt;Контур&gt;" class="cls-17" d="M218,403.56l30.21-17.39c.46-.26.86,0,.89.52l0,.34a1.72,1.72,0,0,1-.77,1.47l-30.21,17.39c-.46.26-.86,0-.89-.52l0-.34A1.72,1.72,0,0,1,218,403.56Z"/><path id="_Контур_113" data-name="&lt;Контур&gt;" class="cls-17" d="M218.4,409.39,248.61,392c.46-.26.86,0,.89.52l0,.34a1.72,1.72,0,0,1-.77,1.47l-30.21,17.39c-.46.26-.86,0-.89-.52l0-.34A1.72,1.72,0,0,1,218.4,409.39Z"/><path id="_Контур_114" data-name="&lt;Контур&gt;" class="cls-17" d="M218.76,415.22,249,397.83c.46-.26.86,0,.89.52l0,.34a1.72,1.72,0,0,1-.77,1.47L218.9,417.55c-.46.26-.86,0-.89-.52l0-.34A1.72,1.72,0,0,1,218.76,415.22Z"/><path id="_Контур_115" data-name="&lt;Контур&gt;" class="cls-17" d="M219.11,421l30.21-17.39c.46-.26.86,0,.89.52l0,.34a1.72,1.72,0,0,1-.77,1.47l-30.21,17.39c-.46.26-.86,0-.89-.52l0-.34A1.72,1.72,0,0,1,219.11,421Z"/><path id="_Контур_116" data-name="&lt;Контур&gt;" class="cls-17" d="M219.47,426.88l30.21-17.39c.46-.26.86,0,.89.52l0,.34a1.72,1.72,0,0,1-.77,1.47l-30.21,17.39c-.46.26-.86,0-.89-.52l0-.34A1.72,1.72,0,0,1,219.47,426.88Z"/><g id="_Группа_37" data-name="&lt;Группа&gt;"><g id="_Группа_38" data-name="&lt;Группа&gt;"><polygon id="_Контур_117" data-name="&lt;Контур&gt;" class="cls-4" points="215.6 373.85 227.81 366.86 228.7 381.5 216.5 388.48 215.6 373.85"/></g><path class="cls-16" d="M217.59,375.36l.27,4.39.38-.23-.08-1.35a2.51,2.51,0,0,1,1.22-2.09l1.8-1,.4,6.53a2.55,2.55,0,0,1-1,2.21l-1.13.65,0,.47,6.1-3.49,0-.47-1.13.65c-.63.36-1.18,0-1.23-.91l-.4-6.53,1.8-1c.72-.41,1.34-.14,1.38.6l.08,1.35.38-.21-.27-4.39Z"/></g></g><polygon id="_Контур_118" data-name="&lt;Контур&gt;" class="cls-4" points="221.56 415.23 221.56 453.27 166.82 421.6 166.82 383.56 221.56 415.23"/><polygon id="_Контур_119" data-name="&lt;Контур&gt;" class="cls-25" points="221.56 415.23 221.56 453.27 166.82 421.6 166.82 383.56 221.56 415.23"/><polygon id="_Контур_120" data-name="&lt;Контур&gt;" class="cls-4" points="270.16 425.21 270.16 387.17 221.56 415.23 221.56 453.27 270.16 425.21"/><polygon id="_Контур_121" data-name="&lt;Контур&gt;" class="cls-23" points="270.16 425.21 270.16 387.17 221.56 415.23 221.56 453.27 270.16 425.21"/><polygon class="cls-26" points="270.16 387.17 221.56 415.23 221.56 453.27 222.46 415.99 270.16 387.17"/><polygon id="_Контур_122" data-name="&lt;Контур&gt;" class="cls-4" points="221.56 415.23 226.12 396.81 274.28 369 270.16 387.17 221.56 415.23"/><polygon id="_Контур_123" data-name="&lt;Контур&gt;" class="cls-18" points="221.56 415.23 226.12 396.81 274.28 369 270.16 387.17 221.56 415.23"/><polygon id="_Контур_124" data-name="&lt;Контур&gt;" class="cls-4" points="166.82 383.56 155.39 367.77 210.13 399.44 221.56 415.23 166.82 383.56"/><polygon id="_Контур_125" data-name="&lt;Контур&gt;" class="cls-27" points="166.82 383.56 155.39 367.77 210.13 399.44 221.56 415.23 166.82 383.56"/><polygon class="cls-26" points="155.39 367.77 210.13 399.44 221.56 415.23 209.52 399.99 155.39 367.77"/><g id="_Группа_39" data-name="&lt;Группа&gt;" class="cls-28"><g id="_Группа_40" data-name="&lt;Группа&gt;"><g id="_Группа_41" data-name="&lt;Группа&gt;"><path id="_Контур_126" data-name="&lt;Контур&gt;" class="cls-5" d="M235.87,442a.3.3,0,0,1-.3-.3V435a.3.3,0,1,1,.6,0v6.69A.3.3,0,0,1,235.87,442Z"/></g><g id="_Группа_42" data-name="&lt;Группа&gt;"><path id="_Контур_127" data-name="&lt;Контур&gt;" class="cls-5" d="M235,437.28l-.12,0a.3.3,0,0,1-.16-.39l1.06-2.46,1.19,1.37a.3.3,0,0,1-.45.39l-.56-.65-.69,1.58A.3.3,0,0,1,235,437.28Z"/></g></g><g id="_Группа_43" data-name="&lt;Группа&gt;"><g id="_Группа_44" data-name="&lt;Группа&gt;"><path id="_Контур_128" data-name="&lt;Контур&gt;" class="cls-5" d="M238.63,440.38a.3.3,0,0,1-.3-.3v-6.69a.3.3,0,1,1,.6,0v6.69A.3.3,0,0,1,238.63,440.38Z"/></g><g id="_Группа_45" data-name="&lt;Группа&gt;"><path id="_Контур_129" data-name="&lt;Контур&gt;" class="cls-5" d="M237.76,435.71l-.12,0a.3.3,0,0,1-.16-.39l1.06-2.45,1.19,1.37a.3.3,0,0,1-.45.39l-.56-.65-.68,1.58A.3.3,0,0,1,237.76,435.71Z"/></g></g></g><g id="_Группа_46" data-name="&lt;Группа&gt;" class="cls-28"><g id="_Группа_47" data-name="&lt;Группа&gt;"><path id="_Контур_130" data-name="&lt;Контур&gt;" class="cls-5" d="M227.9,446.5a.66.66,0,0,1-.33-.08.79.79,0,0,1-.36-.72v-.82a.3.3,0,0,1,.6,0v.82c0,.12,0,.19.06.2s.09,0,.2-.05a1.75,1.75,0,0,0,.56-1.35v-3.43a.3.3,0,1,1,.6,0v3.43a2.27,2.27,0,0,1-.85,1.87A.93.93,0,0,1,227.9,446.5Z"/></g><g id="_Группа_48" data-name="&lt;Группа&gt;"><path id="_Составной_контур_3" data-name="&lt;Составной контур&gt;" class="cls-5" d="M224.76,443.74v-.52a8.46,8.46,0,0,1,3.82-6.62A2.53,2.53,0,0,1,232.7,439v.17Zm5.61-7.08a3,3,0,0,0-1.49.46,7.89,7.89,0,0,0-3.49,5.57l6.71-3.88a2.21,2.21,0,0,0-.92-1.95A1.6,1.6,0,0,0,230.37,436.66Z"/></g></g></g></g><g id="Character-2" data-name="Character"><g id="Character-3" data-name="Character"><g id="_Группа_49" data-name="&lt;Группа&gt;"><path class="cls-22" d="M386,372.35c-.4,0-.39,1.13-.26,1.64s1.69,2.26,4.55,2.95,6.85.27,8.56.26,4.63.9,6.32,1.21,4.77-.18,5.81-1.11a1.78,1.78,0,0,0,.46-1.39c0-1.13-.1-1.36-.23-1.36Z"/><g id="_Группа_50" data-name="&lt;Группа&gt;"><g id="_Группа_51" data-name="&lt;Группа&gt;"><path id="_Контур_131" data-name="&lt;Контур&gt;" class="cls-9" d="M410.94,371.16c0,.22.08.45.12.68a11.32,11.32,0,0,1,.1,3.49,3.16,3.16,0,0,1-2.12,1.47,10.66,10.66,0,0,1-5.79-.13,16.94,16.94,0,0,0-4.38-.6,42.09,42.09,0,0,1-5.95,0,14.18,14.18,0,0,1-4.33-1.07,5.47,5.47,0,0,1-2.56-2.47,4,4,0,0,1,2.37-3.88,8.94,8.94,0,0,1,4.46-.76c1.66.07,2.91.34,4.39.29a7.24,7.24,0,0,0,3-.6,2.89,2.89,0,0,0,1-1.28c.26-.51.36-1,.83-1,0,0,7,.12,7.67.21s.84,2.92.92,3.47.06.89.15,1.31S410.89,370.88,410.94,371.16Z"/></g></g><path class="cls-16" d="M396,367.88a1,1,0,0,0-.36-.14c-.67-.13-1.21.52-1.52,1a4.22,4.22,0,0,0-.39,1,2.37,2.37,0,0,0-.07,1.32c0,.11.11.24.22.22s.13-.15.15-.25a5.09,5.09,0,0,1,.57-1.75,2.05,2.05,0,0,1,.44-.63,1.93,1.93,0,0,1,.69-.4c.1,0,.56,0,.45-.22a.28.28,0,0,0-.09-.09Z"/><path class="cls-16" d="M397.93,367.95a1.28,1.28,0,0,0-.9.22,1.83,1.83,0,0,0-.56.87,2.8,2.8,0,0,0-.13,2.27c.12.21.3.11.38-.07a3.07,3.07,0,0,0,.11-.7,6.38,6.38,0,0,1,.47-1.49,2.34,2.34,0,0,1,.3-.54,1,1,0,0,1,.31-.27.66.66,0,0,1,.19-.07l.19,0c0-.1-.1-.15-.2-.18Z"/><path class="cls-16" d="M399.92,367.46a1.23,1.23,0,0,0-.59.37,1.65,1.65,0,0,0-.29.59,6.25,6.25,0,0,0-.32,1.47,1.83,1.83,0,0,0,.21,1c.07.12.2.24.33.19s.14-.28.15-.41,0-.48,0-.72a4.19,4.19,0,0,1,.89-2.4.15.15,0,0,0,0-.12c0-.06-.1-.07-.17-.06Z"/><path class="cls-16" d="M393.9,368c-.68,0-2.16.85-2.94,2.94a12,12,0,0,0-.47,4.75,6.78,6.78,0,0,1-3.76-1.93,4.09,4.09,0,0,1-.92-1.24,4.21,4.21,0,0,1,.82-3.19,6.52,6.52,0,0,1,5-1.94c2.73-.05,2.95.68,2.95.68Z"/><path id="_Контур_132" data-name="&lt;Контур&gt;" class="cls-29" d="M410.06,360.84s-.22,3.58-.5,5.24c-.16.94-1.08,2.38-4,2.32a3.35,3.35,0,0,1-3.41-2.24,58.94,58.94,0,0,1-.16-6.55Z"/></g><path class="cls-29" d="M459.25,352l-4.32-10.77-9.43,3.24s6.58,9.5,7.36,10.53C454.14,356.75,459.25,352,459.25,352Z"/><path id="_Контур_133" data-name="&lt;Контур&gt;" class="cls-9" d="M463.53,355a5.53,5.53,0,0,1,0,1.3l-.34,4.51a11.25,11.25,0,0,1-.25,1.77,10.88,10.88,0,0,0-.08,2.14c0,.75,0,1.5,0,2.25a4,4,0,0,0,0,1c.08.31-4.74,3.07-6.69,4.14l-.35.17a3.07,3.07,0,0,1-3.16-.74,5.36,5.36,0,0,1,1.31-5.9s.25,0,.2-1.89c0-1.35,0-2.73-.15-4.08a8.77,8.77,0,0,0-.64-2.47,6,6,0,0,1-.83-2.29,3.44,3.44,0,0,1,.76-1.59,4.83,4.83,0,0,1,1.18-1.28,8.48,8.48,0,0,1,3.41-1.68,1.46,1.46,0,0,1,.76,0c.39.12.62.5.87.81a8.79,8.79,0,0,0,2.18,1.62,3.86,3.86,0,0,1,1.78,2A2.45,2.45,0,0,1,463.53,355Z"/><path id="_Контур_134" data-name="&lt;Контур&gt;" class="cls-16" d="M453.94,365.62a6.76,6.76,0,0,0-.63.91h0a6.78,6.78,0,0,0-.68,5c-3.4-.31-4.3-2.28-4.3-2.28a3.27,3.27,0,0,1,1.77-2.93,4.66,4.66,0,0,1,.74-.39l0,0A5,5,0,0,1,453.94,365.62Z"/><path id="_Контур_135" data-name="&lt;Контур&gt;" class="cls-4" d="M464.48,355.52c.9.35.67,2.8.1,5.17s-.87,3.19-.59,5.16.45,2.85-.35,3.57-7.18,3.7-7.18,3.7a23.46,23.46,0,0,0,1.43-7.39c.17-4.36.46-7.17,2.48-9.15A3.83,3.83,0,0,1,464.48,355.52Z"/><path id="_Контур_136" data-name="&lt;Контур&gt;" class="cls-18" d="M464.48,355.52c.9.35.67,2.8.1,5.17s-.87,3.19-.59,5.16.45,2.85-.35,3.57-7.18,3.7-7.18,3.7a23.46,23.46,0,0,0,1.43-7.39c.17-4.36.46-7.17,2.48-9.15A3.83,3.83,0,0,1,464.48,355.52Z"/><path id="_Контур_137" data-name="&lt;Контур&gt;" class="cls-22" d="M448.33,369.25a11.9,11.9,0,0,0,5.33,2.33c2.85.32,3-.77,3.29-4.15s.42-8,1.74-10.1,3.56-3,4.44-2.76c.18-.09,1.05.56,1.34,1a4.87,4.87,0,0,0-3.73,1.5c-1.78,1.74-2.1,5.41-2.19,8.75s-.23,7.2-2.89,7.61a9.68,9.68,0,0,1-7.24-2.2A1.35,1.35,0,0,1,448.33,369.25Z"/><path id="_Контур_138" data-name="&lt;Контур&gt;" class="cls-16" d="M454.15,364.38a.94.94,0,0,0-.39.62,1.91,1.91,0,0,0,1,1.75c.36.21.67.12.09-.58A3.66,3.66,0,0,1,454.15,364.38Z"/><path id="_Контур_139" data-name="&lt;Контур&gt;" class="cls-16" d="M454.09,362a.82.82,0,0,0-.24.51,2.92,2.92,0,0,0,1.17,1.84c.63.28.29-.41,0-.73A12.48,12.48,0,0,1,454.09,362Z"/><path id="_Контур_140" data-name="&lt;Контур&gt;" class="cls-16" d="M453.93,359.44a.57.57,0,0,0-.3.42c0,.27,1.27,1.24,1.67,1.2s.5-.16,0-.5S453.93,359.44,453.93,359.44Z"/><path id="_Контур_141" data-name="&lt;Контур&gt;" class="cls-9" d="M448.52,349.43s-20.6-30.73-21.22-33.14-4.53-27.5-4.53-27.5l-8.06,29.55a49.24,49.24,0,0,1,.73,8.31,73.91,73.91,0,0,1-1.64,14.52c-2.15,10.16-3.37,19.88-3.37,19.88a8.15,8.15,0,0,1-4.41,1,9.23,9.23,0,0,1-4.32-1.23s-1.12-27.47-1.44-33.77-.52-9.11-.17-13.25c.48-5.65.74-11.52,1.83-23.74,1-10.74,2.9-33.6,2.9-33.6l33.09-2.19s2.79,5.28,3.12,19c.26,10.71.24,40.11.24,40.11,4.91,3.08,6.42,6.27,8.76,12.3,1.48,3.8,5.29,15.6,6.41,19.09C452.31,345.88,448.52,349.43,448.52,349.43Z"/><g id="_Группа_52" data-name="&lt;Группа&gt;"><g id="_Группа_53" data-name="&lt;Группа&gt;"><path id="_Контур_142" data-name="&lt;Контур&gt;" class="cls-30" d="M354.21,272.21l-24,6.91-4.78,1.38h0a1.32,1.32,0,0,1-1.44-2l0,0,3.31-4.48,14.56-19.72,4.94,7.22Z"/><path id="_Контур_143" data-name="&lt;Контур&gt;" class="cls-29" d="M346.85,261.46,327.6,276.88l-3.67,2.93a1.27,1.27,0,0,1,.09-1.33l0,0,3.31-4.48,14.56-19.72Z"/><path id="_Контур_144" data-name="&lt;Контур&gt;" class="cls-22" d="M330.25,279.12l-4.78,1.38h0a1.32,1.32,0,0,1-1.44-2l0,0,3.31-4.48a5.22,5.22,0,0,0,.24,2.92A4.1,4.1,0,0,0,330.25,279.12Z"/><path id="_Контур_145" data-name="&lt;Контур&gt;" class="cls-4" d="M449.26,179.55l-2.35,1.64-2.85,2L341.92,254.24a13.85,13.85,0,0,0,1.72,10c2.57,4.62,7.08,8.05,10.55,8l101.38-70.56,5.43-3.78C457.36,200.11,445.63,181.86,449.26,179.55Z"/><path id="_Контур_146" data-name="&lt;Контур&gt;" class="cls-8" d="M449.26,179.55l-2.35,1.64-2.85,2L341.92,254.24a13.85,13.85,0,0,0,1.72,10c2.57,4.62,7.08,8.05,10.55,8l101.38-70.56,5.43-3.78C457.36,200.11,445.63,181.86,449.26,179.55Z"/><path id="_Контур_147" data-name="&lt;Контур&gt;" class="cls-4" d="M446.91,181.19l-2.85,2L341.92,254.24a13.85,13.85,0,0,0,1.72,10l105.08-74.05Z"/><path id="_Контур_148" data-name="&lt;Контур&gt;" class="cls-17" d="M440.28,185.76,435,189.43c-1.56,1-.27,4.94,2,8.93,3,5.3,7.75,10.68,9.82,9.35l3.87-2.71,1.39-1c-2.07,1.34-6.82-4-9.83-9.35-2.18-3.82-3.44-7.61-2.15-8.78h0A.38.38,0,0,1,440.28,185.76Z"/><path id="_Контур_149" data-name="&lt;Контур&gt;" class="cls-16" d="M442.27,194.67c-2.18-3.82-3.44-7.61-2.15-8.78h0a.38.38,0,0,1,.14-.12L435,189.43c-1.56,1-.27,4.94,2,8.93l5.24-3.68Z"/><path id="_Контур_150" data-name="&lt;Контур&gt;" class="cls-4" d="M439,186.69c-3.62,2.35,8.2,20.61,11.82,18.26l5.27-3.66c-3.62,2.35-15.45-15.91-11.82-18.26Z"/><path id="_Контур_151" data-name="&lt;Контур&gt;" class="cls-17" d="M449.26,179.55l-5.2,3.61c-3.57,2.28,7.67,20,11.52,18.48a.89.89,0,0,0,.22-.11l5.21-3.68C457.36,200.11,445.63,181.86,449.26,179.55Z"/><path id="_Контур_152" data-name="&lt;Контур&gt;" class="cls-30" d="M471.33,164.23l-22.07,15.32c-1.55,1-.3,4.88,1.93,8.85,3,5.31,7.73,10.75,9.82,9.45h0l21.22-14.75c5.23-3,.86-13.88-4.7-17.92C475.5,163.65,473.29,163.09,471.33,164.23Z"/><path id="_Контур_153" data-name="&lt;Контур&gt;" class="cls-29" d="M471.33,164.23l-22.07,15.32c-1.55,1-.3,4.88,1.93,8.85l22.25-14.73s-2.79-5.5-1.66-7.74,3.36-2.09,5.78-.75C475.5,163.65,473.29,163.09,471.33,164.23Z"/></g><path id="_Контур_154" data-name="&lt;Контур&gt;" class="cls-31" d="M444.24,183,439,186.69c-1.55,1-.27,4.93,2,8.9l5.25-3.69C444,187.94,442.7,184,444.24,183Z"/><path id="_Контур_155" data-name="&lt;Контур&gt;" class="cls-16" d="M449.26,179.55l-5.2,3.61c-1.56,1-.3,4.92,1.93,8.9l5.21-3.66C449,184.43,447.71,180.54,449.26,179.55Z"/></g><g id="_Группа_54" data-name="&lt;Группа&gt;"><g id="_Группа_55" data-name="&lt;Группа&gt;"><polygon id="_Контур_156" data-name="&lt;Контур&gt;" class="cls-29" points="415.73 209.76 416.85 221.96 427.76 221.33 426.94 207.8 415.73 209.76"/></g></g><g id="_Группа_56" data-name="&lt;Группа&gt;"><g id="_Группа_57" data-name="&lt;Группа&gt;"><path id="_Контур_157" data-name="&lt;Контур&gt;" class="cls-30" d="M407.69,196.34s-2.43,3.58-2.12,4a5.83,5.83,0,0,0,1.85.79Z"/></g><path class="cls-20" d="M434.13,187.33c-.34-.32-.72-.62-1-1a3.63,3.63,0,0,1-.39-.48c-.78-1.16-1.09-2.48-2-3.56a9.23,9.23,0,0,0-3.46-2.4,18.59,18.59,0,0,0-7.49-1,57.48,57.48,0,0,1-7.61,0,6.73,6.73,0,0,0-3.4.12,3.53,3.53,0,0,0-1.91,3.41,6.12,6.12,0,0,0,1.71,3.7,2.28,2.28,0,0,0-1.6,2.42,5.1,5.1,0,0,0,1.34,2.81c1.17,1.42,2.08,2.4,2.42,4.25.48,2.54,3.21,3.89,4.94,5.68a26.87,26.87,0,0,1,1.88,2l.1.15a3.23,3.23,0,0,1-1.54-.13s-.32,5.41,3.5,7.17a15.69,15.69,0,0,0,7.53-.4,27,27,0,0,0,6.71-7.73C436.39,198.16,438.33,191.27,434.13,187.33Z"/><g id="_Группа_58" data-name="&lt;Группа&gt;"><path class="cls-29" d="M419.55,202.34a2.89,2.89,0,0,1-2,1.19,3.19,3.19,0,0,1-1.54-.13s-.24,4.1,2.21,6.3c-.5.2-1,.36-1.36.48-2.2.65-6.41.36-7.22-.41-1.21-1.15-3.18-4.19-2.07-12.91a17.74,17.74,0,0,1,2.58-7.75,3.75,3.75,0,0,0,2.15,2.87,3.63,3.63,0,0,0-.6,3,7.23,7.23,0,0,0,2.13,3.11.43.43,0,0,0,.19.13,1.28,1.28,0,0,0,.78-.11c.78-1.14,1.85-2.46,3.94-1.76C421.21,197.19,421.07,200.14,419.55,202.34Z"/></g><path class="cls-30" d="M409.91,209.93c1,.55,3.79.78,5.88.49l-.06-1.57a15.41,15.41,0,0,1-2.79.9A10,10,0,0,1,409.91,209.93Z"/><path id="_Контур_158" data-name="&lt;Контур&gt;" class="cls-20" d="M413.71,201.2a2,2,0,0,1-1.23-2.6,2.08,2.08,0,0,1,2.65-1.21Z"/></g><path id="_Контур_159" data-name="&lt;Контур&gt;" class="cls-6" d="M422.74,288.9l2.8-12s4.77.34,10.63-4.35c0,0-.68,4.19-8.95,6.14l-2.74,11.76.86,14.57S422.78,289.17,422.74,288.9Z"/><g id="_Группа_59" data-name="&lt;Группа&gt;"><path id="_Контур_160" data-name="&lt;Контур&gt;" class="cls-4" d="M437.06,218.17c-1-3.15-2.62-4.32-4.16-4.62a33,33,0,0,0-5.64,0c-.34,1.75-6,3-11.06,1.19l-5.1.8c-4.51,2.08-5.53,7.27-7.91,12.58a8.63,8.63,0,0,0,2.44,10.56s-.44,6.38-.68,10q-.52,8-1.11,16s5,4.57,20.48,4c11.33-.42,15.37-4.21,16-5.94-.61-7.12-4.19-13.83-4.89-16a13.43,13.43,0,0,1-.67-6.84C437.54,229.15,438.51,222.55,437.06,218.17Z"/><path id="_Контур_161" data-name="&lt;Контур&gt;" class="cls-31" d="M437.06,218.17c-1-3.15-2.62-4.32-4.16-4.62a33,33,0,0,0-5.64,0c-.34,1.75-6,3-11.06,1.19l-5.1.8c-4.51,2.08-5.53,7.27-7.91,12.58a8.63,8.63,0,0,0,2.44,10.56s-.44,6.38-.68,10q-.52,8-1.11,16s5,4.57,20.48,4c11.33-.42,15.37-4.21,16-5.94-.61-7.12-4.19-13.83-4.89-16a13.43,13.43,0,0,1-.67-6.84C437.54,229.15,438.51,222.55,437.06,218.17Z"/></g><path id="_Контур_162" data-name="&lt;Контур&gt;" class="cls-29" d="M413,215.35c-8.76.47-9.33,2.39-13.35,10.57-2.13,4.32-5.47,13-7.48,17.18-4.42,2-14.62,3.64-18.64,2.77a3.24,3.24,0,0,1-2-1.26c-1.28-1.8-2.55-2.05-4.1-3.34-1.2-1-1.55-1.9-1.9-1.73a1.78,1.78,0,0,0-.65,2.33,9.08,9.08,0,0,0,1.36,2.14,18.22,18.22,0,0,1-4.49-2.38c-3.32-2.35-5.26-2.33-5,2.85.19,3.25,2.37,5.7,9.68,7.65a58.31,58.31,0,0,0,8.18,1.73,77.81,77.81,0,0,0,20.95-1.34,7.74,7.74,0,0,0,3.89-2.42c2.81-2.9,9.27-15.63,9.27-15.63C413.73,226.74,414.15,219.7,413,215.35Z"/></g></g><g id="Speech_Bubble" data-name="Speech Bubble"><g id="Speech_Bubble-2" data-name="Speech Bubble"><g id="Speech_Bubble-3" data-name="Speech Bubble"><path class="cls-4" d="M417.71,154.38a.74.74,0,0,1-.27-.27l-3.4-5.88V145l10-3.91v3.24l-1.21,3.5,5.94-3.43.36,2L425.6,158a.74.74,0,0,1-1.07.4Z"/><path class="cls-18" d="M417.71,154.38a.74.74,0,0,1-.27-.27l-3.4-5.88V145l10-3.91v3.24l-1.21,3.5,5.94-3.43.36,2L425.6,158a.74.74,0,0,1-1.07.4Z"/><path class="cls-4" d="M428.77,144.39l.36,2L425.6,158a.74.74,0,0,1-1.34.13l-3.84-6.65.44-2.47Z"/><path class="cls-8" d="M428.77,144.39l.36,2L425.6,158a.74.74,0,0,1-1.34.13l-3.84-6.65.44-2.47Z"/><g id="_Группа_60" data-name="&lt;Группа&gt;"><path id="_Контур_163" data-name="&lt;Контур&gt;" class="cls-4" d="M441.16,110.92a7.16,7.16,0,0,0-3.24-5.61h0a7.15,7.15,0,0,0-6.47,0l-30.32,17.38a7.15,7.15,0,0,0-3.24,5.61v25a7.16,7.16,0,0,0,3.24,5.61h0a7.15,7.15,0,0,0,6.47,0l30.63-17.6c2.91-1.66,2.93-3.32,2.93-5.39Z"/><path id="_Контур_164" data-name="&lt;Контур&gt;" class="cls-8" d="M441.16,110.92a7.16,7.16,0,0,0-3.24-5.61h0a7.15,7.15,0,0,0-6.47,0l-30.32,17.38a7.15,7.15,0,0,0-3.24,5.61v25a7.16,7.16,0,0,0,3.24,5.61h0a7.15,7.15,0,0,0,6.47,0l30.63-17.6c2.91-1.66,2.93-3.32,2.93-5.39Z"/><path id="_Контур_165" data-name="&lt;Контур&gt;" class="cls-8" d="M397.89,153.28a7.16,7.16,0,0,0,3.24,5.61h0a7.24,7.24,0,0,0,5.92.27c-1.52.58-2.68-.29-2.68-2.14V132a6.62,6.62,0,0,1,.95-3.19l-6.47-3.73a6.62,6.62,0,0,0-.95,3.19Z"/><path id="_Контур_166" data-name="&lt;Контур&gt;" class="cls-4" d="M441.06,110c-.38-1.37-1.63-1.81-3.13-1L407.6,126.44a6.42,6.42,0,0,0-2.28,2.42l-6.47-3.73a6.53,6.53,0,0,1,2.28-2.42l30.32-17.39a7.2,7.2,0,0,1,6.48,0h0A7.14,7.14,0,0,1,441.06,110Z"/></g></g><path class="cls-16" d="M429.24,130.87c0,1.53,1.07,2.15,2.4,1.38a5.3,5.3,0,0,0,2.4-4.15c0-1.53-1.07-2.15-2.4-1.38A5.3,5.3,0,0,0,429.24,130.87Z"/><path class="cls-16" d="M420.37,136c0,1.53,1.07,2.15,2.4,1.38a5.3,5.3,0,0,0,2.4-4.15c0-1.53-1.07-2.15-2.4-1.38A5.3,5.3,0,0,0,420.37,136Z"/><path class="cls-16" d="M411.49,141.12c0,1.53,1.07,2.15,2.4,1.38a5.3,5.3,0,0,0,2.4-4.15c0-1.53-1.07-2.15-2.4-1.38A5.3,5.3,0,0,0,411.49,141.12Z"/></g></g></svg>